<?xml version="1.0" encoding="UTF-8" standalone="no"?>
<svg
   xmlns:dc="http://purl.org/dc/elements/1.1/"
   xmlns:cc="http://creativecommons.org/ns#"
   xmlns:rdf="http://www.w3.org/1999/02/22-rdf-syntax-ns#"
   xmlns:svg="http://www.w3.org/2000/svg"
   xmlns="http://www.w3.org/2000/svg"
   xmlns:sodipodi="http://sodipodi.sourceforge.net/DTD/sodipodi-0.dtd"
   xmlns:inkscape="http://www.inkscape.org/namespaces/inkscape"
   version="1.1"
   id="svg2"
   viewBox="0 0 22.299999 40"
   height="40"
   width="22.299999"
   sodipodi:docname="peg.svg"
   inkscape:version="0.92.2 5c3e80d, 2017-08-06">
  <sodipodi:namedview
     pagecolor="#ffffff"
     bordercolor="#666666"
     borderopacity="1"
     objecttolerance="10"
     gridtolerance="10"
     guidetolerance="10"
     inkscape:pageopacity="0"
     inkscape:pageshadow="2"
     inkscape:window-width="1366"
     inkscape:window-height="719"
     id="namedview7"
     showgrid="false"
     inkscape:zoom="1"
     inkscape:cx="38.695147"
     inkscape:cy="-24.874997"
     inkscape:window-x="0"
     inkscape:window-y="0"
     inkscape:window-maximized="0"
     inkscape:current-layer="svg2" />
  <defs
     id="defs4" />
  <metadata
     id="metadata7">
    <rdf:RDF>
      <cc:Work
         rdf:about="">
        <dc:format>image/svg+xml</dc:format>
        <dc:type
           rdf:resource="http://purl.org/dc/dcmitype/StillImage" />
        <dc:title></dc:title>
      </cc:Work>
    </rdf:RDF>
  </metadata>
  <path
     inkscape:connector-curvature="0"
     d="m 11.285716,24.482146 c -0.969868,0 -1.9176911,-0.110221 -2.8214303,-0.330638 v 14.437781 c 0,0.771485 0.6392303,1.410713 1.4107149,1.410713 H 12.69643 c 0.771485,0 1.410715,-0.639228 1.410715,-1.410713 V 24.151508 c -0.903739,0.220425 -1.851564,0.330638 -2.821429,0.330638 z m 0,-23.982146 C 5.0477126,0.5 0,5.5477126 0,11.785716 c 0,6.238002 5.0477126,11.285715 11.285716,11.285715 6.238001,0 11.285714,-5.047713 11.285714,-11.285715 C 22.571431,5.5477126 17.523717,0.5 11.285716,0.5 Z m 0,4.9375004 c -3.5047444,0 -6.3482156,2.8434712 -6.3482156,6.3482156 0,0.396763 -0.3085931,0.705356 -0.7053565,0.705356 -0.3967632,0 -0.7053584,-0.308593 -0.7053584,-0.705356 0,-4.276229 3.4827015,-7.7589305 7.7589305,-7.7589305 0.396763,0 0.705356,0.3085952 0.705356,0.7053583 0,0.3967635 -0.308593,0.7053566 -0.705356,0.7053566 z"
     style="font-style:normal;font-variant:normal;font-weight:normal;font-stretch:normal;font-size:18.75px;line-height:1000%;font-family:FontAwesome;-inkscape-font-specification:'FontAwesome, Normal';text-align:start;letter-spacing:0px;word-spacing:0px;writing-mode:lr-tb;text-anchor:start;fill:#657b83;fill-opacity:1;stroke:none;stroke-width:6.86666632px;stroke-linecap:butt;stroke-linejoin:miter;stroke-opacity:1"
     id="path4140" />
</svg>
