<?xml version="1.0" encoding="UTF-8" standalone="no"?>
<svg
   xmlns:dc="http://purl.org/dc/elements/1.1/"
   xmlns:cc="http://creativecommons.org/ns#"
   xmlns:rdf="http://www.w3.org/1999/02/22-rdf-syntax-ns#"
   xmlns:svg="http://www.w3.org/2000/svg"
   xmlns="http://www.w3.org/2000/svg"
   xmlns:sodipodi="http://sodipodi.sourceforge.net/DTD/sodipodi-0.dtd"
   xmlns:inkscape="http://www.inkscape.org/namespaces/inkscape"
   version="1.1"
   id="svg2"
   viewBox="0 0 73.571434 128.75"
   height="128.75"
   width="73.571434"
   sodipodi:docname="peg.svg"
   inkscape:version="0.92.2 5c3e80d, 2017-08-06">
  <sodipodi:namedview
     pagecolor="#ffffff"
     bordercolor="#666666"
     borderopacity="1"
     objecttolerance="10"
     gridtolerance="10"
     guidetolerance="10"
     inkscape:pageopacity="0"
     inkscape:pageshadow="2"
     inkscape:window-width="1366"
     inkscape:window-height="719"
     id="namedview7"
     showgrid="false"
     inkscape:zoom="1.8330097"
     inkscape:cx="36.785717"
     inkscape:cy="64.375"
     inkscape:window-x="0"
     inkscape:window-y="0"
     inkscape:window-maximized="0"
     inkscape:current-layer="svg2" />
  <defs
     id="defs4" />
  <metadata
     id="metadata7">
    <rdf:RDF>
      <cc:Work
         rdf:about="">
        <dc:format>image/svg+xml</dc:format>
        <dc:type
           rdf:resource="http://purl.org/dc/dcmitype/StillImage" />
        <dc:title></dc:title>
      </cc:Work>
    </rdf:RDF>
  </metadata>
  <path
     inkscape:connector-curvature="0"
     d="m 36.785713,78.169648 c -3.161276,0 -6.250699,-0.359264 -9.196431,-1.07771 v 47.059852 c 0,2.51465 2.083567,4.59821 4.598216,4.59821 h 9.19643 c 2.514649,0 4.598216,-2.08356 4.598216,-4.59821 V 77.091938 c -2.945732,0.718473 -6.035162,1.07771 -9.196431,1.07771 z m 0,-78.1696465272688 C 16.452984,1.4727312e-6 -2.5e-6,16.452988 -2.5e-6,36.785717 c 0,20.332729 16.4529865,36.785715 36.7857155,36.785715 20.332729,0 36.785715,-16.452986 36.785715,-36.785715 C 73.571428,16.452988 57.118442,1.4727312e-6 36.785713,1.4727312e-6 Z m 0,16.0937505272688 c -11.423689,0 -20.691965,9.268276 -20.691965,20.691965 0,1.293247 -1.005857,2.299104 -2.299105,2.299104 -1.293247,0 -2.299111,-1.005857 -2.299111,-2.299104 0,-13.938338 11.351843,-25.290181 25.290181,-25.290181 1.293247,0 2.299104,1.005864 2.299104,2.299111 0,1.293248 -1.005857,2.299105 -2.299104,2.299105 z"
     style="font-style:normal;font-variant:normal;font-weight:normal;font-stretch:normal;font-size:18.75px;line-height:1000%;font-family:FontAwesome;-inkscape-font-specification:'FontAwesome, Normal';text-align:start;letter-spacing:0px;word-spacing:0px;writing-mode:lr-tb;text-anchor:start;fill:#657b83;fill-opacity:1;stroke:none;stroke-width:6.86666679px;stroke-linecap:butt;stroke-linejoin:miter;stroke-opacity:1"
     id="path4140" />
</svg>
