<?xml version="1.0" encoding="UTF-8" standalone="no"?>
<!-- Created with Inkscape (http://www.inkscape.org/) -->

<svg
   xmlns:dc="http://purl.org/dc/elements/1.1/"
   xmlns:cc="http://creativecommons.org/ns#"
   xmlns:rdf="http://www.w3.org/1999/02/22-rdf-syntax-ns#"
   xmlns:svg="http://www.w3.org/2000/svg"
   xmlns="http://www.w3.org/2000/svg"
   xmlns:xlink="http://www.w3.org/1999/xlink"
   xmlns:sodipodi="http://sodipodi.sourceforge.net/DTD/sodipodi-0.dtd"
   xmlns:inkscape="http://www.inkscape.org/namespaces/inkscape"
   width="260.37854"
   height="212.0704"
   viewBox="0 0 260.37854 212.0704"
   version="1.1"
   id="svg6778"
   inkscape:version="0.92.2 5c3e80d, 2017-08-06"
   sodipodi:docname="commit-often.svg">
  <defs
     id="defs6772">
    <marker
       inkscape:isstock="true"
       style="overflow:visible"
       id="marker1797"
       refX="0"
       refY="0"
       orient="auto"
       inkscape:stockid="TriangleOutL"
       inkscape:collect="always">
      <path
         transform="scale(0.8)"
         style="fill:#657b83;fill-opacity:1;fill-rule:evenodd;stroke:#657b83;stroke-width:1.00000003pt;stroke-opacity:1"
         d="M 5.77,0 -2.88,5 V -5 Z"
         id="path1795"
         inkscape:connector-curvature="0" />
    </marker>
  </defs>
  <sodipodi:namedview
     id="base"
     pagecolor="#ffffff"
     bordercolor="#666666"
     borderopacity="1.0"
     inkscape:pageopacity="0.0"
     inkscape:pageshadow="2"
     inkscape:zoom="1"
     inkscape:cx="115.00001"
     inkscape:cy="99.22775"
     inkscape:document-units="px"
     inkscape:current-layer="svg6778"
     showgrid="false"
     inkscape:window-width="1366"
     inkscape:window-height="719"
     inkscape:window-x="0"
     inkscape:window-y="1"
     inkscape:window-maximized="1"
     units="px"
     guidetolerance="20"
     inkscape:snap-global="false"
     fit-margin-top="0"
     fit-margin-left="0"
     fit-margin-right="0"
     fit-margin-bottom="0"
     showguides="true"
     inkscape:guide-bbox="true" />
  <metadata
     id="metadata6775">
    <rdf:RDF>
      <cc:Work
         rdf:about="">
        <dc:format>image/svg+xml</dc:format>
        <dc:type
           rdf:resource="http://purl.org/dc/dcmitype/StillImage" />
        <dc:title></dc:title>
      </cc:Work>
    </rdf:RDF>
  </metadata>
  <g
     id="g898"
     transform="matrix(-1.186403,-0.17811107,0,1.186403,85.177959,121.32848)"
     style="stroke-width:1.00086236">
    <g
       id="g888"
       transform="matrix(0.47587821,0,0,0.47587821,32.228041,53.153152)"
       style="stroke-width:0.55646902">
      <path
         id="path868"
         d="M 32,64 0,44.8 V 19.2 l 32,19.2 z"
         inkscape:connector-curvature="0"
         style="fill:#89664c;stroke-width:0.55646902" />
      <path
         id="path870"
         d="M 32,38.4 V 64 L 64,44.8 V 19.2 Z"
         inkscape:connector-curvature="0"
         style="fill:#fed0ac;stroke-width:0.55646902" />
      <path
         id="path872"
         d="M 0,19.2 32,38.4 64,19.2 32,0 Z"
         inkscape:connector-curvature="0"
         style="fill:#d3976e;stroke-width:0.55646902" />
      <path
         id="path874"
         d="M 50.9,27 19,7.8 13,11.4 45,30.6 Z"
         inkscape:connector-curvature="0"
         style="fill:#89664c;stroke-width:0.55646902" />
      <path
         id="path876"
         d="M 39.3,6.8 32.2,2.4 26.3,6 l 7.1,4.3 z"
         inkscape:connector-curvature="0"
         style="fill:#d0d0d0;stroke-width:0.55646902" />
      <path
         id="path878"
         d="m 50.8,27.1 -5.6,3.4 v 9.2 l 5.6,-3.4 z"
         inkscape:connector-curvature="0"
         style="fill:#d3976e;stroke-width:0.55646902" />
      <g
         id="g884"
         style="fill:#ffffff;stroke-width:0.55646902">
        <path
           id="path880"
           d="m 62.5,22.1 -5.7,3.4 v 9.2 l 5.7,-3.4 z"
           inkscape:connector-curvature="0"
           style="stroke-width:0.55646902" />
        <path
           id="path882"
           d="m 41.6,43.5 -7.7,4.6 V 60.7 L 41.6,56 Z"
           inkscape:connector-curvature="0"
           style="stroke-width:0.55646902" />
      </g>
      <path
         id="path886"
         d="m 45.2,56.1 5.6,-3.4 v -9.2 l -5.6,3.4 z"
         inkscape:connector-curvature="0"
         style="fill:#d3976e;stroke-width:0.55646902" />
    </g>
    <g
       id="g896"
       transform="matrix(0.19402154,0,0,0.19402154,59.377753,74.092439)"
       style="stroke-width:1.36485624">
      <path
         id="path890"
         d="M 29.1,12.9 H 19 L 12.9,19 V 29.1 L 43.8,64 64,43.8 29.1,12.9 m -6.4,9.8 c -0.9,0.9 -2.4,0.9 -3.4,0 -0.9,-0.9 -0.9,-2.4 0,-3.4 0.9,-0.9 2.4,-0.9 3.4,0 0.9,1 0.9,2.5 0,3.4"
         inkscape:connector-curvature="0"
         style="fill:#f2b200;stroke-width:1.36485624" />
      <path
         id="path892"
         d="M 21.9,20.8 C 21.6,19.5 21,18.2 20.3,17.1 18.6,14.3 16.2,12 13.4,10.3 9.6,8.1 5.3,7.1 0.9,6.7 0.4,6.7 0,7.2 0,7.6 c 0,0.5 0.4,0.9 0.9,0.9 4.7,0.4 9.5,1.7 13.4,4.5 1.1,0.8 2.4,2.1 3.3,3.3 0.2,0.2 -0.1,-0.2 0,0.1 0,0.1 0.1,0.1 0.1,0.2 0.1,0.1 0.2,0.3 0.3,0.4 0.2,0.3 0.4,0.5 0.5,0.8 0.3,0.5 0.5,0.9 0.8,1.4 0.1,0.1 0.1,0.3 0.2,0.4 0,0.1 0.1,0.1 0.1,0.2 0.1,0.2 0.2,0.5 0.2,0.7 0.1,0.2 0.1,0.4 0.2,0.6 0.3,1.4 2.2,0.9 1.9,-0.3"
         inkscape:connector-curvature="0"
         style="fill:#94989b;stroke-width:1.36485624" />
      <path
         id="path894"
         d="m 15.3,16.6 c 0,0 -0.1,-0.1 -0.1,-0.1 C 14.7,16.1 14.3,15.7 13.9,15.2 13,14.2 12.2,12.9 11.6,11.6 9.9,8.3 9,4.6 8.7,1 8.6,0.4 8.2,0 7.6,0 7.1,0 6.6,0.4 6.7,0.9 c 0.3,4 1.4,8 3.2,11.6 0.7,1.4 1.6,2.8 2.6,4 0.4,0.5 0.9,1 1.4,1.4 l 1.4,-1.3"
         inkscape:connector-curvature="0"
         style="fill:#3e4347;stroke-width:1.36485624" />
    </g>
  </g>
  <g
     id="use900"
     transform="matrix(-1.186403,-0.17811107,0,1.186403,85.177959,72.802618)"
     style="stroke-width:1.00086236">
    <g
       id="g1014"
       transform="matrix(0.47587821,0,0,0.47587821,32.228041,53.153152)"
       style="stroke-width:0.55646902">
      <path
         id="path994"
         d="M 32,64 0,44.8 V 19.2 l 32,19.2 z"
         inkscape:connector-curvature="0"
         style="fill:#89664c;stroke-width:0.55646902" />
      <path
         id="path996"
         d="M 32,38.4 V 64 L 64,44.8 V 19.2 Z"
         inkscape:connector-curvature="0"
         style="fill:#fed0ac;stroke-width:0.55646902" />
      <path
         id="path998"
         d="M 0,19.2 32,38.4 64,19.2 32,0 Z"
         inkscape:connector-curvature="0"
         style="fill:#d3976e;stroke-width:0.55646902" />
      <path
         id="path1000"
         d="M 50.9,27 19,7.8 13,11.4 45,30.6 Z"
         inkscape:connector-curvature="0"
         style="fill:#89664c;stroke-width:0.55646902" />
      <path
         id="path1002"
         d="M 39.3,6.8 32.2,2.4 26.3,6 l 7.1,4.3 z"
         inkscape:connector-curvature="0"
         style="fill:#d0d0d0;stroke-width:0.55646902" />
      <path
         id="path1004"
         d="m 50.8,27.1 -5.6,3.4 v 9.2 l 5.6,-3.4 z"
         inkscape:connector-curvature="0"
         style="fill:#d3976e;stroke-width:0.55646902" />
      <g
         id="g1010"
         style="fill:#ffffff;stroke-width:0.55646902">
        <path
           id="path1006"
           d="m 62.5,22.1 -5.7,3.4 v 9.2 l 5.7,-3.4 z"
           inkscape:connector-curvature="0"
           style="stroke-width:0.55646902" />
        <path
           id="path1008"
           d="m 41.6,43.5 -7.7,4.6 V 60.7 L 41.6,56 Z"
           inkscape:connector-curvature="0"
           style="stroke-width:0.55646902" />
      </g>
      <path
         id="path1012"
         d="m 45.2,56.1 5.6,-3.4 v -9.2 l -5.6,3.4 z"
         inkscape:connector-curvature="0"
         style="fill:#d3976e;stroke-width:0.55646902" />
    </g>
    <g
       id="g1022"
       transform="matrix(0.19402154,0,0,0.19402154,59.377753,74.092439)"
       style="stroke-width:1.36485624">
      <path
         id="path1016"
         d="M 29.1,12.9 H 19 L 12.9,19 V 29.1 L 43.8,64 64,43.8 29.1,12.9 m -6.4,9.8 c -0.9,0.9 -2.4,0.9 -3.4,0 -0.9,-0.9 -0.9,-2.4 0,-3.4 0.9,-0.9 2.4,-0.9 3.4,0 0.9,1 0.9,2.5 0,3.4"
         inkscape:connector-curvature="0"
         style="fill:#f2b200;stroke-width:1.36485624" />
      <path
         id="path1018"
         d="M 21.9,20.8 C 21.6,19.5 21,18.2 20.3,17.1 18.6,14.3 16.2,12 13.4,10.3 9.6,8.1 5.3,7.1 0.9,6.7 0.4,6.7 0,7.2 0,7.6 c 0,0.5 0.4,0.9 0.9,0.9 4.7,0.4 9.5,1.7 13.4,4.5 1.1,0.8 2.4,2.1 3.3,3.3 0.2,0.2 -0.1,-0.2 0,0.1 0,0.1 0.1,0.1 0.1,0.2 0.1,0.1 0.2,0.3 0.3,0.4 0.2,0.3 0.4,0.5 0.5,0.8 0.3,0.5 0.5,0.9 0.8,1.4 0.1,0.1 0.1,0.3 0.2,0.4 0,0.1 0.1,0.1 0.1,0.2 0.1,0.2 0.2,0.5 0.2,0.7 0.1,0.2 0.1,0.4 0.2,0.6 0.3,1.4 2.2,0.9 1.9,-0.3"
         inkscape:connector-curvature="0"
         style="fill:#94989b;stroke-width:1.36485624" />
      <path
         id="path1020"
         d="m 15.3,16.6 c 0,0 -0.1,-0.1 -0.1,-0.1 C 14.7,16.1 14.3,15.7 13.9,15.2 13,14.2 12.2,12.9 11.6,11.6 9.9,8.3 9,4.6 8.7,1 8.6,0.4 8.2,0 7.6,0 7.1,0 6.6,0.4 6.7,0.9 c 0.3,4 1.4,8 3.2,11.6 0.7,1.4 1.6,2.8 2.6,4 0.4,0.5 0.9,1 1.4,1.4 l 1.4,-1.3"
         inkscape:connector-curvature="0"
         style="fill:#3e4347;stroke-width:1.36485624" />
    </g>
  </g>
  <path
     style="fill:none;stroke:#657b83;stroke-width:0.31307006px;stroke-linecap:butt;stroke-linejoin:miter;stroke-opacity:1;marker-end:url(#marker1797)"
     d="m 28.805199,163.35142 v 11.27052"
     id="path902"
     inkscape:connector-curvature="0" />
  <use
     x="0"
     y="0"
     xlink:href="#use900"
     id="use1032"
     transform="translate(0,-48.838932)"
     width="100%"
     height="100%" />
  <use
     x="0"
     y="0"
     xlink:href="#path902"
     id="use1034"
     transform="translate(0,-48.838932)"
     width="100%"
     height="100%" />
  <use
     x="0"
     y="0"
     xlink:href="#use1032"
     id="use1036"
     transform="translate(0,-49.152002)"
     width="100%"
     height="100%" />
  <use
     x="0"
     y="0"
     xlink:href="#use1034"
     id="use1038"
     transform="translate(0,-49.152002)"
     width="100%"
     height="100%" />
  <use
     x="0"
     y="0"
     xlink:href="#use1036"
     id="use1040"
     transform="matrix(3.0756457,0,0,3.0756457,116,-25.06607)"
     width="100%"
     height="100%" />
  <text
     xml:space="preserve"
     style="font-style:normal;font-variant:normal;font-weight:normal;font-stretch:normal;font-size:18px;line-height:1.25;font-family:'Source Sans Pro';-inkscape-font-specification:'Source Sans Pro';letter-spacing:0px;word-spacing:0px;fill:#657b83;fill-opacity:1;stroke:none"
     x="98.000008"
     y="123.83637"
     id="text1044"><tspan
       sodipodi:role="line"
       id="tspan1042"
       x="98.000008"
       y="123.83637">vs.</tspan></text>
  <g
     style="stroke-width:2.20281744"
     transform="matrix(1.1938413,0,0,1.1938413,-104.2086,109.62718)"
     id="g2080">
    <g
       id="g2076"
       transform="matrix(0.82420935,0,0,0.82420935,22.816531,4.5960328)"
       style="stroke-width:2.67264295">
      <path
         id="path2060"
         d="m 129.79377,26.144923 c 4.57729,4.497917 1.77271,12.435417 6.35,16.933333 3.36021,-2.2225 7.22312,-4.392083 10.58333,-6.614583 -2.03729,-1.984375 -2.19604,-4.868333 -2.64583,-7.408333 -2.09021,-0.79375 -4.39208,-1.852084 -7.67292,-2.910417 h -6.61458"
         inkscape:connector-curvature="0"
         style="fill:#d9e3e8;stroke-width:0.70713681" />
      <g
         transform="matrix(0.26458333,0,0,0.26458333,129.79377,26.144923)"
         id="g2068"
         style="fill:#7d8b91;stroke-width:2.67264295">
        <path
           id="path2062"
           d="m 13,9 c 0.4,0.8 0.8,1.6 1.1,2.5 5.4,-1 10.8,-2 16.2,-3 C 30,7.8 29.7,7.1 29.3,6.3 24,7.3 18.5,8.1 13,9"
           inkscape:connector-curvature="0"
           style="stroke-width:2.67264295" />
        <path
           id="path2064"
           d="M 16.4,18.8 C 21.7,17.5 27,16.2 32.3,14.9 32.1,14.1 32,13.3 31.7,12.6 26.4,13.8 21,15 15.7,16.2 c 0.3,0.8 0.5,1.7 0.7,2.6"
           inkscape:connector-curvature="0"
           style="stroke-width:2.67264295" />
        <path
           id="path2066"
           d="m 17.6,26.5 c 10.5,-3.3 21.1,-6.6 31.6,-9.8 -0.1,-0.7 -0.2,-1.4 -0.3,-2 -10.6,3 -21.1,6.1 -31.7,9.1 0.2,0.8 0.3,1.7 0.4,2.7"
           inkscape:connector-curvature="0"
           style="stroke-width:2.67264295" />
      </g>
      <path
         id="path2070"
         d="m 136.40835,26.144923 c 1.29646,1.27 0.76729,4.736042 1.05834,6.35 1.85208,-0.502708 4.7625,-2.936875 6.61458,-3.439583 -2.09021,-0.79375 -4.39208,-1.852084 -7.67292,-2.910417"
         inkscape:connector-curvature="0"
         style="opacity:0.5;fill:#333333;stroke-width:0.70713681" />
      <path
         id="path2072"
         d="m 135.64106,39.718048 c 0.10583,0.211666 0.18521,0.449791 0.3175,0.661458 1.32292,-0.740833 2.64583,-1.508125 3.96875,-2.248958 -0.10583,-0.185208 -0.18521,-0.370417 -0.26458,-0.582083 -1.34938,0.740833 -2.67229,1.455208 -4.02167,2.169583"
         inkscape:connector-curvature="0"
         style="fill:#7d8b91;stroke-width:0.70713681" />
      <path
         id="path2074"
         d="m 136.40835,26.144923 c 1.29646,1.27 1.74625,2.804583 2.03729,4.418542 1.85209,-0.502709 3.78355,-1.005417 5.63563,-1.508125 -2.09021,-0.79375 -4.39208,-1.852084 -7.67292,-2.910417"
         inkscape:connector-curvature="0"
         style="fill:#d9e3e8;stroke-width:0.70713681" />
    </g>
    <path
       inkscape:connector-curvature="0"
       d="m 137.83667,30.459233 c -1.51939,0 -2.75003,1.230637 -2.75003,2.750025 0,1.519389 1.23064,2.750026 2.75003,2.750026 1.51939,0 2.75002,-1.230637 2.75002,-2.750026 0,-1.519388 -1.23063,-2.750025 -2.75002,-2.750025 z m 1.37501,3.025028 h -1.10001 v 1.10001 h -0.55001 v -1.10001 h -1.1 v -0.550006 h 1.1 v -1.100009 h 0.55001 v 1.100009 h 1.10001 z"
       id="path2078"
       style="fill:#859900;stroke-width:0.58282876" />
  </g>
  <g
     style="stroke-width:2.20281744"
     transform="matrix(1.1938413,0,0,1.1938413,-142.72422,160.48842)"
     id="g2102">
    <g
       style="stroke-width:2.67264295"
       transform="matrix(0.82420935,0,0,0.82420935,55.360281,3.5376995)"
       id="g2098">
      <path
         style="fill:#d9e3e8;stroke-width:0.70713681"
         inkscape:connector-curvature="0"
         d="m 129.79377,26.144923 c 4.57729,4.497917 1.77271,12.435417 6.35,16.933333 3.36021,-2.2225 7.22312,-4.392083 10.58333,-6.614583 -2.03729,-1.984375 -2.19604,-4.868333 -2.64583,-7.408333 -2.09021,-0.79375 -4.39208,-1.852084 -7.67292,-2.910417 h -6.61458"
         id="path2082" />
      <g
         style="fill:#7d8b91;stroke-width:2.67264295"
         id="g2090"
         transform="matrix(0.26458333,0,0,0.26458333,129.79377,26.144923)">
        <path
           style="stroke-width:2.67264295"
           inkscape:connector-curvature="0"
           d="m 13,9 c 0.4,0.8 0.8,1.6 1.1,2.5 5.4,-1 10.8,-2 16.2,-3 C 30,7.8 29.7,7.1 29.3,6.3 24,7.3 18.5,8.1 13,9"
           id="path2084" />
        <path
           style="stroke-width:2.67264295"
           inkscape:connector-curvature="0"
           d="M 16.4,18.8 C 21.7,17.5 27,16.2 32.3,14.9 32.1,14.1 32,13.3 31.7,12.6 26.4,13.8 21,15 15.7,16.2 c 0.3,0.8 0.5,1.7 0.7,2.6"
           id="path2086" />
        <path
           style="stroke-width:2.67264295"
           inkscape:connector-curvature="0"
           d="m 17.6,26.5 c 10.5,-3.3 21.1,-6.6 31.6,-9.8 -0.1,-0.7 -0.2,-1.4 -0.3,-2 -10.6,3 -21.1,6.1 -31.7,9.1 0.2,0.8 0.3,1.7 0.4,2.7"
           id="path2088" />
      </g>
      <path
         style="opacity:0.5;fill:#333333;stroke-width:0.70713681"
         inkscape:connector-curvature="0"
         d="m 136.40835,26.144923 c 1.29646,1.27 0.76729,4.736042 1.05834,6.35 1.85208,-0.502708 4.7625,-2.936875 6.61458,-3.439583 -2.09021,-0.79375 -4.39208,-1.852084 -7.67292,-2.910417"
         id="path2092" />
      <path
         style="fill:#7d8b91;stroke-width:0.70713681"
         inkscape:connector-curvature="0"
         d="m 135.64106,39.718048 c 0.10583,0.211666 0.18521,0.449791 0.3175,0.661458 1.32292,-0.740833 2.64583,-1.508125 3.96875,-2.248958 -0.10583,-0.185208 -0.18521,-0.370417 -0.26458,-0.582083 -1.34938,0.740833 -2.67229,1.455208 -4.02167,2.169583"
         id="path2094" />
      <path
         style="fill:#d9e3e8;stroke-width:0.70713681"
         inkscape:connector-curvature="0"
         d="m 136.40835,26.144923 c 1.29646,1.27 1.74625,2.804583 2.03729,4.418542 1.85209,-0.502709 3.78355,-1.005417 5.63563,-1.508125 -2.09021,-0.79375 -4.39208,-1.852084 -7.67292,-2.910417"
         id="path2096" />
    </g>
    <path
       inkscape:connector-curvature="0"
       d="m 169.85001,30.008706 c -1.51939,0 -2.75003,1.230636 -2.75003,2.750025 0,1.519389 1.23064,2.750026 2.75003,2.750026 1.51938,0 2.75002,-1.230637 2.75002,-2.750026 0,-1.519389 -1.23064,-2.750025 -2.75002,-2.750025 z m 1.37501,3.025028 H 168.475 v -0.550006 h 2.75002 z"
       id="path2100"
       style="fill:#dc322f;stroke-width:0.58282876" />
  </g>
  <g
     id="g2124"
     transform="matrix(1.1938413,0,0,1.1938413,-106.03589,60.076418)"
     style="stroke-width:2.20281744">
    <g
       style="stroke-width:2.67264295"
       transform="matrix(0.82420935,0,0,0.82420935,22.816531,4.5960328)"
       id="g2120">
      <path
         style="fill:#d9e3e8;stroke-width:0.70713681"
         inkscape:connector-curvature="0"
         d="m 129.79377,26.144923 c 4.57729,4.497917 1.77271,12.435417 6.35,16.933333 3.36021,-2.2225 7.22312,-4.392083 10.58333,-6.614583 -2.03729,-1.984375 -2.19604,-4.868333 -2.64583,-7.408333 -2.09021,-0.79375 -4.39208,-1.852084 -7.67292,-2.910417 h -6.61458"
         id="path2104" />
      <g
         style="fill:#7d8b91;stroke-width:2.67264295"
         id="g2112"
         transform="matrix(0.26458333,0,0,0.26458333,129.79377,26.144923)">
        <path
           style="stroke-width:2.67264295"
           inkscape:connector-curvature="0"
           d="m 13,9 c 0.4,0.8 0.8,1.6 1.1,2.5 5.4,-1 10.8,-2 16.2,-3 C 30,7.8 29.7,7.1 29.3,6.3 24,7.3 18.5,8.1 13,9"
           id="path2106" />
        <path
           style="stroke-width:2.67264295"
           inkscape:connector-curvature="0"
           d="M 16.4,18.8 C 21.7,17.5 27,16.2 32.3,14.9 32.1,14.1 32,13.3 31.7,12.6 26.4,13.8 21,15 15.7,16.2 c 0.3,0.8 0.5,1.7 0.7,2.6"
           id="path2108" />
        <path
           style="stroke-width:2.67264295"
           inkscape:connector-curvature="0"
           d="m 17.6,26.5 c 10.5,-3.3 21.1,-6.6 31.6,-9.8 -0.1,-0.7 -0.2,-1.4 -0.3,-2 -10.6,3 -21.1,6.1 -31.7,9.1 0.2,0.8 0.3,1.7 0.4,2.7"
           id="path2110" />
      </g>
      <path
         style="opacity:0.5;fill:#333333;stroke-width:0.70713681"
         inkscape:connector-curvature="0"
         d="m 136.40835,26.144923 c 1.29646,1.27 0.76729,4.736042 1.05834,6.35 1.85208,-0.502708 4.7625,-2.936875 6.61458,-3.439583 -2.09021,-0.79375 -4.39208,-1.852084 -7.67292,-2.910417"
         id="path2114" />
      <path
         style="fill:#7d8b91;stroke-width:0.70713681"
         inkscape:connector-curvature="0"
         d="m 135.64106,39.718048 c 0.10583,0.211666 0.18521,0.449791 0.3175,0.661458 1.32292,-0.740833 2.64583,-1.508125 3.96875,-2.248958 -0.10583,-0.185208 -0.18521,-0.370417 -0.26458,-0.582083 -1.34938,0.740833 -2.67229,1.455208 -4.02167,2.169583"
         id="path2116" />
      <path
         style="fill:#d9e3e8;stroke-width:0.70713681"
         inkscape:connector-curvature="0"
         d="m 136.40835,26.144923 c 1.29646,1.27 1.74625,2.804583 2.03729,4.418542 1.85209,-0.502709 3.78355,-1.005417 5.63563,-1.508125 -2.09021,-0.79375 -4.39208,-1.852084 -7.67292,-2.910417"
         id="path2118" />
    </g>
    <path
       style="fill:#859900;stroke-width:0.58282876"
       id="path2122"
       d="m 137.83667,30.459233 c -1.51939,0 -2.75003,1.230637 -2.75003,2.750025 0,1.519389 1.23064,2.750026 2.75003,2.750026 1.51939,0 2.75002,-1.230637 2.75002,-2.750026 0,-1.519388 -1.23063,-2.750025 -2.75002,-2.750025 z m 1.37501,3.025028 h -1.10001 v 1.10001 h -0.55001 v -1.10001 h -1.1 v -0.550006 h 1.1 v -1.100009 h 0.55001 v 1.100009 h 1.10001 z"
       inkscape:connector-curvature="0" />
  </g>
  <g
     id="g2146"
     transform="matrix(1.1938413,0,0,1.1938413,-144.13921,13.898428)"
     style="stroke-width:2.20281744">
    <g
       id="g2142"
       transform="matrix(0.82420935,0,0,0.82420935,55.360281,3.5376995)"
       style="stroke-width:2.67264295">
      <path
         id="path2126"
         d="m 129.79377,26.144923 c 4.57729,4.497917 1.77271,12.435417 6.35,16.933333 3.36021,-2.2225 7.22312,-4.392083 10.58333,-6.614583 -2.03729,-1.984375 -2.19604,-4.868333 -2.64583,-7.408333 -2.09021,-0.79375 -4.39208,-1.852084 -7.67292,-2.910417 h -6.61458"
         inkscape:connector-curvature="0"
         style="fill:#d9e3e8;stroke-width:0.70713681" />
      <g
         transform="matrix(0.26458333,0,0,0.26458333,129.79377,26.144923)"
         id="g2134"
         style="fill:#7d8b91;stroke-width:2.67264295">
        <path
           id="path2128"
           d="m 13,9 c 0.4,0.8 0.8,1.6 1.1,2.5 5.4,-1 10.8,-2 16.2,-3 C 30,7.8 29.7,7.1 29.3,6.3 24,7.3 18.5,8.1 13,9"
           inkscape:connector-curvature="0"
           style="stroke-width:2.67264295" />
        <path
           id="path2130"
           d="M 16.4,18.8 C 21.7,17.5 27,16.2 32.3,14.9 32.1,14.1 32,13.3 31.7,12.6 26.4,13.8 21,15 15.7,16.2 c 0.3,0.8 0.5,1.7 0.7,2.6"
           inkscape:connector-curvature="0"
           style="stroke-width:2.67264295" />
        <path
           id="path2132"
           d="m 17.6,26.5 c 10.5,-3.3 21.1,-6.6 31.6,-9.8 -0.1,-0.7 -0.2,-1.4 -0.3,-2 -10.6,3 -21.1,6.1 -31.7,9.1 0.2,0.8 0.3,1.7 0.4,2.7"
           inkscape:connector-curvature="0"
           style="stroke-width:2.67264295" />
      </g>
      <path
         id="path2136"
         d="m 136.40835,26.144923 c 1.29646,1.27 0.76729,4.736042 1.05834,6.35 1.85208,-0.502708 4.7625,-2.936875 6.61458,-3.439583 -2.09021,-0.79375 -4.39208,-1.852084 -7.67292,-2.910417"
         inkscape:connector-curvature="0"
         style="opacity:0.5;fill:#333333;stroke-width:0.70713681" />
      <path
         id="path2138"
         d="m 135.64106,39.718048 c 0.10583,0.211666 0.18521,0.449791 0.3175,0.661458 1.32292,-0.740833 2.64583,-1.508125 3.96875,-2.248958 -0.10583,-0.185208 -0.18521,-0.370417 -0.26458,-0.582083 -1.34938,0.740833 -2.67229,1.455208 -4.02167,2.169583"
         inkscape:connector-curvature="0"
         style="fill:#7d8b91;stroke-width:0.70713681" />
      <path
         id="path2140"
         d="m 136.40835,26.144923 c 1.29646,1.27 1.74625,2.804583 2.03729,4.418542 1.85209,-0.502709 3.78355,-1.005417 5.63563,-1.508125 -2.09021,-0.79375 -4.39208,-1.852084 -7.67292,-2.910417"
         inkscape:connector-curvature="0"
         style="fill:#d9e3e8;stroke-width:0.70713681" />
    </g>
    <path
       style="fill:#dc322f;stroke-width:0.58282876"
       id="path2144"
       d="m 169.85001,30.008706 c -1.51939,0 -2.75003,1.230636 -2.75003,2.750025 0,1.519389 1.23064,2.750026 2.75003,2.750026 1.51938,0 2.75002,-1.230637 2.75002,-2.750026 0,-1.519389 -1.23064,-2.750025 -2.75002,-2.750025 z m 1.37501,3.025028 H 168.475 v -0.550006 h 2.75002 z"
       inkscape:connector-curvature="0" />
  </g>
  <g
     id="g2783"
     transform="matrix(1.1938413,0,0,1.1938413,61.728606,61.316348)"
     style="stroke-width:2.20281744">
    <g
       style="stroke-width:2.67264295"
       transform="matrix(0.82420935,0,0,0.82420935,22.816531,4.5960328)"
       id="g2779">
      <path
         style="fill:#d9e3e8;stroke-width:0.70713681"
         inkscape:connector-curvature="0"
         d="m 129.79377,26.144923 c 4.57729,4.497917 1.77271,12.435417 6.35,16.933333 3.36021,-2.2225 7.22312,-4.392083 10.58333,-6.614583 -2.03729,-1.984375 -2.19604,-4.868333 -2.64583,-7.408333 -2.09021,-0.79375 -4.39208,-1.852084 -7.67292,-2.910417 h -6.61458"
         id="path2763" />
      <g
         style="fill:#7d8b91;stroke-width:2.67264295"
         id="g2771"
         transform="matrix(0.26458333,0,0,0.26458333,129.79377,26.144923)">
        <path
           style="stroke-width:2.67264295"
           inkscape:connector-curvature="0"
           d="m 13,9 c 0.4,0.8 0.8,1.6 1.1,2.5 5.4,-1 10.8,-2 16.2,-3 C 30,7.8 29.7,7.1 29.3,6.3 24,7.3 18.5,8.1 13,9"
           id="path2765" />
        <path
           style="stroke-width:2.67264295"
           inkscape:connector-curvature="0"
           d="M 16.4,18.8 C 21.7,17.5 27,16.2 32.3,14.9 32.1,14.1 32,13.3 31.7,12.6 26.4,13.8 21,15 15.7,16.2 c 0.3,0.8 0.5,1.7 0.7,2.6"
           id="path2767" />
        <path
           style="stroke-width:2.67264295"
           inkscape:connector-curvature="0"
           d="m 17.6,26.5 c 10.5,-3.3 21.1,-6.6 31.6,-9.8 -0.1,-0.7 -0.2,-1.4 -0.3,-2 -10.6,3 -21.1,6.1 -31.7,9.1 0.2,0.8 0.3,1.7 0.4,2.7"
           id="path2769" />
      </g>
      <path
         style="opacity:0.5;fill:#333333;stroke-width:0.70713681"
         inkscape:connector-curvature="0"
         d="m 136.40835,26.144923 c 1.29646,1.27 0.76729,4.736042 1.05834,6.35 1.85208,-0.502708 4.7625,-2.936875 6.61458,-3.439583 -2.09021,-0.79375 -4.39208,-1.852084 -7.67292,-2.910417"
         id="path2773" />
      <path
         style="fill:#7d8b91;stroke-width:0.70713681"
         inkscape:connector-curvature="0"
         d="m 135.64106,39.718048 c 0.10583,0.211666 0.18521,0.449791 0.3175,0.661458 1.32292,-0.740833 2.64583,-1.508125 3.96875,-2.248958 -0.10583,-0.185208 -0.18521,-0.370417 -0.26458,-0.582083 -1.34938,0.740833 -2.67229,1.455208 -4.02167,2.169583"
         id="path2775" />
      <path
         style="fill:#d9e3e8;stroke-width:0.70713681"
         inkscape:connector-curvature="0"
         d="m 136.40835,26.144923 c 1.29646,1.27 1.74625,2.804583 2.03729,4.418542 1.85209,-0.502709 3.78355,-1.005417 5.63563,-1.508125 -2.09021,-0.79375 -4.39208,-1.852084 -7.67292,-2.910417"
         id="path2777" />
    </g>
    <path
       style="fill:#859900;stroke-width:0.58282876"
       id="path2781"
       d="m 137.83667,30.459233 c -1.51939,0 -2.75003,1.230637 -2.75003,2.750025 0,1.519389 1.23064,2.750026 2.75003,2.750026 1.51939,0 2.75002,-1.230637 2.75002,-2.750026 0,-1.519388 -1.23063,-2.750025 -2.75002,-2.750025 z m 1.37501,3.025028 h -1.10001 v 1.10001 h -0.55001 v -1.10001 h -1.1 v -0.550006 h 1.1 v -1.100009 h 0.55001 v 1.100009 h 1.10001 z"
       inkscape:connector-curvature="0" />
  </g>
  <g
     id="g2805"
     transform="matrix(1.1938413,0,0,1.1938413,-4.7932975,58.965658)"
     style="stroke-width:2.20281744">
    <g
       id="g2801"
       transform="matrix(0.82420935,0,0,0.82420935,55.360281,3.5376995)"
       style="stroke-width:2.67264295">
      <path
         id="path2785"
         d="m 129.79377,26.144923 c 4.57729,4.497917 1.77271,12.435417 6.35,16.933333 3.36021,-2.2225 7.22312,-4.392083 10.58333,-6.614583 -2.03729,-1.984375 -2.19604,-4.868333 -2.64583,-7.408333 -2.09021,-0.79375 -4.39208,-1.852084 -7.67292,-2.910417 h -6.61458"
         inkscape:connector-curvature="0"
         style="fill:#d9e3e8;stroke-width:0.70713681" />
      <g
         transform="matrix(0.26458333,0,0,0.26458333,129.79377,26.144923)"
         id="g2793"
         style="fill:#7d8b91;stroke-width:2.67264295">
        <path
           id="path2787"
           d="m 13,9 c 0.4,0.8 0.8,1.6 1.1,2.5 5.4,-1 10.8,-2 16.2,-3 C 30,7.8 29.7,7.1 29.3,6.3 24,7.3 18.5,8.1 13,9"
           inkscape:connector-curvature="0"
           style="stroke-width:2.67264295" />
        <path
           id="path2789"
           d="M 16.4,18.8 C 21.7,17.5 27,16.2 32.3,14.9 32.1,14.1 32,13.3 31.7,12.6 26.4,13.8 21,15 15.7,16.2 c 0.3,0.8 0.5,1.7 0.7,2.6"
           inkscape:connector-curvature="0"
           style="stroke-width:2.67264295" />
        <path
           id="path2791"
           d="m 17.6,26.5 c 10.5,-3.3 21.1,-6.6 31.6,-9.8 -0.1,-0.7 -0.2,-1.4 -0.3,-2 -10.6,3 -21.1,6.1 -31.7,9.1 0.2,0.8 0.3,1.7 0.4,2.7"
           inkscape:connector-curvature="0"
           style="stroke-width:2.67264295" />
      </g>
      <path
         id="path2795"
         d="m 136.40835,26.144923 c 1.29646,1.27 0.76729,4.736042 1.05834,6.35 1.85208,-0.502708 4.7625,-2.936875 6.61458,-3.439583 -2.09021,-0.79375 -4.39208,-1.852084 -7.67292,-2.910417"
         inkscape:connector-curvature="0"
         style="opacity:0.5;fill:#333333;stroke-width:0.70713681" />
      <path
         id="path2797"
         d="m 135.64106,39.718048 c 0.10583,0.211666 0.18521,0.449791 0.3175,0.661458 1.32292,-0.740833 2.64583,-1.508125 3.96875,-2.248958 -0.10583,-0.185208 -0.18521,-0.370417 -0.26458,-0.582083 -1.34938,0.740833 -2.67229,1.455208 -4.02167,2.169583"
         inkscape:connector-curvature="0"
         style="fill:#7d8b91;stroke-width:0.70713681" />
      <path
         id="path2799"
         d="m 136.40835,26.144923 c 1.29646,1.27 1.74625,2.804583 2.03729,4.418542 1.85209,-0.502709 3.78355,-1.005417 5.63563,-1.508125 -2.09021,-0.79375 -4.39208,-1.852084 -7.67292,-2.910417"
         inkscape:connector-curvature="0"
         style="fill:#d9e3e8;stroke-width:0.70713681" />
    </g>
    <path
       style="fill:#dc322f;stroke-width:0.58282876"
       id="path2803"
       d="m 169.85001,30.008706 c -1.51939,0 -2.75003,1.230636 -2.75003,2.750025 0,1.519389 1.23064,2.750026 2.75003,2.750026 1.51938,0 2.75002,-1.230637 2.75002,-2.750026 0,-1.519389 -1.23064,-2.750025 -2.75002,-2.750025 z m 1.37501,3.025028 H 168.475 v -0.550006 h 2.75002 z"
       inkscape:connector-curvature="0" />
  </g>
  <g
     style="stroke-width:2.20281744"
     transform="matrix(1.1938413,0,0,1.1938413,40.997078,81.781288)"
     id="g2827">
    <g
       id="g2823"
       transform="matrix(0.82420935,0,0,0.82420935,22.816531,4.5960328)"
       style="stroke-width:2.67264295">
      <path
         id="path2807"
         d="m 129.79377,26.144923 c 4.57729,4.497917 1.77271,12.435417 6.35,16.933333 3.36021,-2.2225 7.22312,-4.392083 10.58333,-6.614583 -2.03729,-1.984375 -2.19604,-4.868333 -2.64583,-7.408333 -2.09021,-0.79375 -4.39208,-1.852084 -7.67292,-2.910417 h -6.61458"
         inkscape:connector-curvature="0"
         style="fill:#d9e3e8;stroke-width:0.70713681" />
      <g
         transform="matrix(0.26458333,0,0,0.26458333,129.79377,26.144923)"
         id="g2815"
         style="fill:#7d8b91;stroke-width:2.67264295">
        <path
           id="path2809"
           d="m 13,9 c 0.4,0.8 0.8,1.6 1.1,2.5 5.4,-1 10.8,-2 16.2,-3 C 30,7.8 29.7,7.1 29.3,6.3 24,7.3 18.5,8.1 13,9"
           inkscape:connector-curvature="0"
           style="stroke-width:2.67264295" />
        <path
           id="path2811"
           d="M 16.4,18.8 C 21.7,17.5 27,16.2 32.3,14.9 32.1,14.1 32,13.3 31.7,12.6 26.4,13.8 21,15 15.7,16.2 c 0.3,0.8 0.5,1.7 0.7,2.6"
           inkscape:connector-curvature="0"
           style="stroke-width:2.67264295" />
        <path
           id="path2813"
           d="m 17.6,26.5 c 10.5,-3.3 21.1,-6.6 31.6,-9.8 -0.1,-0.7 -0.2,-1.4 -0.3,-2 -10.6,3 -21.1,6.1 -31.7,9.1 0.2,0.8 0.3,1.7 0.4,2.7"
           inkscape:connector-curvature="0"
           style="stroke-width:2.67264295" />
      </g>
      <path
         id="path2817"
         d="m 136.40835,26.144923 c 1.29646,1.27 0.76729,4.736042 1.05834,6.35 1.85208,-0.502708 4.7625,-2.936875 6.61458,-3.439583 -2.09021,-0.79375 -4.39208,-1.852084 -7.67292,-2.910417"
         inkscape:connector-curvature="0"
         style="opacity:0.5;fill:#333333;stroke-width:0.70713681" />
      <path
         id="path2819"
         d="m 135.64106,39.718048 c 0.10583,0.211666 0.18521,0.449791 0.3175,0.661458 1.32292,-0.740833 2.64583,-1.508125 3.96875,-2.248958 -0.10583,-0.185208 -0.18521,-0.370417 -0.26458,-0.582083 -1.34938,0.740833 -2.67229,1.455208 -4.02167,2.169583"
         inkscape:connector-curvature="0"
         style="fill:#7d8b91;stroke-width:0.70713681" />
      <path
         id="path2821"
         d="m 136.40835,26.144923 c 1.29646,1.27 1.74625,2.804583 2.03729,4.418542 1.85209,-0.502709 3.78355,-1.005417 5.63563,-1.508125 -2.09021,-0.79375 -4.39208,-1.852084 -7.67292,-2.910417"
         inkscape:connector-curvature="0"
         style="fill:#d9e3e8;stroke-width:0.70713681" />
    </g>
    <path
       inkscape:connector-curvature="0"
       d="m 137.83667,30.459233 c -1.51939,0 -2.75003,1.230637 -2.75003,2.750025 0,1.519389 1.23064,2.750026 2.75003,2.750026 1.51939,0 2.75002,-1.230637 2.75002,-2.750026 0,-1.519388 -1.23063,-2.750025 -2.75002,-2.750025 z m 1.37501,3.025028 h -1.10001 v 1.10001 h -0.55001 v -1.10001 h -1.1 v -0.550006 h 1.1 v -1.100009 h 0.55001 v 1.100009 h 1.10001 z"
       id="path2825"
       style="fill:#859900;stroke-width:0.58282876" />
  </g>
  <g
     style="stroke-width:2.20281744"
     transform="matrix(1.1938413,0,0,1.1938413,19.697528,83.914128)"
     id="g2849">
    <g
       style="stroke-width:2.67264295"
       transform="matrix(0.82420935,0,0,0.82420935,55.360281,3.5376995)"
       id="g2845">
      <path
         style="fill:#d9e3e8;stroke-width:0.70713681"
         inkscape:connector-curvature="0"
         d="m 129.79377,26.144923 c 4.57729,4.497917 1.77271,12.435417 6.35,16.933333 3.36021,-2.2225 7.22312,-4.392083 10.58333,-6.614583 -2.03729,-1.984375 -2.19604,-4.868333 -2.64583,-7.408333 -2.09021,-0.79375 -4.39208,-1.852084 -7.67292,-2.910417 h -6.61458"
         id="path2829" />
      <g
         style="fill:#7d8b91;stroke-width:2.67264295"
         id="g2837"
         transform="matrix(0.26458333,0,0,0.26458333,129.79377,26.144923)">
        <path
           style="stroke-width:2.67264295"
           inkscape:connector-curvature="0"
           d="m 13,9 c 0.4,0.8 0.8,1.6 1.1,2.5 5.4,-1 10.8,-2 16.2,-3 C 30,7.8 29.7,7.1 29.3,6.3 24,7.3 18.5,8.1 13,9"
           id="path2831" />
        <path
           style="stroke-width:2.67264295"
           inkscape:connector-curvature="0"
           d="M 16.4,18.8 C 21.7,17.5 27,16.2 32.3,14.9 32.1,14.1 32,13.3 31.7,12.6 26.4,13.8 21,15 15.7,16.2 c 0.3,0.8 0.5,1.7 0.7,2.6"
           id="path2833" />
        <path
           style="stroke-width:2.67264295"
           inkscape:connector-curvature="0"
           d="m 17.6,26.5 c 10.5,-3.3 21.1,-6.6 31.6,-9.8 -0.1,-0.7 -0.2,-1.4 -0.3,-2 -10.6,3 -21.1,6.1 -31.7,9.1 0.2,0.8 0.3,1.7 0.4,2.7"
           id="path2835" />
      </g>
      <path
         style="opacity:0.5;fill:#333333;stroke-width:0.70713681"
         inkscape:connector-curvature="0"
         d="m 136.40835,26.144923 c 1.29646,1.27 0.76729,4.736042 1.05834,6.35 1.85208,-0.502708 4.7625,-2.936875 6.61458,-3.439583 -2.09021,-0.79375 -4.39208,-1.852084 -7.67292,-2.910417"
         id="path2839" />
      <path
         style="fill:#7d8b91;stroke-width:0.70713681"
         inkscape:connector-curvature="0"
         d="m 135.64106,39.718048 c 0.10583,0.211666 0.18521,0.449791 0.3175,0.661458 1.32292,-0.740833 2.64583,-1.508125 3.96875,-2.248958 -0.10583,-0.185208 -0.18521,-0.370417 -0.26458,-0.582083 -1.34938,0.740833 -2.67229,1.455208 -4.02167,2.169583"
         id="path2841" />
      <path
         style="fill:#d9e3e8;stroke-width:0.70713681"
         inkscape:connector-curvature="0"
         d="m 136.40835,26.144923 c 1.29646,1.27 1.74625,2.804583 2.03729,4.418542 1.85209,-0.502709 3.78355,-1.005417 5.63563,-1.508125 -2.09021,-0.79375 -4.39208,-1.852084 -7.67292,-2.910417"
         id="path2843" />
    </g>
    <path
       inkscape:connector-curvature="0"
       d="m 169.85001,30.008706 c -1.51939,0 -2.75003,1.230636 -2.75003,2.750025 0,1.519389 1.23064,2.750026 2.75003,2.750026 1.51938,0 2.75002,-1.230637 2.75002,-2.750026 0,-1.519389 -1.23064,-2.750025 -2.75002,-2.750025 z m 1.37501,3.025028 H 168.475 v -0.550006 h 2.75002 z"
       id="path2847"
       style="fill:#dc322f;stroke-width:0.58282876" />
  </g>
  <g
     id="text4178"
     style="font-style:normal;font-variant:normal;font-weight:normal;font-stretch:normal;font-size:18.75px;line-height:1000%;font-family:'Fira Sans';-inkscape-font-specification:'Fira Sans, Normal';text-align:start;letter-spacing:0px;word-spacing:0px;writing-mode:lr-tb;text-anchor:start;fill:#859900;fill-opacity:1;stroke:none;stroke-width:1px;stroke-linecap:butt;stroke-linejoin:miter;stroke-opacity:1"
     transform="translate(-224.02813,-335.59641)">
    <path
       inkscape:connector-curvature="0"
       id="path4183"
       style="font-style:normal;font-variant:normal;font-weight:normal;font-stretch:normal;font-size:18px;line-height:1000%;font-family:FontAwesome;-inkscape-font-specification:'FontAwesome, Normal';text-align:start;writing-mode:lr-tb;text-anchor:start;fill:#859900"
       d="m 260.80303,337.92677 c 0,-0.25112 -0.10045,-0.50223 -0.28125,-0.68303 l -1.36607,-1.36608 c -0.1808,-0.1808 -0.43192,-0.28125 -0.68304,-0.28125 -0.25111,0 -0.50223,0.10045 -0.68303,0.28125 l -6.58929,6.59933 -2.95312,-2.96317 c -0.18081,-0.1808 -0.43192,-0.28125 -0.68304,-0.28125 -0.25111,0 -0.50223,0.10045 -0.68303,0.28125 l -1.36608,1.36608 c -0.1808,0.1808 -0.28125,0.43192 -0.28125,0.68303 0,0.25112 0.10045,0.50223 0.28125,0.68304 l 3.63617,3.63616 1.36607,1.36607 c 0.1808,0.1808 0.43192,0.28125 0.68303,0.28125 0.25112,0 0.50223,-0.10045 0.68304,-0.28125 l 1.36607,-1.36607 7.27232,-7.27232 c 0.1808,-0.18081 0.28125,-0.43192 0.28125,-0.68304 z" />
  </g>
  <g
     id="text4185"
     style="font-style:normal;font-variant:normal;font-weight:normal;font-stretch:normal;font-size:18px;line-height:1000%;font-family:FontAwesome;-inkscape-font-specification:'FontAwesome, Normal';text-align:start;letter-spacing:0px;word-spacing:0px;writing-mode:lr-tb;text-anchor:start;fill:#dc322f;fill-opacity:1;stroke:none;stroke-width:1px;stroke-linecap:butt;stroke-linejoin:miter;stroke-opacity:1"
     transform="translate(-15.02813,-300.59641)">
    <path
       inkscape:connector-curvature="0"
       id="path4196"
       style="fill:#dc322f"
       d="m 226.99955,311.95707 c 0,-0.25112 -0.10044,-0.50223 -0.28125,-0.68304 l -2.95312,-2.95312 2.95312,-2.95313 c 0.18081,-0.1808 0.28125,-0.43192 0.28125,-0.68303 0,-0.25112 -0.10044,-0.50223 -0.28125,-0.68304 l -1.36607,-1.36607 c -0.1808,-0.1808 -0.43192,-0.28125 -0.68303,-0.28125 -0.25112,0 -0.50224,0.10045 -0.68304,0.28125 l -2.95312,2.95313 -2.95313,-2.95313 c -0.1808,-0.1808 -0.43192,-0.28125 -0.68303,-0.28125 -0.25112,0 -0.50224,0.10045 -0.68304,0.28125 l -1.36607,1.36607 c -0.18081,0.18081 -0.28125,0.43192 -0.28125,0.68304 0,0.25111 0.10044,0.50223 0.28125,0.68303 l 2.95312,2.95313 -2.95312,2.95312 c -0.18081,0.18081 -0.28125,0.43192 -0.28125,0.68304 0,0.25112 0.10044,0.50223 0.28125,0.68304 l 1.36607,1.36607 c 0.1808,0.1808 0.43192,0.28125 0.68304,0.28125 0.25111,0 0.50223,-0.10045 0.68303,-0.28125 l 2.95313,-2.95313 2.95312,2.95313 c 0.1808,0.1808 0.43192,0.28125 0.68304,0.28125 0.25111,0 0.50223,-0.10045 0.68303,-0.28125 l 1.36607,-1.36607 c 0.18081,-0.18081 0.28125,-0.43192 0.28125,-0.68304 z" />
  </g>
</svg>
