<?xml version="1.0" encoding="UTF-8" standalone="no"?>
<!-- Created with Inkscape (http://www.inkscape.org/) -->

<svg
   xmlns:dc="http://purl.org/dc/elements/1.1/"
   xmlns:cc="http://creativecommons.org/ns#"
   xmlns:rdf="http://www.w3.org/1999/02/22-rdf-syntax-ns#"
   xmlns:svg="http://www.w3.org/2000/svg"
   xmlns="http://www.w3.org/2000/svg"
   xmlns:xlink="http://www.w3.org/1999/xlink"
   xmlns:sodipodi="http://sodipodi.sourceforge.net/DTD/sodipodi-0.dtd"
   xmlns:inkscape="http://www.inkscape.org/namespaces/inkscape"
   width="255.30519"
   height="224"
   viewBox="0 0 255.30519 224.00001"
   version="1.1"
   id="svg8"
   inkscape:version="0.92.2 5c3e80d, 2017-08-06"
   sodipodi:docname="getting-started-gui-and-cli.svg">
  <defs
     id="defs2">
    <linearGradient
       x1="23.99999"
       y1="4.999989"
       x2="23.99999"
       y2="43"
       id="linearGradient4136"
       xlink:href="#linearGradient3924"
       gradientUnits="userSpaceOnUse"
       gradientTransform="matrix(2.7297298,0,0,2.7297298,76.629342,323.50672)" />
    <linearGradient
       id="linearGradient3924">
      <stop
         id="stop3926"
         style="stop-color:#ffffff;stop-opacity:1"
         offset="0" />
      <stop
         id="stop3928"
         style="stop-color:#ffffff;stop-opacity:0.23529412"
         offset="0.06316455" />
      <stop
         id="stop3930"
         style="stop-color:#ffffff;stop-opacity:0.15686275"
         offset="0.95056331" />
      <stop
         id="stop3932"
         style="stop-color:#ffffff;stop-opacity:0.39215687"
         offset="1" />
    </linearGradient>
    <radialGradient
       cx="7.1183534"
       cy="9.9571075"
       r="8.9330635"
       fx="7.1183534"
       fy="9.9571075"
       id="radialGradient3936-3"
       xlink:href="#linearGradient2867-449-88-871-390-598-476-591-434-148-57-177-8-3-3-6-4-8-8-8-5-7-8"
       gradientUnits="userSpaceOnUse"
       gradientTransform="matrix(0,24.139622,-29.635745,0,439.42402,117.29159)" />
    <linearGradient
       id="linearGradient2867-449-88-871-390-598-476-591-434-148-57-177-8-3-3-6-4-8-8-8-5-7-8">
      <stop
         id="stop3750-1-0-7-6-6-1-3-9-3-9-2"
         style="stop-color:#404648;stop-opacity:1"
         offset="0" />
      <stop
         id="stop3754-1-8-5-2-7-6-7-1-9-1-0"
         style="stop-color:#0c1011;stop-opacity:1"
         offset="1" />
    </linearGradient>
    <style
       id="style1238">.cls-1{fill:#f7f7ff;}.cls-2{fill:#f57153;}.cls-3{fill:#ededf5;}.cls-4{fill:#cbcbd1;}.cls-5{fill:#e9e9ee;}.cls-6{fill:#3e3e40;}</style>
    <style
       id="style1078">.cls-1{fill:#f7f7ff;}.cls-2{fill:#f57153;}.cls-3{fill:#ededf5;}.cls-4{fill:#cbcbd1;}.cls-5{fill:#e9e9ee;}.cls-6{fill:#3e3e40;}</style>
  </defs>
  <sodipodi:namedview
     id="base"
     pagecolor="#ffffff"
     bordercolor="#666666"
     borderopacity="1.0"
     inkscape:pageopacity="0.0"
     inkscape:pageshadow="2"
     inkscape:zoom="1"
     inkscape:cx="72"
     inkscape:cy="186.07854"
     inkscape:document-units="px"
     inkscape:current-layer="svg8"
     showgrid="false"
     units="px"
     inkscape:snap-global="false"
     inkscape:window-width="1366"
     inkscape:window-height="719"
     inkscape:window-x="0"
     inkscape:window-y="1"
     inkscape:window-maximized="1"
     inkscape:measure-start="0,0"
     inkscape:measure-end="0,0" />
  <metadata
     id="metadata5">
    <rdf:RDF>
      <cc:Work
         rdf:about="">
        <dc:format>image/svg+xml</dc:format>
        <dc:type
           rdf:resource="http://purl.org/dc/dcmitype/StillImage" />
        <dc:title></dc:title>
      </cc:Work>
    </rdf:RDF>
  </metadata>
  <g
     id="g934"
     transform="matrix(3.7795276,0,0,3.7795276,153.28089,59.90689)">
    <path
       inkscape:connector-curvature="0"
       id="path846"
       style="fill:#362701;fill-opacity:1;fill-rule:nonzero;stroke:none;stroke-width:0.01236141"
       d="m 16.177694,3.8375987 c -0.591865,0 -1.032674,0.2906306 -1.032674,0.9900651 0,0.5270015 0.290494,0.892825 1.00078,0.892825 0.602002,0 1.010918,-0.3547087 1.010918,-0.9145955 0,-0.6344874 -0.365897,-0.9682946 -0.979024,-0.9682946 z m -1.183358,4.9386222 c -0.140056,0.1718968 -0.279617,0.354523 -0.279617,0.5700694 0,0.4300032 0.548355,0.5594032 1.301657,0.5594032 0.624006,0 1.473977,-0.043695 1.473977,-0.6238562 0,-0.3448203 -0.408916,-0.3661668 -0.925622,-0.3985685 z m 3.184425,-4.9061224 c 0.193331,0.2475136 0.398036,0.5918399 0.398036,1.086692 0,1.1941254 -0.936006,1.8933216 -2.29119,1.8933216 -0.344634,0 -0.656636,-0.042931 -0.850093,-0.096627 l -0.355143,0.5700835 1.054181,0.064404 c 1.861383,0.1185937 2.958335,0.172489 2.958335,1.6027926 0,1.2374878 -1.086321,1.9364388 -2.958335,1.9364388 -1.947171,0 -2.689474,-0.49494 -2.689474,-1.3446865 0,-0.484319 0.215214,-0.7419312 0.591742,-1.0974704 C 13.681677,8.3349313 13.5635,8.0661166 13.5635,7.7755245 c 0,-0.2368439 0.118177,-0.4519558 0.312128,-0.6564996 0.19358,-0.204211 0.408667,-0.4088915 0.666896,-0.6455006 -0.527089,-0.2581449 -0.925251,-0.8175971 -0.925251,-1.6138442 0,-1.2370567 0.817709,-2.0866561 2.463384,-2.0866561 0.462689,0 0.742548,0.042584 0.990026,0.1075315 h 2.097978 V 3.794769 l -0.9899,0.07533" />
    <path
       inkscape:connector-curvature="0"
       id="path848"
       style="fill:#362701;fill-opacity:1;fill-rule:nonzero;stroke:none;stroke-width:0.01236141"
       d="m 21.061318,1.9152007 c -0.613374,0 -0.96827,-0.3553394 -0.96827,-0.96877467 C 20.093048,0.33375817 20.447944,0 21.061318,0 c 0.624004,0 0.979024,0.33375817 0.979024,0.94642603 0,0.61343527 -0.35502,0.96877467 -0.979024,0.96877467 z M 19.673254,8.3803714 V 7.5309052 l 0.548847,-0.075081 c 0.150686,-0.02183 0.172071,-0.053846 0.172071,-0.2156095 V 4.0773369 c 0,-0.1181136 -0.03214,-0.1937269 -0.140055,-0.2257432 L 19.673254,3.6470114 19.791553,2.7759148 h 2.227156 V 7.240215 c 0,0.1724435 0.01038,0.1937759 0.172194,0.2156095 l 0.548724,0.075081 v 0.8494662 h -3.066373" />
    <path
       inkscape:connector-curvature="0"
       id="path850"
       style="fill:#362701;fill-opacity:1;fill-rule:nonzero;stroke:none;stroke-width:0.01236141"
       d="m 26.993931,7.9633086 c -0.462812,0.2256451 -1.140464,0.4300908 -1.753961,0.4300908 -1.280148,0 -1.764098,-0.5158903 -1.764098,-1.7320945 V 3.8428547 c 0,-0.064418 0,-0.1076331 -0.08641,-0.1076331 h -0.75293 V 2.777793 c 0.947008,-0.1078643 1.32329,-0.5813209 1.441589,-1.7539106 h 1.022165 v 1.5281814 c 0,0.075032 0,0.1075315 0.08616,0.1075315 h 1.516744 v 1.0756263 h -1.602904 v 2.5710382 c 0,0.6348203 0.150809,0.8820501 0.731425,0.8820501 0.301618,0 0.613249,-0.075084 0.871479,-0.1719985 l 0.290741,0.9469972" />
    <path
       inkscape:connector-curvature="0"
       id="path852"
       style="fill:#f03c2e;fill-opacity:1;fill-rule:nonzero;stroke:none;stroke-width:0.01236141"
       d="M 11.053702,5.140086 6.134625,0.22135613 c -0.2830514,-0.28330024 -0.7424989,-0.28330024 -1.0259463,0 L 4.0872666,1.2428523 5.3829526,2.5385874 C 5.6841619,2.4368901 6.0294168,2.5050884 6.2694003,2.745111 6.5106344,2.9866397 6.5783394,3.334838 6.4740804,3.63706 l 1.2488022,1.2487496 c 0.3021238,-0.1041081 0.650704,-0.036848 0.8919489,0.2048311 0.3372798,0.3371816 0.3372798,0.8835428 0,1.2208366 -0.3373322,0.3373813 -0.8836935,0.3373813 -1.2211729,0 C 7.1400515,6.0576739 7.0773294,5.6850491 7.2057799,5.3725779 l -1.164632,-1.1646671 -9.81e-5,3.0647514 c 0.082229,0.040706 0.1598325,0.095036 0.2283501,0.1632595 0.3371851,0.337143 0.3371851,0.8834061 0,1.2210853 -0.3372797,0.3371325 -0.8838897,0.3371325 -1.2208365,0 -0.3372307,-0.3376792 -0.3372307,-0.8839423 0,-1.2210853 0.08334,-0.083193 0.1797738,-0.1461633 0.2826695,-0.1883623 V 4.1543623 C 5.2283372,4.1122965 5.1320537,4.0497708 5.0485634,3.9659861 4.7931271,3.710746 4.7316035,3.3358507 4.8626119,3.0221775 L 3.5853816,1.744702 0.21254613,5.1173414 c -0.28339484,0.2835315 -0.28339484,0.7429824 0,1.0263282 L 5.1315702,11.062407 c 0.2831986,0.2833 0.7425024,0.2833 1.0260969,0 L 11.053701,6.1664668 c 0.283301,-0.2834474 0.283301,-0.743035 0,-1.0263808" />
  </g>
  <path
     sodipodi:nodetypes="cc"
     inkscape:connector-curvature="0"
     id="path1627"
     d="M 155.72883,62.60428 97.15019,31.49947"
     style="fill:none;stroke:#657b83;stroke-width:1px;stroke-linecap:butt;stroke-linejoin:miter;stroke-opacity:1" />
  <path
     style="fill:none;stroke:#657b83;stroke-width:1px;stroke-linecap:butt;stroke-linejoin:miter;stroke-opacity:1"
     d="M 155.72883,99.49947 97.15019,130.60428"
     id="path1629"
     inkscape:connector-curvature="0"
     sodipodi:nodetypes="cc" />
  <path
     sodipodi:nodetypes="cc"
     inkscape:connector-curvature="0"
     id="path1631"
     d="M 172.72883,114.49947 82.15019,195.60428"
     style="fill:none;stroke:#657b83;stroke-width:1px;stroke-linecap:butt;stroke-linejoin:miter;stroke-opacity:1" />
  <g
     id="g1236"
     transform="scale(0.35)"
     style="stroke-width:2.85714293">
    <g
       data-name="footer"
       id="footer-2"
       style="stroke-width:2.85714293">
      <path
         d="m 0,20 h 240 v 196 a 4,4 0 0 1 -4,4 H 4 a 4,4 0 0 1 -4,-4 z"
         class="cls-1"
         id="bg"
         inkscape:connector-curvature="0"
         style="fill:#f7f7ff;stroke-width:2.85714293" />
      <g
         data-name="social links"
         id="social_links"
         style="stroke-width:2.85714293">
        <circle
           r="10"
           cy="184"
           cx="147"
           class="cls-2"
           id="social"
           style="fill:#f57153;stroke-width:2.85714293" />
        <circle
           r="10"
           cy="184"
           cx="175"
           class="cls-2"
           data-name="social"
           id="social-2"
           style="fill:#f57153;stroke-width:2.85714293" />
        <circle
           r="10"
           cy="184"
           cx="203"
           class="cls-2"
           data-name="social"
           id="social-3"
           style="fill:#f57153;stroke-width:2.85714293" />
      </g>
      <g
         data-name="newsletter input"
         id="newsletter_input"
         style="stroke-width:2.85714293" />
      <g
         id="links"
         style="stroke-width:2.85714293">
        <g
           id="copy"
           style="stroke-width:2.85714293">
          <path
             d="m 195.2,132 h -20.35 a 2,2 0 0 1 0,-4 h 20.35 a 2,2 0 0 1 0,4 z"
             class="cls-4"
             id="text"
             inkscape:connector-curvature="0"
             style="fill:#cbcbd1;stroke-width:2.85714293" />
        </g>
        <g
           data-name="copy"
           id="copy-2"
           style="stroke-width:2.85714293">
          <path
             d="m 203,122 h -28.15 a 2,2 0 0 1 0,-4 H 203 a 2,2 0 0 1 0,4 z"
             class="cls-4"
             data-name="text"
             id="text-2"
             inkscape:connector-curvature="0"
             style="fill:#cbcbd1;stroke-width:2.85714293" />
        </g>
        <g
           data-name="copy"
           id="copy-3"
           style="stroke-width:2.85714293">
          <path
             d="m 195.2,112 h -20.35 a 2,2 0 0 1 0,-4 h 20.35 a 2,2 0 0 1 0,4 z"
             class="cls-4"
             data-name="text"
             id="text-3"
             inkscape:connector-curvature="0"
             style="fill:#cbcbd1;stroke-width:2.85714293" />
        </g>
        <g
           data-name="copy"
           id="copy-4"
           style="stroke-width:2.85714293">
          <path
             d="m 203,102 h -28.15 a 2,2 0 0 1 0,-4 H 203 a 2,2 0 0 1 0,4 z"
             class="cls-4"
             data-name="text"
             id="text-4"
             inkscape:connector-curvature="0"
             style="fill:#cbcbd1;stroke-width:2.85714293" />
        </g>
        <g
           data-name="copy"
           id="copy-5"
           style="stroke-width:2.85714293">
          <path
             d="m 195.2,90 h -20.35 a 2,2 0 0 1 0,-4 h 20.35 a 2,2 0 0 1 0,4 z"
             class="cls-4"
             data-name="text"
             id="text-5"
             inkscape:connector-curvature="0"
             style="fill:#cbcbd1;stroke-width:2.85714293" />
        </g>
        <g
           data-name="copy"
           id="copy-6"
           style="stroke-width:2.85714293">
          <path
             d="m 203,80 h -28.15 a 2,2 0 0 1 0,-4 H 203 a 2,2 0 0 1 0,4 z"
             class="cls-4"
             data-name="text"
             id="text-6"
             inkscape:connector-curvature="0"
             style="fill:#cbcbd1;stroke-width:2.85714293" />
        </g>
        <g
           data-name="copy"
           id="copy-7"
           style="stroke-width:2.85714293">
          <path
             d="m 195.2,70 h -20.35 a 2,2 0 0 1 0,-4 h 20.35 a 2,2 0 0 1 0,4 z"
             class="cls-4"
             data-name="text"
             id="text-7"
             inkscape:connector-curvature="0"
             style="fill:#cbcbd1;stroke-width:2.85714293" />
        </g>
        <g
           data-name="copy"
           id="copy-8"
           style="stroke-width:2.85714293">
          <path
             d="m 203,60 h -28.15 a 2,2 0 0 1 0,-4 H 203 a 2,2 0 0 1 0,4 z"
             class="cls-4"
             data-name="text"
             id="text-8"
             inkscape:connector-curvature="0"
             style="fill:#cbcbd1;stroke-width:2.85714293" />
        </g>
        <g
           data-name="copy"
           id="copy-9"
           style="stroke-width:2.85714293">
          <path
             d="m 211,48 h -36 a 2,2 0 0 1 0,-4 h 36 a 2,2 0 0 1 0,4 z"
             class="cls-2"
             data-name="text"
             id="text-9"
             inkscape:connector-curvature="0"
             style="fill:#f57153;stroke-width:2.85714293" />
        </g>
      </g>
      <g
         data-name="links"
         id="links-3"
         style="stroke-width:2.85714293">
        <g
           data-name="copy"
           id="copy-19"
           style="stroke-width:2.85714293">
          <path
             d="M 49.17,132 H 28.83 a 2,2 0 0 1 0,-4 h 20.34 a 2,2 0 0 1 0,4 z"
             class="cls-4"
             data-name="text"
             id="text-19"
             inkscape:connector-curvature="0"
             style="fill:#cbcbd1;stroke-width:2.85714293" />
        </g>
        <g
           data-name="copy"
           id="copy-20"
           style="stroke-width:2.85714293">
          <path
             d="M 57,122 H 28.83 a 2,2 0 0 1 0,-4 H 57 a 2,2 0 0 1 0,4 z"
             class="cls-4"
             data-name="text"
             id="text-20"
             inkscape:connector-curvature="0"
             style="fill:#cbcbd1;stroke-width:2.85714293" />
        </g>
        <g
           data-name="copy"
           id="copy-21"
           style="stroke-width:2.85714293">
          <path
             d="M 49.17,112 H 28.83 a 2,2 0 0 1 0,-4 h 20.34 a 2,2 0 0 1 0,4 z"
             class="cls-4"
             data-name="text"
             id="text-21"
             inkscape:connector-curvature="0"
             style="fill:#cbcbd1;stroke-width:2.85714293" />
        </g>
        <g
           data-name="copy"
           id="copy-22"
           style="stroke-width:2.85714293">
          <path
             d="M 57,102 H 28.83 a 2,2 0 0 1 0,-4 H 57 a 2,2 0 0 1 0,4 z"
             class="cls-4"
             data-name="text"
             id="text-22"
             inkscape:connector-curvature="0"
             style="fill:#cbcbd1;stroke-width:2.85714293" />
        </g>
        <g
           data-name="copy"
           id="copy-23"
           style="stroke-width:2.85714293">
          <path
             d="M 49.17,90 H 28.83 a 2,2 0 0 1 0,-4 h 20.34 a 2,2 0 0 1 0,4 z"
             class="cls-4"
             data-name="text"
             id="text-23"
             inkscape:connector-curvature="0"
             style="fill:#cbcbd1;stroke-width:2.85714293" />
        </g>
        <g
           data-name="copy"
           id="copy-24"
           style="stroke-width:2.85714293">
          <path
             d="M 57,80 H 28.83 a 2,2 0 0 1 0,-4 H 57 a 2,2 0 0 1 0,4 z"
             class="cls-4"
             data-name="text"
             id="text-24"
             inkscape:connector-curvature="0"
             style="fill:#cbcbd1;stroke-width:2.85714293" />
        </g>
        <g
           data-name="copy"
           id="copy-25"
           style="stroke-width:2.85714293">
          <path
             d="M 49.17,70 H 28.83 a 2,2 0 0 1 0,-4 h 20.34 a 2,2 0 0 1 0,4 z"
             class="cls-4"
             data-name="text"
             id="text-25"
             inkscape:connector-curvature="0"
             style="fill:#cbcbd1;stroke-width:2.85714293" />
        </g>
        <g
           data-name="copy"
           id="copy-26"
           style="stroke-width:2.85714293">
          <path
             d="M 57,60 H 28.83 a 2,2 0 0 1 0,-4 H 57 a 2,2 0 0 1 0,4 z"
             class="cls-4"
             data-name="text"
             id="text-26"
             inkscape:connector-curvature="0"
             style="fill:#cbcbd1;stroke-width:2.85714293" />
        </g>
        <g
           data-name="copy"
           id="copy-27"
           style="stroke-width:2.85714293">
          <path
             d="M 65,48 H 29 a 2,2 0 0 1 0,-4 h 36 a 2,2 0 0 1 0,4 z"
             class="cls-2"
             data-name="text"
             id="text-27"
             inkscape:connector-curvature="0"
             style="fill:#f57153;stroke-width:2.85714293" />
        </g>
      </g>
    </g>
    <g
       id="browser"
       style="stroke-width:2.85714293">
      <rect
         height="14"
         width="234"
         y="2.99"
         x="3"
         class="cls-5"
         id="header"
         style="fill:#e9e9ee;stroke-width:2.85714293" />
      <path
         d="M 236,0 H 4 A 4,4 0 0 0 0,4 v 212 a 4,4 0 0 0 4,4 h 232 a 4,4 0 0 0 4,-4 V 4 a 4,4 0 0 0 -4,-4 z m 1,216 a 1,1 0 0 1 -1,1 H 4 A 1,1 0 0 1 3,216 V 20 H 237 Z M 3,17 V 4 A 1,1 0 0 1 4,3 h 232 a 1,1 0 0 1 1,1 v 13 z"
         class="cls-6"
         data-name="frame"
         id="frame-2"
         inkscape:connector-curvature="0"
         style="fill:#3e3e40;stroke-width:2.85714293" />
      <g
         id="dots"
         style="stroke-width:2.85714293">
        <circle
           r="3"
           cy="9.9899998"
           cx="10"
           class="cls-4"
           id="dot"
           style="fill:#cbcbd1;stroke-width:2.85714293" />
        <circle
           r="3"
           cy="9.9899998"
           cx="19"
           class="cls-4"
           data-name="dot"
           id="dot-2"
           style="fill:#cbcbd1;stroke-width:2.85714293" />
        <circle
           r="3"
           cy="9.9899998"
           cx="28"
           class="cls-4"
           data-name="dot"
           id="dot-3"
           style="fill:#cbcbd1;stroke-width:2.85714293" />
      </g>
    </g>
  </g>
  <g
     id="g1623"
     transform="matrix(0.50149364,0,0,0.50149364,-28.990694,2.90884)"
     style="stroke-width:0.69024569">
    <rect
       style="color:#000000;display:inline;overflow:visible;visibility:visible;opacity:0.9;fill:url(#radialGradient3936-3);fill-opacity:1;fill-rule:nonzero;stroke:none;stroke-width:0.69024569;marker:none;enable-background:accumulate"
       id="rect5505-21-3"
       y="337.5202"
       x="90.642845"
       ry="4.1791205"
       rx="4.1791205"
       height="103"
       width="103" />
    <rect
       style="opacity:0.3;fill:none;stroke:url(#linearGradient4136);stroke-width:0.69024569;stroke-linecap:round;stroke-linejoin:round;stroke-miterlimit:4;stroke-dasharray:none;stroke-dashoffset:0;stroke-opacity:1"
       id="rect6741-7"
       y="338.5202"
       x="91.642845"
       ry="3.4512286"
       rx="3.4512286"
       height="101"
       width="101" />
    <rect
       style="color:#000000;display:inline;overflow:visible;visibility:visible;opacity:0.7;fill:none;stroke:#000000;stroke-width:0.69024569;stroke-linecap:round;stroke-linejoin:round;stroke-miterlimit:4;stroke-dasharray:none;stroke-dashoffset:0;stroke-opacity:1;marker:none;enable-background:accumulate"
       id="rect5505-21-3-1"
       y="337.5202"
       x="90.642845"
       ry="4.1791205"
       rx="4.1791205"
       height="103"
       width="103" />
    <path
       style="color:#000000;clip-rule:nonzero;display:inline;overflow:visible;visibility:visible;opacity:0.15;isolation:auto;mix-blend-mode:normal;color-interpolation:sRGB;color-interpolation-filters:linearRGB;solid-color:#000000;solid-opacity:1;fill:#000000;fill-opacity:1;fill-rule:nonzero;stroke:none;stroke-width:0.69024569;stroke-linecap:butt;stroke-linejoin:miter;stroke-miterlimit:4;stroke-dasharray:none;stroke-dashoffset:0;stroke-opacity:1;marker:none;color-rendering:auto;image-rendering:auto;shape-rendering:auto;text-rendering:auto;enable-background:accumulate"
       id="path3485"
       d="m 113.14286,355.00277 a 1.0162329,1.0162329 0 0 0 -1.01562,1.01563 v 3.48828 c -1.17461,0.32637 -2.25393,0.78575 -3.13477,1.49024 a 1.0162329,1.0162329 0 0 0 -0.002,0.002 c -1.69166,1.36329 -2.57813,3.35647 -2.57813,5.6621 0,1.23497 0.25582,2.3743 0.79493,3.36133 0.51103,0.93564 1.20004,1.75912 2.04297,2.45313 0.86578,0.71283 2.05715,1.38246 3.60351,2.07422 1.58507,0.71688 2.64467,1.25572 3.04102,1.50976 a 1.0162329,1.0162329 0 0 0 0.01,0.006 c 0.45164,0.28333 0.74988,0.55741 0.91601,0.78125 a 1.0162329,1.0162329 0 0 0 0.01,0.0117 c 0.13811,0.18061 0.19336,0.3378 0.19336,0.59766 0,0.56496 -0.11734,0.7675 -0.47656,1.00976 a 1.0162329,1.0162329 0 0 0 -0.008,0.004 c -0.35846,0.24623 -1.02466,0.44532 -2.04297,0.44532 -0.84814,0 -1.8196,-0.13109 -2.9082,-0.40235 h -0.002 c -1.06455,-0.26813 -2.42266,-0.7447 -4.04688,-1.43359 a 1.0162329,1.0162329 0 0 0 -1.41211,0.93555 v 4.59961 a 1.0162329,1.0162329 0 0 0 0.58789,0.92187 c 1.62998,0.75791 3.46463,1.1495 5.41211,1.33008 v 3.15234 a 1.0162329,1.0162329 0 0 0 1.01564,1.01554 h 4 a 1.0162329,1.0162329 0 0 0 1.01563,-1.01562 v -3.53516 c 1.19676,-0.33153 2.2958,-0.78707 3.19726,-1.47461 1.8264,-1.38481 2.80274,-3.42812 2.80274,-5.79296 0,-1.71131 -0.50028,-3.25937 -1.50391,-4.49024 -1.02858,-1.27228 -2.71947,-2.35372 -5.08594,-3.42969 -1.71461,-0.77855 -2.82733,-1.33803 -3.16797,-1.55273 -0.37546,-0.25415 -0.60601,-0.4869 -0.71484,-0.64844 -0.0994,-0.15593 -0.1543,-0.32405 -0.1543,-0.59375 0,-0.44901 0.10113,-0.65966 0.42188,-0.92578 0.28757,-0.23859 0.78339,-0.42187 1.61718,-0.42187 0.74449,0 1.50598,0.0921 2.28516,0.27734 a 1.0162329,1.0162329 0 0 0 0.002,0 c 0.78887,0.18514 1.83805,0.52747 3.11914,1.02734 a 1.0162329,1.0162329 0 0 0 1.30078,-0.54101 l 1.67969,-3.84766 a 1.0162329,1.0162329 0 0 0 -0.54492,-1.3457 c -1.30545,-0.5384 -2.56644,-0.95874 -3.78516,-1.25977 h -0.002 c -0.47736,-0.11894 -0.97529,-0.16946 -1.46679,-0.24023 v -3.20508 a 1.0162329,1.0162329 0 0 0 -1.01563,-1.01563 z m 18,35 a 1.0162329,1.0162329 0 0 0 -1.01563,1.01563 v 4 a 1.0162329,1.0162329 0 0 0 1.01563,1.01562 h 21 a 1.0162329,1.0162329 0 0 0 1.01562,-1.01562 v -4 a 1.0162329,1.0162329 0 0 0 -1.01562,-1.01563 z"
       inkscape:connector-curvature="0" />
    <path
       id="rect4237-3"
       d="m 113.14286,356.0184 v 4.23437 c -1.39916,0.2728 -2.57253,0.78284 -3.51562,1.53711 -1.46625,1.18164 -2.19922,2.80589 -2.19922,4.8711 0,1.09647 0.22416,2.0553 0.67187,2.875 0.44771,0.81969 1.04696,1.53686 1.79688,2.15429 0.74991,0.61744 1.87517,1.26294 3.375,1.9336 1.60056,0.72388 2.65701,1.25007 3.17187,1.58008 0.52606,0.33 0.92474,0.67516 1.19336,1.03711 0.26863,0.35129 0.40234,0.75709 0.40234,1.21484 0,0.81969 -0.30822,1.43639 -0.92382,1.85156 -0.60441,0.41517 -1.47749,0.62305 -2.61914,0.62305 -0.95139,0 -2.0034,-0.14422 -3.15625,-0.43164 -1.14166,-0.28743 -2.54075,-0.78178 -4.19727,-1.48438 v 4.59961 c 1.76364,0.82006 3.7732,1.25914 6,1.36133 v 4.04297 h 4 v -4.2832 c 1.43042,-0.28918 2.63293,-0.799 3.59961,-1.53711 1.60056,-1.21358 2.40039,-2.87464 2.40039,-4.98242 0,-1.52229 -0.42474,-2.80441 -1.27539,-3.84766 -0.85065,-1.05389 -2.42424,-2.10324 -4.71875,-3.14649 -1.73487,-0.78775 -2.83655,-1.33083 -3.30664,-1.6289 -0.4589,-0.30872 -0.79515,-0.62205 -1.00781,-0.94141 -0.21267,-0.33 -0.31836,-0.71393 -0.31836,-1.15039 0,-0.70259 0.263,-1.27057 0.78906,-1.70703 0.52606,-0.43646 1.28066,-0.65625 2.26562,-0.65625 0.82827,0 1.66889,0.10243 2.51954,0.30469 0.86184,0.20226 1.94631,0.55738 3.25586,1.06836 l 1.67968,-3.84766 c -1.26477,-0.52162 -2.48048,-0.92546 -3.64453,-1.21289 -0.72116,-0.1798 -1.46894,-0.29791 -2.23828,-0.36523 v -4.06641 z m 18,35 v 4 h 21 v -4 z"
       style="color:#000000;clip-rule:nonzero;display:inline;overflow:visible;visibility:visible;opacity:0.3;isolation:auto;mix-blend-mode:normal;color-interpolation:sRGB;color-interpolation-filters:linearRGB;solid-color:#000000;solid-opacity:1;fill:#000000;fill-opacity:1;fill-rule:nonzero;stroke:none;stroke-width:0.69024569;stroke-linecap:butt;stroke-linejoin:miter;stroke-miterlimit:4;stroke-dasharray:none;stroke-dashoffset:0;stroke-opacity:1;marker:none;color-rendering:auto;image-rendering:auto;shape-rendering:auto;text-rendering:auto;enable-background:accumulate"
       inkscape:connector-curvature="0" />
    <path
       id="rect4237"
       d="m 113.14286,355.0184 v 4.23438 c -1.39916,0.27279 -2.57253,0.78283 -3.51562,1.53711 -1.46625,1.18163 -2.19922,2.80589 -2.19922,4.87109 0,1.09647 0.22416,2.05531 0.67187,2.875 0.44771,0.81969 1.04696,1.53686 1.79688,2.1543 0.74991,0.61743 1.87517,1.26293 3.375,1.93359 1.60056,0.72389 2.65701,1.25007 3.17187,1.58008 0.52606,0.33001 0.92474,0.67516 1.19336,1.03711 0.26863,0.3513 0.40234,0.75709 0.40234,1.21484 0,0.8197 -0.30822,1.43639 -0.92382,1.85156 -0.60441,0.41517 -1.47749,0.62305 -2.61914,0.62305 -0.95139,0 -2.0034,-0.14421 -3.15625,-0.43164 -1.14166,-0.28742 -2.54075,-0.78178 -4.19727,-1.48437 v 4.5996 c 1.76364,0.82006 3.7732,1.25914 6,1.36133 v 4.04297 h 4 v -4.2832 c 1.43042,-0.28918 2.63293,-0.79899 3.59961,-1.53711 1.60056,-1.21357 2.40039,-2.87464 2.40039,-4.98242 0,-1.52229 -0.42474,-2.80441 -1.27539,-3.84766 -0.85065,-1.05389 -2.42424,-2.10324 -4.71875,-3.14648 -1.73487,-0.78776 -2.83655,-1.33084 -3.30664,-1.62891 -0.4589,-0.30872 -0.79515,-0.62204 -1.00781,-0.94141 -0.21267,-0.33 -0.31836,-0.71393 -0.31836,-1.15039 0,-0.70259 0.263,-1.27057 0.78906,-1.70703 0.52606,-0.43646 1.28066,-0.65625 2.26562,-0.65625 0.82827,0 1.66889,0.10243 2.51954,0.30469 0.86184,0.20226 1.94631,0.55738 3.25586,1.06836 l 1.67968,-3.84766 c -1.26477,-0.52162 -2.48048,-0.92546 -3.64453,-1.21289 -0.72116,-0.1798 -1.46894,-0.29791 -2.23828,-0.36523 v -4.06641 z m 18,35 v 4 h 21 v -4 z"
       style="color:#000000;clip-rule:nonzero;display:inline;overflow:visible;visibility:visible;opacity:1;isolation:auto;mix-blend-mode:normal;color-interpolation:sRGB;color-interpolation-filters:linearRGB;solid-color:#000000;solid-opacity:1;fill:#ffffff;fill-opacity:1;fill-rule:nonzero;stroke:none;stroke-width:3.45122862;stroke-linecap:butt;stroke-linejoin:miter;stroke-miterlimit:4;stroke-dasharray:none;stroke-dashoffset:0;stroke-opacity:1;marker:none;color-rendering:auto;image-rendering:auto;shape-rendering:auto;text-rendering:auto;enable-background:accumulate"
       inkscape:connector-curvature="0" />
  </g>
  <g
     style="stroke-width:2.85714293"
     transform="matrix(0.35,0,0,0.35,0,86)"
     id="g1384">
    <g
       style="stroke-width:2.85714293"
       id="g1368"
       data-name="footer">
      <path
         style="fill:#657b83;stroke-width:2.85714293"
         inkscape:connector-curvature="0"
         id="path1238"
         class="cls-1"
         d="m 0,20 h 240 v 196 a 4,4 0 0 1 -4,4 H 4 a 4,4 0 0 1 -4,-4 z" />
      <g
         style="stroke-width:2.85714293"
         id="g1246"
         data-name="social links" />
      <g
         style="stroke-width:2.85714293"
         id="g1252"
         data-name="newsletter input">
        <rect
           style="fill:#ededf5;stroke-width:2.85714293"
           id="rect1248"
           class="cls-3"
           x="27"
           y="175"
           width="85"
           height="20"
           rx="28.571428"
           ry="28.571428" />
        <path
           style="fill:#f57153;stroke-width:2.85714293"
           inkscape:connector-curvature="0"
           id="path1250"
           class="cls-2"
           d="m 102,178 a 7,7 0 0 1 0,14 H 37 a 7,7 0 0 1 0,-14 h 65 m 0,-3 H 37 a 10,10 0 0 0 0,20 h 65 a 10,10 0 0 0 0,-20 z" />
      </g>
      <g
         style="stroke-width:2.85714293"
         id="g1290">
        <g
           style="stroke-width:2.85714293"
           id="g1256">
          <path
             style="fill:#cbcbd1;stroke-width:2.85714293"
             inkscape:connector-curvature="0"
             id="path1254"
             class="cls-4"
             d="m 195.2,132 h -20.35 a 2,2 0 0 1 0,-4 h 20.35 a 2,2 0 0 1 0,4 z" />
        </g>
        <g
           style="stroke-width:2.85714293"
           id="g1260"
           data-name="copy">
          <path
             style="fill:#cbcbd1;stroke-width:2.85714293"
             inkscape:connector-curvature="0"
             id="path1258"
             data-name="text"
             class="cls-4"
             d="m 203,122 h -28.15 a 2,2 0 0 1 0,-4 H 203 a 2,2 0 0 1 0,4 z" />
        </g>
        <g
           style="stroke-width:2.85714293"
           id="g1264"
           data-name="copy">
          <path
             style="fill:#cbcbd1;stroke-width:2.85714293"
             inkscape:connector-curvature="0"
             id="path1262"
             data-name="text"
             class="cls-4"
             d="m 195.2,112 h -20.35 a 2,2 0 0 1 0,-4 h 20.35 a 2,2 0 0 1 0,4 z" />
        </g>
        <g
           style="stroke-width:2.85714293"
           id="g1268"
           data-name="copy">
          <path
             style="fill:#cbcbd1;stroke-width:2.85714293"
             inkscape:connector-curvature="0"
             id="path1266"
             data-name="text"
             class="cls-4"
             d="m 203,102 h -28.15 a 2,2 0 0 1 0,-4 H 203 a 2,2 0 0 1 0,4 z" />
        </g>
        <g
           style="stroke-width:2.85714293"
           id="g1272"
           data-name="copy">
          <path
             style="fill:#cbcbd1;stroke-width:2.85714293"
             inkscape:connector-curvature="0"
             id="path1270"
             data-name="text"
             class="cls-4"
             d="m 195.2,90 h -20.35 a 2,2 0 0 1 0,-4 h 20.35 a 2,2 0 0 1 0,4 z" />
        </g>
        <g
           style="stroke-width:2.85714293"
           id="g1276"
           data-name="copy">
          <path
             style="fill:#cbcbd1;stroke-width:2.85714293"
             inkscape:connector-curvature="0"
             id="path1274"
             data-name="text"
             class="cls-4"
             d="m 203,80 h -28.15 a 2,2 0 0 1 0,-4 H 203 a 2,2 0 0 1 0,4 z" />
        </g>
        <g
           style="stroke-width:2.85714293"
           id="g1280"
           data-name="copy">
          <path
             style="fill:#cbcbd1;stroke-width:2.85714293"
             inkscape:connector-curvature="0"
             id="path1278"
             data-name="text"
             class="cls-4"
             d="m 195.2,70 h -20.35 a 2,2 0 0 1 0,-4 h 20.35 a 2,2 0 0 1 0,4 z" />
        </g>
        <g
           style="stroke-width:2.85714293"
           id="g1284"
           data-name="copy">
          <path
             style="fill:#cbcbd1;stroke-width:2.85714293"
             inkscape:connector-curvature="0"
             id="path1282"
             data-name="text"
             class="cls-4"
             d="m 203,60 h -28.15 a 2,2 0 0 1 0,-4 H 203 a 2,2 0 0 1 0,4 z" />
        </g>
        <g
           style="stroke-width:2.85714293"
           id="g1288"
           data-name="copy">
          <path
             style="fill:#f57153;stroke-width:2.85714293"
             inkscape:connector-curvature="0"
             id="path1286"
             data-name="text"
             class="cls-2"
             d="m 211,48 h -36 a 2,2 0 0 1 0,-4 h 36 a 2,2 0 0 1 0,4 z" />
        </g>
      </g>
      <g
         style="stroke-width:2.85714293"
         id="g1328"
         data-name="links">
        <g
           style="stroke-width:2.85714293"
           id="g1294"
           data-name="copy">
          <path
             style="fill:#cbcbd1;stroke-width:2.85714293"
             inkscape:connector-curvature="0"
             id="path1292"
             data-name="text"
             class="cls-4"
             d="m 122.19,132 h -20.35 a 2,2 0 0 1 0,-4 h 20.35 a 2,2 0 0 1 0,4 z" />
        </g>
        <g
           style="stroke-width:2.85714293"
           id="g1298"
           data-name="copy">
          <path
             style="fill:#cbcbd1;stroke-width:2.85714293"
             inkscape:connector-curvature="0"
             id="path1296"
             data-name="text"
             class="cls-4"
             d="m 130,122 h -28.16 a 2,2 0 0 1 0,-4 H 130 a 2,2 0 0 1 0,4 z" />
        </g>
        <g
           style="stroke-width:2.85714293"
           id="g1302"
           data-name="copy">
          <path
             style="fill:#cbcbd1;stroke-width:2.85714293"
             inkscape:connector-curvature="0"
             id="path1300"
             data-name="text"
             class="cls-4"
             d="m 122.19,112 h -20.35 a 2,2 0 0 1 0,-4 h 20.35 a 2,2 0 0 1 0,4 z" />
        </g>
        <g
           style="stroke-width:2.85714293"
           id="g1306"
           data-name="copy">
          <path
             style="fill:#cbcbd1;stroke-width:2.85714293"
             inkscape:connector-curvature="0"
             id="path1304"
             data-name="text"
             class="cls-4"
             d="m 130,102 h -28.16 a 2,2 0 0 1 0,-4 H 130 a 2,2 0 0 1 0,4 z" />
        </g>
        <g
           style="stroke-width:2.85714293"
           id="g1310"
           data-name="copy">
          <path
             style="fill:#cbcbd1;stroke-width:2.85714293"
             inkscape:connector-curvature="0"
             id="path1308"
             data-name="text"
             class="cls-4"
             d="m 122.19,90 h -20.35 a 2,2 0 0 1 0,-4 h 20.35 a 2,2 0 0 1 0,4 z" />
        </g>
        <g
           style="stroke-width:2.85714293"
           id="g1314"
           data-name="copy">
          <path
             style="fill:#cbcbd1;stroke-width:2.85714293"
             inkscape:connector-curvature="0"
             id="path1312"
             data-name="text"
             class="cls-4"
             d="m 130,80 h -28.16 a 2,2 0 0 1 0,-4 H 130 a 2,2 0 0 1 0,4 z" />
        </g>
        <g
           style="stroke-width:2.85714293"
           id="g1318"
           data-name="copy">
          <path
             style="fill:#cbcbd1;stroke-width:2.85714293"
             inkscape:connector-curvature="0"
             id="path1316"
             data-name="text"
             class="cls-4"
             d="m 122.19,70 h -20.35 a 2,2 0 0 1 0,-4 h 20.35 a 2,2 0 0 1 0,4 z" />
        </g>
        <g
           style="stroke-width:2.85714293"
           id="g1322"
           data-name="copy">
          <path
             style="fill:#cbcbd1;stroke-width:2.85714293"
             inkscape:connector-curvature="0"
             id="path1320"
             data-name="text"
             class="cls-4"
             d="m 130,60 h -28.16 a 2,2 0 0 1 0,-4 H 130 a 2,2 0 0 1 0,4 z" />
        </g>
        <g
           style="stroke-width:2.85714293"
           id="g1326"
           data-name="copy">
          <path
             style="fill:#f57153;stroke-width:2.85714293"
             inkscape:connector-curvature="0"
             id="path1324"
             data-name="text"
             class="cls-2"
             d="m 138,48 h -36 a 2,2 0 0 1 0,-4 h 36 a 2,2 0 0 1 0,4 z" />
        </g>
      </g>
      <g
         style="stroke-width:2.85714293"
         id="g1366"
         data-name="links">
        <g
           style="stroke-width:2.85714293"
           id="g1332"
           data-name="copy">
          <path
             style="fill:#cbcbd1;stroke-width:2.85714293"
             inkscape:connector-curvature="0"
             id="path1330"
             data-name="text"
             class="cls-4"
             d="M 49.17,132 H 28.83 a 2,2 0 0 1 0,-4 h 20.34 a 2,2 0 0 1 0,4 z" />
        </g>
        <g
           style="stroke-width:2.85714293"
           id="g1336"
           data-name="copy">
          <path
             style="fill:#cbcbd1;stroke-width:2.85714293"
             inkscape:connector-curvature="0"
             id="path1334"
             data-name="text"
             class="cls-4"
             d="M 57,122 H 28.83 a 2,2 0 0 1 0,-4 H 57 a 2,2 0 0 1 0,4 z" />
        </g>
        <g
           style="stroke-width:2.85714293"
           id="g1340"
           data-name="copy">
          <path
             style="fill:#cbcbd1;stroke-width:2.85714293"
             inkscape:connector-curvature="0"
             id="path1338"
             data-name="text"
             class="cls-4"
             d="M 49.17,112 H 28.83 a 2,2 0 0 1 0,-4 h 20.34 a 2,2 0 0 1 0,4 z" />
        </g>
        <g
           style="stroke-width:2.85714293"
           id="g1344"
           data-name="copy">
          <path
             style="fill:#cbcbd1;stroke-width:2.85714293"
             inkscape:connector-curvature="0"
             id="path1342"
             data-name="text"
             class="cls-4"
             d="M 57,102 H 28.83 a 2,2 0 0 1 0,-4 H 57 a 2,2 0 0 1 0,4 z" />
        </g>
        <g
           style="stroke-width:2.85714293"
           id="g1348"
           data-name="copy">
          <path
             style="fill:#cbcbd1;stroke-width:2.85714293"
             inkscape:connector-curvature="0"
             id="path1346"
             data-name="text"
             class="cls-4"
             d="M 49.17,90 H 28.83 a 2,2 0 0 1 0,-4 h 20.34 a 2,2 0 0 1 0,4 z" />
        </g>
        <g
           style="stroke-width:2.85714293"
           id="g1352"
           data-name="copy">
          <path
             style="fill:#cbcbd1;stroke-width:2.85714293"
             inkscape:connector-curvature="0"
             id="path1350"
             data-name="text"
             class="cls-4"
             d="M 57,80 H 28.83 a 2,2 0 0 1 0,-4 H 57 a 2,2 0 0 1 0,4 z" />
        </g>
        <g
           style="stroke-width:2.85714293"
           id="g1356"
           data-name="copy">
          <path
             style="fill:#cbcbd1;stroke-width:2.85714293"
             inkscape:connector-curvature="0"
             id="path1354"
             data-name="text"
             class="cls-4"
             d="M 49.17,70 H 28.83 a 2,2 0 0 1 0,-4 h 20.34 a 2,2 0 0 1 0,4 z" />
        </g>
        <g
           style="stroke-width:2.85714293"
           id="g1360"
           data-name="copy">
          <path
             style="fill:#cbcbd1;stroke-width:2.85714293"
             inkscape:connector-curvature="0"
             id="path1358"
             data-name="text"
             class="cls-4"
             d="M 57,60 H 28.83 a 2,2 0 0 1 0,-4 H 57 a 2,2 0 0 1 0,4 z" />
        </g>
        <g
           style="stroke-width:2.85714293"
           id="g1364"
           data-name="copy">
          <path
             style="fill:#f57153;stroke-width:2.85714293"
             inkscape:connector-curvature="0"
             id="path1362"
             data-name="text"
             class="cls-2"
             d="M 65,48 H 29 a 2,2 0 0 1 0,-4 h 36 a 2,2 0 0 1 0,4 z" />
        </g>
      </g>
    </g>
    <g
       style="stroke-width:2.85714293"
       id="g1382">
      <rect
         style="fill:#e9e9ee;stroke-width:2.85714293"
         id="rect1370"
         class="cls-5"
         x="3"
         y="2.99"
         width="234"
         height="14" />
      <path
         style="fill:#3e3e40;stroke-width:2.85714293"
         inkscape:connector-curvature="0"
         id="path1372"
         data-name="frame"
         class="cls-6"
         d="M 236,0 H 4 A 4,4 0 0 0 0,4 v 212 a 4,4 0 0 0 4,4 h 232 a 4,4 0 0 0 4,-4 V 4 a 4,4 0 0 0 -4,-4 z m 1,216 a 1,1 0 0 1 -1,1 H 4 A 1,1 0 0 1 3,216 V 20 H 237 Z M 3,17 V 4 A 1,1 0 0 1 4,3 h 232 a 1,1 0 0 1 1,1 v 13 z" />
      <g
         style="stroke-width:2.85714293"
         id="g1380">
        <circle
           style="fill:#cbcbd1;stroke-width:2.85714293"
           id="circle1374"
           class="cls-4"
           cx="10"
           cy="9.9899998"
           r="3" />
        <circle
           style="fill:#cbcbd1;stroke-width:2.85714293"
           id="circle1376"
           data-name="dot"
           class="cls-4"
           cx="19"
           cy="9.9899998"
           r="3" />
        <circle
           style="fill:#cbcbd1;stroke-width:2.85714293"
           id="circle1378"
           data-name="dot"
           class="cls-4"
           cx="28"
           cy="9.9899998"
           r="3" />
      </g>
    </g>
  </g>
</svg>
