<?xml version="1.0" encoding="UTF-8" standalone="no"?>
<!-- Created with Inkscape (http://www.inkscape.org/) -->

<svg
   xmlns:dc="http://purl.org/dc/elements/1.1/"
   xmlns:cc="http://creativecommons.org/ns#"
   xmlns:rdf="http://www.w3.org/1999/02/22-rdf-syntax-ns#"
   xmlns:svg="http://www.w3.org/2000/svg"
   xmlns="http://www.w3.org/2000/svg"
   xmlns:xlink="http://www.w3.org/1999/xlink"
   xmlns:sodipodi="http://sodipodi.sourceforge.net/DTD/sodipodi-0.dtd"
   xmlns:inkscape="http://www.inkscape.org/namespaces/inkscape"
   width="105.58162"
   height="111.60764"
   viewBox="0 0 27.935136 29.529519"
   version="1.1"
   id="svg6778"
   inkscape:version="0.92.1 r15381"
   sodipodi:docname="changes.inkscape.svg">
  <defs
     id="defs6772">
    <marker
       inkscape:stockid="TriangleOutL"
       orient="auto"
       refY="0"
       refX="0"
       id="marker11646"
       style="overflow:visible"
       inkscape:isstock="true">
      <path
         id="path11644"
         d="M 5.77,0 -2.88,5 V -5 Z"
         style="fill:#657b83;fill-opacity:1;fill-rule:evenodd;stroke:#657b83;stroke-width:1.00000003pt;stroke-opacity:1"
         transform="scale(0.8)"
         inkscape:connector-curvature="0" />
    </marker>
    <clipPath
       id="clipPath16"
       clipPathUnits="userSpaceOnUse">
      <path
         inkscape:connector-curvature="0"
         id="path18"
         d="M 0,36 H 36 V 0 H 0 Z" />
    </clipPath>
    <clipPath
       id="clipPath16-7"
       clipPathUnits="userSpaceOnUse">
      <path
         inkscape:connector-curvature="0"
         id="path18-9"
         d="M 0,36 H 36 V 0 H 0 Z" />
    </clipPath>
    <linearGradient
       id="linearGradient3462">
      <stop
         id="stop3464"
         style="stop-color:#ffffff;stop-opacity:1"
         offset="0" />
      <stop
         id="stop3466"
         style="stop-color:#ffffff;stop-opacity:0.23529412"
         offset="0.03457849" />
      <stop
         id="stop3468"
         style="stop-color:#ffffff;stop-opacity:0.15686275"
         offset="0.96375686" />
      <stop
         id="stop3470"
         style="stop-color:#ffffff;stop-opacity:0.39215687"
         offset="1" />
    </linearGradient>
    <linearGradient
       id="linearGradient5060-2">
      <stop
         id="stop5062-3"
         style="stop-color:#000000;stop-opacity:1"
         offset="0" />
      <stop
         id="stop5064-1"
         style="stop-color:#000000;stop-opacity:0"
         offset="1" />
    </linearGradient>
    <linearGradient
       id="linearGradient5048-8">
      <stop
         id="stop5050-4"
         style="stop-color:#000000;stop-opacity:0"
         offset="0" />
      <stop
         id="stop5056-5"
         style="stop-color:#000000;stop-opacity:1"
         offset="0.5" />
      <stop
         id="stop5052-1"
         style="stop-color:#000000;stop-opacity:0"
         offset="1" />
    </linearGradient>
    <radialGradient
       cx="605.71429"
       cy="486.64789"
       r="117.14286"
       fx="605.71429"
       fy="486.64789"
       id="radialGradient3172"
       xlink:href="#linearGradient5060-2"
       gradientUnits="userSpaceOnUse"
       gradientTransform="matrix(0.02458466,0,0,0.01575355,109.28161,109.82487)" />
    <radialGradient
       cx="605.71429"
       cy="486.64789"
       r="117.14286"
       fx="605.71429"
       fy="486.64789"
       id="radialGradient3175"
       xlink:href="#linearGradient5060-2"
       gradientUnits="userSpaceOnUse"
       gradientTransform="matrix(-0.02458466,0,0,0.01575355,96.829523,109.82487)" />
    <linearGradient
       x1="302.85715"
       y1="366.64789"
       x2="302.85715"
       y2="609.50507"
       id="linearGradient3178"
       xlink:href="#linearGradient5048-8"
       gradientUnits="userSpaceOnUse"
       gradientTransform="matrix(0.08715722,0,0,0.01575355,71.554454,109.82487)" />
    <linearGradient
       xlink:href="#linearGradient3462"
       id="linearGradient3133"
       gradientUnits="userSpaceOnUse"
       gradientTransform="matrix(1.7048308,0,0,1.0133365,62.139624,73.736322)"
       x1="40.290417"
       y1="5.4143372"
       x2="40.290417"
       y2="42.437775" />
    <radialGradient
       gradientTransform="matrix(0,2.7905692,-4.9069185,-8.4436746e-8,144.51807,59.295952)"
       gradientUnits="userSpaceOnUse"
       xlink:href="#linearGradient2867-449-88-871-390-598-476-591-434-148-57-177-8"
       id="radialGradient3166-9"
       fy="8.4497671"
       fx="4.5993023"
       r="19.99999"
       cy="8.4497671"
       cx="4.5993023" />
    <linearGradient
       id="linearGradient2867-449-88-871-390-598-476-591-434-148-57-177-8">
      <stop
         offset="0"
         style="stop-color:#90dbec;stop-opacity:1"
         id="stop3750-4" />
      <stop
         offset="0.26238"
         style="stop-color:#55c1ec;stop-opacity:1"
         id="stop3752-8" />
      <stop
         offset="0.704952"
         style="stop-color:#3689e6;stop-opacity:1"
         id="stop3754-1" />
      <stop
         offset="1"
         style="stop-color:#2b63a0;stop-opacity:1"
         id="stop3756-0" />
    </linearGradient>
    <marker
       inkscape:isstock="true"
       style="overflow:visible"
       id="marker11646-3"
       refX="0"
       refY="0"
       orient="auto"
       inkscape:stockid="TriangleOutL">
      <path
         inkscape:connector-curvature="0"
         transform="scale(0.8)"
         style="fill:#657b83;fill-opacity:1;fill-rule:evenodd;stroke:#657b83;stroke-width:1.00000003pt;stroke-opacity:1"
         d="M 5.77,0 -2.88,5 V -5 Z"
         id="path11644-8" />
    </marker>
    <clipPath
       clipPathUnits="userSpaceOnUse"
       id="clipPath16-0">
      <path
         d="M 0,36 H 36 V 0 H 0 Z"
         id="path18-2"
         inkscape:connector-curvature="0" />
    </clipPath>
    <clipPath
       clipPathUnits="userSpaceOnUse"
       id="clipPath16-7-4">
      <path
         d="M 0,36 H 36 V 0 H 0 Z"
         id="path18-9-8"
         inkscape:connector-curvature="0" />
    </clipPath>
    <radialGradient
       gradientTransform="matrix(0.02458466,0,0,0.01575355,109.28161,109.82487)"
       gradientUnits="userSpaceOnUse"
       xlink:href="#linearGradient5060-2"
       id="radialGradient3172-9"
       fy="486.64789"
       fx="605.71429"
       r="117.14286"
       cy="486.64789"
       cx="605.71429" />
    <radialGradient
       gradientTransform="matrix(-0.02458466,0,0,0.01575355,96.829523,109.82487)"
       gradientUnits="userSpaceOnUse"
       xlink:href="#linearGradient5060-2"
       id="radialGradient3175-0"
       fy="486.64789"
       fx="605.71429"
       r="117.14286"
       cy="486.64789"
       cx="605.71429" />
    <radialGradient
       cx="4.5993023"
       cy="8.4497671"
       r="19.99999"
       fx="4.5993023"
       fy="8.4497671"
       id="radialGradient3166-9-2"
       xlink:href="#linearGradient2867-449-88-871-390-598-476-591-434-148-57-177-8"
       gradientUnits="userSpaceOnUse"
       gradientTransform="matrix(0,2.7905692,-4.9069185,-8.4436746e-8,144.51807,59.295952)" />
    <marker
       inkscape:stockid="TriangleOutL"
       orient="auto"
       refY="0"
       refX="0"
       id="marker5790"
       style="overflow:visible"
       inkscape:isstock="true">
      <path
         id="path5788"
         d="M 5.77,0 -2.88,5 V -5 Z"
         style="fill:#657b83;fill-opacity:1;fill-rule:evenodd;stroke:#657b83;stroke-width:1.00000003pt;stroke-opacity:1"
         transform="scale(0.8)"
         inkscape:connector-curvature="0" />
    </marker>
    <marker
       inkscape:isstock="true"
       style="overflow:visible"
       id="Torso"
       refX="0"
       refY="0"
       orient="auto"
       inkscape:stockid="Torso">
      <g
         style="fill:#657b83;fill-opacity:1;stroke:#657b83;stroke-opacity:1"
         transform="scale(0.7)"
         id="g5591">
        <path
           style="fill:#657b83;fill-opacity:1;fill-rule:evenodd;stroke:#657b83;stroke-width:1.25;stroke-opacity:1"
           d="m -4.7792281,-3.239542 c 2.350374,0.3659393 5.30026732,1.9375477 5.03715532,3.62748546 C -0.00518779,2.0778819 -2.2126741,2.6176539 -4.5630471,2.2517169 -6.9134221,1.8857769 -8.521035,0.75201414 -8.257922,-0.93792336 -7.994809,-2.6278615 -7.1296041,-3.6054813 -4.7792281,-3.239542 Z"
           id="path5577"
           inkscape:connector-curvature="0" />
        <path
           style="fill:#657b83;fill-opacity:1;fill-rule:evenodd;stroke:#657b83;stroke-width:1.00000003pt;stroke-opacity:1"
           d="M 4.4598789,0.08866574 C -2.5564571,-4.378332 5.2248769,-3.9061806 -0.84829578,-8.7197331"
           id="path5579"
           inkscape:connector-curvature="0" />
        <path
           style="fill:#657b83;fill-opacity:1;fill-rule:evenodd;stroke:#657b83;stroke-width:1.00000003pt;stroke-opacity:1"
           d="M 4.9298719,0.05752074 C -1.3872731,1.7494689 1.8027579,5.4782079 -4.9448731,7.5462725"
           id="path5581"
           inkscape:connector-curvature="0" />
        <rect
           style="fill:#657b83;fill-opacity:1;fill-rule:evenodd;stroke:#657b83;stroke-width:1.00000003pt;stroke-opacity:1"
           width="2.6366582"
           height="2.7608147"
           x="-10.391706"
           y="-1.7408575"
           transform="matrix(0.527536,-0.849533,0.887668,0.460484,0,0)"
           id="rect5583" />
        <rect
           style="fill:#657b83;fill-opacity:1;fill-rule:evenodd;stroke:#657b83;stroke-width:1.00000003pt;stroke-opacity:1"
           width="2.7327356"
           height="2.8614161"
           x="4.9587269"
           y="-7.9629307"
           transform="matrix(0.671205,-0.741272,0.790802,0.612072,0,0)"
           id="rect5585" />
        <path
           style="fill:#657b83;fill-opacity:1;fill-rule:evenodd;stroke:#657b83;stroke-width:1.00000003pt;stroke-opacity:1"
           d="m 16.779951,-28.685045 a 0.60731727,0.60731727 0 1 0 -1.214634,0 0.60731727,0.60731727 0 1 0 1.214634,0 z"
           transform="matrix(0,-1.109517,1.109517,0,25.96648,19.71619)"
           id="path5587"
           inkscape:connector-curvature="0" />
        <path
           style="fill:#657b83;fill-opacity:1;fill-rule:evenodd;stroke:#657b83;stroke-width:1.00000003pt;stroke-opacity:1"
           d="m 16.779951,-28.685045 a 0.60731727,0.60731727 0 1 0 -1.214634,0 0.60731727,0.60731727 0 1 0 1.214634,0 z"
           transform="matrix(0,-1.109517,1.109517,0,26.8245,16.99126)"
           id="path5589"
           inkscape:connector-curvature="0" />
      </g>
    </marker>
    <marker
       inkscape:stockid="TriangleOutL"
       orient="auto"
       refY="0"
       refX="0"
       id="marker5315"
       style="overflow:visible"
       inkscape:isstock="true">
      <path
         id="path5313"
         d="M 5.77,0 -2.88,5 V -5 Z"
         style="fill:#657b83;fill-opacity:1;fill-rule:evenodd;stroke:#657b83;stroke-width:1.00000003pt;stroke-opacity:1"
         transform="scale(0.8)"
         inkscape:connector-curvature="0" />
    </marker>
    <marker
       inkscape:stockid="TriangleOutL"
       orient="auto"
       refY="0"
       refX="0"
       id="marker5263"
       style="overflow:visible"
       inkscape:isstock="true">
      <path
         id="path5261"
         d="M 5.77,0 -2.88,5 V -5 Z"
         style="fill:#657b83;fill-opacity:1;fill-rule:evenodd;stroke:#657b83;stroke-width:1.00000003pt;stroke-opacity:1"
         transform="scale(0.8)"
         inkscape:connector-curvature="0" />
    </marker>
    <marker
       inkscape:stockid="TriangleOutL"
       orient="auto"
       refY="0"
       refX="0"
       id="marker4845"
       style="overflow:visible"
       inkscape:isstock="true">
      <path
         id="path4843"
         d="M 5.77,0 -2.88,5 V -5 Z"
         style="fill:#657b83;fill-opacity:1;fill-rule:evenodd;stroke:#657b83;stroke-width:1.00000003pt;stroke-opacity:1"
         transform="scale(0.8)"
         inkscape:connector-curvature="0" />
    </marker>
    <clipPath
       clipPathUnits="userSpaceOnUse"
       id="clipPath16-5">
      <path
         d="M 0,36 H 36 V 0 H 0 Z"
         id="path18-4"
         inkscape:connector-curvature="0" />
    </clipPath>
    <clipPath
       clipPathUnits="userSpaceOnUse"
       id="clipPath16-7-9">
      <path
         d="M 0,36 H 36 V 0 H 0 Z"
         id="path18-9-1"
         inkscape:connector-curvature="0" />
    </clipPath>
    <radialGradient
       gradientTransform="matrix(0.02458466,0,0,0.01575355,109.28161,109.82487)"
       gradientUnits="userSpaceOnUse"
       xlink:href="#linearGradient5060-2"
       id="radialGradient3172-2"
       fy="486.64789"
       fx="605.71429"
       r="117.14286"
       cy="486.64789"
       cx="605.71429" />
    <radialGradient
       gradientTransform="matrix(-0.02458466,0,0,0.01575355,96.829523,109.82487)"
       gradientUnits="userSpaceOnUse"
       xlink:href="#linearGradient5060-2"
       id="radialGradient3175-2"
       fy="486.64789"
       fx="605.71429"
       r="117.14286"
       cy="486.64789"
       cx="605.71429" />
    <radialGradient
       cx="4.5993023"
       cy="8.4497671"
       r="19.99999"
       fx="4.5993023"
       fy="8.4497671"
       id="radialGradient3166-9-6"
       xlink:href="#linearGradient2867-449-88-871-390-598-476-591-434-148-57-177-8"
       gradientUnits="userSpaceOnUse"
       gradientTransform="matrix(0,2.7905692,-4.9069185,-8.4436746e-8,144.51807,59.295952)" />
    <clipPath
       id="clipPath16-79"
       clipPathUnits="userSpaceOnUse">
      <path
         id="path18-3"
         d="M 0,36 H 36 V 0 H 0 Z"
         inkscape:connector-curvature="0" />
    </clipPath>
    <clipPath
       id="clipPath98"
       clipPathUnits="userSpaceOnUse">
      <path
         id="path100"
         d="M 9.5,13 C 8.119,13 7,11.881 7,10.5 v 0 C 7,9.119 8.119,8 9.5,8 v 0 h 17 c 1.381,0 2.5,1.119 2.5,2.5 v 0 c 0,1.381 -1.119,2.5 -2.5,2.5 v 0 z"
         inkscape:connector-curvature="0" />
    </clipPath>
    <clipPath
       id="clipPath110"
       clipPathUnits="userSpaceOnUse">
      <path
         id="path112"
         d="M 0,36 H 36 V 0 H 0 Z"
         inkscape:connector-curvature="0" />
    </clipPath>
  </defs>
  <sodipodi:namedview
     id="base"
     pagecolor="#ffffff"
     bordercolor="#666666"
     borderopacity="1.0"
     inkscape:pageopacity="0.0"
     inkscape:pageshadow="2"
     inkscape:zoom="1"
     inkscape:cx="216.39778"
     inkscape:cy="33.19612"
     inkscape:document-units="mm"
     inkscape:current-layer="layer1"
     showgrid="false"
     inkscape:window-width="1366"
     inkscape:window-height="719"
     inkscape:window-x="0"
     inkscape:window-y="1"
     inkscape:window-maximized="1"
     units="px"
     guidetolerance="20"
     inkscape:snap-global="false"
     fit-margin-top="0"
     fit-margin-left="0"
     fit-margin-right="0"
     fit-margin-bottom="0" />
  <metadata
     id="metadata6775">
    <rdf:RDF>
      <cc:Work
         rdf:about="">
        <dc:format>image/svg+xml</dc:format>
        <dc:type
           rdf:resource="http://purl.org/dc/dcmitype/StillImage" />
        <dc:title></dc:title>
      </cc:Work>
    </rdf:RDF>
  </metadata>
  <g
     inkscape:label="Layer 1"
     inkscape:groupmode="layer"
     id="layer1"
     transform="translate(-17.828702,-28.298174)">
    <g
       id="g1976"
       transform="matrix(1.5585996,0,0,1.5585996,182.62212,6.873521)"
       style="stroke-width:0.64160156">
      <g
         style="stroke-width:1.41333115"
         transform="matrix(0.45396408,0,0,0.45396408,-153.066,1.877236)"
         id="g2033">
        <g
           id="g2021"
           transform="matrix(0.82420935,0,0,0.82420935,22.816531,4.5960328)"
           style="stroke-width:1.71477199">
          <path
             id="path1969"
             d="m 129.79377,26.144923 c 4.57729,4.497917 1.77271,12.435417 6.35,16.933333 3.36021,-2.2225 7.22312,-4.392083 10.58333,-6.614583 -2.03729,-1.984375 -2.19604,-4.868333 -2.64583,-7.408333 -2.09021,-0.79375 -4.39208,-1.852084 -7.67292,-2.910417 h -6.61458"
             inkscape:connector-curvature="0"
             style="fill:#d9e3e8;stroke-width:0.4537001" />
          <g
             transform="matrix(0.26458333,0,0,0.26458333,129.79377,26.144923)"
             id="g1977"
             style="fill:#7d8b91;stroke-width:1.71477199">
            <path
               id="path1971"
               d="m 13,9 c 0.4,0.8 0.8,1.6 1.1,2.5 5.4,-1 10.8,-2 16.2,-3 C 30,7.8 29.7,7.1 29.3,6.3 24,7.3 18.5,8.1 13,9"
               inkscape:connector-curvature="0"
               style="stroke-width:1.71477199" />
            <path
               id="path1973"
               d="M 16.4,18.8 C 21.7,17.5 27,16.2 32.3,14.9 32.1,14.1 32,13.3 31.7,12.6 26.4,13.8 21,15 15.7,16.2 c 0.3,0.8 0.5,1.7 0.7,2.6"
               inkscape:connector-curvature="0"
               style="stroke-width:1.71477199" />
            <path
               id="path1975"
               d="m 17.6,26.5 c 10.5,-3.3 21.1,-6.6 31.6,-9.8 -0.1,-0.7 -0.2,-1.4 -0.3,-2 -10.6,3 -21.1,6.1 -31.7,9.1 0.2,0.8 0.3,1.7 0.4,2.7"
               inkscape:connector-curvature="0"
               style="stroke-width:1.71477199" />
          </g>
          <path
             id="path1979"
             d="m 136.40835,26.144923 c 1.29646,1.27 0.76729,4.736042 1.05834,6.35 1.85208,-0.502708 4.7625,-2.936875 6.61458,-3.439583 -2.09021,-0.79375 -4.39208,-1.852084 -7.67292,-2.910417"
             inkscape:connector-curvature="0"
             style="opacity:0.5;fill:#333333;stroke-width:0.4537001" />
          <path
             id="path1981"
             d="m 135.64106,39.718048 c 0.10583,0.211666 0.18521,0.449791 0.3175,0.661458 1.32292,-0.740833 2.64583,-1.508125 3.96875,-2.248958 -0.10583,-0.185208 -0.18521,-0.370417 -0.26458,-0.582083 -1.34938,0.740833 -2.67229,1.455208 -4.02167,2.169583"
             inkscape:connector-curvature="0"
             style="fill:#7d8b91;stroke-width:0.4537001" />
          <path
             id="path1983"
             d="m 136.40835,26.144923 c 1.29646,1.27 1.74625,2.804583 2.03729,4.418542 1.85209,-0.502709 3.78355,-1.005417 5.63563,-1.508125 -2.09021,-0.79375 -4.39208,-1.852084 -7.67292,-2.910417"
             inkscape:connector-curvature="0"
             style="fill:#d9e3e8;stroke-width:0.4537001" />
        </g>
        <path
           inkscape:connector-curvature="0"
           d="m 137.83667,30.459233 c -1.51939,0 -2.75003,1.230637 -2.75003,2.750025 0,1.519389 1.23064,2.750026 2.75003,2.750026 1.51939,0 2.75002,-1.230637 2.75002,-2.750026 0,-1.519388 -1.23063,-2.750025 -2.75002,-2.750025 z m 1.37501,3.025028 h -1.10001 v 1.10001 h -0.55001 v -1.10001 h -1.1 v -0.550006 h 1.1 v -1.100009 h 0.55001 v 1.100009 h 1.10001 z"
           id="path2011"
           style="fill:#859900;stroke-width:0.37394387" />
      </g>
      <g
         style="stroke-width:1.41333115"
         transform="matrix(0.45396408,0,0,0.45396408,-173.33254,3.90372)"
         id="g2079">
        <g
           style="stroke-width:1.71477199"
           transform="matrix(0.82420935,0,0,0.82420935,55.360281,3.5376995)"
           id="g2051">
          <path
             style="fill:#d9e3e8;stroke-width:0.4537001"
             inkscape:connector-curvature="0"
             d="m 129.79377,26.144923 c 4.57729,4.497917 1.77271,12.435417 6.35,16.933333 3.36021,-2.2225 7.22312,-4.392083 10.58333,-6.614583 -2.03729,-1.984375 -2.19604,-4.868333 -2.64583,-7.408333 -2.09021,-0.79375 -4.39208,-1.852084 -7.67292,-2.910417 h -6.61458"
             id="path2035" />
          <g
             style="fill:#7d8b91;stroke-width:1.71477199"
             id="g2043"
             transform="matrix(0.26458333,0,0,0.26458333,129.79377,26.144923)">
            <path
               style="stroke-width:1.71477199"
               inkscape:connector-curvature="0"
               d="m 13,9 c 0.4,0.8 0.8,1.6 1.1,2.5 5.4,-1 10.8,-2 16.2,-3 C 30,7.8 29.7,7.1 29.3,6.3 24,7.3 18.5,8.1 13,9"
               id="path2037" />
            <path
               style="stroke-width:1.71477199"
               inkscape:connector-curvature="0"
               d="M 16.4,18.8 C 21.7,17.5 27,16.2 32.3,14.9 32.1,14.1 32,13.3 31.7,12.6 26.4,13.8 21,15 15.7,16.2 c 0.3,0.8 0.5,1.7 0.7,2.6"
               id="path2039" />
            <path
               style="stroke-width:1.71477199"
               inkscape:connector-curvature="0"
               d="m 17.6,26.5 c 10.5,-3.3 21.1,-6.6 31.6,-9.8 -0.1,-0.7 -0.2,-1.4 -0.3,-2 -10.6,3 -21.1,6.1 -31.7,9.1 0.2,0.8 0.3,1.7 0.4,2.7"
               id="path2041" />
          </g>
          <path
             style="opacity:0.5;fill:#333333;stroke-width:0.4537001"
             inkscape:connector-curvature="0"
             d="m 136.40835,26.144923 c 1.29646,1.27 0.76729,4.736042 1.05834,6.35 1.85208,-0.502708 4.7625,-2.936875 6.61458,-3.439583 -2.09021,-0.79375 -4.39208,-1.852084 -7.67292,-2.910417"
             id="path2045" />
          <path
             style="fill:#7d8b91;stroke-width:0.4537001"
             inkscape:connector-curvature="0"
             d="m 135.64106,39.718048 c 0.10583,0.211666 0.18521,0.449791 0.3175,0.661458 1.32292,-0.740833 2.64583,-1.508125 3.96875,-2.248958 -0.10583,-0.185208 -0.18521,-0.370417 -0.26458,-0.582083 -1.34938,0.740833 -2.67229,1.455208 -4.02167,2.169583"
             id="path2047" />
          <path
             style="fill:#d9e3e8;stroke-width:0.4537001"
             inkscape:connector-curvature="0"
             d="m 136.40835,26.144923 c 1.29646,1.27 1.74625,2.804583 2.03729,4.418542 1.85209,-0.502709 3.78355,-1.005417 5.63563,-1.508125 -2.09021,-0.79375 -4.39208,-1.852084 -7.67292,-2.910417"
             id="path2049" />
        </g>
        <path
           inkscape:connector-curvature="0"
           d="m 169.85001,30.008706 c -1.51939,0 -2.75003,1.230636 -2.75003,2.750025 0,1.519389 1.23064,2.750026 2.75003,2.750026 1.51938,0 2.75002,-1.230637 2.75002,-2.750026 0,-1.519389 -1.23064,-2.750025 -2.75002,-2.750025 z m 1.37501,3.025028 H 168.475 v -0.550006 h 2.75002 z"
           id="path2067"
           style="fill:#dc322f;stroke-width:0.37394387" />
      </g>
      <g
         id="g2101"
         transform="matrix(0.45396408,0,0,0.45396408,-164.65343,7.0132953)"
         style="stroke-width:1.41333115">
        <g
           style="stroke-width:1.71477199"
           transform="matrix(0.82420935,0,0,0.82420935,22.816531,4.5960328)"
           id="g2097">
          <path
             style="fill:#d9e3e8;stroke-width:0.4537001"
             inkscape:connector-curvature="0"
             d="m 129.79377,26.144923 c 4.57729,4.497917 1.77271,12.435417 6.35,16.933333 3.36021,-2.2225 7.22312,-4.392083 10.58333,-6.614583 -2.03729,-1.984375 -2.19604,-4.868333 -2.64583,-7.408333 -2.09021,-0.79375 -4.39208,-1.852084 -7.67292,-2.910417 h -6.61458"
             id="path2081" />
          <g
             style="fill:#7d8b91;stroke-width:1.71477199"
             id="g2089"
             transform="matrix(0.26458333,0,0,0.26458333,129.79377,26.144923)">
            <path
               style="stroke-width:1.71477199"
               inkscape:connector-curvature="0"
               d="m 13,9 c 0.4,0.8 0.8,1.6 1.1,2.5 5.4,-1 10.8,-2 16.2,-3 C 30,7.8 29.7,7.1 29.3,6.3 24,7.3 18.5,8.1 13,9"
               id="path2083" />
            <path
               style="stroke-width:1.71477199"
               inkscape:connector-curvature="0"
               d="M 16.4,18.8 C 21.7,17.5 27,16.2 32.3,14.9 32.1,14.1 32,13.3 31.7,12.6 26.4,13.8 21,15 15.7,16.2 c 0.3,0.8 0.5,1.7 0.7,2.6"
               id="path2085" />
            <path
               style="stroke-width:1.71477199"
               inkscape:connector-curvature="0"
               d="m 17.6,26.5 c 10.5,-3.3 21.1,-6.6 31.6,-9.8 -0.1,-0.7 -0.2,-1.4 -0.3,-2 -10.6,3 -21.1,6.1 -31.7,9.1 0.2,0.8 0.3,1.7 0.4,2.7"
               id="path2087" />
          </g>
          <path
             style="opacity:0.5;fill:#333333;stroke-width:0.4537001"
             inkscape:connector-curvature="0"
             d="m 136.40835,26.144923 c 1.29646,1.27 0.76729,4.736042 1.05834,6.35 1.85208,-0.502708 4.7625,-2.936875 6.61458,-3.439583 -2.09021,-0.79375 -4.39208,-1.852084 -7.67292,-2.910417"
             id="path2091" />
          <path
             style="fill:#7d8b91;stroke-width:0.4537001"
             inkscape:connector-curvature="0"
             d="m 135.64106,39.718048 c 0.10583,0.211666 0.18521,0.449791 0.3175,0.661458 1.32292,-0.740833 2.64583,-1.508125 3.96875,-2.248958 -0.10583,-0.185208 -0.18521,-0.370417 -0.26458,-0.582083 -1.34938,0.740833 -2.67229,1.455208 -4.02167,2.169583"
             id="path2093" />
          <path
             style="fill:#d9e3e8;stroke-width:0.4537001"
             inkscape:connector-curvature="0"
             d="m 136.40835,26.144923 c 1.29646,1.27 1.74625,2.804583 2.03729,4.418542 1.85209,-0.502709 3.78355,-1.005417 5.63563,-1.508125 -2.09021,-0.79375 -4.39208,-1.852084 -7.67292,-2.910417"
             id="path2095" />
        </g>
        <path
           style="fill:#859900;stroke-width:0.37394387"
           id="path2099"
           d="m 137.83667,30.459233 c -1.51939,0 -2.75003,1.230637 -2.75003,2.750025 0,1.519389 1.23064,2.750026 2.75003,2.750026 1.51939,0 2.75002,-1.230637 2.75002,-2.750026 0,-1.519388 -1.23063,-2.750025 -2.75002,-2.750025 z m 1.37501,3.025028 h -1.10001 v 1.10001 h -0.55001 v -1.10001 h -1.1 v -0.550006 h 1.1 v -1.100009 h 0.55001 v 1.100009 h 1.10001 z"
           inkscape:connector-curvature="0" />
      </g>
      <g
         id="g2123"
         transform="matrix(0.45396408,0,0,0.45396408,-176.19227,14.968068)"
         style="stroke-width:1.41333115">
        <g
           id="g2119"
           transform="matrix(0.82420935,0,0,0.82420935,55.360281,3.5376995)"
           style="stroke-width:1.71477199">
          <path
             id="path2103"
             d="m 129.79377,26.144923 c 4.57729,4.497917 1.77271,12.435417 6.35,16.933333 3.36021,-2.2225 7.22312,-4.392083 10.58333,-6.614583 -2.03729,-1.984375 -2.19604,-4.868333 -2.64583,-7.408333 -2.09021,-0.79375 -4.39208,-1.852084 -7.67292,-2.910417 h -6.61458"
             inkscape:connector-curvature="0"
             style="fill:#d9e3e8;stroke-width:0.4537001" />
          <g
             transform="matrix(0.26458333,0,0,0.26458333,129.79377,26.144923)"
             id="g2111"
             style="fill:#7d8b91;stroke-width:1.71477199">
            <path
               id="path2105"
               d="m 13,9 c 0.4,0.8 0.8,1.6 1.1,2.5 5.4,-1 10.8,-2 16.2,-3 C 30,7.8 29.7,7.1 29.3,6.3 24,7.3 18.5,8.1 13,9"
               inkscape:connector-curvature="0"
               style="stroke-width:1.71477199" />
            <path
               id="path2107"
               d="M 16.4,18.8 C 21.7,17.5 27,16.2 32.3,14.9 32.1,14.1 32,13.3 31.7,12.6 26.4,13.8 21,15 15.7,16.2 c 0.3,0.8 0.5,1.7 0.7,2.6"
               inkscape:connector-curvature="0"
               style="stroke-width:1.71477199" />
            <path
               id="path2109"
               d="m 17.6,26.5 c 10.5,-3.3 21.1,-6.6 31.6,-9.8 -0.1,-0.7 -0.2,-1.4 -0.3,-2 -10.6,3 -21.1,6.1 -31.7,9.1 0.2,0.8 0.3,1.7 0.4,2.7"
               inkscape:connector-curvature="0"
               style="stroke-width:1.71477199" />
          </g>
          <path
             id="path2113"
             d="m 136.40835,26.144923 c 1.29646,1.27 0.76729,4.736042 1.05834,6.35 1.85208,-0.502708 4.7625,-2.936875 6.61458,-3.439583 -2.09021,-0.79375 -4.39208,-1.852084 -7.67292,-2.910417"
             inkscape:connector-curvature="0"
             style="opacity:0.5;fill:#333333;stroke-width:0.4537001" />
          <path
             id="path2115"
             d="m 135.64106,39.718048 c 0.10583,0.211666 0.18521,0.449791 0.3175,0.661458 1.32292,-0.740833 2.64583,-1.508125 3.96875,-2.248958 -0.10583,-0.185208 -0.18521,-0.370417 -0.26458,-0.582083 -1.34938,0.740833 -2.67229,1.455208 -4.02167,2.169583"
             inkscape:connector-curvature="0"
             style="fill:#7d8b91;stroke-width:0.4537001" />
          <path
             id="path2117"
             d="m 136.40835,26.144923 c 1.29646,1.27 1.74625,2.804583 2.03729,4.418542 1.85209,-0.502709 3.78355,-1.005417 5.63563,-1.508125 -2.09021,-0.79375 -4.39208,-1.852084 -7.67292,-2.910417"
             inkscape:connector-curvature="0"
             style="fill:#d9e3e8;stroke-width:0.4537001" />
        </g>
        <path
           style="fill:#dc322f;stroke-width:0.37394387"
           id="path2121"
           d="m 169.85001,30.008706 c -1.51939,0 -2.75003,1.230636 -2.75003,2.750025 0,1.519389 1.23064,2.750026 2.75003,2.750026 1.51938,0 2.75002,-1.230637 2.75002,-2.750026 0,-1.519389 -1.23064,-2.750025 -2.75002,-2.750025 z m 1.37501,3.025028 H 168.475 v -0.550006 h 2.75002 z"
           inkscape:connector-curvature="0" />
      </g>
    </g>
  </g>
</svg>
