<?xml version="1.0" encoding="UTF-8" standalone="no"?>
<!-- Created with Inkscape (http://www.inkscape.org/) -->

<svg
   xmlns:dc="http://purl.org/dc/elements/1.1/"
   xmlns:cc="http://creativecommons.org/ns#"
   xmlns:rdf="http://www.w3.org/1999/02/22-rdf-syntax-ns#"
   xmlns:svg="http://www.w3.org/2000/svg"
   xmlns="http://www.w3.org/2000/svg"
   xmlns:xlink="http://www.w3.org/1999/xlink"
   xmlns:sodipodi="http://sodipodi.sourceforge.net/DTD/sodipodi-0.dtd"
   xmlns:inkscape="http://www.inkscape.org/namespaces/inkscape"
   width="88.67337"
   height="102.27303"
   viewBox="0 0 23.461495 27.059739"
   version="1.1"
   id="svg6778"
   inkscape:version="0.92.1 r15381"
   sodipodi:docname="changes-in-working-directory.inkscape.svg">
  <defs
     id="defs6772">
    <marker
       inkscape:stockid="TriangleOutL"
       orient="auto"
       refY="0"
       refX="0"
       id="marker11646"
       style="overflow:visible"
       inkscape:isstock="true">
      <path
         id="path11644"
         d="M 5.77,0 -2.88,5 V -5 Z"
         style="fill:#657b83;fill-opacity:1;fill-rule:evenodd;stroke:#657b83;stroke-width:1.00000003pt;stroke-opacity:1"
         transform="scale(0.8)"
         inkscape:connector-curvature="0" />
    </marker>
    <clipPath
       id="clipPath16"
       clipPathUnits="userSpaceOnUse">
      <path
         inkscape:connector-curvature="0"
         id="path18"
         d="M 0,36 H 36 V 0 H 0 Z" />
    </clipPath>
    <clipPath
       id="clipPath16-7"
       clipPathUnits="userSpaceOnUse">
      <path
         inkscape:connector-curvature="0"
         id="path18-9"
         d="M 0,36 H 36 V 0 H 0 Z" />
    </clipPath>
    <linearGradient
       id="linearGradient3462">
      <stop
         id="stop3464"
         style="stop-color:#ffffff;stop-opacity:1"
         offset="0" />
      <stop
         id="stop3466"
         style="stop-color:#ffffff;stop-opacity:0.23529412"
         offset="0.03457849" />
      <stop
         id="stop3468"
         style="stop-color:#ffffff;stop-opacity:0.15686275"
         offset="0.96375686" />
      <stop
         id="stop3470"
         style="stop-color:#ffffff;stop-opacity:0.39215687"
         offset="1" />
    </linearGradient>
    <linearGradient
       id="linearGradient5060-2">
      <stop
         id="stop5062-3"
         style="stop-color:#000000;stop-opacity:1"
         offset="0" />
      <stop
         id="stop5064-1"
         style="stop-color:#000000;stop-opacity:0"
         offset="1" />
    </linearGradient>
    <linearGradient
       id="linearGradient5048-8">
      <stop
         id="stop5050-4"
         style="stop-color:#000000;stop-opacity:0"
         offset="0" />
      <stop
         id="stop5056-5"
         style="stop-color:#000000;stop-opacity:1"
         offset="0.5" />
      <stop
         id="stop5052-1"
         style="stop-color:#000000;stop-opacity:0"
         offset="1" />
    </linearGradient>
    <radialGradient
       cx="605.71429"
       cy="486.64789"
       r="117.14286"
       fx="605.71429"
       fy="486.64789"
       id="radialGradient3172"
       xlink:href="#linearGradient5060-2"
       gradientUnits="userSpaceOnUse"
       gradientTransform="matrix(0.02458466,0,0,0.01575355,109.28161,109.82487)" />
    <radialGradient
       cx="605.71429"
       cy="486.64789"
       r="117.14286"
       fx="605.71429"
       fy="486.64789"
       id="radialGradient3175"
       xlink:href="#linearGradient5060-2"
       gradientUnits="userSpaceOnUse"
       gradientTransform="matrix(-0.02458466,0,0,0.01575355,96.829523,109.82487)" />
    <linearGradient
       x1="302.85715"
       y1="366.64789"
       x2="302.85715"
       y2="609.50507"
       id="linearGradient3178"
       xlink:href="#linearGradient5048-8"
       gradientUnits="userSpaceOnUse"
       gradientTransform="matrix(0.08715722,0,0,0.01575355,71.554454,109.82487)" />
    <linearGradient
       xlink:href="#linearGradient3462"
       id="linearGradient3133"
       gradientUnits="userSpaceOnUse"
       gradientTransform="matrix(1.7048308,0,0,1.0133365,62.139624,73.736322)"
       x1="40.290417"
       y1="5.4143372"
       x2="40.290417"
       y2="42.437775" />
    <radialGradient
       gradientTransform="matrix(0,2.7905692,-4.9069185,-8.4436746e-8,144.51807,59.295952)"
       gradientUnits="userSpaceOnUse"
       xlink:href="#linearGradient2867-449-88-871-390-598-476-591-434-148-57-177-8"
       id="radialGradient3166-9"
       fy="8.4497671"
       fx="4.5993023"
       r="19.99999"
       cy="8.4497671"
       cx="4.5993023" />
    <linearGradient
       id="linearGradient2867-449-88-871-390-598-476-591-434-148-57-177-8">
      <stop
         offset="0"
         style="stop-color:#90dbec;stop-opacity:1"
         id="stop3750-4" />
      <stop
         offset="0.26238"
         style="stop-color:#55c1ec;stop-opacity:1"
         id="stop3752-8" />
      <stop
         offset="0.704952"
         style="stop-color:#3689e6;stop-opacity:1"
         id="stop3754-1" />
      <stop
         offset="1"
         style="stop-color:#2b63a0;stop-opacity:1"
         id="stop3756-0" />
    </linearGradient>
  </defs>
  <sodipodi:namedview
     id="base"
     pagecolor="#ffffff"
     bordercolor="#666666"
     borderopacity="1.0"
     inkscape:pageopacity="0.0"
     inkscape:pageshadow="2"
     inkscape:zoom="1"
     inkscape:cx="86.918103"
     inkscape:cy="-88.539259"
     inkscape:document-units="mm"
     inkscape:current-layer="layer1"
     showgrid="false"
     inkscape:window-width="1366"
     inkscape:window-height="719"
     inkscape:window-x="0"
     inkscape:window-y="1"
     inkscape:window-maximized="1"
     units="px"
     guidetolerance="20"
     inkscape:snap-global="false"
     fit-margin-top="0"
     fit-margin-left="0"
     fit-margin-right="0"
     fit-margin-bottom="0" />
  <metadata
     id="metadata6775">
    <rdf:RDF>
      <cc:Work
         rdf:about="">
        <dc:format>image/svg+xml</dc:format>
        <dc:type
           rdf:resource="http://purl.org/dc/dcmitype/StillImage" />
        <dc:title></dc:title>
      </cc:Work>
    </rdf:RDF>
  </metadata>
  <g
     inkscape:label="Layer 1"
     inkscape:groupmode="layer"
     id="layer1"
     transform="translate(-20.123139,1.4411987)">
    <g
       id="g6666"
       transform="matrix(0.9898852,0,0,0.9898852,0.50012482,-99.900874)"
       style="stroke-width:1.01021814">
      <path
         id="path6562"
         d="m 38.096924,103.13994 -8.257648,3.14753 c 0,0 -0.296239,-0.74059 -0.555448,-1.14792 -0.629507,-1.03684 -1.740401,-0.70357 -1.740401,-0.70357 l -6.295068,2.25882 c 0,0 -0.851686,0.40733 -1.221984,1.48119 -0.333268,1.03684 0,2.33288 0,2.33288 l 3.628922,16.29312 14.441627,-13.92321 c 0,0 0.481387,-6.22101 0.777626,-9.0723 0.07406,-1.03684 -0.777626,-0.66654 -0.777626,-0.66654"
         inkscape:connector-curvature="0"
         style="fill:#962c2c;stroke-width:0.2672869" />
      <g
         transform="matrix(0.30508938,0.12768029,0.12768029,-0.30508938,27.655815,110.45303)"
         id="g10-3"
         style="stroke-width:1.01021814">
        <g
           id="g12-8"
           style="stroke-width:1.01021814">
          <g
             clip-path="url(#clipPath16-7)"
             id="g14-0"
             style="stroke-width:1.01021814">
            <g
               transform="translate(32.415,26.4136)"
               id="g20-2"
               style="stroke-width:1.01021814">
              <path
                 inkscape:connector-curvature="0"
                 id="path22-4"
                 style="fill:#e1e8ed;fill-opacity:1;fill-rule:nonzero;stroke:none;stroke-width:1.01021814"
                 d="m 0,0 v 0.001 l -9,8.998 c -0.361,0.363 -0.862,0.587 -1.415,0.587 -1.104,0 -1.999,-0.896 -2,-1.999 0,-0.552 0.224,-1.053 0.586,-1.415 l -3.859,-3.859 9,-9 3.859,3.859 c 0.362,-0.362 0.862,-0.586 1.414,-0.586 1.104,0 2.001,0.896 2,2 C 0.585,-0.861 0.361,-0.362 0,0" />
            </g>
            <g
               transform="translate(22,36)"
               id="g24-8"
               style="stroke-width:1.01021814">
              <path
                 inkscape:connector-curvature="0"
                 id="path26-3"
                 style="fill:#ccd6dd;fill-opacity:1;fill-rule:nonzero;stroke:none;stroke-width:1.01021814"
                 d="m 0,0 h -15 c -2.209,0 -4,-1.791 -4,-4 v -28 c 0,-2.209 1.791,-4 4,-4 H 7 c 2.209,0 4,1.791 4,4 v 21 H 2 c -1,0 -2,1 -2,2 z" />
            </g>
            <g
               transform="translate(22,36)"
               id="g28"
               style="stroke-width:1.01021814">
              <path
                 inkscape:connector-curvature="0"
                 id="path30"
                 style="fill:#99aab5;fill-opacity:1;fill-rule:nonzero;stroke:none;stroke-width:1.01021814"
                 d="m 0,0 h -2 v -9 c 0,-2.209 1.791,-4 4,-4 l 9,10e-4 V -11 H 2 c -1,0 -2,1 -2,2 z" />
            </g>
            <g
               transform="translate(17,28)"
               id="g32"
               style="stroke-width:1.01021814">
              <path
                 inkscape:connector-curvature="0"
                 id="path34"
                 style="fill:#99aab5;fill-opacity:1;fill-rule:nonzero;stroke:none;stroke-width:1.01021814"
                 d="m 0,0 c 0,-0.552 -0.448,-1 -1,-1 h -8 c -0.552,0 -1,0.448 -1,1 0,0.552 0.448,1 1,1 h 8 C -0.448,1 0,0.552 0,0" />
            </g>
            <g
               transform="translate(17,24)"
               id="g36"
               style="stroke-width:1.01021814">
              <path
                 inkscape:connector-curvature="0"
                 id="path38"
                 style="fill:#99aab5;fill-opacity:1;fill-rule:nonzero;stroke:none;stroke-width:1.01021814"
                 d="m 0,0 c 0,-0.552 -0.448,-1 -1,-1 h -8 c -0.552,0 -1,0.448 -1,1 0,0.552 0.448,1 1,1 h 8 C -0.448,1 0,0.552 0,0" />
            </g>
            <g
               transform="translate(29,20)"
               id="g40"
               style="stroke-width:1.01021814">
              <path
                 inkscape:connector-curvature="0"
                 id="path42"
                 style="fill:#99aab5;fill-opacity:1;fill-rule:nonzero;stroke:none;stroke-width:1.01021814"
                 d="m 0,0 c 0,-0.552 -0.447,-1 -1,-1 h -20 c -0.552,0 -1,0.448 -1,1 0,0.552 0.448,1 1,1 H -1 C -0.447,1 0,0.552 0,0" />
            </g>
            <g
               transform="translate(29,16)"
               id="g44"
               style="stroke-width:1.01021814">
              <path
                 inkscape:connector-curvature="0"
                 id="path46"
                 style="fill:#99aab5;fill-opacity:1;fill-rule:nonzero;stroke:none;stroke-width:1.01021814"
                 d="m 0,0 c 0,-0.553 -0.447,-1 -1,-1 h -20 c -0.552,0 -1,0.447 -1,1 0,0.553 0.448,1 1,1 H -1 C -0.447,1 0,0.553 0,0" />
            </g>
            <g
               transform="translate(29,12)"
               id="g48"
               style="stroke-width:1.01021814">
              <path
                 inkscape:connector-curvature="0"
                 id="path50"
                 style="fill:#99aab5;fill-opacity:1;fill-rule:nonzero;stroke:none;stroke-width:1.01021814"
                 d="m 0,0 c 0,-0.553 -0.447,-1 -1,-1 h -20 c -0.552,0 -1,0.447 -1,1 0,0.553 0.448,1 1,1 H -1 C -0.447,1 0,0.553 0,0" />
            </g>
            <g
               transform="translate(29,8)"
               id="g52"
               style="stroke-width:1.01021814">
              <path
                 inkscape:connector-curvature="0"
                 id="path54"
                 style="fill:#99aab5;fill-opacity:1;fill-rule:nonzero;stroke:none;stroke-width:1.01021814"
                 d="m 0,0 c 0,-0.553 -0.447,-1 -1,-1 h -20 c -0.552,0 -1,0.447 -1,1 0,0.553 0.448,1 1,1 H -1 C -0.447,1 0,0.553 0,0" />
            </g>
          </g>
        </g>
      </g>
      <g
         id="g6618"
         transform="matrix(0.3083234,-0.11965979,-0.11965979,-0.3083234,24.593239,119.36883)"
         style="stroke-width:1.01021814">
        <g
           id="g6616"
           style="stroke-width:1.01021814">
          <g
             id="g6614"
             clip-path="url(#clipPath16-7)"
             style="stroke-width:1.01021814">
            <g
               id="g6580"
               transform="translate(32.415,26.4136)"
               style="stroke-width:1.01021814">
              <path
                 d="m 0,0 v 0.001 l -9,8.998 c -0.361,0.363 -0.862,0.587 -1.415,0.587 -1.104,0 -1.999,-0.896 -2,-1.999 0,-0.552 0.224,-1.053 0.586,-1.415 l -3.859,-3.859 9,-9 3.859,3.859 c 0.362,-0.362 0.862,-0.586 1.414,-0.586 1.104,0 2.001,0.896 2,2 C 0.585,-0.861 0.361,-0.362 0,0"
                 style="fill:#e1e8ed;fill-opacity:1;fill-rule:nonzero;stroke:none;stroke-width:1.01021814"
                 id="path6578"
                 inkscape:connector-curvature="0" />
            </g>
            <g
               id="g6584"
               transform="translate(22,36)"
               style="stroke-width:1.01021814">
              <path
                 d="m 0,0 h -15 c -2.209,0 -4,-1.791 -4,-4 v -28 c 0,-2.209 1.791,-4 4,-4 H 7 c 2.209,0 4,1.791 4,4 v 21 H 2 c -1,0 -2,1 -2,2 z"
                 style="fill:#ccd6dd;fill-opacity:1;fill-rule:nonzero;stroke:none;stroke-width:1.01021814"
                 id="path6582"
                 inkscape:connector-curvature="0" />
            </g>
            <g
               id="g6588"
               transform="translate(22,36)"
               style="stroke-width:1.01021814">
              <path
                 d="m 0,0 h -2 v -9 c 0,-2.209 1.791,-4 4,-4 l 9,10e-4 V -11 H 2 c -1,0 -2,1 -2,2 z"
                 style="fill:#99aab5;fill-opacity:1;fill-rule:nonzero;stroke:none;stroke-width:1.01021814"
                 id="path6586"
                 inkscape:connector-curvature="0" />
            </g>
            <g
               id="g6592"
               transform="translate(17,28)"
               style="stroke-width:1.01021814">
              <path
                 d="m 0,0 c 0,-0.552 -0.448,-1 -1,-1 h -8 c -0.552,0 -1,0.448 -1,1 0,0.552 0.448,1 1,1 h 8 C -0.448,1 0,0.552 0,0"
                 style="fill:#99aab5;fill-opacity:1;fill-rule:nonzero;stroke:none;stroke-width:1.01021814"
                 id="path6590"
                 inkscape:connector-curvature="0" />
            </g>
            <g
               id="g6596"
               transform="translate(17,24)"
               style="stroke-width:1.01021814">
              <path
                 d="m 0,0 c 0,-0.552 -0.448,-1 -1,-1 h -8 c -0.552,0 -1,0.448 -1,1 0,0.552 0.448,1 1,1 h 8 C -0.448,1 0,0.552 0,0"
                 style="fill:#99aab5;fill-opacity:1;fill-rule:nonzero;stroke:none;stroke-width:1.01021814"
                 id="path6594"
                 inkscape:connector-curvature="0" />
            </g>
            <g
               id="g6600"
               transform="translate(29,20)"
               style="stroke-width:1.01021814">
              <path
                 d="m 0,0 c 0,-0.552 -0.447,-1 -1,-1 h -20 c -0.552,0 -1,0.448 -1,1 0,0.552 0.448,1 1,1 H -1 C -0.447,1 0,0.552 0,0"
                 style="fill:#99aab5;fill-opacity:1;fill-rule:nonzero;stroke:none;stroke-width:1.01021814"
                 id="path6598"
                 inkscape:connector-curvature="0" />
            </g>
            <g
               id="g6604"
               transform="translate(29,16)"
               style="stroke-width:1.01021814">
              <path
                 d="m 0,0 c 0,-0.553 -0.447,-1 -1,-1 h -20 c -0.552,0 -1,0.447 -1,1 0,0.553 0.448,1 1,1 H -1 C -0.447,1 0,0.553 0,0"
                 style="fill:#99aab5;fill-opacity:1;fill-rule:nonzero;stroke:none;stroke-width:1.01021814"
                 id="path6602"
                 inkscape:connector-curvature="0" />
            </g>
            <g
               id="g6608"
               transform="translate(29,12)"
               style="stroke-width:1.01021814">
              <path
                 d="m 0,0 c 0,-0.553 -0.447,-1 -1,-1 h -20 c -0.552,0 -1,0.447 -1,1 0,0.553 0.448,1 1,1 H -1 C -0.447,1 0,0.553 0,0"
                 style="fill:#99aab5;fill-opacity:1;fill-rule:nonzero;stroke:none;stroke-width:1.01021814"
                 id="path6606"
                 inkscape:connector-curvature="0" />
            </g>
            <g
               id="g6612"
               transform="translate(29,8)"
               style="stroke-width:1.01021814">
              <path
                 d="m 0,0 c 0,-0.553 -0.447,-1 -1,-1 h -20 c -0.552,0 -1,0.447 -1,1 0,0.553 0.448,1 1,1 H -1 C -0.447,1 0,0.553 0,0"
                 style="fill:#99aab5;fill-opacity:1;fill-rule:nonzero;stroke:none;stroke-width:1.01021814"
                 id="path6610"
                 inkscape:connector-curvature="0" />
            </g>
          </g>
        </g>
      </g>
      <path
         id="path6564"
         d="M 23.618267,126.76496 39.429997,114.397 c 0,0 3.92516,-7.92438 4.07328,-8.51685 0.148119,-0.66654 -0.518418,-0.44436 -0.518418,-0.44436 l -8.405767,3.96219 c 0,0 -0.518418,2.22179 -1.518223,2.81426 -1.110894,0.62951 -6.295068,3.44378 -6.295068,3.44378 0,0 -0.740596,0.48138 -1.147924,1.25901 -0.444358,0.77763 -1.99961,9.84993 -1.99961,9.84993"
         inkscape:connector-curvature="0"
         style="fill:#ff8736;stroke-width:0.2672869" />
    </g>
    <path
       inkscape:connector-curvature="0"
       d="m 22.873169,1.1778722 c -1.519395,0 -2.75003,1.2306362 -2.75003,2.7500249 0,1.5193886 1.230635,2.7500258 2.75003,2.7500258 1.519385,0 2.75002,-1.2306372 2.75002,-2.7500258 0,-1.5193887 -1.230635,-2.7500249 -2.75002,-2.7500249 z M 24.248179,4.2029 h -1.10001 v 1.10001 h -0.55001 V 4.2029 h -1.1 V 3.6528941 h 1.1 v -1.100009 h 0.55001 v 1.100009 h 1.10001 z"
       id="path8850"
       style="fill:#859900;stroke-width:0.26458332" />
    <path
       inkscape:connector-curvature="0"
       d="m 29.944664,-1.4411987 c -1.519394,0 -2.750029,1.23063621 -2.750029,2.7500248 0,1.5193887 1.230635,2.7500258 2.750029,2.7500258 1.519385,0 2.75002,-1.2306371 2.75002,-2.7500258 0,-1.51938859 -1.230635,-2.7500248 -2.75002,-2.7500248 z m 1.37501,3.0250278 h -2.75002 V 1.0338232 h 2.75002 z"
       id="path8866"
       style="fill:#dc322f;stroke-width:0.26458332" />
    <path
       style="fill:#dc322f;stroke-width:0.26458332"
       id="path9088"
       d="m 38.587599,7.4636436 c -1.519394,0 -2.750029,1.2306362 -2.750029,2.7500254 0,1.519388 1.230635,2.750026 2.750029,2.750026 1.519385,0 2.75002,-1.230638 2.75002,-2.750026 0,-1.5193892 -1.230635,-2.7500254 -2.75002,-2.7500254 z m 1.37501,3.0250284 H 37.21259 V 9.9386658 h 2.750019 z"
       inkscape:connector-curvature="0" />
    <path
       style="fill:#859900;stroke-width:0.26458332"
       id="path9090"
       d="m 28.635125,10.606528 c -1.519394,0 -2.750029,1.230637 -2.750029,2.750025 0,1.519389 1.230635,2.750026 2.750029,2.750026 1.519385,0 2.75002,-1.230637 2.75002,-2.750026 0,-1.519388 -1.230635,-2.750025 -2.75002,-2.750025 z m 1.37501,3.025028 h -1.10001 v 1.10001 h -0.55001 v -1.10001 h -1.1 V 13.08155 h 1.1 v -1.100009 h 0.55001 v 1.100009 h 1.10001 z"
       inkscape:connector-curvature="0" />
  </g>
</svg>
