<?xml version="1.0" encoding="UTF-8" standalone="no"?>
<svg
   xmlns:dc="http://purl.org/dc/elements/1.1/"
   xmlns:cc="http://creativecommons.org/ns#"
   xmlns:rdf="http://www.w3.org/1999/02/22-rdf-syntax-ns#"
   xmlns:svg="http://www.w3.org/2000/svg"
   xmlns="http://www.w3.org/2000/svg"
   xmlns:xlink="http://www.w3.org/1999/xlink"
   id="svg6778"
   version="1.1"
   viewBox="0 0 39.532998 30.429967"
   height="115.01089"
   width="149.41606">
  <defs
     id="defs6772">
    <marker
       style="overflow:visible"
       id="marker11646"
       refX="0"
       refY="0"
       orient="auto">
      <path
         transform="scale(0.8)"
         style="fill:#657b83;fill-opacity:1;fill-rule:evenodd;stroke:#657b83;stroke-width:1.00000003pt;stroke-opacity:1"
         d="M 5.77,0 -2.88,5 V -5 Z"
         id="path11644" />
    </marker>
    <clipPath
       clipPathUnits="userSpaceOnUse"
       id="clipPath16">
      <path
         d="M 0,36 H 36 V 0 H 0 Z"
         id="path18" />
    </clipPath>
    <clipPath
       clipPathUnits="userSpaceOnUse"
       id="clipPath16-7">
      <path
         d="M 0,36 H 36 V 0 H 0 Z"
         id="path18-9" />
    </clipPath>
    <linearGradient
       id="linearGradient3462">
      <stop
         offset="0"
         style="stop-color:#ffffff;stop-opacity:1"
         id="stop3464" />
      <stop
         offset="0.03457849"
         style="stop-color:#ffffff;stop-opacity:0.23529412"
         id="stop3466" />
      <stop
         offset="0.96375686"
         style="stop-color:#ffffff;stop-opacity:0.15686275"
         id="stop3468" />
      <stop
         offset="1"
         style="stop-color:#ffffff;stop-opacity:0.39215687"
         id="stop3470" />
    </linearGradient>
    <linearGradient
       id="linearGradient5060-2">
      <stop
         offset="0"
         style="stop-color:#000000;stop-opacity:1"
         id="stop5062-3" />
      <stop
         offset="1"
         style="stop-color:#000000;stop-opacity:0"
         id="stop5064-1" />
    </linearGradient>
    <linearGradient
       id="linearGradient5048-8">
      <stop
         offset="0"
         style="stop-color:#000000;stop-opacity:0"
         id="stop5050-4" />
      <stop
         offset="0.5"
         style="stop-color:#000000;stop-opacity:1"
         id="stop5056-5" />
      <stop
         offset="1"
         style="stop-color:#000000;stop-opacity:0"
         id="stop5052-1" />
    </linearGradient>
    <radialGradient
       gradientTransform="matrix(0.02458466,0,0,0.01575355,109.28161,109.82487)"
       gradientUnits="userSpaceOnUse"
       xlink:href="#linearGradient5060-2"
       id="radialGradient3172"
       fy="486.64789"
       fx="605.71429"
       r="117.14286"
       cy="486.64789"
       cx="605.71429" />
    <radialGradient
       gradientTransform="matrix(-0.02458466,0,0,0.01575355,96.829523,109.82487)"
       gradientUnits="userSpaceOnUse"
       xlink:href="#linearGradient5060-2"
       id="radialGradient3175"
       fy="486.64789"
       fx="605.71429"
       r="117.14286"
       cy="486.64789"
       cx="605.71429" />
    <linearGradient
       gradientTransform="matrix(0.08715722,0,0,0.01575355,71.554454,109.82487)"
       gradientUnits="userSpaceOnUse"
       xlink:href="#linearGradient5048-8"
       id="linearGradient3178"
       y2="609.50507"
       x2="302.85715"
       y1="366.64789"
       x1="302.85715" />
    <linearGradient
       y2="42.437775"
       x2="40.290417"
       y1="5.4143372"
       x1="40.290417"
       gradientTransform="matrix(1.7048308,0,0,1.0133365,62.139624,73.736322)"
       gradientUnits="userSpaceOnUse"
       id="linearGradient3133"
       xlink:href="#linearGradient3462" />
    <radialGradient
       cx="4.5993023"
       cy="8.4497671"
       r="19.99999"
       fx="4.5993023"
       fy="8.4497671"
       id="radialGradient3166-9"
       xlink:href="#linearGradient2867-449-88-871-390-598-476-591-434-148-57-177-8"
       gradientUnits="userSpaceOnUse"
       gradientTransform="matrix(0,2.7905692,-4.9069185,-8.4436746e-8,144.51807,59.295952)" />
    <linearGradient
       id="linearGradient2867-449-88-871-390-598-476-591-434-148-57-177-8">
      <stop
         id="stop3750-4"
         style="stop-color:#90dbec;stop-opacity:1"
         offset="0" />
      <stop
         id="stop3752-8"
         style="stop-color:#55c1ec;stop-opacity:1"
         offset="0.26238" />
      <stop
         id="stop3754-1"
         style="stop-color:#3689e6;stop-opacity:1"
         offset="0.704952" />
      <stop
         id="stop3756-0"
         style="stop-color:#2b63a0;stop-opacity:1"
         offset="1" />
    </linearGradient>
  </defs>
  <metadata
     id="metadata6775">
    <rdf:RDF>
      <cc:Work
         rdf:about="">
        <dc:format>image/svg+xml</dc:format>
        <dc:type
           rdf:resource="http://purl.org/dc/dcmitype/StillImage" />
        <dc:title></dc:title>
      </cc:Work>
    </rdf:RDF>
  </metadata>
  <g
     transform="translate(-29.945154,-45.809214)"
     id="layer1">
    <g
       style="stroke-width:1.00086236"
       transform="matrix(-0.99913845,-0.14999762,0,0.99913845,101.67843,-0.17983559)"
       id="g9599">
      <g
         style="stroke-width:0.55646902"
         transform="matrix(0.47587821,0,0,0.47587821,32.228041,53.153152)"
         id="g9589">
        <path
           style="fill:#89664c;stroke-width:0.55646902"
           d="M 32,64 0,44.8 V 19.2 l 32,19.2 z"
           id="path9569" />
        <path
           style="fill:#fed0ac;stroke-width:0.55646902"
           d="M 32,38.4 V 64 L 64,44.8 V 19.2 Z"
           id="path9571" />
        <path
           style="fill:#d3976e;stroke-width:0.55646902"
           d="M 0,19.2 32,38.4 64,19.2 32,0 Z"
           id="path9573" />
        <path
           style="fill:#89664c;stroke-width:0.55646902"
           d="M 50.9,27 19,7.8 13,11.4 45,30.6 Z"
           id="path9575" />
        <path
           style="fill:#d0d0d0;stroke-width:0.55646902"
           d="M 39.3,6.8 32.2,2.4 26.3,6 l 7.1,4.3 z"
           id="path9577" />
        <path
           style="fill:#d3976e;stroke-width:0.55646902"
           d="m 50.8,27.1 -5.6,3.4 v 9.2 l 5.6,-3.4 z"
           id="path9579" />
        <g
           style="fill:#ffffff;stroke-width:0.55646902"
           id="g9585">
          <path
             style="stroke-width:0.55646902"
             d="m 62.5,22.1 -5.7,3.4 v 9.2 l 5.7,-3.4 z"
             id="path9581" />
          <path
             style="stroke-width:0.55646902"
             d="m 41.6,43.5 -7.7,4.6 V 60.7 L 41.6,56 Z"
             id="path9583" />
        </g>
        <path
           style="fill:#d3976e;stroke-width:0.55646902"
           d="m 45.2,56.1 5.6,-3.4 v -9.2 l -5.6,3.4 z"
           id="path9587" />
      </g>
      <g
         style="stroke-width:1.36485624"
         transform="matrix(0.19402154,0,0,0.19402154,59.377753,74.092439)"
         id="g9597">
        <path
           style="fill:#f2b200;stroke-width:1.36485624"
           d="M 29.1,12.9 H 19 L 12.9,19 V 29.1 L 43.8,64 64,43.8 29.1,12.9 m -6.4,9.8 c -0.9,0.9 -2.4,0.9 -3.4,0 -0.9,-0.9 -0.9,-2.4 0,-3.4 0.9,-0.9 2.4,-0.9 3.4,0 0.9,1 0.9,2.5 0,3.4"
           id="path9591" />
        <path
           style="fill:#94989b;stroke-width:1.36485624"
           d="M 21.9,20.8 C 21.6,19.5 21,18.2 20.3,17.1 18.6,14.3 16.2,12 13.4,10.3 9.6,8.1 5.3,7.1 0.9,6.7 0.4,6.7 0,7.2 0,7.6 c 0,0.5 0.4,0.9 0.9,0.9 4.7,0.4 9.5,1.7 13.4,4.5 1.1,0.8 2.4,2.1 3.3,3.3 0.2,0.2 -0.1,-0.2 0,0.1 0,0.1 0.1,0.1 0.1,0.2 0.1,0.1 0.2,0.3 0.3,0.4 0.2,0.3 0.4,0.5 0.5,0.8 0.3,0.5 0.5,0.9 0.8,1.4 0.1,0.1 0.1,0.3 0.2,0.4 0,0.1 0.1,0.1 0.1,0.2 0.1,0.2 0.2,0.5 0.2,0.7 0.1,0.2 0.1,0.4 0.2,0.6 0.3,1.4 2.2,0.9 1.9,-0.3"
           id="path9593" />
        <path
           style="fill:#3e4347;stroke-width:1.36485624"
           d="m 15.3,16.6 c 0,0 -0.1,-0.1 -0.1,-0.1 C 14.7,16.1 14.3,15.7 13.9,15.2 13,14.2 12.2,12.9 11.6,11.6 9.9,8.3 9,4.6 8.7,1 8.6,0.4 8.2,0 7.6,0 7.1,0 6.6,0.4 6.7,0.9 c 0.3,4 1.4,8 3.2,11.6 0.7,1.4 1.6,2.8 2.6,4 0.4,0.5 0.9,1 1.4,1.4 l 1.4,-1.3"
           id="path9595" />
      </g>
    </g>
    <path
       style="fill:#859900;stroke-width:0.26458332"
       id="path10482"
       d="m 52.730581,49.630691 c -1.519394,0 -2.750029,1.230636 -2.750029,2.750024 0,1.519389 1.230635,2.750026 2.750029,2.750026 1.519385,0 2.75002,-1.230637 2.75002,-2.750026 0,-1.519388 -1.230635,-2.750024 -2.75002,-2.750024 z m 1.37501,3.025027 h -1.10001 v 1.10001 h -0.55001 v -1.10001 h -1.1 v -0.550006 h 1.1 v -1.100009 h 0.55001 v 1.100009 h 1.10001 z" />
    <path
       d="m 61.635426,53.821205 c -1.519394,0 -2.75003,1.230636 -2.75003,2.750025 0,1.519389 1.230636,2.750026 2.75003,2.750026 1.519385,0 2.75002,-1.230637 2.75002,-2.750026 0,-1.519389 -1.230635,-2.750025 -2.75002,-2.750025 z m 1.37501,3.025028 h -2.75002 v -0.550006 h 2.75002 z"
       id="path10484"
       style="fill:#dc322f;stroke-width:0.26458332" />
    <path
       d="m 51.682952,56.96409 c -1.519394,0 -2.75003,1.230636 -2.75003,2.750025 0,1.519388 1.230636,2.750025 2.75003,2.750025 1.519385,0 2.75002,-1.230637 2.75002,-2.750025 0,-1.519389 -1.230635,-2.750025 -2.75002,-2.750025 z m 1.37501,3.025028 h -1.10001 v 1.100009 h -0.55001 v -1.100009 h -1.1 v -0.550006 h 1.1 v -1.100009 h 0.55001 v 1.100009 h 1.10001 z"
       id="path10486"
       style="fill:#859900;stroke-width:0.26458332" />
  </g>
</svg>
