<?xml version="1.0" encoding="UTF-8" standalone="no"?>
<svg
   xmlns:dc="http://purl.org/dc/elements/1.1/"
   xmlns:cc="http://creativecommons.org/ns#"
   xmlns:rdf="http://www.w3.org/1999/02/22-rdf-syntax-ns#"
   xmlns:svg="http://www.w3.org/2000/svg"
   xmlns="http://www.w3.org/2000/svg"
   xmlns:xlink="http://www.w3.org/1999/xlink"
   id="svg6778"
   version="1.1"
   viewBox="0 0 23.407318 26.272846"
   height="99.298943"
   width="88.468605">
  <defs
     id="defs6772">
    <marker
       orient="auto"
       refY="0"
       refX="0"
       id="marker5790"
       style="overflow:visible">
      <path
         id="path5788"
         d="M 5.77,0 -2.88,5 V -5 Z"
         style="fill:#657b83;fill-opacity:1;fill-rule:evenodd;stroke:#657b83;stroke-width:1.00000003pt;stroke-opacity:1"
         transform="scale(0.8)" />
    </marker>
    <marker
       style="overflow:visible"
       id="Torso"
       refX="0"
       refY="0"
       orient="auto">
      <g
         style="fill:#657b83;fill-opacity:1;stroke:#657b83;stroke-opacity:1"
         transform="scale(0.7)"
         id="g5591">
        <path
           style="fill:#657b83;fill-opacity:1;fill-rule:evenodd;stroke:#657b83;stroke-width:1.25;stroke-opacity:1"
           d="m -4.7792281,-3.239542 c 2.350374,0.3659393 5.30026732,1.9375477 5.03715532,3.62748546 C -0.00518779,2.0778819 -2.2126741,2.6176539 -4.5630471,2.2517169 -6.9134221,1.8857769 -8.521035,0.75201414 -8.257922,-0.93792336 -7.994809,-2.6278615 -7.1296041,-3.6054813 -4.7792281,-3.239542 Z"
           id="path5577" />
        <path
           style="fill:#657b83;fill-opacity:1;fill-rule:evenodd;stroke:#657b83;stroke-width:1.00000003pt;stroke-opacity:1"
           d="M 4.4598789,0.08866574 C -2.5564571,-4.378332 5.2248769,-3.9061806 -0.84829578,-8.7197331"
           id="path5579" />
        <path
           style="fill:#657b83;fill-opacity:1;fill-rule:evenodd;stroke:#657b83;stroke-width:1.00000003pt;stroke-opacity:1"
           d="M 4.9298719,0.05752074 C -1.3872731,1.7494689 1.8027579,5.4782079 -4.9448731,7.5462725"
           id="path5581" />
        <rect
           style="fill:#657b83;fill-opacity:1;fill-rule:evenodd;stroke:#657b83;stroke-width:1.00000003pt;stroke-opacity:1"
           width="2.6366582"
           height="2.7608147"
           x="-10.391706"
           y="-1.7408575"
           transform="matrix(0.527536,-0.849533,0.887668,0.460484,0,0)"
           id="rect5583" />
        <rect
           style="fill:#657b83;fill-opacity:1;fill-rule:evenodd;stroke:#657b83;stroke-width:1.00000003pt;stroke-opacity:1"
           width="2.7327356"
           height="2.8614161"
           x="4.9587269"
           y="-7.9629307"
           transform="matrix(0.671205,-0.741272,0.790802,0.612072,0,0)"
           id="rect5585" />
        <path
           style="fill:#657b83;fill-opacity:1;fill-rule:evenodd;stroke:#657b83;stroke-width:1.00000003pt;stroke-opacity:1"
           d="m 16.779951,-28.685045 a 0.60731727,0.60731727 0 1 0 -1.214634,0 0.60731727,0.60731727 0 1 0 1.214634,0 z"
           transform="matrix(0,-1.109517,1.109517,0,25.96648,19.71619)"
           id="path5587" />
        <path
           style="fill:#657b83;fill-opacity:1;fill-rule:evenodd;stroke:#657b83;stroke-width:1.00000003pt;stroke-opacity:1"
           d="m 16.779951,-28.685045 a 0.60731727,0.60731727 0 1 0 -1.214634,0 0.60731727,0.60731727 0 1 0 1.214634,0 z"
           transform="matrix(0,-1.109517,1.109517,0,26.8245,16.99126)"
           id="path5589" />
      </g>
    </marker>
    <marker
       orient="auto"
       refY="0"
       refX="0"
       id="marker5315"
       style="overflow:visible">
      <path
         id="path5313"
         d="M 5.77,0 -2.88,5 V -5 Z"
         style="fill:#657b83;fill-opacity:1;fill-rule:evenodd;stroke:#657b83;stroke-width:1.00000003pt;stroke-opacity:1"
         transform="scale(0.8)" />
    </marker>
    <marker
       orient="auto"
       refY="0"
       refX="0"
       id="marker5263"
       style="overflow:visible">
      <path
         id="path5261"
         d="M 5.77,0 -2.88,5 V -5 Z"
         style="fill:#657b83;fill-opacity:1;fill-rule:evenodd;stroke:#657b83;stroke-width:1.00000003pt;stroke-opacity:1"
         transform="scale(0.8)" />
    </marker>
    <marker
       orient="auto"
       refY="0"
       refX="0"
       id="marker4845"
       style="overflow:visible">
      <path
         id="path4843"
         d="M 5.77,0 -2.88,5 V -5 Z"
         style="fill:#657b83;fill-opacity:1;fill-rule:evenodd;stroke:#657b83;stroke-width:1.00000003pt;stroke-opacity:1"
         transform="scale(0.8)" />
    </marker>
    <clipPath
       clipPathUnits="userSpaceOnUse"
       id="clipPath16">
      <path
         d="M 0,36 H 36 V 0 H 0 Z"
         id="path18" />
    </clipPath>
    <clipPath
       clipPathUnits="userSpaceOnUse"
       id="clipPath16-7">
      <path
         d="M 0,36 H 36 V 0 H 0 Z"
         id="path18-9" />
    </clipPath>
    <linearGradient
       id="linearGradient3462">
      <stop
         offset="0"
         style="stop-color:#ffffff;stop-opacity:1"
         id="stop3464" />
      <stop
         offset="0.03457849"
         style="stop-color:#ffffff;stop-opacity:0.23529412"
         id="stop3466" />
      <stop
         offset="0.96375686"
         style="stop-color:#ffffff;stop-opacity:0.15686275"
         id="stop3468" />
      <stop
         offset="1"
         style="stop-color:#ffffff;stop-opacity:0.39215687"
         id="stop3470" />
    </linearGradient>
    <linearGradient
       id="linearGradient5060-2">
      <stop
         offset="0"
         style="stop-color:#000000;stop-opacity:1"
         id="stop5062-3" />
      <stop
         offset="1"
         style="stop-color:#000000;stop-opacity:0"
         id="stop5064-1" />
    </linearGradient>
    <linearGradient
       id="linearGradient5048-8">
      <stop
         offset="0"
         style="stop-color:#000000;stop-opacity:0"
         id="stop5050-4" />
      <stop
         offset="0.5"
         style="stop-color:#000000;stop-opacity:1"
         id="stop5056-5" />
      <stop
         offset="1"
         style="stop-color:#000000;stop-opacity:0"
         id="stop5052-1" />
    </linearGradient>
    <radialGradient
       gradientTransform="matrix(0.02458466,0,0,0.01575355,109.28161,109.82487)"
       gradientUnits="userSpaceOnUse"
       xlink:href="#linearGradient5060-2"
       id="radialGradient3172"
       fy="486.64789"
       fx="605.71429"
       r="117.14286"
       cy="486.64789"
       cx="605.71429" />
    <radialGradient
       gradientTransform="matrix(-0.02458466,0,0,0.01575355,96.829523,109.82487)"
       gradientUnits="userSpaceOnUse"
       xlink:href="#linearGradient5060-2"
       id="radialGradient3175"
       fy="486.64789"
       fx="605.71429"
       r="117.14286"
       cy="486.64789"
       cx="605.71429" />
    <linearGradient
       gradientTransform="matrix(0.08715722,0,0,0.01575355,71.554454,109.82487)"
       gradientUnits="userSpaceOnUse"
       xlink:href="#linearGradient5048-8"
       id="linearGradient3178"
       y2="609.50507"
       x2="302.85715"
       y1="366.64789"
       x1="302.85715" />
    <linearGradient
       y2="42.437775"
       x2="40.290417"
       y1="5.4143372"
       x1="40.290417"
       gradientTransform="matrix(1.7048308,0,0,1.0133365,62.139624,73.736322)"
       gradientUnits="userSpaceOnUse"
       id="linearGradient3133"
       xlink:href="#linearGradient3462" />
    <radialGradient
       cx="4.5993023"
       cy="8.4497671"
       r="19.99999"
       fx="4.5993023"
       fy="8.4497671"
       id="radialGradient3166-9"
       xlink:href="#linearGradient2867-449-88-871-390-598-476-591-434-148-57-177-8"
       gradientUnits="userSpaceOnUse"
       gradientTransform="matrix(0,2.7905692,-4.9069185,-8.4436746e-8,144.51807,59.295952)" />
    <linearGradient
       id="linearGradient2867-449-88-871-390-598-476-591-434-148-57-177-8">
      <stop
         id="stop3750-4"
         style="stop-color:#90dbec;stop-opacity:1"
         offset="0" />
      <stop
         id="stop3752-8"
         style="stop-color:#55c1ec;stop-opacity:1"
         offset="0.26238" />
      <stop
         id="stop3754-1"
         style="stop-color:#3689e6;stop-opacity:1"
         offset="0.704952" />
      <stop
         id="stop3756-0"
         style="stop-color:#2b63a0;stop-opacity:1"
         offset="1" />
    </linearGradient>
    <clipPath
       id="clipPath16-79"
       clipPathUnits="userSpaceOnUse">
      <path
         id="path18-3"
         d="M 0,36 H 36 V 0 H 0 Z" />
    </clipPath>
    <clipPath
       id="clipPath98"
       clipPathUnits="userSpaceOnUse">
      <path
         id="path100"
         d="M 9.5,13 C 8.119,13 7,11.881 7,10.5 v 0 C 7,9.119 8.119,8 9.5,8 v 0 h 17 c 1.381,0 2.5,1.119 2.5,2.5 v 0 c 0,1.381 -1.119,2.5 -2.5,2.5 v 0 z" />
    </clipPath>
    <clipPath
       id="clipPath110"
       clipPathUnits="userSpaceOnUse">
      <path
         id="path112"
         d="M 0,36 H 36 V 0 H 0 Z" />
    </clipPath>
  </defs>
  <metadata
     id="metadata6775">
    <rdf:RDF>
      <cc:Work
         rdf:about="">
        <dc:format>image/svg+xml</dc:format>
        <dc:type
           rdf:resource="http://purl.org/dc/dcmitype/StillImage" />
        <dc:title></dc:title>
      </cc:Work>
    </rdf:RDF>
  </metadata>
  <g
     transform="translate(-20.177316,0.65430652)"
     id="layer1">
    <g
       style="stroke-width:1.01021814"
       transform="matrix(0.9898852,0,0,0.9898852,0.50012482,-99.900874)"
       id="g6666">
      <path
         style="fill:#962c2c;stroke-width:0.2672869"
         d="m 38.096924,103.13994 -8.257648,3.14753 c 0,0 -0.296239,-0.74059 -0.555448,-1.14792 -0.629507,-1.03684 -1.740401,-0.70357 -1.740401,-0.70357 l -6.295068,2.25882 c 0,0 -0.851686,0.40733 -1.221984,1.48119 -0.333268,1.03684 0,2.33288 0,2.33288 l 3.628922,16.29312 14.441627,-13.92321 c 0,0 0.481387,-6.22101 0.777626,-9.0723 0.07406,-1.03684 -0.777626,-0.66654 -0.777626,-0.66654"
         id="path6562" />
      <g
         style="stroke-width:1.01021814"
         id="g10-3"
         transform="matrix(0.30508938,0.12768029,0.12768029,-0.30508938,27.655815,110.45303)">
        <g
           style="stroke-width:1.01021814"
           id="g12-8">
          <g
             style="stroke-width:1.01021814"
             id="g14-0"
             clip-path="url(#clipPath16-7)">
            <g
               style="stroke-width:1.01021814"
               id="g20-2"
               transform="translate(32.415,26.4136)">
              <path
                 d="m 0,0 v 0.001 l -9,8.998 c -0.361,0.363 -0.862,0.587 -1.415,0.587 -1.104,0 -1.999,-0.896 -2,-1.999 0,-0.552 0.224,-1.053 0.586,-1.415 l -3.859,-3.859 9,-9 3.859,3.859 c 0.362,-0.362 0.862,-0.586 1.414,-0.586 1.104,0 2.001,0.896 2,2 C 0.585,-0.861 0.361,-0.362 0,0"
                 style="fill:#e1e8ed;fill-opacity:1;fill-rule:nonzero;stroke:none;stroke-width:1.01021814"
                 id="path22-4" />
            </g>
            <g
               style="stroke-width:1.01021814"
               id="g24-8"
               transform="translate(22,36)">
              <path
                 d="m 0,0 h -15 c -2.209,0 -4,-1.791 -4,-4 v -28 c 0,-2.209 1.791,-4 4,-4 H 7 c 2.209,0 4,1.791 4,4 v 21 H 2 c -1,0 -2,1 -2,2 z"
                 style="fill:#ccd6dd;fill-opacity:1;fill-rule:nonzero;stroke:none;stroke-width:1.01021814"
                 id="path26-3" />
            </g>
            <g
               style="stroke-width:1.01021814"
               id="g28"
               transform="translate(22,36)">
              <path
                 d="m 0,0 h -2 v -9 c 0,-2.209 1.791,-4 4,-4 l 9,10e-4 V -11 H 2 c -1,0 -2,1 -2,2 z"
                 style="fill:#99aab5;fill-opacity:1;fill-rule:nonzero;stroke:none;stroke-width:1.01021814"
                 id="path30" />
            </g>
            <g
               style="stroke-width:1.01021814"
               id="g32"
               transform="translate(17,28)">
              <path
                 d="m 0,0 c 0,-0.552 -0.448,-1 -1,-1 h -8 c -0.552,0 -1,0.448 -1,1 0,0.552 0.448,1 1,1 h 8 C -0.448,1 0,0.552 0,0"
                 style="fill:#99aab5;fill-opacity:1;fill-rule:nonzero;stroke:none;stroke-width:1.01021814"
                 id="path34" />
            </g>
            <g
               style="stroke-width:1.01021814"
               id="g36"
               transform="translate(17,24)">
              <path
                 d="m 0,0 c 0,-0.552 -0.448,-1 -1,-1 h -8 c -0.552,0 -1,0.448 -1,1 0,0.552 0.448,1 1,1 h 8 C -0.448,1 0,0.552 0,0"
                 style="fill:#99aab5;fill-opacity:1;fill-rule:nonzero;stroke:none;stroke-width:1.01021814"
                 id="path38" />
            </g>
            <g
               style="stroke-width:1.01021814"
               id="g40"
               transform="translate(29,20)">
              <path
                 d="m 0,0 c 0,-0.552 -0.447,-1 -1,-1 h -20 c -0.552,0 -1,0.448 -1,1 0,0.552 0.448,1 1,1 H -1 C -0.447,1 0,0.552 0,0"
                 style="fill:#99aab5;fill-opacity:1;fill-rule:nonzero;stroke:none;stroke-width:1.01021814"
                 id="path42" />
            </g>
            <g
               style="stroke-width:1.01021814"
               id="g44"
               transform="translate(29,16)">
              <path
                 d="m 0,0 c 0,-0.553 -0.447,-1 -1,-1 h -20 c -0.552,0 -1,0.447 -1,1 0,0.553 0.448,1 1,1 H -1 C -0.447,1 0,0.553 0,0"
                 style="fill:#99aab5;fill-opacity:1;fill-rule:nonzero;stroke:none;stroke-width:1.01021814"
                 id="path46" />
            </g>
            <g
               style="stroke-width:1.01021814"
               id="g48"
               transform="translate(29,12)">
              <path
                 d="m 0,0 c 0,-0.553 -0.447,-1 -1,-1 h -20 c -0.552,0 -1,0.447 -1,1 0,0.553 0.448,1 1,1 H -1 C -0.447,1 0,0.553 0,0"
                 style="fill:#99aab5;fill-opacity:1;fill-rule:nonzero;stroke:none;stroke-width:1.01021814"
                 id="path50" />
            </g>
            <g
               style="stroke-width:1.01021814"
               id="g52"
               transform="translate(29,8)">
              <path
                 d="m 0,0 c 0,-0.553 -0.447,-1 -1,-1 h -20 c -0.552,0 -1,0.447 -1,1 0,0.553 0.448,1 1,1 H -1 C -0.447,1 0,0.553 0,0"
                 style="fill:#99aab5;fill-opacity:1;fill-rule:nonzero;stroke:none;stroke-width:1.01021814"
                 id="path54" />
            </g>
          </g>
        </g>
      </g>
      <g
         style="stroke-width:1.01021814"
         transform="matrix(0.3083234,-0.11965979,-0.11965979,-0.3083234,24.593239,119.36883)"
         id="g6618">
        <g
           style="stroke-width:1.01021814"
           id="g6616">
          <g
             style="stroke-width:1.01021814"
             clip-path="url(#clipPath16-7)"
             id="g6614">
            <g
               style="stroke-width:1.01021814"
               transform="translate(32.415,26.4136)"
               id="g6580">
              <path
                 id="path6578"
                 style="fill:#e1e8ed;fill-opacity:1;fill-rule:nonzero;stroke:none;stroke-width:1.01021814"
                 d="m 0,0 v 0.001 l -9,8.998 c -0.361,0.363 -0.862,0.587 -1.415,0.587 -1.104,0 -1.999,-0.896 -2,-1.999 0,-0.552 0.224,-1.053 0.586,-1.415 l -3.859,-3.859 9,-9 3.859,3.859 c 0.362,-0.362 0.862,-0.586 1.414,-0.586 1.104,0 2.001,0.896 2,2 C 0.585,-0.861 0.361,-0.362 0,0" />
            </g>
            <g
               style="stroke-width:1.01021814"
               transform="translate(22,36)"
               id="g6584">
              <path
                 id="path6582"
                 style="fill:#ccd6dd;fill-opacity:1;fill-rule:nonzero;stroke:none;stroke-width:1.01021814"
                 d="m 0,0 h -15 c -2.209,0 -4,-1.791 -4,-4 v -28 c 0,-2.209 1.791,-4 4,-4 H 7 c 2.209,0 4,1.791 4,4 v 21 H 2 c -1,0 -2,1 -2,2 z" />
            </g>
            <g
               style="stroke-width:1.01021814"
               transform="translate(22,36)"
               id="g6588">
              <path
                 id="path6586"
                 style="fill:#99aab5;fill-opacity:1;fill-rule:nonzero;stroke:none;stroke-width:1.01021814"
                 d="m 0,0 h -2 v -9 c 0,-2.209 1.791,-4 4,-4 l 9,10e-4 V -11 H 2 c -1,0 -2,1 -2,2 z" />
            </g>
            <g
               style="stroke-width:1.01021814"
               transform="translate(17,28)"
               id="g6592">
              <path
                 id="path6590"
                 style="fill:#99aab5;fill-opacity:1;fill-rule:nonzero;stroke:none;stroke-width:1.01021814"
                 d="m 0,0 c 0,-0.552 -0.448,-1 -1,-1 h -8 c -0.552,0 -1,0.448 -1,1 0,0.552 0.448,1 1,1 h 8 C -0.448,1 0,0.552 0,0" />
            </g>
            <g
               style="stroke-width:1.01021814"
               transform="translate(17,24)"
               id="g6596">
              <path
                 id="path6594"
                 style="fill:#99aab5;fill-opacity:1;fill-rule:nonzero;stroke:none;stroke-width:1.01021814"
                 d="m 0,0 c 0,-0.552 -0.448,-1 -1,-1 h -8 c -0.552,0 -1,0.448 -1,1 0,0.552 0.448,1 1,1 h 8 C -0.448,1 0,0.552 0,0" />
            </g>
            <g
               style="stroke-width:1.01021814"
               transform="translate(29,20)"
               id="g6600">
              <path
                 id="path6598"
                 style="fill:#99aab5;fill-opacity:1;fill-rule:nonzero;stroke:none;stroke-width:1.01021814"
                 d="m 0,0 c 0,-0.552 -0.447,-1 -1,-1 h -20 c -0.552,0 -1,0.448 -1,1 0,0.552 0.448,1 1,1 H -1 C -0.447,1 0,0.552 0,0" />
            </g>
            <g
               style="stroke-width:1.01021814"
               transform="translate(29,16)"
               id="g6604">
              <path
                 id="path6602"
                 style="fill:#99aab5;fill-opacity:1;fill-rule:nonzero;stroke:none;stroke-width:1.01021814"
                 d="m 0,0 c 0,-0.553 -0.447,-1 -1,-1 h -20 c -0.552,0 -1,0.447 -1,1 0,0.553 0.448,1 1,1 H -1 C -0.447,1 0,0.553 0,0" />
            </g>
            <g
               style="stroke-width:1.01021814"
               transform="translate(29,12)"
               id="g6608">
              <path
                 id="path6606"
                 style="fill:#99aab5;fill-opacity:1;fill-rule:nonzero;stroke:none;stroke-width:1.01021814"
                 d="m 0,0 c 0,-0.553 -0.447,-1 -1,-1 h -20 c -0.552,0 -1,0.447 -1,1 0,0.553 0.448,1 1,1 H -1 C -0.447,1 0,0.553 0,0" />
            </g>
            <g
               style="stroke-width:1.01021814"
               transform="translate(29,8)"
               id="g6612">
              <path
                 id="path6610"
                 style="fill:#99aab5;fill-opacity:1;fill-rule:nonzero;stroke:none;stroke-width:1.01021814"
                 d="m 0,0 c 0,-0.553 -0.447,-1 -1,-1 h -20 c -0.552,0 -1,0.447 -1,1 0,0.553 0.448,1 1,1 H -1 C -0.447,1 0,0.553 0,0" />
            </g>
          </g>
        </g>
      </g>
      <path
         style="fill:#ff8736;stroke-width:0.2672869"
         d="M 23.618267,126.76496 39.429997,114.397 c 0,0 3.92516,-7.92438 4.07328,-8.51685 0.148119,-0.66654 -0.518418,-0.44436 -0.518418,-0.44436 l -8.405767,3.96219 c 0,0 -0.518418,2.22179 -1.518223,2.81426 -1.110894,0.62951 -6.295068,3.44378 -6.295068,3.44378 0,0 -0.740596,0.48138 -1.147924,1.25901 -0.444358,0.77763 -1.99961,9.84993 -1.99961,9.84993"
         id="path6564" />
    </g>
  </g>
</svg>
