<?xml version="1.0" encoding="UTF-8" standalone="no"?>
<svg
   xmlns:dc="http://purl.org/dc/elements/1.1/"
   xmlns:cc="http://creativecommons.org/ns#"
   xmlns:rdf="http://www.w3.org/1999/02/22-rdf-syntax-ns#"
   xmlns:svg="http://www.w3.org/2000/svg"
   xmlns="http://www.w3.org/2000/svg"
   version="1.1"
   id="svg2"
   viewBox="0 0 73.571434 128.75"
   height="128.75"
   width="73.571434">
  <defs
     id="defs4" />
  <metadata
     id="metadata7">
    <rdf:RDF>
      <cc:Work
         rdf:about="">
        <dc:format>image/svg+xml</dc:format>
        <dc:type
           rdf:resource="http://purl.org/dc/dcmitype/StillImage" />
        <dc:title></dc:title>
      </cc:Work>
    </rdf:RDF>
  </metadata>
  <g
     transform="matrix(6.8666667,0,0,6.8666667,-171.66667,-193.51596)"
     id="text4135"
     style="font-style:normal;font-variant:normal;font-weight:normal;font-stretch:normal;font-size:18.75px;line-height:1000%;font-family:'Fira Sans';-inkscape-font-specification:'Fira Sans, Normal';text-align:start;letter-spacing:0px;word-spacing:0px;writing-mode:lr-tb;text-anchor:start;fill:#000000;fill-opacity:1;stroke:none;stroke-width:1px;stroke-linecap:butt;stroke-linejoin:miter;stroke-opacity:1">
    <path
       id="path4140"
       style="font-style:normal;font-variant:normal;font-weight:normal;font-stretch:normal;font-size:18.75px;line-height:1000%;font-family:FontAwesome;-inkscape-font-specification:'FontAwesome, Normal';text-align:start;writing-mode:lr-tb;text-anchor:start;fill:#657b83"
       d="m 30.357143,39.565865 c -0.46038,0 -0.910296,-0.05232 -1.339286,-0.156948 l 0,6.853376 c 0,0.366211 0.303432,0.669643 0.669643,0.669643 l 1.339286,0 c 0.366211,0 0.669643,-0.303432 0.669643,-0.669643 l 0,-6.853376 c -0.42899,0.104632 -0.878907,0.156948 -1.339286,0.156948 z m 0,-11.383929 C 27.396066,28.181936 25,30.578002 25,33.539079 c 0,2.961077 2.396066,5.357143 5.357143,5.357143 2.961077,0 5.357143,-2.396066 5.357143,-5.357143 0,-2.961077 -2.396066,-5.357143 -5.357143,-5.357143 z m 0,2.34375 c -1.663644,0 -3.013393,1.349749 -3.013393,3.013393 0,0.188337 -0.146484,0.334821 -0.334821,0.334821 -0.188337,0 -0.334822,-0.146484 -0.334822,-0.334821 0,-2.029855 1.653181,-3.683036 3.683036,-3.683036 0.188337,0 0.334821,0.146485 0.334821,0.334822 0,0.188337 -0.146484,0.334821 -0.334821,0.334821 z" />
  </g>
</svg>
