<?xml version="1.0" standalone="no"?>
<!DOCTYPE svg PUBLIC "-//W3C//DTD SVG 1.1//EN" "http://www.w3.org/Graphics/SVG/1.1/DTD/svg11.dtd" >
<svg xmlns="http://www.w3.org/2000/svg">
<metadata></metadata>
<defs>
<font id="charterregular" horiz-adv-x="500" >
<font-face units-per-em="1000" ascent="762" descent="-238" />
<missing-glyph horiz-adv-x="278" />
<glyph unicode=" "  horiz-adv-x="278" />
<glyph unicode="&#x09;" horiz-adv-x="278" />
<glyph unicode="&#xa0;" horiz-adv-x="278" />
<glyph unicode="!" horiz-adv-x="338" d="M193 171h-48l-28 382q-3 33 -3 58q0 72 55 72t55 -72q0 -16 -3 -58zM169 105q24 0 40.5 -16.5t16.5 -40.5q0 -23 -16.5 -40t-40.5 -17q-23 0 -40 16.5t-17 40.5t17 40.5t40 16.5z" />
<glyph unicode="&#x22;" horiz-adv-x="331" d="M77 422l-31 223q-1 5 -1.5 10t-0.5 10q0 49 41 49q20 0 31 -12.5t11 -36.5q0 -4 -0.5 -9t-1.5 -11l-32 -223h-16zM238 422l-32 223q-1 5 -1.5 9.5t-0.5 9.5q0 25 11 37.5t31 12.5q41 0 41 -49v-9t-1 -11l-33 -223h-15z" />
<glyph unicode="#" horiz-adv-x="745" d="M417 692l-79 -222h154l80 239l47 -17l-78 -222h139v-47h-155l-49 -146h163v-47h-179l-84 -253l-47 16l80 237h-153l-83 -253l-47 16l82 237h-144v47h159l48 146h-158v47h174l83 240zM274 277h149l51 146h-151z" />
<glyph unicode="$" horiz-adv-x="556" d="M301 743v-71h8q35 0 75 -5.5t86 -16.5v-156h-45l-15 93l-15 21q-46 17 -94 17v-245q102 -28 149.5 -70.5t47.5 -117.5q0 -72 -51.5 -123.5t-145.5 -68.5v-102h-42v102q-64 2 -114 8.5t-87 16.5v168h46l18 -109l9 -13q51 -25 128 -25v261q-183 42 -183 182q0 69 47 117 t136 63v74h42zM259 622q-48 -11 -73 -41t-25 -74q0 -84 98 -115v230zM303 50q53 8 82.5 42t29.5 82q0 87 -112 120v-244z" />
<glyph unicode="%" horiz-adv-x="852" d="M181 683q68 0 109 -54.5t41 -154.5t-40.5 -155t-109.5 -55t-109.5 54.5t-40.5 155.5q0 100 41 154.5t109 54.5zM669 671l-428 -671h-60l427 671h61zM179 647q-38 0 -58 -43.5t-20 -129.5q0 -174 78 -174q80 0 80 174q0 87 -21 130t-59 43zM671 407q68 0 109 -54.5 t41 -154.5t-40.5 -155t-109.5 -55t-109.5 54.5t-40.5 155.5q0 100 41 154.5t109 54.5zM669 372q-38 0 -58 -44t-20 -130q0 -174 78 -174q80 0 80 174q0 87 -21 130.5t-59 43.5z" />
<glyph unicode="&#x26;" horiz-adv-x="704" d="M276 390q51 23 74.5 56t23.5 82q0 50 -26.5 79.5t-71.5 29.5q-40 0 -66.5 -27.5t-26.5 -70.5q0 -39 23.5 -73.5t69.5 -75.5zM483 171q23 32 37 61t19 57l-18 19l-55 8v40h203v-40l-72 -10q-14 -47 -34 -89.5t-49 -80.5l78 -90l91 -5v-41h-176v24l-45 50 q-50 -43 -98 -64.5t-98 -21.5q-47 0 -86 15t-67.5 41.5t-44 62.5t-15.5 78q0 119 132 179q-41 40 -61.5 76t-20.5 77q0 34 13.5 64.5t38 53t58 35.5t72.5 13q40 0 71.5 -12t54 -32t34.5 -47.5t12 -58.5q0 -60 -35 -100.5t-111 -75.5zM223 335q-40 -27 -59 -57.5t-19 -71.5 q0 -34 11 -63t30.5 -50t46.5 -33t59 -12q76 0 139 60z" />
<glyph unicode="'" horiz-adv-x="170" d="M77 422l-32 223q-1 5 -1 9.5v9.5q0 50 41 50q20 0 31 -12.5t11 -36.5q0 -4 -0.5 -9t-1.5 -11l-32 -223h-16z" />
<glyph unicode="(" horiz-adv-x="417" d="M386 676q-103 -18 -149 -114.5t-46 -277.5q0 -177 47 -272t148 -112v-42q-131 15 -205.5 124.5t-74.5 302.5q0 196 73 306t207 127v-42z" />
<glyph unicode=")" horiz-adv-x="417" d="M31 718q134 -17 207 -127t73 -306q0 -193 -74.5 -302.5t-205.5 -124.5v42q101 17 148 112t47 272q0 181 -46 277.5t-149 114.5v42v0z" />
<glyph unicode="*" d="M289 657l-32 -125h-14l-32 125l39 61zM447 571l-46 -56l-128 -8l-4 13l108 69zM365 410l4 -72l-67 26l-47 120l11 7zM244 484l-47 -121l-67 -25l4 72l100 81zM232 519l-4 -12l-129 8l-45 56l69 18z" />
<glyph unicode="+" horiz-adv-x="833" d="M446 596v-269h263v-57h-263v-270h-58v270h-264v57h264v269h58z" />
<glyph unicode="," horiz-adv-x="278" d="M39 -136q110 21 110 132v11h-64q-16 17 -16 44q0 25 16.5 40t42.5 15q38 0 59 -26t21 -74q0 -32 -12 -62t-34.5 -53.5t-53.5 -39.5t-69 -20v33z" />
<glyph unicode="-" horiz-adv-x="319" d="M272 274v-67h-225v67h225z" />
<glyph unicode="." horiz-adv-x="278" d="M139 118q26 0 44.5 -18.5t18.5 -45.5q0 -26 -18.5 -44.5t-44.5 -18.5t-45 18t-19 45t19 45.5t45 18.5z" />
<glyph unicode="/" horiz-adv-x="481" d="M460 671l-428 -764h-60l427 764h61z" />
<glyph unicode="0" horiz-adv-x="556" d="M278 683q54 0 97.5 -23t74.5 -67.5t48 -109t17 -147.5t-17 -147.5t-48 -109t-74.5 -68t-97.5 -23.5t-97.5 23.5t-74.5 68t-48 109t-17 147.5t17 147.5t48 109t74.5 67.5t97.5 23zM278 636q-69 0 -106 -75.5t-37 -225.5q0 -149 37 -224t106 -75t105.5 75.5t36.5 224.5 t-36.5 224.5t-105.5 75.5z" />
<glyph unicode="1" horiz-adv-x="556" d="M339 683v-621l12 -15l108 -5v-42h-335v43l115 6l12 17v538l-157 -28v42l217 65h28z" />
<glyph unicode="2" horiz-adv-x="556" d="M442 79l18 85h45v-164h-463v63q82 67 146 122t108 104.5t67 96t23 95.5q0 72 -35 111.5t-98 39.5q-23 0 -44.5 -5.5t-44.5 -18.5v-107q-21 -15 -45 -15q-26 0 -41 15t-15 41t15.5 51.5t44 45.5t67 32t85.5 12q48 0 86.5 -13.5t65.5 -38.5t41.5 -60t14.5 -77 q0 -47 -22.5 -93t-66 -95.5t-107 -105t-146.5 -121.5h301z" />
<glyph unicode="3" horiz-adv-x="556" d="M317 353q84 -6 129.5 -49t45.5 -112q0 -42 -18 -79t-51 -64.5t-79.5 -43.5t-104.5 -16q-45 0 -81.5 10t-62.5 26t-40 35.5t-14 38.5q0 22 16 36.5t40 14.5q16 0 30 -5l31 -85q40 -24 85 -24q34 0 63 12t50 33.5t32.5 50.5t11.5 62q0 60 -38 92.5t-110 32.5 q-12 0 -25.5 -1t-27.5 -3v59q5 0 10.5 -0.5t10.5 -0.5q76 0 115.5 34t39.5 95q0 60 -34.5 95t-92.5 35q-53 0 -95 -29v-94q-17 -13 -41 -13t-39 15t-15 39q0 25 15.5 48.5t43 42.5t66.5 30.5t86 11.5q45 0 81.5 -12t62 -34t39.5 -53t14 -69q0 -58 -37.5 -99.5t-111.5 -62.5z " />
<glyph unicode="4" horiz-adv-x="556" d="M426 677v-418h113v-65h-113v-231h-77v231h-322v65l341 418h58zM102 259h247v309z" />
<glyph unicode="5" horiz-adv-x="556" d="M459 671v-78h-296v-200q57 16 107 16t90.5 -14t69 -39.5t44 -60.5t15.5 -78q0 -48 -18.5 -89.5t-53.5 -72t-84.5 -47.5t-110.5 -17q-39 0 -70.5 8t-54 21t-35 30t-12.5 35q0 23 16 38t42 15q9 0 24 -3l40 -86q33 -12 67 -12q35 0 64 12t50 33t32.5 50.5t11.5 64.5 q0 78 -51.5 114t-156.5 36q-55 0 -88 -6v330h358z" />
<glyph unicode="6" horiz-adv-x="556" d="M443 656h-3q-121 0 -195.5 -69t-97.5 -203q79 61 170 61q45 0 83 -16t65.5 -45t43.5 -69t16 -88q0 -51 -18.5 -94.5t-51 -75.5t-77 -50.5t-95.5 -18.5t-93.5 20t-73.5 57t-48.5 90.5t-17.5 121.5q0 96 27 174t77.5 134.5t123.5 89.5t165 39v-58zM145 340q-2 -16 -2 -31.5 v-29.5q0 -120 38.5 -181.5t109.5 -61.5q31 0 57.5 13.5t45.5 37.5t29.5 57.5t10.5 73.5q0 78 -40 122.5t-104 44.5q-84 0 -145 -45z" />
<glyph unicode="7" horiz-adv-x="556" d="M531 671v-40l-332 -646v-22h-83l326 632h-308l-16 -91h-47v167h460z" />
<glyph unicode="8" horiz-adv-x="556" d="M321 369q39 26 59.5 62t20.5 76q0 60 -33 95t-88 35q-26 0 -48 -9t-38.5 -25t-25.5 -37.5t-9 -46.5q0 -50 40 -85.5t122 -64.5zM363 351q71 -25 107 -69t36 -103q0 -40 -16.5 -75.5t-47 -62t-73 -42t-94.5 -15.5q-54 0 -97 14.5t-72.5 40t-45.5 61t-16 77.5 q0 120 137 173q-105 44 -105 154q0 40 15 73t42 57t65 37.5t85 13.5q45 0 81 -12.5t61.5 -35t39 -53.5t13.5 -67q0 -50 -29.5 -93.5t-85.5 -72.5zM219 329q-51 -27 -74.5 -61t-23.5 -85q0 -66 42.5 -106.5t114.5 -40.5q65 0 103.5 36.5t38.5 96.5q0 30 -12.5 51.5 t-37.5 39.5t-63 34t-88 35z" />
<glyph unicode="9" horiz-adv-x="556" d="M411 319q12 52 12 101q0 106 -38 160t-107 54q-62 0 -101.5 -47.5t-39.5 -130.5q0 -84 38 -128t110 -44q58 0 126 35zM103 -6q116 54 189 121t106 154q-84 -39 -150 -39q-45 0 -83 15.5t-65 43.5t-42 67.5t-15 88.5q0 52 18 95t50 74.5t77 49t99 17.5q106 0 165.5 -67.5 t59.5 -188.5q0 -74 -25.5 -144.5t-75 -132.5t-121 -113.5t-164.5 -86.5z" />
<glyph unicode=":" horiz-adv-x="319" d="M159 481q26 0 45 -18t19 -45q0 -26 -19 -45t-45 -19t-44.5 19t-18.5 45q0 27 18.5 45t44.5 18zM159 118q26 0 45 -18.5t19 -45.5q0 -26 -19 -44.5t-45 -18.5t-44.5 18t-18.5 45t18.5 45.5t44.5 18.5z" />
<glyph unicode=";" horiz-adv-x="319" d="M159 481q26 0 45 -18t19 -45q0 -26 -19 -45t-45 -19t-44.5 19t-18.5 45q0 27 18.5 45t44.5 18zM65 -136q110 21 110 132v11h-65q-16 17 -16 44q0 25 16.5 40t42.5 15q38 0 59 -26t21 -74q0 -32 -12 -62t-34 -53.5t-53 -39.5t-69 -20v33z" />
<glyph unicode="&#x3c;" horiz-adv-x="833" d="M704 497l-488 -199l488 -198v-63l-575 236v50l575 236v-62z" />
<glyph unicode="=" horiz-adv-x="833" d="M709 420v-57h-585v57h585zM709 233v-57h-585v57h585z" />
<glyph unicode="&#x3e;" horiz-adv-x="833" d="M704 323v-50l-575 -236v63l488 198l-488 199v62z" />
<glyph unicode="?" horiz-adv-x="486" d="M227 171h-53v146q145 54 145 179q0 67 -36.5 104t-103.5 37h-6l-40 -99q-5 -1 -9 -1h-9q-29 0 -44.5 14t-15.5 39q0 38 40 65.5t107 27.5q48 0 86.5 -13t65.5 -37t41.5 -57.5t14.5 -73.5q0 -71 -45 -122.5t-138 -91.5v-117zM200 105q24 0 41 -16.5t17 -40.5 q0 -23 -17 -40t-41 -17q-23 0 -39.5 16.5t-16.5 40.5t16.5 40.5t39.5 16.5z" />
<glyph unicode="@" horiz-adv-x="942" d="M699 488q-10 -25 -15.5 -51.5t-11.5 -55.5l-39 -172q-5 -20 -6.5 -33.5t-1.5 -21.5q0 -20 11.5 -31.5t30.5 -11.5q20 0 43 13t45 39q33 39 51.5 95t18.5 119q0 58 -20.5 108t-57.5 86.5t-89.5 57t-115.5 20.5q-163 0 -271 -100q-124 -115 -124 -291q0 -82 25.5 -149 t72.5 -114t113 -73t146 -26q67 0 133.5 18t129.5 55l14 -34q-80 -45 -156.5 -66.5t-147.5 -21.5q-85 0 -158 28.5t-131 84.5q-112 107 -112 286q0 199 145 332q60 54 140 84t167 30q79 0 143 -23t108 -65t68 -100.5t24 -130.5q0 -111 -56 -197q-38 -58 -90 -89.5t-100 -31.5 q-74 0 -74 77v9q-41 -42 -76.5 -63t-70.5 -21q-54 0 -89 43t-35 117q0 48 14.5 91t41.5 80q37 50 88 77t105 27q47 0 98 -27l18 23h54zM553 450q-5 1 -11 1.5t-11 0.5q-35 0 -65 -16.5t-52.5 -46t-35.5 -70.5t-13 -90q0 -55 21.5 -83t61.5 -28q52 0 105 66l41 210z" />
<glyph unicode="A" horiz-adv-x="639" d="M350 679l240 -626l60 -12v-41h-227v41l62 5l7 14l-72 191h-236l-71 -191l10 -14l65 -5v-41h-196v41l58 12l234 626h66zM201 297h202l-103 277z" />
<glyph unicode="B" horiz-adv-x="604" d="M288 671q115 0 172 -39.5t57 -122.5q0 -114 -145 -153q90 -1 138 -43.5t48 -116.5q0 -95 -66.5 -145.5t-194.5 -50.5h-264v41l57 5l17 14v551l-17 14l-57 6v40h255zM197 367q10 -1 19.5 -1h18.5q94 0 138.5 33t44.5 106q0 122 -164 122q-10 0 -24 -1t-33 -2v-257zM197 50 q36 -3 67 -3q101 0 148.5 33t47.5 109q0 134 -165 134q-40 0 -98 -6v-267z" />
<glyph unicode="C" horiz-adv-x="632" d="M588 23q-100 -35 -202 -35q-99 0 -170 40q-81 46 -127 127.5t-46 180.5q0 78 25 142t70.5 109.5t109.5 70.5t142 25q90 0 198 -34v-154h-56l-15 91l-13 18q-28 13 -55.5 19.5t-56.5 6.5q-56 0 -101.5 -19.5t-77.5 -56.5t-49.5 -90.5t-17.5 -120.5q0 -71 18 -127t51.5 -95 t82 -59.5t109.5 -20.5q44 0 87 13l16 16l22 111h56v-158v0z" />
<glyph unicode="D" horiz-adv-x="693" d="M280 671q89 0 157.5 -23t115.5 -66t71.5 -105t24.5 -141q0 -179 -125 -274q-51 -38 -110 -50t-134 -12h-247v41l57 5l17 14v551l-17 14l-57 6v40h247zM197 46h79q272 0 272 290q0 147 -67 218t-205 71h-79v-579z" />
<glyph unicode="E" horiz-adv-x="576" d="M33 41l57 5l17 14v551l-17 14l-57 6v40h479v-146h-56l-14 85l-14 15h-231v-253h164l14 14l10 73h47v-220h-47l-10 72l-14 15h-164v-280h268l14 16l17 101h52v-163h-515v41z" />
<glyph unicode="F" horiz-adv-x="537" d="M33 41l57 5l17 14v551l-17 14l-65 6v40h480v-156h-55l-15 95l-13 15h-225v-263h164l14 14l10 73h47v-221h-47l-10 73l-14 15h-164v-256l17 -14l71 -5v-41h-252v41z" />
<glyph unicode="G" horiz-adv-x="694" d="M667 322v-41l-55 -5l-17 -14v-239q-120 -35 -207 -35q-101 0 -172 40q-41 23 -73 55.5t-54 72t-34 85.5t-12 95q0 79 25 143t71.5 109.5t113 70t149.5 24.5q91 0 192 -29v-159h-56l-15 91l-14 18q-28 13 -56 19.5t-58 6.5q-57 0 -103.5 -19.5t-78.5 -56.5t-49.5 -90.5 t-17.5 -120.5q0 -71 18 -127t51.5 -95t81 -59.5t106.5 -20.5q46 0 102 13v208l-17 14l-71 5v41h250z" />
<glyph unicode="H" horiz-adv-x="738" d="M276 671v-40l-62 -6l-17 -14v-236h344v236l-17 14l-62 6v40h243v-40l-57 -6l-17 -14v-551l17 -14l57 -5v-41h-243v41l62 5l17 14v269h-344v-269l17 -14l62 -5v-41h-243v41l57 5l17 14v551l-17 14l-57 6v40h243z" />
<glyph unicode="I" horiz-adv-x="324" d="M35 41l64 5l17 14v551l-17 14l-64 6v40h253v-40l-64 -6l-17 -14v-551l17 -14l64 -5v-41h-253v41z" />
<glyph unicode="J" horiz-adv-x="444" d="M254 625l-67 6v40h253v-40l-62 -6l-17 -14v-355q0 -137 -51.5 -202.5t-166.5 -65.5q-62 0 -131 24v167h56l24 -126l14 -13q10 -2 18.5 -3t16.5 -1q72 0 101 53.5t29 162.5v359z" />
<glyph unicode="K" horiz-adv-x="611" d="M33 41l57 5l17 14v551l-17 14l-57 6v40h243v-40l-62 -6l-17 -14v-271h38l222 271l-6 14l-56 6v40h208v-40l-66 -9l-210 -250l227 -326l73 -5v-41h-165v30l-191 269h-74v-239l17 -14l62 -5v-41h-243v41z" />
<glyph unicode="L" horiz-adv-x="520" d="M27 41l63 5l17 14v551l-17 14l-63 6v40h244v-40l-57 -6l-17 -14v-565h226l14 16l17 120h52v-182h-479v41z" />
<glyph unicode="M" horiz-adv-x="866" d="M31 41l60 8l18 19v543l-13 14l-66 6v40h212v-27l188 -502l190 498v31h214v-40l-63 -6l-12 -14v-551l12 -14l63 -5v-41h-239v41l66 5l10 14v564l-237 -624h-43l-228 614v-546l18 -19l61 -8v-41h-211v41z" />
<glyph unicode="N" horiz-adv-x="713" d="M29 41l61 8l18 19v543l-18 14l-64 6v40h188v-25l341 -512v470l-18 18l-60 9v40h210v-40l-60 -9l-18 -18v-604h-66l-381 568v-500l18 -19l60 -8v-41h-211v41z" />
<glyph unicode="O" horiz-adv-x="731" d="M366 688q129 0 220 -88q51 -49 77 -115.5t26 -148.5q0 -111 -51 -198q-42 -72 -113 -113t-159 -41q-64 0 -120 22t-100 64q-103 100 -103 266q0 165 102 264q91 88 221 88zM366 634q-49 0 -89 -20t-69 -58.5t-45 -94t-16 -125.5t16 -125.5t45 -94t69 -59t89 -20.5 q48 0 88.5 20.5t69 59t44.5 94t16 125.5t-16 125t-44.5 93.5t-69 59t-88.5 20.5z" />
<glyph unicode="P" horiz-adv-x="558" d="M33 41l57 5l17 14v551l-17 14l-65 6v40h228q72 0 124.5 -10.5t86.5 -34.5t50.5 -63t16.5 -96q0 -48 -18 -87.5t-51.5 -68t-81.5 -44t-108 -15.5q-14 0 -33 1.5t-42 3.5v-197l17 -14l71 -5v-41h-252v41zM197 305l38.5 -3.5t27.5 -1.5q86 0 130.5 43t44.5 126 q0 81 -46 118.5t-143 37.5h-25t-27 -2v-318z" />
<glyph unicode="Q" horiz-adv-x="731" d="M414 -11q5 -119 142 -119q20 0 43.5 2.5t50.5 8.5v-41q-77 -16 -141 -16q-96 0 -143 40t-47 125q-65 10 -116.5 39t-88 74t-56 104.5t-19.5 130.5q0 166 105 265q92 87 222 87q131 0 223 -87q104 -99 104 -265q0 -70 -19.5 -129.5t-55.5 -104.5t-88 -74.5t-116 -39.5z M366 39q49 0 90 20.5t70 59t45 94t16 124.5q0 70 -16 125t-45 93.5t-70 59t-90 20.5q-50 0 -90.5 -20t-69.5 -58.5t-45 -94t-16 -125.5q0 -69 16 -124.5t45.5 -94t70 -59t89.5 -20.5z" />
<glyph unicode="R" horiz-adv-x="646" d="M288 671q122 0 181.5 -43.5t59.5 -136.5q0 -130 -162 -166q74 -20 103 -67q10 -17 16.5 -36t11 -38t8.5 -37.5t11 -36.5q8 -22 19 -36t26 -21.5t35.5 -10.5t49.5 -3h9v-38q-45 -9 -78 -9q-68 0 -101 29q-18 16 -28.5 35.5t-18 41.5t-13 46t-13.5 48q-10 31 -23 51.5 t-31.5 33t-43.5 18t-59 5.5q-11 0 -23.5 -0.5t-26.5 -1.5v-238l17 -14l57 -5v-41h-238v41l57 5l17 14v551l-17 14l-57 6v40h255zM197 346q23 -1 36.5 -1h18.5q91 0 134 31.5t43 106.5q0 78 -45 110t-139 32h-48v-279z" />
<glyph unicode="S" horiz-adv-x="556" d="M60 196h59l12 -115l13 -17q44 -23 112 -23q73 0 112 33.5t39 86.5q0 31 -11 51.5t-32 36t-52 29t-72 31.5q-42 18 -73.5 35t-52.5 37.5t-32 47t-11 62.5q0 42 16 77.5t46 61t73 39.5t96 14q83 0 170 -28v-155h-52l-15 95l-15 17q-38 21 -90 21q-64 0 -100 -33t-36 -88 q0 -25 9 -43t26.5 -33t43.5 -27.5t61 -27.5q38 -16 77 -32t74 -50q44 -44 44 -110q0 -44 -18 -81t-51.5 -63.5t-81.5 -41.5t-108 -15q-54 0 -99.5 8.5t-80.5 23.5v176z" />
<glyph unicode="T" horiz-adv-x="597" d="M581 671v-154h-55l-14 93l-14 15h-154v-565l18 -14l67 -5v-41h-261v41l67 5l18 14v565h-154l-14 -15l-14 -93h-55v154h565z" />
<glyph unicode="U" horiz-adv-x="694" d="M270 671v-40l-62 -6l-18 -14v-362q0 -102 41.5 -150.5t137.5 -48.5q95 0 136.5 48t41.5 151v355l-19 18l-60 9v40h211v-40l-60 -9l-18 -18v-364q0 -55 -7.5 -98t-36.5 -78t-82 -55.5t-125 -20.5t-125 20.5t-82 55.5t-36.5 77.5t-7.5 98.5v371l-17 14l-57 6v40h245z" />
<glyph unicode="V" horiz-adv-x="618" d="M210 671v-40l-58 -6l-11 -14l188 -504l181 504l-10 14l-62 6v40h199v-40l-62 -12l-230 -624h-69l-235 624l-64 12v40h233z" />
<glyph unicode="W" horiz-adv-x="928" d="M63 617l-63 14v40h224v-40l-63 -8l-8 -14l129 -462l161 524h70l164 -535l121 469l-11 14l-67 12v40h207v-40l-67 -14l-159 -617h-68l-169 547l-166 -547h-67z" />
<glyph unicode="X" horiz-adv-x="600" d="M252 671v-40l-60 -6l-8 -12l131 -206l142 202l-9 13l-58 9v40h204v-40l-64 -10l-183 -261l194 -307l68 -12v-41h-253v41l67 7l7 14l-141 227l-158 -224l6 -18l67 -6v-41h-213v41l66 13l201 281l-181 283l-66 13v40h241z" />
<glyph unicode="Y" horiz-adv-x="586" d="M219 671v-40l-57 -6l-10 -11l153 -275l168 267l-9 14l-61 11v40h204v-40l-61 -13l-208 -333v-225l16 -14l68 -5v-41h-259v41l68 5l16 14v212l-199 349l-61 10v40h232z" />
<glyph unicode="Z" horiz-adv-x="586" d="M534 671v-42l-380 -580h302l11 13l18 119h54v-181h-494v41l379 582h-267l-19 -13l-16 -94h-55v155h467z" />
<glyph unicode="[" horiz-adv-x="421" d="M376 708v-43h-158v-755h158v-42h-237v840h237z" />
<glyph unicode="\" horiz-adv-x="481" d="M74 671l428 -764h-61l-428 764h61z" />
<glyph unicode="]" horiz-adv-x="421" d="M282 708v-841h-236v43h158v755h-158v43h236z" />
<glyph unicode="^" horiz-adv-x="1000" d="M543 714l254 -276h-45l-253 213l-254 -213h-44l255 276h87z" />
<glyph unicode="_" d="M500 -178v-58h-500v58h500z" />
<glyph unicode="`" d="M203 736l97 -190h-50l-146 190h99z" />
<glyph unicode="a" horiz-adv-x="507" d="M334 58q-48 -32 -88 -48.5t-76 -16.5q-60 0 -94 35.5t-34 92.5q0 39 17.5 65.5t53.5 46.5t91 36t130 34v32q0 60 -19 86t-73 26q-37 0 -76 -16v-84h-69q-17 0 -24 6.5t-7 24.5q0 23 14 43.5t40 36t63.5 24.5t84.5 9q79 0 114 -34t35 -110v-290l18 -16l53 -5v-36h-141z M334 268q-53 -15 -91.5 -28t-63.5 -28.5t-37 -35.5t-12 -47q0 -37 21 -59.5t59 -22.5q25 0 55.5 11.5t68.5 33.5v176z" />
<glyph unicode="b" horiz-adv-x="539" d="M169 736v-280q73 35 137 35q44 0 80.5 -16.5t62.5 -46.5t40.5 -72t14.5 -93q0 -130 -73 -196.5t-217 -66.5h-128v669h-78v31l123 36h38zM169 46q23 -1 37 -1h18q98 0 144 47.5t46 151.5q0 94 -41 144t-116 50q-19 0 -41 -4t-47 -12v-376z" />
<glyph unicode="c" horiz-adv-x="446" d="M425 42q-84 -49 -163 -49q-51 0 -92.5 18t-71 50.5t-45.5 78t-16 101.5t17.5 102t48.5 79t74.5 51t96.5 18q72 0 111 -27t39 -71q0 -24 -15 -38.5t-41 -14.5q-23 0 -45 15v82q-23 14 -48 14q-65 0 -106 -54t-41 -149q0 -93 46 -144.5t124 -51.5q64 0 127 42v-52v0z" />
<glyph unicode="d" horiz-adv-x="565" d="M306 669v31l122 36h38v-679l17 -16l48 -5v-36h-148v52q-38 -31 -75 -46t-79 -15q-41 0 -76 17t-61 47.5t-41 73.5t-15 96q0 60 19 109t53 84.5t81.5 54.5t104.5 19q40 0 89 -11v188h-77zM383 432q-26 8 -48 12t-40 4q-38 0 -69.5 -14.5t-54 -41.5t-35 -65t-12.5 -85 q0 -88 41 -138t109 -50q53 0 109 35v343z" />
<glyph unicode="e" horiz-adv-x="491" d="M448 51q-45 -30 -92.5 -45t-95.5 -15q-50 0 -91 18t-70 50t-45.5 77.5t-16.5 100.5q0 57 17 103.5t48 80t73.5 52t92.5 18.5q82 0 131 -52t49 -145v-15.5t-1 -15.5h-324v-11q0 -97 46 -150.5t122 -53.5q38 0 76 14.5t81 43.5v-55zM359 321q0 61 -26.5 93t-77.5 32 q-24 0 -46 -10t-39.5 -28.5t-28.5 -44.5t-13 -58h231v16z" />
<glyph unicode="f" horiz-adv-x="321" d="M29 36l53 5l18 16v364h-64v32l64 15v11q0 62 15 111.5t42 83.5t64.5 52t81.5 18q35 0 56.5 -16.5t21.5 -40.5q0 -18 -10.5 -31.5t-30.5 -18.5l-91 60q-65 -30 -65 -156v-73h139v-47h-140v-364l17 -16l62 -5v-36h-233v36z" />
<glyph unicode="g" horiz-adv-x="523" d="M512 463v-47h-110q28 -43 28 -93q0 -33 -13.5 -61.5t-38.5 -49.5t-60.5 -33t-78.5 -12h-17q-11 -22 -11 -45q0 -4 0.5 -10t1.5 -14l96 -15q44 -7 76 -16.5t53 -24t31 -34.5t10 -48t-15.5 -58t-44.5 -54q-40 -32 -90.5 -49t-107.5 -17q-87 0 -134 34.5t-47 94.5 q0 48 28.5 81.5t79.5 42.5q-10 23 -10 45q0 38 48 95q-58 13 -91 53.5t-33 97.5q0 36 13.5 66.5t39 52.5t61.5 34t80 12q57 0 113 -28h143zM246 452q-44 0 -71 -32.5t-27 -90.5q0 -57 27 -90t71 -33t71 33t27 90t-27 90t-71 33zM206 30q-42 -13 -64 -39t-22 -59 q0 -44 37 -74t99 -30q33 0 60.5 8.5t47 23.5t30.5 34t11 40q0 20 -6 33t-18.5 21.5t-32 13.5t-45.5 10z" />
<glyph unicode="h" horiz-adv-x="564" d="M179 736v-305q51 28 90.5 44t71.5 16q66 0 100 -38.5t34 -113.5v-282l18 -16l53 -5v-36h-218v36l47 5l17 16v265q0 55 -22.5 79t-78.5 24q-48 0 -112 -33v-335l18 -16l47 -5v-36h-219v36l54 5l17 16v612h-77v31l122 36h38z" />
<glyph unicode="i" horiz-adv-x="280" d="M154 708q24 0 41 -17t17 -41t-17 -40.5t-41 -16.5t-41 16.5t-17 40.5q0 25 17 41.5t41 16.5zM188 486v-429l18 -16l54 -5v-36h-225v36l53 5l17 16v362h-70v31l115 36h38z" />
<glyph unicode="j" horiz-adv-x="266" d="M38 419v31l116 36h38v-402q0 -39 -1 -72t-6.5 -62.5t-17 -55t-32.5 -47.5q-29 -32 -66 -48.5t-78 -16.5q-33 0 -51 15t-18 39q0 17 9 30.5t28 21.5l97 -59q53 17 53 155v435h-71zM88 650q0 25 17 41.5t41 16.5t41 -17t17 -41t-17 -40.5t-41 -16.5t-41 16.5t-17 40.5z" />
<glyph unicode="k" horiz-adv-x="517" d="M25 36l54 5l17 16v612h-77v31l122 36h38v-481h19l153 171l-7 14l-45 4v37h190v-37l-64 -8l-137 -145l176 -248l64 -5v-38h-156v33l-135 194h-58v-170l18 -16l47 -5v-36h-219v36z" />
<glyph unicode="l" horiz-adv-x="282" d="M28 36l59 5l17 16v612h-77v31l122 36h38v-679l18 -16l57 -5v-36h-234v36z" />
<glyph unicode="m" horiz-adv-x="843" d="M454 424q114 67 172 67q60 0 94.5 -38.5t34.5 -113.5v-282l17 -16l53 -5v-36h-218v36l47 5l18 16v265q0 53 -21.5 78t-68.5 25q-24 0 -52.5 -8.5t-60.5 -24.5v-335l18 -16l47 -5v-36h-213v36l48 5l17 16v265q0 103 -88 103q-48 0 -114 -33v-335l17 -16l48 -5v-36h-219v36 l54 5l17 16v362h-71v31l116 36h38v-55q50 29 89 44.5t71 15.5q75 0 110 -67z" />
<glyph unicode="n" horiz-adv-x="568" d="M30 36l54 5l17 16v362h-71v31l116 36h38v-55q51 28 90 44t71 16q66 0 100.5 -38.5t34.5 -113.5v-282l17 -16l54 -5v-36h-219v36l48 5l17 16v265q0 55 -22.5 79t-78.5 24q-48 0 -112 -33v-335l17 -16l48 -5v-36h-219v36z" />
<glyph unicode="o" horiz-adv-x="539" d="M269 491q51 0 93.5 -18.5t73.5 -51.5t48.5 -79t17.5 -101q0 -56 -17.5 -102t-48.5 -79t-74 -51t-93 -18t-92.5 18t-73.5 51t-48.5 79t-17.5 102t17.5 102t48 79t73 51t93.5 18zM269 448q-61 0 -99.5 -54.5t-38.5 -152.5q0 -48 10.5 -86.5t28.5 -65.5t43.5 -41t55.5 -14 q61 0 100 54.5t39 152.5q0 97 -39 152t-100 55z" />
<glyph unicode="p" horiz-adv-x="551" d="M23 -182l54 5l17 16v580h-71v31l116 36h38v-55q79 60 147 60q41 0 76.5 -17t61 -47.5t40 -74t14.5 -95.5q0 -59 -17.5 -107t-50 -82t-78 -52.5t-100.5 -18.5q-38 0 -93 9v-167l17 -16l64 -5v-36h-235v36zM177 58q48 -16 85 -16t67.5 14.5t52.5 40.5t34 63.5t12 83.5 q0 87 -40 135.5t-106 48.5q-26 0 -51 -8.5t-54 -25.5v-336z" />
<glyph unicode="q" horiz-adv-x="531" d="M459 475q-2 -29 -3 -47t-1 -26v-563l18 -17l53 -4v-36h-234v36l63 4l17 17v194q-77 -36 -138 -36q-44 0 -80 16.5t-62 47t-40.5 73.5t-14.5 96q0 60 19.5 108.5t55.5 82.5t87.5 52.5t116.5 18.5q61 0 143 -17zM372 438q-47 11 -76 11q-78 0 -123.5 -54t-45.5 -152 q0 -94 40.5 -143.5t111.5 -49.5q33 0 93 15v373z" />
<glyph unicode="r" horiz-adv-x="382" d="M30 36l53 5l18 16v362h-71v31l116 36h38v-94q26 27 53 51t54 46q6 2 12.5 2h12.5q30 0 60 -13v-86h-32q-20 24 -51 24q-47 0 -109 -73v-286l17 -16l70 -5v-36h-241v36z" />
<glyph unicode="s" horiz-adv-x="400" d="M344 356h-49l-8 71q-39 21 -74 21q-40 0 -61.5 -19t-21.5 -53q0 -32 21.5 -51.5t63.5 -39.5q26 -13 53.5 -25.5t52.5 -32.5q38 -30 38 -86q0 -70 -49 -110t-138 -40q-38 0 -71 5.5t-59 15.5v130h48l12 -85q42 -24 85 -24q44 0 69 23t25 58q0 19 -6.5 33t-19.5 25t-32 21 t-44 21q-64 28 -96.5 57.5t-32.5 79.5q0 66 45.5 103t131.5 37q67 0 117 -22v-113z" />
<glyph unicode="t" horiz-adv-x="334" d="M25 421v31l66 29l43 93h37v-106h152v-47h-152v-264q0 -29 3 -49.5t12 -33.5t25.5 -19.5t42.5 -6.5q32 0 69 8v-37q-35 -11 -68.5 -16.5t-62.5 -5.5q-62 0 -83 24t-21 77v323h-63z" />
<glyph unicode="u" horiz-adv-x="569" d="M180 491v-331q0 -54 23 -80t74 -26q54 0 116 30v339h-71v31l116 37h38v-434l18 -16l47 -5v-36h-148v56q-45 -32 -85 -49t-77 -17q-65 0 -99.5 39t-34.5 114v280h-71v31l116 37h38z" />
<glyph unicode="v" horiz-adv-x="494" d="M212 481v-37l-53 -4l-12 -16l117 -327l128 327l-8 16l-54 4v37h177v-37l-59 -8l-175 -436h-56l-161 438l-61 6v37h217z" />
<glyph unicode="w" horiz-adv-x="771" d="M215 481v-37l-53 -4l-12 -16l91 -325l134 382h61l118 -382l102 325l-8 16l-54 4v37h177v-37l-56 -8l-143 -436h-62l-121 379l-135 -379h-62l-133 438l-61 6v37h217z" />
<glyph unicode="x" horiz-adv-x="503" d="M233 481v-37l-46 -6l-5 -10l84 -131l91 128l-8 13l-48 6v37h180v-37l-56 -10l-132 -175l147 -214l60 -8v-37h-213v37l42 7l5 8l-93 149l-102 -145l5 -12l57 -7v-37h-189v37l57 8l144 193l-134 195l-61 11v37h215z" />
<glyph unicode="y" horiz-adv-x="495" d="M216 481v-37l-53 -4l-12 -16l120 -311l125 311l-8 16l-54 4v37h178v-37l-58 -8l-200 -486q-35 -85 -73 -126.5t-87 -41.5q-32 0 -50.5 15.5t-18.5 40.5q0 30 26 54l96 -38q20 22 41 59t40 91l-168 434l-61 6v37h217z" />
<glyph unicode="z" horiz-adv-x="468" d="M45 50l267 385h-185l-14 -16l-11 -77h-47v139h361v-38l-277 -397h215l15 16l11 85h51v-147h-386v50z" />
<glyph unicode="{" horiz-adv-x="486" d="M418 666q-38 -1 -62.5 -7.5t-38.5 -20.5t-20 -36.5t-6 -55.5v-81q0 -39 -6.5 -68.5t-21.5 -50.5t-40.5 -34.5t-62.5 -21.5q71 -16 101 -55t30 -114v-83q0 -38 4 -63t17 -40.5t38.5 -22t67.5 -7.5v-39h-25q-53 0 -88 9t-56 30.5t-29.5 56.5t-8.5 87v85q0 74 -27 104.5 t-96 30.5q-5 0 -11 -0.5t-12 -0.5v44q7 -1 13.5 -1h12.5q67 0 93.5 29.5t26.5 99.5v102q0 86 45.5 123.5t148.5 37.5h13v-37z" />
<glyph unicode="|" d="M281 764v-1000h-62v1000h62z" />
<glyph unicode="}" horiz-adv-x="486" d="M77 703q103 0 148.5 -37.5t45.5 -123.5v-102q0 -35 6 -59.5t20 -40t37 -22.5t57 -7h12.5t13.5 1v-44q-6 0 -12 0.5t-11 0.5q-69 0 -96 -30.5t-27 -104.5v-85q0 -52 -8.5 -87t-29.5 -56.5t-56 -30.5t-89 -9h-24v39q42 1 67.5 7.5t38.5 22t17 40.5t4 63v83q0 75 30 114 t101 55q-38 8 -63 21.5t-40 34.5t-21.5 50.5t-6.5 68.5v81q0 33 -6 55.5t-20 36.5t-39 20.5t-62 7.5v37h13z" />
<glyph unicode="~" horiz-adv-x="833" d="M747 306q-98 -70 -189 -70q-42 0 -93 17q-52 17 -97.5 33.5t-92.5 16.5q-45 0 -89.5 -20t-98.5 -58v65q103 71 189 71q39 0 73.5 -10t68.5 -22q36 -13 69.5 -24t71.5 -11q45 0 90 19.5t98 56.5v-64z" />
<glyph unicode="&#xa1;" horiz-adv-x="338" d="M169 683q23 0 40 -16.5t17 -40.5t-17 -40.5t-40 -16.5q-24 0 -40.5 16.5t-16.5 40.5q0 23 16.5 40t40.5 17zM193 503l28 -382q3 -42 3 -58q0 -72 -55 -72t-55 72q0 25 3 58l28 382h48z" />
<glyph unicode="&#xa2;" horiz-adv-x="556" d="M319 601v-98h14q62 0 131 -23v-147h-45l-16 104q-33 20 -77 20h-7v-411q47 0 84 19l16 109h45v-152q-29 -11 -62 -16t-71 -5h-12v-99h-46v101q-48 6 -87 26.5t-66 52t-41.5 73.5t-14.5 91q0 103 55.5 170.5t153.5 83.5v101h46zM273 454q-59 -17 -91 -69.5t-32 -137.5 q0 -78 33 -130.5t90 -68.5v406z" />
<glyph unicode="&#xa3;" horiz-adv-x="556" d="M417 625q-27 9 -52 9q-38 0 -64 -13.5t-42 -42t-22.5 -72t-6.5 -103.5v-24.5t1 -26.5h188v-47h-188v-13q0 -156 -100 -218l2 -3q29 3 45.5 4t22.5 1h305v-76h-469v57q35 10 56.5 26.5t33.5 42t16.5 61t4.5 83.5v35h-72v47h71q-1 16 -1.5 31.5t-0.5 29.5q0 59 8.5 103.5 t30.5 77.5q26 40 71 64.5t96 24.5q72 0 114.5 -30t42.5 -72q0 -23 -16.5 -38.5t-42.5 -15.5q-15 0 -32 4v94z" />
<glyph unicode="&#xa4;" horiz-adv-x="606" d="M178 592q29 22 59.5 33t65.5 11q69 0 127 -44l100 101l35 -36l-100 -100q42 -56 42 -125q0 -70 -42 -125l100 -100l-35 -36l-100 101q-55 -43 -127 -43q-70 0 -125 43l-101 -101l-35 36l101 100q-43 57 -43 125t43 125l-101 100l35 36zM304 586q-32 0 -60 -12t-48.5 -33 t-32.5 -49t-12 -59q0 -32 12 -60t32.5 -49t48.5 -33t60 -12t60 12t48.5 33t32.5 49t12 60q0 31 -12 59t-32.5 49t-48.5 33t-60 12z" />
<glyph unicode="&#xa5;" horiz-adv-x="556" d="M206 671v-40l-52 -6l-9 -11l140 -274l153 266l-9 14l-55 11v40h185v-40l-55 -13l-110 -192h144v-42h-171l-59 -104h230v-42h-226v-178l17 -14l72 -5v-41h-258v41l69 5l19 14v178h-217v42h216l-53 104h-163v42h136l-99 195l-57 10v40h212z" />
<glyph unicode="&#xa6;" d="M281 699v-370h-62v370h62zM281 199v-370h-62v370h62z" />
<glyph unicode="&#xa7;" d="M406 566h-45l-10 80q-54 30 -96 30q-45 0 -73 -24.5t-28 -60.5q0 -22 10.5 -37t29.5 -28t46 -25.5t61 -28.5q69 -34 102.5 -73.5t33.5 -92.5q0 -51 -32 -95t-90 -67q104 -47 104 -133q0 -32 -13 -60t-37 -48t-57.5 -31.5t-75.5 -11.5q-70 0 -147 31l-2 129h49l13 -90 q48 -26 96 -26q47 0 75 24t28 59q0 25 -12 42.5t-34 32.5t-53.5 30t-70.5 33q-57 27 -86 69t-29 93q0 54 29 92t89 64q-52 26 -76.5 56.5t-24.5 74.5q0 69 49 106.5t143 37.5q65 0 134 -23v-129zM223 424q-87 -39 -87 -115q0 -50 35 -82.5t108 -64.5q84 55 84 122 q0 88 -140 140z" />
<glyph unicode="&#xa8;" d="M157 691q21 0 35.5 -14.5t14.5 -36.5q0 -21 -14.5 -35.5t-35.5 -14.5t-36 14.5t-15 35.5q0 22 15 36.5t36 14.5zM343 691q21 0 35.5 -14.5t14.5 -36.5q0 -21 -14.5 -35.5t-35.5 -14.5t-36 14.5t-15 35.5q0 22 15 36.5t36 14.5z" />
<glyph unicode="&#xa9;" horiz-adv-x="900" d="M453 684q-69 0 -131.5 -26t-110.5 -75q-49 -51 -75 -112.5t-26 -130.5q0 -142 101 -243q51 -50 111.5 -75.5t129.5 -25.5t130.5 25.5t109.5 75.5q49 51 75.5 113t26.5 130q0 69 -26.5 132.5t-74.5 111.5t-111 74t-129 26zM453 726q76 0 148 -30.5t126 -85.5 q53 -54 81.5 -125t28.5 -149q0 -75 -30.5 -145.5t-87.5 -127.5q-54 -54 -123 -81.5t-149 -27.5q-74 0 -143 29t-124 84q-56 56 -84.5 125.5t-28.5 147.5q0 77 28.5 146t83.5 125q54 55 125 85t149 30zM609 127q-35 -12 -72 -18.5t-75 -6.5q-53 0 -97.5 17.5t-76.5 48.5 t-49.5 74.5t-17.5 95.5t17.5 95.5t50 75t78 48.5t101.5 17q32 0 67.5 -5.5t73.5 -17.5v-120h-43l-15 75q-37 22 -78 22q-36 0 -66 -14t-52 -39t-34.5 -60t-12.5 -76t12.5 -76t34 -60.5t50.5 -40t63 -14.5q18 0 39 5.5t46 14.5l13 84h43v-125z" />
<glyph unicode="&#xaa;" horiz-adv-x="380" d="M251 375q-71 -46 -123 -46q-45 0 -70.5 25t-25.5 65q0 27 13 45.5t40 32.5t68.5 25t97.5 24v22q0 42 -14 60.5t-55 18.5q-26 0 -57 -11v-59h-52q-13 0 -18 4.5t-5 17.5q0 32 40 55.5t111 23.5q60 0 86 -23.5t26 -77.5v-203l13 -11l40 -4v-25h-106zM251 522 q-40 -11 -69 -20t-47.5 -20t-27.5 -25t-9 -33q0 -26 15.5 -41.5t44.5 -15.5q34 0 93 31v124z" />
<glyph unicode="&#xab;" horiz-adv-x="442" d="M203 347l-117 -107l117 -108v-65l-164 133v80l164 133v-66zM400 347l-117 -107l117 -108v-65l-163 133v80l163 133v-66z" />
<glyph unicode="&#xac;" horiz-adv-x="833" d="M709 419v-245h-56v188h-529v57h585z" />
<glyph unicode="&#xae;" horiz-adv-x="900" d="M453 685q-69 0 -131.5 -26.5t-110.5 -75.5q-49 -51 -74.5 -112.5t-25.5 -130.5q0 -143 100 -243q51 -50 111.5 -75.5t129.5 -25.5t130.5 25.5t109.5 75.5q49 51 75 113t26 130q0 69 -26 132.5t-74 111.5t-111 74.5t-129 26.5zM453 726q76 0 148 -30.5t126 -85.5 q53 -54 81.5 -125t28.5 -149q0 -75 -30.5 -145.5t-87.5 -127.5q-54 -54 -123 -81.5t-149 -27.5q-74 0 -143 29t-124 84q-56 56 -84.5 125.5t-28.5 147.5q0 77 28.5 146t83.5 125q54 55 125 85t149 30zM465 560q81 0 121.5 -26t40.5 -83q0 -42 -30.5 -71t-90.5 -42 q46 -7 72 -39q17 -21 22.5 -43.5t13.5 -40.5q6 -16 14 -26.5t19 -17t26.5 -9t37.5 -2.5v-36q-20 -4 -35.5 -6t-26.5 -2q-46 0 -79 29q-12 10 -19.5 23.5t-13 28.5t-10.5 31t-12 31q-15 34 -36.5 45.5t-62.5 11.5h-14t-15 -1v-150l63 -7v-37h-191v36l53 7v352l-58 10v34h211z M387 355q7 -1 13 -1h12q128 0 128 83q0 42 -32 64t-95 22h-12.5t-13.5 -1v-167z" />
<glyph unicode="&#xaf;" d="M403 668v-60h-301v60h301z" />
<glyph unicode="&#xb0;" horiz-adv-x="329" d="M165 710q28 0 53.5 -11t44 -29.5t29.5 -44t11 -53.5t-11 -53t-29.5 -44t-44 -30t-54.5 -11t-54 10.5t-43.5 29.5t-29 44t-10.5 54t11 54.5t29.5 44t43.5 29t54 10.5zM165 670q-41 0 -70 -28t-29 -70q0 -21 8 -39t21.5 -31.5t31.5 -21t38 -7.5q21 0 39 8t31 21.5 t20.5 31.5t7.5 38q0 41 -28 69.5t-70 28.5z" />
<glyph unicode="&#xb1;" horiz-adv-x="833" d="M446 576v-168h263v-57h-263v-168h-58v168h-264v57h264v168h58zM709 77v-57h-585v57h585z" />
<glyph unicode="&#xb2;" horiz-adv-x="367" d="M292 315l12 51h29v-98h-305v38q54 40 96 73t71.5 63t44.5 57.5t15 57.5q0 43 -23 66.5t-65 23.5q-31 0 -59 -14v-64q-14 -9 -29 -9q-18 0 -27.5 9t-9.5 24q0 16 10.5 31t29 27t44 19.5t56.5 7.5q64 0 100.5 -31.5t36.5 -82.5q0 -56 -58.5 -113t-167.5 -136h199z" />
<glyph unicode="&#xb3;" horiz-adv-x="367" d="M209 480q55 -4 85.5 -29.5t30.5 -67.5q0 -25 -12 -47.5t-33.5 -39t-52.5 -26t-69 -9.5q-30 0 -54 6t-41 15.5t-26.5 21.5t-9.5 23q0 14 10.5 22.5t26.5 8.5q9 0 20 -3l20 -51q25 -14 56 -14q45 0 74.5 27t29.5 67q0 36 -25 55.5t-73 19.5h-16.5t-18.5 -2v35h14 q51 0 77 20.5t26 56.5t-23 57t-61 21q-36 0 -63 -17v-57q-11 -7 -27 -7t-26 9t-10 23q0 15 10 29.5t28.5 25.5t44.5 18t57 7q60 0 95 -27.5t35 -73.5q0 -71 -99 -97z" />
<glyph unicode="&#xb4;" d="M408 736l-146 -190h-50l97 190h99z" />
<glyph unicode="&#xb5;" horiz-adv-x="547" d="M80 94q-15 -75 -21 -130.5t-12 -93t-16 -56t-31 -18.5q-18 0 -28.5 11.5t-10.5 31.5q0 15 7.5 44t19 71.5t26.5 99t30 127.5l53 251h72l-51 -240q-6 -30 -6 -55q0 -41 20.5 -63t57.5 -22q97 0 126 131l54 249h73l-56 -259q-5 -22 -7.5 -38t-2.5 -29q0 -24 12.5 -38.5 t32.5 -14.5q35 0 57 34q9 13 13.5 26.5l8 24t7.5 17.5t10 7q13 0 13 -18q0 -9 -4.5 -28.5t-15.5 -44.5q-36 -80 -112 -80q-32 0 -52.5 24t-20.5 69v11q-45 -106 -137 -106q-95 0 -109 105z" />
<glyph unicode="&#xb6;" horiz-adv-x="484" d="M458 635l-62 -10v-704h-49v709h-76v-349h-18q-227 0 -227 193q0 105 57.5 151t178.5 46h196v-36z" />
<glyph unicode="&#xb7;" horiz-adv-x="278" d="M139 399q26 0 44.5 -18.5t18.5 -45.5q0 -26 -18.5 -44.5t-44.5 -18.5t-45 18.5t-19 44.5q0 27 19 45.5t45 18.5z" />
<glyph unicode="&#xb8;" d="M272 0v-61q7 1 12 1h8q35 0 55 -19t20 -53q0 -42 -31 -66.5t-87 -24.5q-32 0 -69 10v36q30 -8 59 -8q32 0 49.5 11.5t17.5 31.5q0 37 -50 37q-5 0 -10.5 -0.5t-10.5 -1.5v107h37z" />
<glyph unicode="&#xb9;" horiz-adv-x="367" d="M224 678v-373l8 -9l71 -3v-25h-221v26l76 3l8 11v322l-103 -16v25l143 39h18z" />
<glyph unicode="&#xba;" horiz-adv-x="404" d="M202 678q38 0 70 -13t55.5 -36t36.5 -55t13 -71t-13.5 -71t-36.5 -55.5t-55.5 -36t-69.5 -12.5q-38 0 -70 12.5t-55 36t-36 55.5t-13 71t13 71t36 55.5t55 36t70 12.5zM202 648q-46 0 -75 -38t-29 -107t29.5 -107t74.5 -38q46 0 75 38t29 107q0 68 -29 106.5t-75 38.5z " />
<glyph unicode="&#xbb;" horiz-adv-x="442" d="M209 280v-80l-163 -133v65l117 108l-117 107v66zM407 280v-80l-164 -133v65l117 108l-117 107v66z" />
<glyph unicode="&#xbc;" horiz-adv-x="867" d="M213 677v-347l8 -9l68 -2v-24h-211v24l72 3l8 10v301l-99 -15v23l136 36h18zM677 671l-427 -671h-61l427 671h61zM785 379v-234h72v-36h-72v-130h-48v130h-203v36l215 234h36zM581 145h156v173z" />
<glyph unicode="&#xbd;" horiz-adv-x="867" d="M213 677v-347l8 -9l68 -2v-24h-211v24l72 3l8 10v301l-99 -15v23l136 36h18zM677 671l-427 -671h-61l427 671h61zM795 44l12 48h28v-92h-292v35q52 37 92 68t68 59t42.5 54t14.5 53q0 41 -22 63t-62 22q-29 0 -56 -14v-59q-14 -9 -28 -9q-35 0 -35 32q0 15 10 29t27.5 25 t42 17.5t53.5 6.5q62 0 96.5 -28.5t34.5 -76.5q0 -53 -55.5 -106t-159.5 -127h189z" />
<glyph unicode="&#xbe;" horiz-adv-x="868" d="M200 493q53 -4 81.5 -28t28.5 -62q0 -24 -11 -44.5t-32 -36t-50.5 -24.5t-65.5 -9q-28 0 -51 5.5t-39.5 14.5t-25.5 19.5t-9 21.5q0 13 10 21t25 8q8 0 19 -3l20 -47q26 -14 53 -14q43 0 71 25.5t28 63.5q0 33 -24 51.5t-69 18.5q-16 0 -34 -3v33h14q48 0 72.5 19 t24.5 53q0 33 -21.5 53t-58.5 20q-32 0 -60 -16v-53q-10 -7 -25 -7q-16 0 -25 8t-9 22t9.5 27t27 23.5t42 17t53.5 6.5q57 0 91 -25.5t34 -68.5q0 -67 -94 -90zM677 671l-427 -671h-61l427 671h61zM785 379v-234h72v-36h-72v-130h-48v130h-203v36l215 234h36zM581 145h156 v173z" />
<glyph unicode="&#xbf;" horiz-adv-x="486" d="M269 683q23 0 40 -16.5t17 -40.5t-17 -40.5t-40 -16.5q-24 0 -40.5 16.5t-16.5 40.5q0 23 16.5 40t40.5 17zM295 503v-146q-144 -54 -144 -179q0 -67 36 -104t103 -37h7l39 99q5 1 9 1h9q29 0 45 -14t16 -39q0 -38 -40 -65.5t-107 -27.5q-48 0 -86.5 13t-65.5 37 t-41.5 57t-14.5 74q0 71 45 122.5t138 91.5v117h52z" />
<glyph unicode="&#xc0;" horiz-adv-x="639" d="M350 679l240 -626l60 -12v-41h-227v41l62 5l7 14l-72 191h-236l-71 -191l10 -14l65 -5v-41h-196v41l58 12l234 626h66zM201 297h202l-103 277zM273 933l97 -190h-50l-146 190h99z" />
<glyph unicode="&#xc1;" horiz-adv-x="639" d="M350 679l240 -626l60 -12v-41h-227v41l62 5l7 14l-72 191h-236l-71 -191l10 -14l65 -5v-41h-196v41l58 12l234 626h66zM201 297h202l-103 277zM478 933l-146 -190h-50l97 190h99z" />
<glyph unicode="&#xc2;" horiz-adv-x="639" d="M350 679l240 -626l60 -12v-41h-227v41l62 5l7 14l-72 191h-236l-71 -191l10 -14l65 -5v-41h-196v41l58 12l234 626h66zM201 297h202l-103 277zM352 933l110 -190h-54l-88 141l-87 -141h-55l110 190h64z" />
<glyph unicode="&#xc3;" horiz-adv-x="639" d="M350 679l240 -626l60 -12v-41h-227v41l62 5l7 14l-72 191h-236l-71 -191l10 -14l65 -5v-41h-196v41l58 12l234 626h66zM201 297h202l-103 277zM472 905q0 -4 0.5 -7.5t0.5 -7.5q0 -49 -24.5 -77.5t-59.5 -28.5q-23 0 -44 8t-39.5 18t-34 18t-26.5 8q-16 0 -26 -14 t-10 -40q0 -3 0.5 -6t0.5 -6h-43v10q0 55 22 82.5t63 27.5q21 0 40.5 -8t37 -18t33 -18t27.5 -8q41 0 41 62v5h41z" />
<glyph unicode="&#xc4;" horiz-adv-x="639" d="M350 679l240 -626l60 -12v-41h-227v41l62 5l7 14l-72 191h-236l-71 -191l10 -14l65 -5v-41h-196v41l58 12l234 626h66zM201 297h202l-103 277zM227 888q21 0 35.5 -14.5t14.5 -36.5q0 -21 -14.5 -35.5t-35.5 -14.5t-36 14.5t-15 35.5q0 22 15 36.5t36 14.5zM413 888 q21 0 35.5 -14.5t14.5 -36.5q0 -21 -14.5 -35.5t-35.5 -14.5t-36 14.5t-15 35.5q0 22 15 36.5t36 14.5z" />
<glyph unicode="&#xc5;" horiz-adv-x="639" d="M306 963q25 0 46.5 -9t37.5 -25t25 -37t9 -46t-9 -46.5t-25 -37.5t-37.5 -25t-46.5 -9t-46.5 9t-37 25t-24.5 37.5t-9 46.5t9 46t24.5 37t37 25t46.5 9zM307 918q-30 0 -51.5 -21t-21.5 -52q0 -30 21.5 -51t51.5 -21q31 0 51.5 21t20.5 51q0 31 -20.5 52t-51.5 21z M350 679l240 -626l60 -12v-41h-227v41l62 5l7 14l-72 191h-236l-71 -191l10 -14l65 -5v-41h-196v41l58 12l234 626h66zM201 297h202l-103 277z" />
<glyph unicode="&#xc6;" horiz-adv-x="866" d="M801 671v-146h-55l-14 85l-14 15h-206v-253h138l15 14l10 73h46v-220h-46l-10 72l-15 15h-138v-280h242l15 16l16 101h52v-163h-485v41l57 5l17 14v191h-233l-120 -191l5 -14l64 -5v-41h-198v41l57 9l349 561l-9 14l-58 6v40h518zM219 298h207v329z" />
<glyph unicode="&#xc7;" horiz-adv-x="632" d="M588 23q-100 -35 -202 -35q-99 0 -170 40q-81 46 -127 127.5t-46 180.5q0 78 25 142t70.5 109.5t109.5 70.5t142 25q90 0 198 -34v-154h-56l-15 91l-13 18q-28 13 -55.5 19.5t-56.5 6.5q-56 0 -101.5 -19.5t-77.5 -56.5t-49.5 -90.5t-17.5 -120.5q0 -71 18 -127t51.5 -95 t82 -59.5t109.5 -20.5q44 0 87 13l16 16l22 111h56v-158v0zM391 0v-61q7 1 12 1h8q35 0 55 -19t20 -53q0 -42 -31 -66.5t-87 -24.5q-32 0 -69 10v36q30 -8 59 -8q32 0 49.5 11.5t17.5 31.5q0 37 -50 37q-5 0 -10.5 -0.5t-10.5 -1.5v107h37z" />
<glyph unicode="&#xc8;" horiz-adv-x="576" d="M33 41l57 5l17 14v551l-17 14l-57 6v40h479v-146h-56l-14 85l-14 15h-231v-253h164l14 14l10 73h47v-220h-47l-10 72l-14 15h-164v-280h268l14 16l17 101h52v-163h-515v41zM241 933l97 -190h-50l-146 190h99z" />
<glyph unicode="&#xc9;" horiz-adv-x="576" d="M33 41l57 5l17 14v551l-17 14l-57 6v40h479v-146h-56l-14 85l-14 15h-231v-253h164l14 14l10 73h47v-220h-47l-10 72l-14 15h-164v-280h268l14 16l17 101h52v-163h-515v41zM446 933l-146 -190h-50l97 190h99z" />
<glyph unicode="&#xca;" horiz-adv-x="576" d="M33 41l57 5l17 14v551l-17 14l-57 6v40h479v-146h-56l-14 85l-14 15h-231v-253h164l14 14l10 73h47v-220h-47l-10 72l-14 15h-164v-280h268l14 16l17 101h52v-163h-515v41zM320 933l110 -190h-54l-88 141l-87 -141h-55l110 190h64z" />
<glyph unicode="&#xcb;" horiz-adv-x="576" d="M33 41l57 5l17 14v551l-17 14l-57 6v40h479v-146h-56l-14 85l-14 15h-231v-253h164l14 14l10 73h47v-220h-47l-10 72l-14 15h-164v-280h268l14 16l17 101h52v-163h-515v41zM195 888q21 0 35.5 -14.5t14.5 -36.5q0 -21 -14.5 -35.5t-35.5 -14.5t-36 14.5t-15 35.5 q0 22 15 36.5t36 14.5zM381 888q21 0 35.5 -14.5t14.5 -36.5q0 -21 -14.5 -35.5t-35.5 -14.5t-36 14.5t-15 35.5q0 22 15 36.5t36 14.5z" />
<glyph unicode="&#xcc;" horiz-adv-x="324" d="M35 41l64 5l17 14v551l-17 14l-64 6v40h253v-40l-64 -6l-17 -14v-551l17 -14l64 -5v-41h-253v41zM116 933l97 -190h-50l-146 190h99z" />
<glyph unicode="&#xcd;" horiz-adv-x="324" d="M35 41l64 5l17 14v551l-17 14l-64 6v40h253v-40l-64 -6l-17 -14v-551l17 -14l64 -5v-41h-253v41zM321 933l-146 -190h-50l97 190h99z" />
<glyph unicode="&#xce;" horiz-adv-x="324" d="M35 41l64 5l17 14v551l-17 14l-64 6v40h253v-40l-64 -6l-17 -14v-551l17 -14l64 -5v-41h-253v41zM195 933l110 -190h-54l-88 141l-87 -141h-55l110 190h64z" />
<glyph unicode="&#xcf;" horiz-adv-x="324" d="M35 41l64 5l17 14v551l-17 14l-64 6v40h253v-40l-64 -6l-17 -14v-551l17 -14l64 -5v-41h-253v41zM70 888q21 0 35.5 -14.5t14.5 -36.5q0 -21 -14.5 -35.5t-35.5 -14.5t-36 14.5t-15 35.5q0 22 15 36.5t36 14.5zM256 888q21 0 35.5 -14.5t14.5 -36.5q0 -21 -14.5 -35.5 t-35.5 -14.5t-36 14.5t-15 35.5q0 22 15 36.5t36 14.5z" />
<glyph unicode="&#xd0;" horiz-adv-x="693" d="M280 671q89 0 157.5 -23t115.5 -66t71.5 -105t24.5 -141q0 -179 -125 -274q-51 -38 -110 -50t-134 -12h-247v41l57 5l17 14v267h-92v48h92v236l-17 14l-57 6v40h247zM197 46h79q272 0 272 290q0 147 -67 218t-205 71h-79v-250h166v-48h-166v-281z" />
<glyph unicode="&#xd1;" horiz-adv-x="713" d="M29 41l61 8l18 19v543l-18 14l-64 6v40h188v-25l341 -512v470l-18 18l-60 9v40h210v-40l-60 -9l-18 -18v-604h-66l-381 568v-500l18 -19l60 -8v-41h-211v41zM509 905q0 -4 0.5 -7.5t0.5 -7.5q0 -49 -24.5 -77.5t-59.5 -28.5q-23 0 -44 8t-39.5 18t-34 18t-26.5 8 q-16 0 -26 -14t-10 -40q0 -3 0.5 -6t0.5 -6h-43v10q0 55 22 82.5t63 27.5q21 0 40.5 -8t37 -18t33 -18t27.5 -8q41 0 41 62v5h41z" />
<glyph unicode="&#xd2;" horiz-adv-x="731" d="M366 688q129 0 220 -88q51 -49 77 -115.5t26 -148.5q0 -111 -51 -198q-42 -72 -113 -113t-159 -41q-64 0 -120 22t-100 64q-103 100 -103 266q0 165 102 264q91 88 221 88zM366 634q-49 0 -89 -20t-69 -58.5t-45 -94t-16 -125.5t16 -125.5t45 -94t69 -59t89 -20.5 q48 0 88.5 20.5t69 59t44.5 94t16 125.5t-16 125t-44.5 93.5t-69 59t-88.5 20.5zM319 933l97 -190h-50l-146 190h99z" />
<glyph unicode="&#xd3;" horiz-adv-x="731" d="M366 688q129 0 220 -88q51 -49 77 -115.5t26 -148.5q0 -111 -51 -198q-42 -72 -113 -113t-159 -41q-64 0 -120 22t-100 64q-103 100 -103 266q0 165 102 264q91 88 221 88zM366 634q-49 0 -89 -20t-69 -58.5t-45 -94t-16 -125.5t16 -125.5t45 -94t69 -59t89 -20.5 q48 0 88.5 20.5t69 59t44.5 94t16 125.5t-16 125t-44.5 93.5t-69 59t-88.5 20.5zM524 933l-146 -190h-50l97 190h99z" />
<glyph unicode="&#xd4;" horiz-adv-x="731" d="M366 688q129 0 220 -88q51 -49 77 -115.5t26 -148.5q0 -111 -51 -198q-42 -72 -113 -113t-159 -41q-64 0 -120 22t-100 64q-103 100 -103 266q0 165 102 264q91 88 221 88zM366 634q-49 0 -89 -20t-69 -58.5t-45 -94t-16 -125.5t16 -125.5t45 -94t69 -59t89 -20.5 q48 0 88.5 20.5t69 59t44.5 94t16 125.5t-16 125t-44.5 93.5t-69 59t-88.5 20.5zM398 933l110 -190h-54l-88 141l-87 -141h-55l110 190h64z" />
<glyph unicode="&#xd5;" horiz-adv-x="731" d="M366 688q129 0 220 -88q51 -49 77 -115.5t26 -148.5q0 -111 -51 -198q-42 -72 -113 -113t-159 -41q-64 0 -120 22t-100 64q-103 100 -103 266q0 165 102 264q91 88 221 88zM366 634q-49 0 -89 -20t-69 -58.5t-45 -94t-16 -125.5t16 -125.5t45 -94t69 -59t89 -20.5 q48 0 88.5 20.5t69 59t44.5 94t16 125.5t-16 125t-44.5 93.5t-69 59t-88.5 20.5zM518 905q0 -4 0.5 -7.5t0.5 -7.5q0 -49 -24.5 -77.5t-59.5 -28.5q-23 0 -44 8t-39.5 18t-34 18t-26.5 8q-16 0 -26 -14t-10 -40q0 -3 0.5 -6t0.5 -6h-43v10q0 55 22 82.5t63 27.5 q21 0 40.5 -8t37 -18t33 -18t27.5 -8q41 0 41 62v5h41z" />
<glyph unicode="&#xd6;" horiz-adv-x="731" d="M366 688q129 0 220 -88q51 -49 77 -115.5t26 -148.5q0 -111 -51 -198q-42 -72 -113 -113t-159 -41q-64 0 -120 22t-100 64q-103 100 -103 266q0 165 102 264q91 88 221 88zM366 634q-49 0 -89 -20t-69 -58.5t-45 -94t-16 -125.5t16 -125.5t45 -94t69 -59t89 -20.5 q48 0 88.5 20.5t69 59t44.5 94t16 125.5t-16 125t-44.5 93.5t-69 59t-88.5 20.5zM273 888q21 0 35.5 -14.5t14.5 -36.5q0 -21 -14.5 -35.5t-35.5 -14.5t-36 14.5t-15 35.5q0 22 15 36.5t36 14.5zM459 888q21 0 35.5 -14.5t14.5 -36.5q0 -21 -14.5 -35.5t-35.5 -14.5 t-36 14.5t-15 35.5q0 22 15 36.5t36 14.5z" />
<glyph unicode="&#xd7;" horiz-adv-x="833" d="M419 338l232 233l40 -40l-232 -233l232 -232l-40 -40l-232 232l-233 -232l-39 40l232 232l-232 233l39 40z" />
<glyph unicode="&#xd8;" horiz-adv-x="731" d="M619 724l-61 -100q64 -51 97.5 -121.5t33.5 -166.5q0 -82 -26.5 -149.5t-77.5 -116.5q-44 -42 -99.5 -64t-119.5 -22q-86 0 -166 44l-62 -105l-39 27l63 106q-119 102 -119 280q0 82 26 149t77 116q44 43 100 65t120 22q76 0 154 -36l58 96zM486 595q-52 39 -120 39 q-50 0 -91 -20.5t-70 -58.5t-45.5 -93.5t-16.5 -125.5q0 -65 14 -117.5t44 -96.5zM235 84q58 -46 131 -46q50 0 91 20.5t70.5 59t45.5 93.5t16 125q0 68 -16 123.5t-51 102.5z" />
<glyph unicode="&#xd9;" horiz-adv-x="694" d="M270 671v-40l-62 -6l-18 -14v-362q0 -102 41.5 -150.5t137.5 -48.5q95 0 136.5 48t41.5 151v355l-19 18l-60 9v40h211v-40l-60 -9l-18 -18v-364q0 -55 -7.5 -98t-36.5 -78t-82 -55.5t-125 -20.5t-125 20.5t-82 55.5t-36.5 77.5t-7.5 98.5v371l-17 14l-57 6v40h245z M300 933l97 -190h-50l-146 190h99z" />
<glyph unicode="&#xda;" horiz-adv-x="694" d="M270 671v-40l-62 -6l-18 -14v-362q0 -102 41.5 -150.5t137.5 -48.5q95 0 136.5 48t41.5 151v355l-19 18l-60 9v40h211v-40l-60 -9l-18 -18v-364q0 -55 -7.5 -98t-36.5 -78t-82 -55.5t-125 -20.5t-125 20.5t-82 55.5t-36.5 77.5t-7.5 98.5v371l-17 14l-57 6v40h245z M505 933l-146 -190h-50l97 190h99z" />
<glyph unicode="&#xdb;" horiz-adv-x="694" d="M270 671v-40l-62 -6l-18 -14v-362q0 -102 41.5 -150.5t137.5 -48.5q95 0 136.5 48t41.5 151v355l-19 18l-60 9v40h211v-40l-60 -9l-18 -18v-364q0 -55 -7.5 -98t-36.5 -78t-82 -55.5t-125 -20.5t-125 20.5t-82 55.5t-36.5 77.5t-7.5 98.5v371l-17 14l-57 6v40h245z M379 933l110 -190h-54l-88 141l-87 -141h-55l110 190h64z" />
<glyph unicode="&#xdc;" horiz-adv-x="694" d="M270 671v-40l-62 -6l-18 -14v-362q0 -102 41.5 -150.5t137.5 -48.5q95 0 136.5 48t41.5 151v355l-19 18l-60 9v40h211v-40l-60 -9l-18 -18v-364q0 -55 -7.5 -98t-36.5 -78t-82 -55.5t-125 -20.5t-125 20.5t-82 55.5t-36.5 77.5t-7.5 98.5v371l-17 14l-57 6v40h245z M254 888q21 0 35.5 -14.5t14.5 -36.5q0 -21 -14.5 -35.5t-35.5 -14.5t-36 14.5t-15 35.5q0 22 15 36.5t36 14.5zM440 888q21 0 35.5 -14.5t14.5 -36.5q0 -21 -14.5 -35.5t-35.5 -14.5t-36 14.5t-15 35.5q0 22 15 36.5t36 14.5z" />
<glyph unicode="&#xdd;" horiz-adv-x="586" d="M219 671v-40l-57 -6l-10 -11l153 -275l168 267l-9 14l-61 11v40h204v-40l-61 -13l-208 -333v-225l16 -14l68 -5v-41h-259v41l68 5l16 14v212l-199 349l-61 10v40h232zM451 933l-146 -190h-50l97 190h99z" />
<glyph unicode="&#xde;" horiz-adv-x="558" d="M278 671v-40l-62 -6l-16 -14v-66h55q72 0 124.5 -10.5t86.5 -34t50.5 -61.5t16.5 -94q0 -47 -17.5 -86t-51 -66.5t-81.5 -43t-109 -15.5q-14 0 -32.5 1.5t-41.5 3.5v-79l16 -14l62 -5v-41h-243v41l58 5l16 14v551l-16 14l-58 6v40h243zM200 186q23 -2 39 -3t27 -1 q86 0 130.5 42t44.5 123q0 79 -46 116t-142 37h-26t-27 -2v-312z" />
<glyph unicode="&#xdf;" horiz-adv-x="609" d="M483 466q-7 1 -13 1.5t-11 0.5q-43 0 -66.5 -21.5t-23.5 -56.5q0 -21 8 -35t23 -25.5t36.5 -22.5t48.5 -26q49 -27 72.5 -59.5t23.5 -74.5q0 -32 -12 -60t-34 -49t-53 -33t-68 -12t-115 20v132h50l10 -87q27 -21 61 -21q40 0 63 24.5t23 59.5q0 21 -6 35.5t-18 26 t-29.5 22t-39.5 22.5q-29 16 -52 30t-38.5 29.5t-24 34.5t-8.5 45q0 47 32.5 84.5t89.5 50.5q5 20 7.5 37.5t2.5 32.5q0 56 -29 90t-75 34q-76 0 -119 -81q-17 -32 -21 -77t-4 -106v-373l8 -18l66 -5v-35h-229v35l58 7l11 15v392q0 67 18 121t50.5 92t77.5 58.5t99 20.5 q81 0 124.5 -43t43.5 -122q0 -52 -18 -110z" />
<glyph unicode="&#xe0;" horiz-adv-x="507" d="M334 58q-48 -32 -88 -48.5t-76 -16.5q-60 0 -94 35.5t-34 92.5q0 39 17.5 65.5t53.5 46.5t91 36t130 34v32q0 60 -19 86t-73 26q-37 0 -76 -16v-84h-69q-17 0 -24 6.5t-7 24.5q0 23 14 43.5t40 36t63.5 24.5t84.5 9q79 0 114 -34t35 -110v-290l18 -16l53 -5v-36h-141z M334 268q-53 -15 -91.5 -28t-63.5 -28.5t-37 -35.5t-12 -47q0 -37 21 -59.5t59 -22.5q25 0 55.5 11.5t68.5 33.5v176zM207 736l97 -190h-50l-146 190h99z" />
<glyph unicode="&#xe1;" horiz-adv-x="507" d="M334 58q-48 -32 -88 -48.5t-76 -16.5q-60 0 -94 35.5t-34 92.5q0 39 17.5 65.5t53.5 46.5t91 36t130 34v32q0 60 -19 86t-73 26q-37 0 -76 -16v-84h-69q-17 0 -24 6.5t-7 24.5q0 23 14 43.5t40 36t63.5 24.5t84.5 9q79 0 114 -34t35 -110v-290l18 -16l53 -5v-36h-141z M334 268q-53 -15 -91.5 -28t-63.5 -28.5t-37 -35.5t-12 -47q0 -37 21 -59.5t59 -22.5q25 0 55.5 11.5t68.5 33.5v176zM412 736l-146 -190h-50l97 190h99z" />
<glyph unicode="&#xe2;" horiz-adv-x="507" d="M334 58q-48 -32 -88 -48.5t-76 -16.5q-60 0 -94 35.5t-34 92.5q0 39 17.5 65.5t53.5 46.5t91 36t130 34v32q0 60 -19 86t-73 26q-37 0 -76 -16v-84h-69q-17 0 -24 6.5t-7 24.5q0 23 14 43.5t40 36t63.5 24.5t84.5 9q79 0 114 -34t35 -110v-290l18 -16l53 -5v-36h-141z M334 268q-53 -15 -91.5 -28t-63.5 -28.5t-37 -35.5t-12 -47q0 -37 21 -59.5t59 -22.5q25 0 55.5 11.5t68.5 33.5v176zM286 736l110 -190h-54l-88 141l-87 -141h-55l110 190h64z" />
<glyph unicode="&#xe3;" horiz-adv-x="507" d="M334 58q-48 -32 -88 -48.5t-76 -16.5q-60 0 -94 35.5t-34 92.5q0 39 17.5 65.5t53.5 46.5t91 36t130 34v32q0 60 -19 86t-73 26q-37 0 -76 -16v-84h-69q-17 0 -24 6.5t-7 24.5q0 23 14 43.5t40 36t63.5 24.5t84.5 9q79 0 114 -34t35 -110v-290l18 -16l53 -5v-36h-141z M334 268q-53 -15 -91.5 -28t-63.5 -28.5t-37 -35.5t-12 -47q0 -37 21 -59.5t59 -22.5q25 0 55.5 11.5t68.5 33.5v176zM406 708q0 -4 0.5 -7.5t0.5 -7.5q0 -49 -24.5 -77.5t-59.5 -28.5q-23 0 -44 8t-39.5 18t-34 18t-26.5 8q-16 0 -26 -14t-10 -40q0 -3 0.5 -6t0.5 -6h-43 v10q0 55 22 82.5t63 27.5q21 0 40.5 -8t37 -18t33 -18t27.5 -8q41 0 41 62v5h41z" />
<glyph unicode="&#xe4;" horiz-adv-x="507" d="M334 58q-48 -32 -88 -48.5t-76 -16.5q-60 0 -94 35.5t-34 92.5q0 39 17.5 65.5t53.5 46.5t91 36t130 34v32q0 60 -19 86t-73 26q-37 0 -76 -16v-84h-69q-17 0 -24 6.5t-7 24.5q0 23 14 43.5t40 36t63.5 24.5t84.5 9q79 0 114 -34t35 -110v-290l18 -16l53 -5v-36h-141z M334 268q-53 -15 -91.5 -28t-63.5 -28.5t-37 -35.5t-12 -47q0 -37 21 -59.5t59 -22.5q25 0 55.5 11.5t68.5 33.5v176zM161 691q21 0 35.5 -14.5t14.5 -36.5q0 -21 -14.5 -35.5t-35.5 -14.5t-36 14.5t-15 35.5q0 22 15 36.5t36 14.5zM347 691q21 0 35.5 -14.5t14.5 -36.5 q0 -21 -14.5 -35.5t-35.5 -14.5t-36 14.5t-15 35.5q0 22 15 36.5t36 14.5z" />
<glyph unicode="&#xe5;" horiz-adv-x="507" d="M250 781q25 0 46.5 -9t37.5 -25t25 -37t9 -46t-9 -46.5t-25 -37.5t-37.5 -25t-46.5 -9t-46.5 9t-37 25t-24.5 37.5t-9 46.5t9 46t24.5 37t37 25t46.5 9zM250 736q-30 0 -51 -21t-21 -52q0 -30 21 -51t51 -21q31 0 52.5 21t21.5 51q0 31 -21.5 52t-52.5 21zM418 57l17 -16 l53 -5v-36h-141l-13 58q-48 -32 -88 -48.5t-76 -16.5q-60 0 -94 35.5t-34 92.5q0 39 17.5 65.5t53.5 46.5t91 36t130 34v32q0 60 -19 86t-73 26q-37 0 -76 -16v-84h-69q-17 0 -24 6.5t-7 24.5q0 23 14 43.5t40 36t63.5 24.5t84.5 9q79 0 114.5 -34t35.5 -110v-290zM334 268 q-53 -15 -91.5 -28t-63.5 -28.5t-37 -35.5t-12 -47q0 -37 21 -59.5t59 -22.5q25 0 55.5 11.5t68.5 33.5v176z" />
<glyph unicode="&#xe6;" horiz-adv-x="725" d="M96 347q-17 0 -23.5 6.5t-6.5 24.5q0 23 13.5 43.5t38.5 36t61 24.5t81 9q48 0 78.5 -14t47.5 -46q54 60 132 60t121 -51t43 -147v-17t-1 -18h-279v-139q64 -65 150 -65q38 0 68 12t62 40v-55q-77 -60 -162 -60q-50 0 -95.5 18.5t-81.5 54.5q-48 -35 -90.5 -53t-86.5 -18 q-57 0 -90 34.5t-33 89.5q0 41 16.5 68t51 47.5t87.5 36.5t126 34v32q0 60 -18.5 86t-70.5 26q-36 0 -69 -16v-84h-70zM324 268q-51 -15 -88 -28t-61.5 -28.5t-36 -35.5t-11.5 -47q0 -37 21 -59.5t57 -22.5q24 0 53.5 11.5t65.5 33.5v176zM592 297q0 6 0.5 12t0.5 11 q0 127 -90 127q-48 0 -73.5 -38t-27.5 -112h190z" />
<glyph unicode="&#xe7;" horiz-adv-x="446" d="M425 42q-84 -49 -163 -49q-51 0 -92.5 18t-71 50.5t-45.5 78t-16 101.5t17.5 102t48.5 79t74.5 51t96.5 18q72 0 111 -27t39 -71q0 -24 -15 -38.5t-41 -14.5q-23 0 -45 15v82q-23 14 -48 14q-65 0 -106 -54t-41 -149q0 -93 46 -144.5t124 -51.5q64 0 127 42v-52v0zM268 0 v-61q7 1 12 1h8q35 0 55 -19t20 -53q0 -42 -31 -66.5t-87 -24.5q-32 0 -69 10v36q30 -8 59 -8q32 0 49.5 11.5t17.5 31.5q0 37 -50 37q-5 0 -10.5 -0.5t-10.5 -1.5v107h37z" />
<glyph unicode="&#xe8;" horiz-adv-x="491" d="M448 51q-45 -30 -92.5 -45t-95.5 -15q-50 0 -91 18t-70 50t-45.5 77.5t-16.5 100.5q0 57 17 103.5t48 80t73.5 52t92.5 18.5q82 0 131 -52t49 -145v-15.5t-1 -15.5h-324v-11q0 -97 46 -150.5t122 -53.5q38 0 76 14.5t81 43.5v-55zM359 321q0 61 -26.5 93t-77.5 32 q-24 0 -46 -10t-39.5 -28.5t-28.5 -44.5t-13 -58h231v16zM210 736l97 -190h-50l-146 190h99z" />
<glyph unicode="&#xe9;" horiz-adv-x="491" d="M448 51q-45 -30 -92.5 -45t-95.5 -15q-50 0 -91 18t-70 50t-45.5 77.5t-16.5 100.5q0 57 17 103.5t48 80t73.5 52t92.5 18.5q82 0 131 -52t49 -145v-15.5t-1 -15.5h-324v-11q0 -97 46 -150.5t122 -53.5q38 0 76 14.5t81 43.5v-55zM359 321q0 61 -26.5 93t-77.5 32 q-24 0 -46 -10t-39.5 -28.5t-28.5 -44.5t-13 -58h231v16zM415 736l-146 -190h-50l97 190h99z" />
<glyph unicode="&#xea;" horiz-adv-x="491" d="M448 51q-45 -30 -92.5 -45t-95.5 -15q-50 0 -91 18t-70 50t-45.5 77.5t-16.5 100.5q0 57 17 103.5t48 80t73.5 52t92.5 18.5q82 0 131 -52t49 -145v-15.5t-1 -15.5h-324v-11q0 -97 46 -150.5t122 -53.5q38 0 76 14.5t81 43.5v-55zM359 321q0 61 -26.5 93t-77.5 32 q-24 0 -46 -10t-39.5 -28.5t-28.5 -44.5t-13 -58h231v16zM289 736l110 -190h-54l-88 141l-87 -141h-55l110 190h64z" />
<glyph unicode="&#xeb;" horiz-adv-x="491" d="M448 51q-45 -30 -92.5 -45t-95.5 -15q-50 0 -91 18t-70 50t-45.5 77.5t-16.5 100.5q0 57 17 103.5t48 80t73.5 52t92.5 18.5q82 0 131 -52t49 -145v-15.5t-1 -15.5h-324v-11q0 -97 46 -150.5t122 -53.5q38 0 76 14.5t81 43.5v-55zM359 321q0 61 -26.5 93t-77.5 32 q-24 0 -46 -10t-39.5 -28.5t-28.5 -44.5t-13 -58h231v16zM164 691q21 0 35.5 -14.5t14.5 -36.5q0 -21 -14.5 -35.5t-35.5 -14.5t-36 14.5t-15 35.5q0 22 15 36.5t36 14.5zM350 691q21 0 35.5 -14.5t14.5 -36.5q0 -21 -14.5 -35.5t-35.5 -14.5t-36 14.5t-15 35.5 q0 22 15 36.5t36 14.5z" />
<glyph unicode="&#xec;" horiz-adv-x="280" d="M189 486v-429l17 -16l54 -5v-36h-225v36l53 5l17 16v362h-70v31l115 36h39zM94 736l97 -190h-50l-146 190h99z" />
<glyph unicode="&#xed;" horiz-adv-x="280" d="M189 486v-429l17 -16l54 -5v-36h-225v36l53 5l17 16v362h-70v31l115 36h39zM299 736l-146 -190h-50l97 190h99z" />
<glyph unicode="&#xee;" horiz-adv-x="280" d="M189 486v-429l17 -16l54 -5v-36h-225v36l53 5l17 16v362h-70v31l115 36h39zM173 736l110 -190h-54l-88 141l-87 -141h-55l110 190h64z" />
<glyph unicode="&#xef;" horiz-adv-x="280" d="M189 486v-429l17 -16l54 -5v-36h-225v36l53 5l17 16v362h-70v31l115 36h39zM48 691q21 0 35.5 -14.5t14.5 -36.5q0 -21 -14.5 -35.5t-35.5 -14.5t-36 14.5t-15 35.5q0 22 15 36.5t36 14.5zM234 691q21 0 35.5 -14.5t14.5 -36.5q0 -21 -14.5 -35.5t-35.5 -14.5t-36 14.5 t-15 35.5q0 22 15 36.5t36 14.5z" />
<glyph unicode="&#xf0;" horiz-adv-x="528" d="M342 479q-19 30 -39 57.5t-41 53.5l-128 -77l-22 38l117 71l-36 41l-81 7v29l113 34l71 -73l110 66l22 -39l-103 -62q84 -97 126 -183.5t42 -174.5q0 -63 -18 -114t-49 -87t-73 -56t-91 -20q-51 0 -93 19t-72 52.5t-47 80t-17 102.5q0 54 18 98.5t50.5 76.5t78 49.5 t99.5 17.5q15 0 30.5 -2t32.5 -5zM367 431q-23 6 -42.5 9.5t-36.5 3.5q-75 0 -118.5 -52t-43.5 -150q0 -50 11 -89t29.5 -66t44.5 -41t56 -14q62 0 101.5 56.5t39.5 162.5q0 56 -9.5 100.5t-31.5 79.5z" />
<glyph unicode="&#xf1;" horiz-adv-x="568" d="M30 36l54 5l17 16v362h-71v31l116 36h38v-55q51 28 90 44t71 16q66 0 100.5 -38.5t34.5 -113.5v-282l17 -16l54 -5v-36h-219v36l48 5l17 16v265q0 55 -22.5 79t-78.5 24q-48 0 -112 -33v-335l17 -16l48 -5v-36h-219v36zM425 708q0 -4 0.5 -7.5t0.5 -7.5 q0 -49 -24.5 -77.5t-59.5 -28.5q-23 0 -44 8t-39.5 18t-34 18t-26.5 8q-16 0 -26 -14t-10 -40q0 -3 0.5 -6t0.5 -6h-43v10q0 55 22 82.5t63 27.5q21 0 40.5 -8t37 -18t33 -18t27.5 -8q41 0 41 62v5h41z" />
<glyph unicode="&#xf2;" horiz-adv-x="539" d="M269 491q51 0 93.5 -18.5t73.5 -51.5t48.5 -79t17.5 -101q0 -56 -17.5 -102t-48.5 -79t-74 -51t-93 -18t-92.5 18t-73.5 51t-48.5 79t-17.5 102t17.5 102t48 79t73 51t93.5 18zM269 448q-61 0 -99.5 -54.5t-38.5 -152.5q0 -48 10.5 -86.5t28.5 -65.5t43.5 -41t55.5 -14 q61 0 100 54.5t39 152.5q0 97 -39 152t-100 55zM223 736l97 -190h-50l-146 190h99z" />
<glyph unicode="&#xf3;" horiz-adv-x="539" d="M269 491q51 0 93.5 -18.5t73.5 -51.5t48.5 -79t17.5 -101q0 -56 -17.5 -102t-48.5 -79t-74 -51t-93 -18t-92.5 18t-73.5 51t-48.5 79t-17.5 102t17.5 102t48 79t73 51t93.5 18zM269 448q-61 0 -99.5 -54.5t-38.5 -152.5q0 -48 10.5 -86.5t28.5 -65.5t43.5 -41t55.5 -14 q61 0 100 54.5t39 152.5q0 97 -39 152t-100 55zM428 736l-146 -190h-50l97 190h99z" />
<glyph unicode="&#xf4;" horiz-adv-x="539" d="M269 491q51 0 93.5 -18.5t73.5 -51.5t48.5 -79t17.5 -101q0 -56 -17.5 -102t-48.5 -79t-74 -51t-93 -18t-92.5 18t-73.5 51t-48.5 79t-17.5 102t17.5 102t48 79t73 51t93.5 18zM269 448q-61 0 -99.5 -54.5t-38.5 -152.5q0 -48 10.5 -86.5t28.5 -65.5t43.5 -41t55.5 -14 q61 0 100 54.5t39 152.5q0 97 -39 152t-100 55zM302 736l110 -190h-54l-88 141l-87 -141h-55l110 190h64z" />
<glyph unicode="&#xf5;" horiz-adv-x="539" d="M269 491q51 0 93.5 -18.5t73.5 -51.5t48.5 -79t17.5 -101q0 -56 -17.5 -102t-48.5 -79t-74 -51t-93 -18t-92.5 18t-73.5 51t-48.5 79t-17.5 102t17.5 102t48 79t73 51t93.5 18zM269 448q-61 0 -99.5 -54.5t-38.5 -152.5q0 -48 10.5 -86.5t28.5 -65.5t43.5 -41t55.5 -14 q61 0 100 54.5t39 152.5q0 97 -39 152t-100 55zM422 708q0 -4 0.5 -7.5t0.5 -7.5q0 -49 -24.5 -77.5t-59.5 -28.5q-23 0 -44 8t-39.5 18t-34 18t-26.5 8q-16 0 -26 -14t-10 -40q0 -3 0.5 -6t0.5 -6h-43v10q0 55 22 82.5t63 27.5q21 0 40.5 -8t37 -18t33 -18t27.5 -8 q41 0 41 62v5h41z" />
<glyph unicode="&#xf6;" horiz-adv-x="539" d="M269 491q51 0 93.5 -18.5t73.5 -51.5t48.5 -79t17.5 -101q0 -56 -17.5 -102t-48.5 -79t-74 -51t-93 -18t-92.5 18t-73.5 51t-48.5 79t-17.5 102t17.5 102t48 79t73 51t93.5 18zM269 448q-61 0 -99.5 -54.5t-38.5 -152.5q0 -48 10.5 -86.5t28.5 -65.5t43.5 -41t55.5 -14 q61 0 100 54.5t39 152.5q0 97 -39 152t-100 55zM177 691q21 0 35.5 -14.5t14.5 -36.5q0 -21 -14.5 -35.5t-35.5 -14.5t-36 14.5t-15 35.5q0 22 15 36.5t36 14.5zM363 691q21 0 35.5 -14.5t14.5 -36.5q0 -21 -14.5 -35.5t-35.5 -14.5t-36 14.5t-15 35.5q0 22 15 36.5t36 14.5 z" />
<glyph unicode="&#xf7;" horiz-adv-x="833" d="M417 530q23 0 39.5 -16.5t16.5 -39.5t-16 -39.5t-40 -16.5t-40 16.5t-16 39.5t16.5 39.5t39.5 16.5zM709 327v-57h-585v57h585zM417 178q23 0 39.5 -16.5t16.5 -39.5t-16 -39.5t-40 -16.5q-23 0 -39.5 16.5t-16.5 39.5q0 24 16.5 40t39.5 16z" />
<glyph unicode="&#xf8;" horiz-adv-x="539" d="M457 541l-52 -93q48 -36 72.5 -86t24.5 -121q0 -56 -17.5 -102t-48.5 -79t-74 -51t-93 -18q-61 0 -113 28l-58 -99l-32 20l58 102q-87 72 -87 199q0 56 17.5 102t48.5 79t73.5 51t92.5 18q57 0 102 -22l52 91zM344 422q-32 25 -75 25q-62 0 -101 -54t-39 -152 q0 -76 30 -137zM186 69q34 -35 83 -35q63 0 102.5 54.5t39.5 152.5q0 89 -40 151z" />
<glyph unicode="&#xf9;" horiz-adv-x="569" d="M180 491v-331q0 -54 23 -80t74 -26q54 0 116 30v339h-71v31l116 37h38v-434l18 -16l47 -5v-36h-148v56q-45 -32 -85 -49t-77 -17q-65 0 -99.5 39t-34.5 114v280h-71v31l116 37h38zM238 736l97 -190h-50l-146 190h99z" />
<glyph unicode="&#xfa;" horiz-adv-x="569" d="M180 491v-331q0 -54 23 -80t74 -26q54 0 116 30v339h-71v31l116 37h38v-434l18 -16l47 -5v-36h-148v56q-45 -32 -85 -49t-77 -17q-65 0 -99.5 39t-34.5 114v280h-71v31l116 37h38zM443 736l-146 -190h-50l97 190h99z" />
<glyph unicode="&#xfb;" horiz-adv-x="569" d="M180 491v-331q0 -54 23 -80t74 -26q54 0 116 30v339h-71v31l116 37h38v-434l18 -16l47 -5v-36h-148v56q-45 -32 -85 -49t-77 -17q-65 0 -99.5 39t-34.5 114v280h-71v31l116 37h38zM317 736l110 -190h-54l-88 141l-87 -141h-55l110 190h64z" />
<glyph unicode="&#xfc;" horiz-adv-x="569" d="M180 491v-331q0 -54 23 -80t74 -26q54 0 116 30v339h-71v31l116 37h38v-434l18 -16l47 -5v-36h-148v56q-45 -32 -85 -49t-77 -17q-65 0 -99.5 39t-34.5 114v280h-71v31l116 37h38zM192 691q21 0 35.5 -14.5t14.5 -36.5q0 -21 -14.5 -35.5t-35.5 -14.5t-36 14.5t-15 35.5 q0 22 15 36.5t36 14.5zM378 691q21 0 35.5 -14.5t14.5 -36.5q0 -21 -14.5 -35.5t-35.5 -14.5t-36 14.5t-15 35.5q0 22 15 36.5t36 14.5z" />
<glyph unicode="&#xfd;" horiz-adv-x="495" d="M216 481v-37l-53 -4l-12 -16l120 -311l125 311l-8 16l-54 4v37h178v-37l-58 -8l-200 -486q-35 -85 -73 -126.5t-87 -41.5q-32 0 -50.5 15.5t-18.5 40.5q0 30 26 54l96 -38q20 22 41 59t40 91l-168 434l-61 6v37h217zM407 736l-146 -190h-50l97 190h99z" />
<glyph unicode="&#xfe;" horiz-adv-x="551" d="M28 -182l53 5l17 16v830h-78v31l123 36h38v-305q79 60 147 60q41 0 76.5 -17t61.5 -47.5t40.5 -74t14.5 -95.5q0 -59 -17.5 -107t-50 -82t-78 -52.5t-100.5 -18.5q-39 0 -94 9v-167l18 -16l63 -5v-36h-234v36zM181 58q48 -16 86 -16q37 0 67.5 14.5t52.5 40.5t34 63.5 t12 83.5q0 87 -40 135.5t-106 48.5q-26 0 -51.5 -8.5t-54.5 -25.5v-336z" />
<glyph unicode="&#xff;" horiz-adv-x="495" d="M216 481v-37l-53 -4l-12 -16l120 -311l125 311l-8 16l-54 4v37h178v-37l-58 -8l-200 -486q-35 -85 -73 -126.5t-87 -41.5q-32 0 -50.5 15.5t-18.5 40.5q0 30 26 54l96 -38q20 22 41 59t40 91l-168 434l-61 6v37h217zM156 691q21 0 35.5 -14.5t14.5 -36.5 q0 -21 -14.5 -35.5t-35.5 -14.5t-36 14.5t-15 35.5q0 22 15 36.5t36 14.5zM342 691q21 0 35.5 -14.5t14.5 -36.5q0 -21 -14.5 -35.5t-35.5 -14.5t-36 14.5t-15 35.5q0 22 15 36.5t36 14.5z" />
<glyph unicode="&#x131;" horiz-adv-x="280" d="M189 486v-429l17 -16l54 -5v-36h-225v36l53 5l17 16v362h-70v31l115 36h39z" />
<glyph unicode="&#x141;" horiz-adv-x="520" d="M271 671v-40l-57 -6l-17 -14v-204l94 62l26 -38l-120 -81v-304h226l14 16l17 120h52v-182h-479v41l63 5l17 14v231l-73 -50l-24 40l97 65v265l-17 14l-63 6v40h244z" />
<glyph unicode="&#x142;" horiz-adv-x="282" d="M187 736v-316l86 57l26 -39l-112 -75v-306l18 -16l57 -5v-36h-234v36l59 5l17 16v250l-75 -51l-24 40l99 66v307h-77v31l122 36h38z" />
<glyph unicode="&#x152;" horiz-adv-x="993" d="M350 627q-45 0 -82.5 -19.5t-64 -56.5t-41.5 -91t-15 -122q0 -69 15 -124t41.5 -92.5t64 -57.5t82.5 -20t82.5 20t64.5 57.5t42 91.5t15 122t-15 122.5t-42 92t-64.5 57.5t-82.5 20zM553 671h376v-146h-56l-14 85l-14 15h-208v-253h140l15 14l10 73h47v-220h-47l-10 72 l-15 15h-140v-280h244l15 16l16 101h53v-163h-412v123q-72 -131 -213 -131q-59 0 -110 21t-92 63q-95 97 -95 260q0 160 96 259q39 41 91 62.5t110 21.5q78 0 130 -31.5t83 -98.5v122z" />
<glyph unicode="&#x153;" horiz-adv-x="817" d="M261 447q-57 0 -93.5 -53.5t-36.5 -152.5q0 -98 36.5 -152.5t93.5 -54.5t93.5 54.5t36.5 152.5t-36.5 152t-93.5 54zM686 319q0 62 -23.5 94.5t-67.5 32.5q-42 0 -73.5 -36t-39.5 -105h204v14zM477 263v-3q0 -100 44.5 -153.5t120.5 -53.5q36 0 67 13.5t66 39.5v-55 q-84 -61 -164 -61q-110 0 -177 100q-74 -100 -174 -100q-48 0 -89 18.5t-70.5 51.5t-46.5 79t-17 102t17 102t46.5 79t70.5 51t89 18q58 0 104 -25t76 -73q28 48 70 73t92 25q82 0 128 -51t46 -147v-14.5t-1 -15.5h-298z" />
<glyph unicode="&#x160;" horiz-adv-x="556" d="M60 196h59l12 -115l13 -17q44 -23 112 -23q73 0 112 33.5t39 86.5q0 31 -11 51.5t-32 36t-52 29t-72 31.5q-42 18 -73.5 35t-52.5 37.5t-32 47t-11 62.5q0 42 16 77.5t46 61t73 39.5t96 14q83 0 170 -28v-155h-52l-15 95l-15 17q-38 21 -90 21q-64 0 -100 -33t-36 -88 q0 -25 9 -43t26.5 -33t43.5 -27.5t61 -27.5q38 -16 77 -32t74 -50q44 -44 44 -110q0 -44 -18 -81t-51.5 -63.5t-81.5 -41.5t-108 -15q-54 0 -99.5 8.5t-80.5 23.5v176zM191 933l87 -141l88 141h54l-110 -190h-64l-110 190h55z" />
<glyph unicode="&#x161;" horiz-adv-x="400" d="M344 356h-49l-8 71q-39 21 -74 21q-40 0 -61.5 -19t-21.5 -53q0 -32 21.5 -51.5t63.5 -39.5q26 -13 53.5 -25.5t52.5 -32.5q38 -30 38 -86q0 -70 -49 -110t-138 -40q-38 0 -71 5.5t-59 15.5v130h48l12 -85q42 -24 85 -24q44 0 69 23t25 58q0 19 -6.5 33t-19.5 25t-32 21 t-44 21q-64 28 -96.5 57.5t-32.5 79.5q0 66 45.5 103t131.5 37q67 0 117 -22v-113zM114 736l87 -141l88 141h54l-110 -190h-64l-110 190h55z" />
<glyph unicode="&#x178;" horiz-adv-x="586" d="M219 671v-40l-57 -6l-10 -11l153 -275l168 267l-9 14l-61 11v40h204v-40l-61 -13l-208 -333v-225l16 -14l68 -5v-41h-259v41l68 5l16 14v212l-199 349l-61 10v40h232zM200 888q21 0 35.5 -14.5t14.5 -36.5q0 -21 -14.5 -35.5t-35.5 -14.5t-36 14.5t-15 35.5q0 22 15 36.5 t36 14.5zM386 888q21 0 35.5 -14.5t14.5 -36.5q0 -21 -14.5 -35.5t-35.5 -14.5t-36 14.5t-15 35.5q0 22 15 36.5t36 14.5z" />
<glyph unicode="&#x17d;" horiz-adv-x="586" d="M534 671v-42l-380 -580h302l11 13l18 119h54v-181h-494v41l379 582h-267l-19 -13l-16 -94h-55v155h467zM206 933l87 -141l88 141h54l-110 -190h-64l-110 190h55z" />
<glyph unicode="&#x17e;" horiz-adv-x="468" d="M45 50l267 385h-185l-14 -16l-11 -77h-47v139h361v-38l-277 -397h215l15 16l11 85h51v-147h-386v50zM148 736l87 -141l88 141h54l-110 -190h-64l-110 190h55z" />
<glyph unicode="&#x192;" horiz-adv-x="556" d="M377 633q-25 -9 -40 -24.5t-23.5 -38t-11 -53t-2.5 -69.5v-80h162v-49h-162q1 -26 1 -51.5v-48.5q0 -88 -8.5 -154t-37.5 -117q-31 -55 -81 -86t-102 -31q-30 0 -48 15.5t-18 41.5q0 37 36 60l102 -57q46 27 60.5 77t14.5 132v219h-115v49h115v75q0 29 3 53.5t10 46.5 t19 41t31 38q29 29 66.5 45t72.5 16q39 0 62.5 -18t23.5 -44q0 -20 -11 -34t-34 -26z" />
<glyph unicode="&#x2c6;" d="M282 736l110 -190h-54l-88 141l-87 -141h-55l110 190h64z" />
<glyph unicode="&#x2c7;" d="M163 736l87 -141l88 141h54l-110 -190h-64l-110 190h55z" />
<glyph unicode="&#x2d8;" d="M148 709v-8q0 -41 24 -56t79 -15q54 0 77.5 15t23.5 56v8h40v-11q0 -72 -33 -101.5t-108 -29.5q-77 0 -109.5 29t-32.5 102v11h39z" />
<glyph unicode="&#x2d9;" d="M250 696q23 0 38.5 -15.5t15.5 -38.5t-15.5 -37.5t-38.5 -14.5t-38 15t-15 37q0 23 15 38.5t38 15.5z" />
<glyph unicode="&#x2da;" d="M250 781q25 0 46.5 -9t37.5 -25t25 -37t9 -46t-9 -46.5t-25 -37.5t-37.5 -25t-46.5 -9t-46.5 9t-37 25t-24.5 37.5t-9 46.5t9 46t24.5 37t37 25t46.5 9zM250 736q-30 0 -51 -21t-21 -52q0 -30 21 -51t51 -21q31 0 52 21t21 51q0 31 -21 52t-52 21z" />
<glyph unicode="&#x2db;" d="M294 0q-26 -23 -40 -50.5t-14 -55.5q0 -57 57 -57q6 0 14.5 1t18.5 3v-50q-13 -4 -26 -5.5t-25 -1.5q-97 0 -97 85q0 35 17.5 70t50.5 61h44z" />
<glyph unicode="&#x2dc;" d="M402 708q0 -4 0.5 -7.5t0.5 -7.5q0 -49 -24.5 -77.5t-59.5 -28.5q-23 0 -44 8t-39.5 18t-34 18t-26.5 8q-16 0 -26 -14t-10 -40q0 -3 0.5 -6t0.5 -6h-43v10q0 55 22 82.5t63 27.5q21 0 40.5 -8t37 -18t33 -18t27.5 -8q41 0 41 62v5h41z" />
<glyph unicode="&#x2dd;" d="M315 736l-141 -190h-41l94 190h88zM473 736l-189 -190h-47l138 190h98z" />
<glyph unicode="&#x2013;" d="M500 271v-61h-500v61h500z" />
<glyph unicode="&#x2014;" horiz-adv-x="1000" d="M0 271h1000v-61h-1000v61z" />
<glyph unicode="&#x2018;" horiz-adv-x="201" d="M174 713q-40 -45 -60 -82t-20 -72v-11.5t2 -11.5h64q13 -19 13 -35q0 -26 -16.5 -42.5t-43.5 -16.5q-35 0 -56.5 25t-21.5 67q0 87 96 179h43z" />
<glyph unicode="&#x2019;" horiz-adv-x="201" d="M31 442q40 44 60 81.5t20 72.5v11.5t-2 11.5h-65q-13 19 -13 37q0 24 16.5 40.5t43.5 16.5q35 0 57 -25t22 -67q0 -88 -96 -179h-43z" />
<glyph unicode="&#x201a;" horiz-adv-x="201" d="M31 -164q39 45 59.5 81.5t20.5 71.5v11.5t-2 11.5h-64q-13 19 -13 37q0 24 16.5 41t43.5 17q35 0 56.5 -25t21.5 -67q0 -88 -96 -179h-43z" />
<glyph unicode="&#x201c;" horiz-adv-x="403" d="M174 713q-40 -45 -60 -82t-20 -72v-11.5t2 -11.5h64q13 -19 13 -35q0 -26 -16.5 -42.5t-43.5 -16.5q-35 0 -56.5 25t-21.5 67q0 87 96 179h43zM375 713q-40 -45 -60 -82t-20 -72v-11.5t2 -11.5h65q13 -19 13 -35q0 -26 -16.5 -42.5t-43.5 -16.5q-35 0 -57 25t-22 67 q0 87 96 179h43z" />
<glyph unicode="&#x201d;" horiz-adv-x="403" d="M31 442q40 44 60 81.5t20 72.5v11.5t-2 11.5h-65q-13 19 -13 37q0 24 16.5 40.5t43.5 16.5q35 0 57 -25t22 -67q0 -88 -96 -179h-43zM232 442q40 44 60 81.5t20 72.5v11.5t-2 11.5h-64q-13 19 -13 37q0 24 16 40.5t43 16.5q35 0 57 -25t22 -67q0 -88 -96 -179h-43z" />
<glyph unicode="&#x201e;" horiz-adv-x="403" d="M31 -164q39 45 59.5 81.5t20.5 71.5v11.5t-2 11.5h-64q-13 19 -13 37q0 24 16.5 41t43.5 17q35 0 56.5 -25t21.5 -67q0 -88 -96 -179h-43zM233 -164q39 45 59.5 81.5t20.5 71.5v11.5t-2 11.5h-65q-13 19 -13 37q0 24 16.5 41t43.5 17q35 0 56.5 -25t21.5 -67 q0 -88 -95 -179h-43z" />
<glyph unicode="&#x2020;" d="M294 642l-37 -140h-14l-38 140l44 76zM232 488v-16l-144 -35l-71 46l71 45zM483 483l-73 -46l-141 35v16l141 40zM257 460l42 -166l-42 -423h-14l-41 423l41 166h14z" />
<glyph unicode="&#x2021;" d="M294 642l-37 -140h-14l-38 140l44 76zM232 488v-16l-144 -35l-71 46l71 45zM483 483l-73 -46l-141 35v16l141 40zM257 460l48 -166l-48 -167h-14l-51 167l51 166h14zM232 111v-16l-144 -35l-71 46l71 45zM483 106l-73 -46l-141 35v16l141 40zM257 84l37 -140l-45 -76 l-44 76l38 140h14z" />
<glyph unicode="&#x2022;" horiz-adv-x="590" d="M150 372q0 30 11.5 56t31 45.5t46 31t56.5 11.5t56 -11.5t45.5 -31t31 -45.5t11.5 -56t-11.5 -56t-31 -46t-46 -31.5t-56.5 -11.5t-56.5 11.5t-46 31t-30.5 46t-11 56.5z" />
<glyph unicode="&#x2026;" horiz-adv-x="1000" d="M167 118q26 0 44.5 -18.5t18.5 -45.5q0 -26 -18.5 -44.5t-44.5 -18.5t-45 18t-19 45t19 45.5t45 18.5zM500 118q26 0 44.5 -18.5t18.5 -45.5q0 -26 -18.5 -44.5t-44.5 -18.5t-45 18t-19 45t19 45.5t45 18.5zM834 118q26 0 44.5 -18.5t18.5 -45.5q0 -26 -18.5 -44.5 t-44.5 -18.5t-45 18t-19 45t19 45.5t45 18.5z" />
<glyph unicode="&#x2030;" horiz-adv-x="1225" d="M181 683q68 0 109 -54.5t41 -154.5t-40.5 -155t-109.5 -55t-109.5 54.5t-40.5 155.5q0 100 41 154.5t109 54.5zM669 671l-428 -671h-60l427 671h61zM179 647q-38 0 -58 -43.5t-20 -129.5q0 -174 78 -174q80 0 80 174q0 87 -21 130t-59 43zM671 407q68 0 109 -54.5 t41 -154.5t-40.5 -155t-109.5 -55t-109.5 54.5t-40.5 155.5q0 100 41 154.5t109 54.5zM1043 407q68 0 109 -54.5t41 -154.5t-40.5 -155t-109.5 -55t-109.5 54.5t-40.5 155.5q0 100 41 154.5t109 54.5zM669 372q-38 0 -58 -44t-20 -130q0 -174 78 -174q80 0 80 174 q0 87 -21 130.5t-59 43.5zM1041 372q-38 0 -58 -44t-20 -130q0 -174 78 -174q80 0 80 174q0 87 -21 130.5t-59 43.5z" />
<glyph unicode="&#x2039;" horiz-adv-x="245" d="M203 347l-117 -107l117 -108v-65l-164 133v80l164 133v-66z" />
<glyph unicode="&#x203a;" horiz-adv-x="245" d="M209 280v-80l-163 -133v65l117 108l-117 107v66z" />
<glyph unicode="&#x2044;" horiz-adv-x="167" d="M327 671l-427 -671h-61l427 671h61z" />
<glyph unicode="&#x2122;" horiz-adv-x="822" d="M256 425l38 -4v-22h-122v21l39 4v215h-52l-8 -6l-6 -40h-27v69h229v-69h-26l-6 40l-7 6h-52v-214zM378 421l31 4v209l-32 5v23h102v-12l68 -180l69 179v13h100v-23l-32 -5v-209l32 -5v-21h-107v21l30 5v212l-92 -238h-22l-88 238v-212l31 -4v-22h-90v22z" />
<glyph unicode="&#x2212;" horiz-adv-x="833" d="M709 327v-58h-585v58h585z" />
<glyph unicode="&#x25fc;" horiz-adv-x="480" d="M0 480h480v-480h-480v480z" />
<glyph unicode="&#xfb01;" horiz-adv-x="574" d="M242 693q-58 -33 -58 -152v-73h206l58 27h33v-438l16 -16l47 -5v-36h-218v36l54 5l18 16v364h-215v-364l17 -16l51 -5v-36h-222v36l53 5l18 16v364h-64v31l64 16v16q0 60 15.5 108t42 82t62 52t75.5 18q31 0 49 -15t18 -38q0 -36 -43 -54zM399 645q0 22 14.5 36.5 t37.5 14.5q22 0 37 -15t15 -36q0 -22 -15 -37t-37 -15t-37 15t-15 37z" />
<glyph unicode="&#xfb02;" horiz-adv-x="579" d="M486 743v-686l17 -16l57 -5v-36h-227v36l53 5l17 16v610h-45l-35 -26l-74 56q-65 -30 -65 -156v-73h139v-47h-140v-364l17 -16l51 -5v-36h-222v36l53 5l18 16v364h-64v31l64 16v16q0 60 15.5 108t42 82t62 52t75.5 18q29 0 46.5 -13t20.5 -36l102 48h22z" />
</font>
</defs>
</svg>
