<?xml version="1.0" standalone="no"?>
<!DOCTYPE svg PUBLIC "-//W3C//DTD SVG 1.1//EN" "http://www.w3.org/Graphics/SVG/1.1/DTD/svg11.dtd" >
<svg xmlns="http://www.w3.org/2000/svg">
<metadata></metadata>
<defs>
<font id="charterbold" horiz-adv-x="500" >
<font-face units-per-em="1000" ascent="762" descent="-238" />
<missing-glyph horiz-adv-x="291" />
<glyph unicode=" "  horiz-adv-x="291" />
<glyph unicode="&#x09;" horiz-adv-x="291" />
<glyph unicode="&#xa0;" horiz-adv-x="291" />
<glyph unicode="!" horiz-adv-x="340" d="M170 145q31 0 53 -22.5t22 -54.5t-22 -53.5t-53 -21.5q-30 0 -52.5 21.5t-22.5 53.5t22 54.5t53 22.5zM197 198h-53l-45 355q-2 18 -3.5 31t-1.5 21q0 38 20.5 58.5t55.5 20.5t55.5 -21t20.5 -61q0 -8 -1 -19.5t-3 -27.5z" />
<glyph unicode="&#x22;" horiz-adv-x="339" d="M42 642q-1 5 -1 9.5v9.5q0 53 46 53q47 0 47 -53v-9.5t-1 -9.5l-36 -224h-19zM206 642q-1 5 -1 9.5v9.5q0 26 12.5 39.5t34.5 13.5t34.5 -13.5t12.5 -38.5q0 -5 -0.5 -10t-1.5 -10l-36 -224h-19z" />
<glyph unicode="#" horiz-adv-x="736" d="M417 692l-74 -214h133l76 231l63 -18l-74 -213h134v-62h-154l-44 -135h157v-60h-178l-78 -244l-64 16l75 228h-130l-80 -245l-63 18l77 227h-137v60h156l44 135h-151v62h171l78 232zM279 281h129l46 135h-131z" />
<glyph unicode="$" horiz-adv-x="581" d="M324 742v-73q42 -1 85.5 -8t90.5 -20v-165h-65l-18 112q-30 18 -93 23v-214q107 -28 158 -74t51 -121q0 -38 -14.5 -71.5t-41.5 -60t-66.5 -44.5t-89.5 -25v-103h-55v103q-121 4 -205 30v173h67l20 -118q26 -14 55.5 -20t62.5 -7v228q-100 26 -148 72t-48 121t52 125 t149 63v74h53zM271 607q-41 -8 -62.5 -33.5t-21.5 -63.5q0 -74 84 -99v196zM322 63q44 7 68.5 36t24.5 71q0 78 -93 103v-210z" />
<glyph unicode="%" horiz-adv-x="888" d="M203 683q76 0 121.5 -55t45.5 -154q0 -100 -45 -155.5t-122 -55.5t-121.5 55.5t-44.5 155.5t45 154.5t121 54.5zM691 671l-418 -671h-70l418 671h70zM200 638q-68 0 -68 -164q0 -165 68 -165q70 0 70 165q0 164 -70 164zM696 407q76 0 121.5 -55.5t45.5 -153.5 q0 -100 -45 -155t-122 -55t-122 55t-45 155t45.5 154.5t121.5 54.5zM694 363q-33 0 -51 -41.5t-18 -123.5q0 -165 69 -165t69 165t-69 165z" />
<glyph unicode="&#x26;" horiz-adv-x="741" d="M317 396q37 28 54 57t17 68q0 50 -23 78t-61 28q-35 0 -58 -23.5t-23 -60.5q0 -36 24.5 -70.5t69.5 -76.5zM512 196q41 53 55 113l-12 17l-53 9v46h209v-46l-70 -13q-33 -98 -91 -167l91 -100l83 -7v-48h-210v24l-42 48q-96 -84 -209 -84q-47 0 -85.5 15t-66 41.5 t-43 62.5t-15.5 78q0 127 139 172q-91 73 -91 158q0 36 15 67t42.5 53.5t66.5 35.5t86 13q45 0 80.5 -11.5t60.5 -32.5t38.5 -49t13.5 -61q0 -62 -36.5 -103t-112.5 -66zM233 324q-54 -42 -54 -99q0 -35 10.5 -63.5t30 -49t46.5 -32t60 -11.5q58 0 107 43z" />
<glyph unicode="'" horiz-adv-x="175" d="M42 642q-1 5 -1 9.5v9.5q0 53 46 53q47 0 47 -53v-9.5t-1 -9.5l-36 -224h-19z" />
<glyph unicode="(" horiz-adv-x="428" d="M386 667q-94 -13 -135.5 -107t-41.5 -276q0 -179 43 -271.5t134 -103.5v-51q-69 3 -123.5 32t-92.5 83.5t-58.5 132.5t-20.5 179q0 206 77.5 316.5t217.5 116.5v-51z" />
<glyph unicode=")" horiz-adv-x="428" d="M37 718q137 -7 214.5 -117t77.5 -313q0 -101 -20 -180t-58 -133.5t-92 -84t-122 -32.5v51q94 12 135.5 105.5t41.5 274.5q0 180 -42 273.5t-135 104.5v51v0z" />
<glyph unicode="*" d="M297 657l-39 -125h-17l-39 125l48 61zM446 571l-43 -64l-130 -1l-5 16l106 76zM371 415l-3 -77l-74 21l-41 125l13 8zM245 483l-41 -124l-74 -21l-2 77l105 78zM232 521l-5 -14l-131 1l-43 63l72 26z" />
<glyph unicode="+" horiz-adv-x="833" d="M458 339h251v-81h-251v-258h-83v258h-251v81h251v257h83v-257z" />
<glyph unicode="," horiz-adv-x="289" d="M31 -129q54 10 82.5 42t28.5 84v10h-62q-21 22 -21 54q0 31 19 49.5t50 18.5q42 0 67 -28t25 -78q0 -38 -13.5 -72t-38 -60t-59.5 -43.5t-78 -22.5v46z" />
<glyph unicode="-" horiz-adv-x="326" d="M290 290v-98h-254v98h254z" />
<glyph unicode="." horiz-adv-x="289" d="M144 151q33 0 56.5 -23.5t23.5 -56.5t-23.5 -56t-56.5 -23q-32 0 -55 23t-23 56q0 34 23 57t55 23z" />
<glyph unicode="/" horiz-adv-x="491" d="M471 671l-423 -764h-75l423 764h75z" />
<glyph unicode="0" horiz-adv-x="581" d="M293 683q58 0 105 -23.5t80.5 -68t51.5 -109.5t18 -147q0 -83 -18 -147.5t-51.5 -108.5t-80.5 -67.5t-105 -23.5t-104.5 23t-79.5 67.5t-51 109t-18 147.5t18 147.5t51 109t79.5 68t104.5 23.5zM294 627q-118 0 -118 -288q0 -294 118 -294t118 291t-118 291z" />
<glyph unicode="1" horiz-adv-x="581" d="M390 681v-611l11 -16l94 -4v-50h-347v50l100 6l12 18v492l-9 12l-142 -21v51l216 73h65z" />
<glyph unicode="2" horiz-adv-x="581" d="M453 102l18 88h61v-190h-484v79q79 61 139.5 114t102 101t62.5 93t21 92q0 67 -33 103.5t-90 36.5q-28 0 -58 -12v-129q-33 -18 -63 -18q-33 0 -52.5 19t-19.5 51q0 31 16.5 59t47 49t74 33t97.5 12q50 0 90.5 -14t69 -40t44 -62t15.5 -79q0 -48 -21.5 -93t-64 -91.5 t-106 -95.5t-146.5 -106h280z" />
<glyph unicode="3" horiz-adv-x="581" d="M334 353q92 -7 140.5 -49t48.5 -111q0 -42 -19.5 -79.5t-55.5 -65t-88 -43.5t-116 -16q-46 0 -83.5 10t-63.5 27.5t-40.5 40t-14.5 47.5q0 29 19.5 47t51.5 18q9 0 18.5 -2t20.5 -6l32 -108q39 -15 69 -15q28 0 52.5 10.5t42.5 29.5t28.5 44.5t10.5 54.5q0 55 -37 89 t-101 34q-11 0 -26.5 -1t-35.5 -4v72q8 -1 15 -1h14q71 0 109 32.5t38 90.5q0 53 -34.5 86t-89.5 33q-26 0 -56 -12v-117q-22 -14 -53 -14q-32 0 -52 19.5t-20 49.5q0 27 15.5 52t45 44t70.5 30.5t92 11.5q50 0 90 -13t68.5 -35.5t43.5 -53.5t15 -67q0 -60 -41.5 -100.5 t-122.5 -59.5z" />
<glyph unicode="4" horiz-adv-x="581" d="M453 677v-417h113v-79h-113v-212h-117v212h-311v81l330 415h98zM116 260h220v279z" />
<glyph unicode="5" horiz-adv-x="581" d="M489 671v-104h-312v-169q65 22 121 22q52 0 94 -14t71.5 -40t45.5 -62t16 -80q0 -50 -20.5 -93t-57.5 -74t-89.5 -48.5t-116.5 -17.5q-43 0 -77.5 9.5t-58.5 26t-37 38t-13 46.5q0 26 20.5 44.5t54.5 18.5q8 0 17 -2t20 -5l34 -113q12 -3 23.5 -4t23.5 -1q30 0 56.5 11 t46 30.5t30.5 46t11 57.5q0 67 -46 106t-129 39q-60 0 -121 -14v346h393z" />
<glyph unicode="6" horiz-adv-x="581" d="M469 640l-42 4q-100 -8 -160.5 -69.5t-79.5 -173.5q77 51 159 51q44 0 82 -16.5t65.5 -45.5t43.5 -69t16 -88q0 -54 -19 -99.5t-53 -78t-81 -50.5t-103 -18q-57 0 -103.5 20.5t-79 59.5t-50 95t-17.5 127q0 96 29.5 174t84.5 133.5t133 86.5t175 31v-74zM181 347 q-1 -23 -1.5 -38t-0.5 -22q0 -119 34.5 -178.5t95.5 -59.5q49 0 80.5 43.5t31.5 121.5q0 74 -36 116t-97 42q-58 0 -107 -25z" />
<glyph unicode="7" horiz-adv-x="581" d="M555 671v-65l-324 -612v-28h-107l322 594h-289l-15 -93h-66v204h479z" />
<glyph unicode="8" horiz-adv-x="581" d="M347 379q52 49 52 123q0 55 -29 89t-77 34q-42 0 -69 -28.5t-27 -72.5q0 -48 37 -81.5t113 -63.5zM394 356q74 -26 109.5 -68.5t35.5 -105.5q0 -43 -17 -79t-50 -62.5t-80.5 -41t-107.5 -14.5q-56 0 -100.5 15t-76 41t-48.5 61.5t-17 76.5q0 59 34.5 99t100.5 60 q-106 48 -106 156q0 43 16.5 78t46.5 60t73 39t96 14q48 0 87 -13.5t66 -36.5t41.5 -55t14.5 -69q0 -51 -29.5 -90t-88.5 -65zM222 314q-32 -29 -47 -58t-15 -66q0 -32 10 -58t28 -45.5t42 -30t53 -10.5q54 0 86.5 29.5t32.5 76.5q0 28 -11.5 49.5t-35.5 40.5t-59.5 36 t-83.5 36z" />
<glyph unicode="9" horiz-adv-x="581" d="M405 321q5 23 7.5 47.5t2.5 50.5q0 100 -34 152.5t-91 52.5q-49 0 -82 -43.5t-33 -120.5q0 -78 37.5 -119.5t105.5 -41.5q42 0 87 22zM102 13l45 8q96 44 156 103t88 138q-36 -19 -72 -29t-73 -10q-44 0 -81.5 15.5t-64.5 44t-42.5 68.5t-15.5 88q0 54 18.5 99t53 77.5 t82.5 50t108 17.5q55 0 100 -18.5t76.5 -53t48.5 -83t17 -109.5q0 -77 -27.5 -148.5t-80.5 -133t-131 -110t-178 -80.5z" />
<glyph unicode=":" horiz-adv-x="340" d="M173 488q32 0 55 -23t23 -56t-23 -56t-55 -23t-55 23t-23 56t23 56t55 23zM173 151q32 0 55 -23t23 -57q0 -33 -23 -56t-55 -23t-55 23t-23 56q0 34 23 57t55 23z" />
<glyph unicode=";" horiz-adv-x="340" d="M173 488q32 0 55 -23t23 -56t-23 -56t-55 -23t-55 23t-23 56t23 56t55 23zM68 -129q54 10 81 42.5t27 85.5v8h-60q-21 22 -21 54q0 31 18.5 49.5t49.5 18.5q42 0 66.5 -28t24.5 -78q0 -38 -13 -72t-37.5 -60t-59 -43.5t-76.5 -22.5v46z" />
<glyph unicode="&#x3c;" horiz-adv-x="833" d="M248 298l456 -186v-89l-575 236v78l575 237v-90z" />
<glyph unicode="=" horiz-adv-x="833" d="M709 358h-585v82h585v-82zM709 157h-585v81h585v-81z" />
<glyph unicode="&#x3e;" horiz-adv-x="833" d="M704 259l-575 -236v89l456 186l-456 186v90l575 -237v-78z" />
<glyph unicode="?" horiz-adv-x="487" d="M227 193h-65v135q145 50 145 171q0 59 -34 92.5t-96 33.5h-3l-45 -113q-5 -1 -10 -1h-10q-35 0 -54.5 16.5t-19.5 45.5q0 22 12.5 42t35.5 35t55.5 24t73.5 9q51 0 93 -13.5t71 -37.5t45 -58t16 -75q0 -147 -210 -215v-91zM196 145q32 0 54 -22t22 -56q0 -30 -22.5 -52 t-54.5 -22q-29 0 -51 21.5t-22 55.5q0 31 21.5 53t52.5 22z" />
<glyph unicode="@" horiz-adv-x="917" d="M533 442q-5 1 -9.5 1.5t-9.5 0.5q-30 0 -56 -15.5t-45.5 -43.5t-31 -67t-11.5 -85q0 -106 72 -106q45 0 91 63l36 199zM530 134q-75 -77 -140 -77q-54 0 -89 42.5t-35 117.5q0 98 55 171q36 50 86.5 76.5t102.5 26.5q46 0 96 -26l17 23h68q-10 -26 -15.5 -52t-11.5 -52 l-36 -170q-4 -18 -6 -33t-2 -29t9.5 -24t24.5 -10q20 0 41.5 12.5t41.5 38.5q31 39 48 91.5t17 108.5q0 61 -19.5 111.5t-56 86.5t-88 56t-115.5 20q-75 0 -138.5 -25t-114.5 -73q-119 -113 -119 -286q0 -81 25 -147t70 -112.5t108 -72t140 -25.5q129 0 254 73l18 -40 q-78 -45 -153.5 -66.5t-144.5 -21.5q-82 0 -154 28.5t-129 84.5q-110 107 -110 285q0 202 142 333q60 55 138 84.5t168 29.5q75 0 135.5 -23t104 -65t67 -101t23.5 -130q0 -113 -54 -197q-18 -29 -41 -51.5t-48 -38.5t-51 -24t-50 -8q-79 0 -79 80z" />
<glyph unicode="A" horiz-adv-x="651" d="M380 678l230 -619l59 -10v-49h-270v49l63 6l7 13l-60 170h-218l-60 -169l10 -13l63 -7v-49h-215v49l60 9l226 620h105zM210 294h176l-89 247z" />
<glyph unicode="B" horiz-adv-x="628" d="M329 671q222 0 222 -157q0 -119 -143 -157q88 -2 135 -44.5t47 -116.5q0 -95 -64 -145.5t-188 -50.5h-309v49l59 5l16 16v533l-16 14l-59 5v49h300zM234 373q7 -1 13.5 -1h13.5q78 0 115 31t37 99q0 115 -139 115q-10 0 -19.5 -0.5t-20.5 -1.5v-242zM234 57 q13 -1 25 -1.5t23 -0.5q88 0 128 31.5t40 103.5q0 127 -150 127h-28.5t-37.5 -2v-258z" />
<glyph unicode="C" horiz-adv-x="638" d="M601 24q-101 -36 -210 -36q-54 0 -100.5 11.5t-83.5 33.5q-78 47 -122 126t-44 176q0 77 26.5 142t77.5 114q95 92 252 92q101 0 204 -37v-167h-74l-19 107l-14 17q-41 15 -79 15q-51 0 -93 -19t-72 -55.5t-46 -89t-16 -118.5q0 -67 16.5 -120t47.5 -89.5t75.5 -56 t100.5 -19.5q25 0 61 9l15 15l25 121h72v-172v0z" />
<glyph unicode="D" horiz-adv-x="716" d="M321 671q87 0 154 -23t113 -66.5t69.5 -105.5t23.5 -141q0 -178 -123 -272q-47 -36 -104.5 -49.5t-132.5 -13.5h-292v49l61 5l16 16v531l-16 16l-61 5v49h292zM238 56h58q236 0 236 280q0 142 -58 210.5t-178 68.5h-58v-559z" />
<glyph unicode="E" horiz-adv-x="596" d="M29 49l61 5l16 16v533l-16 14l-61 5v49h504v-157h-70l-15 88l-13 13h-199v-238h130l14 14l10 72h59v-232h-59l-10 72l-14 14h-130v-260h232l13 16l17 106h68v-179h-537v49z" />
<glyph unicode="F" horiz-adv-x="552" d="M30 49l60 5l16 16v533l-16 14l-64 5v49h502v-168h-69l-15 97l-13 13h-193v-249h134l14 13l10 73h59v-233h-59l-10 73l-14 13h-134v-233l17 -16l70 -5v-49h-295v49z" />
<glyph unicode="G" horiz-adv-x="710" d="M690 330v-49l-58 -5l-16 -14v-233q-117 -41 -224 -41q-79 0 -143.5 25.5t-111 72t-72 111.5t-25.5 143q0 77 26 140t73.5 108t115 69.5t150.5 24.5q100 0 211 -33v-170h-73l-19 106l-15 18q-39 16 -83 16q-56 0 -100.5 -19t-76 -55t-48 -87.5t-16.5 -117.5 q0 -136 66 -210.5t182 -74.5q16 0 55 3v204l-16 14l-74 5v49h292z" />
<glyph unicode="H" horiz-adv-x="760" d="M313 671v-49l-60 -5l-16 -16v-219h289v219l-15 16l-60 5v49h282v-49l-58 -5l-16 -16v-531l16 -16l58 -5v-49h-282v49l60 5l15 16v252h-289v-252l16 -16l60 -5v-49h-283v49l58 5l16 16v531l-16 16l-58 5v49h283z" />
<glyph unicode="I" horiz-adv-x="354" d="M30 49l66 5l16 16v533l-16 14l-66 5v49h299v-49l-67 -5l-16 -14v-533l16 -16l67 -5v-49h-299v49z" />
<glyph unicode="J" horiz-adv-x="465" d="M240 617l-70 5v49h294v-49l-61 -5l-16 -14v-341q0 -141 -54.5 -207.5t-177.5 -66.5q-70 0 -143 24v180h73l23 -132l14 -13q4 0 8 -0.5t8 -0.5q68 0 93 52.5t25 162.5v342z" />
<glyph unicode="K" horiz-adv-x="650" d="M30 49l61 5l15 16v533l-15 14l-61 5v49h284v-49l-59 -5l-16 -14v-262h28l217 263l-6 13l-56 5v49h225v-49l-70 -7l-190 -227l213 -333l72 -6v-49h-207v35l-168 259h-58v-224l16 -16l59 -5v-49h-284v49z" />
<glyph unicode="L" horiz-adv-x="543" d="M27 49l61 5l17 16v533l-14 14l-64 5v49h288v-49l-61 -5l-16 -14v-545h192l13 16l15 122h74v-196h-505v49z" />
<glyph unicode="M" horiz-adv-x="883" d="M25 49l64 7l14 18v530l-12 13l-66 6v48h262v-28l156 -459l155 458v29h265v-48l-68 -6l-11 -14v-533l11 -16l68 -5v-49h-277v49l62 5l10 16v537l-208 -607h-72l-203 602v-528l15 -18l62 -7v-49h-227v49z" />
<glyph unicode="N" horiz-adv-x="727" d="M26 48l59 8l18 18v529l-14 14l-64 5v49h230v-27l306 -475v428l-18 19l-61 8v47h228v-47l-59 -8l-17 -19v-597h-112l-346 537v-463l16 -18l62 -8v-48h-228v48z" />
<glyph unicode="O" horiz-adv-x="752" d="M41 339q0 165 103 260q94 87 234 87q128 0 220 -78q58 -50 88.5 -120t30.5 -155q0 -80 -27 -146t-80 -115q-46 -43 -104 -65.5t-121 -22.5q-78 0 -141.5 25.5t-108.5 72t-69.5 112t-24.5 145.5zM380 622q-42 0 -76.5 -19.5t-60 -56t-39.5 -89.5t-14 -120 q0 -69 14.5 -123.5t39.5 -92t59.5 -57t74.5 -19.5q41 0 76 19.5t60 56.5t39 90t14 119q0 69 -14 123.5t-38.5 92t-59 57t-75.5 19.5z" />
<glyph unicode="P" horiz-adv-x="587" d="M29 49l59 5l18 16v533l-15 14l-66 5v49h270q139 0 206 -47t67 -155q0 -104 -67.5 -163t-194.5 -59q-23 0 -68 3v-180l15 -16l71 -5v-49h-295v49zM238 307q10 -1 19 -1.5t17 -0.5q156 0 156 160q0 72 -35.5 110t-104.5 38h-52v-306z" />
<glyph unicode="Q" horiz-adv-x="752" d="M454 -2q2 -60 35 -88t100 -28q42 0 92 12v-51q-96 -21 -165 -21q-104 0 -153.5 40.5t-49.5 128.5v3q-63 10 -113.5 39t-86 73.5t-55 102.5t-19.5 127q0 115 58 207q43 66 116 105t161 39q135 0 224 -77q59 -51 90.5 -121.5t31.5 -156.5q0 -65 -19 -121.5t-53.5 -100 t-84 -73t-109.5 -39.5zM190 339q0 -68 14.5 -121.5t40.5 -91t61.5 -57t76.5 -19.5q40 0 74 19.5t58.5 56t38.5 89.5t14 120t-14.5 120.5t-40 90.5t-60.5 56.5t-77 19.5q-41 0 -75 -19t-58.5 -55.5t-38.5 -89t-14 -119.5z" />
<glyph unicode="R" horiz-adv-x="671" d="M335 671q117 0 176 -43.5t59 -127.5q0 -139 -172 -171q36 -8 62 -23t43 -39q23 -33 33.5 -71.5t24.5 -76.5q16 -41 42 -55.5t76 -14.5h13v-48q-26 -4 -51.5 -6t-48.5 -2q-32 0 -59 8.5t-45 22.5q-20 15 -32 31t-20 32.5t-13.5 34t-11.5 35.5q-12 36 -24 62t-29 43t-42 25 t-63 8h-17v-225l16 -16l61 -5v-49h-282v49l59 5l16 16v533l-16 14l-59 5v49h304zM236 353q10 -1 19 -1h17q81 0 119.5 32.5t38.5 101.5q0 62 -37.5 95t-110.5 33h-46v-261z" />
<glyph unicode="S" horiz-adv-x="568" d="M59 203h76l16 -120l13 -15q44 -14 88 -14q61 0 95 26.5t34 68.5q0 41 -26.5 70t-80.5 56q-30 15 -64 30.5t-67 43.5q-35 29 -52.5 64.5t-17.5 72.5q0 42 17 78t47.5 62.5t74 41.5t97.5 15q91 0 188 -34v-162h-72l-17 104l-14 14q-14 7 -31.5 10.5t-41.5 3.5 q-55 0 -86.5 -26.5t-31.5 -68.5q0 -35 20.5 -59.5t60.5 -48.5q23 -14 60.5 -28.5t82.5 -43.5q44 -28 67 -66.5t23 -83.5t-18.5 -82.5t-52.5 -64.5t-83.5 -42.5t-110.5 -15.5q-48 0 -97 8t-96 25v181z" />
<glyph unicode="T" horiz-adv-x="603" d="M593 671v-177h-69l-17 107l-15 13h-120v-544l17 -16l65 -5v-49h-299v49l65 5l17 16v544h-120l-16 -13l-16 -107h-69v177h577z" />
<glyph unicode="U" horiz-adv-x="705" d="M307 671v-49l-62 -5l-14 -14v-350q0 -97 36.5 -141.5t126.5 -44.5q83 0 117.5 47.5t34.5 147.5v337l-15 17l-64 6v49h227v-49l-61 -6l-14 -17v-347q0 -137 -61.5 -200.5t-202.5 -63.5q-75 0 -129 21.5t-85 60.5q-29 38 -36.5 83.5t-7.5 103.5v346l-14 14l-63 5v49h287z " />
<glyph unicode="V" horiz-adv-x="635" d="M254 671v-49l-58 -5l-11 -15l166 -456l161 456l-11 15l-60 5v49h219v-49l-65 -13l-222 -611h-101l-227 612l-66 12v49h275z" />
<glyph unicode="W" horiz-adv-x="946" d="M65 608l-63 14v49h262v-48l-62 -7l-8 -14l112 -415l144 484h101l148 -495l105 420l-12 14l-66 12v49h218v-49l-63 -14l-153 -608h-97l-155 512l-152 -512h-97z" />
<glyph unicode="X" horiz-adv-x="637" d="M297 671v-48l-60 -5l-8 -13l114 -186l130 183l-9 14l-55 7v48h224v-48l-62 -8l-186 -252l192 -302l67 -13v-48h-290v48l63 8l7 13l-122 200l-142 -198l6 -17l65 -6v-48h-231v48l64 10l195 267l-182 288l-63 10v48h283z" />
<glyph unicode="Y" horiz-adv-x="610" d="M262 671v-49l-56 -5l-9 -12l137 -254l143 245l-8 16l-60 11v48h218v-49l-59 -11l-190 -323v-219l16 -14l68 -5v-50h-300v50l67 5l16 14v195l-192 348l-64 10v49h273z" />
<glyph unicode="Z" horiz-adv-x="592" d="M544 671v-55l-350 -557h256l10 14l18 121h72v-194h-506v55l350 558h-226l-19 -12l-16 -107h-71v177h482z" />
<glyph unicode="[" horiz-adv-x="443" d="M405 708v-56h-154v-729h154v-55h-269v840h269z" />
<glyph unicode="\" horiz-adv-x="491" d="M68 671l418 -764h-75l-418 764h75z" />
<glyph unicode="]" horiz-adv-x="443" d="M312 708v-840h-270v55h154v730h-154v55h270z" />
<glyph unicode="^" horiz-adv-x="1000" d="M797 438h-51l-247 194l-247 -194h-51l246 276h105z" />
<glyph unicode="_" d="M500 -236h-500v84h500v-84z" />
<glyph unicode="`" d="M210 742l97 -190h-68l-153 190h124z" />
<glyph unicode="a" horiz-adv-x="544" d="M343 57q-48 -32 -89.5 -49t-82.5 -17q-29 0 -53 9.5t-41.5 27t-27 41t-9.5 52.5q0 43 18 71.5t55.5 49.5t95 36.5t135.5 33.5v30q0 54 -22.5 79t-72.5 25q-21 0 -48 -6v-94h-92q-23 0 -34.5 8.5t-11.5 28.5q0 21 15.5 42t44 37.5t68.5 26.5t90 10q52 0 88 -9.5t58 -31 t31.5 -55t9.5 -81.5v-259l13 -14l53 -5v-44h-178zM343 261q-44 -10 -76.5 -20.5t-53.5 -24t-31 -31t-10 -42.5q0 -35 19.5 -55t54.5 -20q38 0 97 30v163z" />
<glyph unicode="b" horiz-adv-x="577" d="M205 739v-286q81 45 145 45q43 0 79 -16.5t62 -46.5t41 -71.5t15 -92.5q0 -88 -40 -150.5t-118 -97.5q-56 -24 -170 -24h-27l-111 2v652h-72v39l148 47h48zM205 54q8 -1 16 -1h16q91 0 133.5 46.5t42.5 145.5q0 86 -38 130.5t-107 44.5q-25 0 -63 -8v-358z" />
<glyph unicode="c" horiz-adv-x="476" d="M464 45q-48 -26 -94.5 -39.5t-94.5 -13.5q-54 0 -98.5 18t-76 50.5t-48.5 78t-17 99.5q0 57 19 104.5t53.5 82t82 53.5t103.5 19q78 0 121.5 -31.5t43.5 -77.5q0 -29 -20 -48.5t-52 -19.5q-33 0 -59 19v106q-15 3 -25 3q-26 0 -50 -13t-42 -37t-28.5 -58.5t-10.5 -77.5 q0 -91 42 -141t112 -50q65 0 139 45v-71v0z" />
<glyph unicode="d" horiz-adv-x="596" d="M316 652v40l149 47h46v-675l14 -16l51 -4v-44h-187v56q-43 -32 -81.5 -48.5t-76.5 -16.5q-42 0 -77.5 17.5t-61.5 49t-40.5 76t-14.5 98.5q0 60 19 109.5t53 85t81.5 54.5t104.5 19q20 0 43.5 -2.5t50.5 -7.5v162h-73zM389 429q-44 15 -74 15q-64 0 -104 -50.5 t-40 -140.5q0 -85 35.5 -131t98.5 -46q18 0 39 5t45 14v334z" />
<glyph unicode="e" horiz-adv-x="524" d="M491 50q-101 -59 -207 -59q-56 0 -101.5 18t-78 51t-50 79t-17.5 103t18.5 104.5t51 81.5t78 53t99.5 19q99 0 153.5 -58.5t54.5 -167.5v-19h-327v-3q0 -87 43 -135t118 -48q79 0 165 55v-74zM361 319q0 63 -22.5 94.5t-64.5 31.5q-45 0 -73.5 -35.5t-30.5 -101.5h191v11 z" />
<glyph unicode="f" horiz-adv-x="341" d="M31 46l50 5l14 16v347h-65v38l65 30q0 144 102 219q28 21 59 31.5t62 10.5q44 0 69 -20.5t25 -52.5q0 -42 -58 -62l-97 86q-39 -41 -39 -152v-8v-60h134v-60h-134v-348l16 -15l67 -5v-46h-270v46z" />
<glyph unicode="g" horiz-adv-x="551" d="M555 468v-57h-108q22 -38 22 -77q0 -36 -14.5 -66.5t-42 -52.5t-67 -34.5t-88.5 -12.5h-14t-15 1q-8 -21 -8 -37q0 -12 3 -27l68 -9q54 -8 95 -18t68.5 -26t41.5 -38t14 -54q0 -35 -19.5 -67t-54.5 -56.5t-85 -39t-110 -14.5q-100 0 -153.5 37.5t-53.5 99.5q0 47 27.5 76 t75.5 34q-13 27 -13 50q0 25 13.5 47.5t41.5 47.5q-61 17 -92.5 56.5t-31.5 93.5q0 38 14.5 70t42.5 54.5t67.5 35t89.5 12.5q67 0 138 -29h148zM267 450q-38 0 -61 -30.5t-23 -85.5q0 -57 23 -89t59 -32q35 0 58 32.5t23 89.5q0 54 -23 84.5t-56 30.5zM198 19 q-42 -35 -42 -83q0 -41 32.5 -70.5t83.5 -29.5q27 0 49 7.5t37.5 20.5t24 30t8.5 36q0 37 -27 51.5t-81 23.5z" />
<glyph unicode="h" horiz-adv-x="597" d="M212 739v-302q54 29 95.5 45t75.5 16q137 0 137 -166v-268l13 -15l53 -4v-45h-245v45l43 4l14 15v239q0 56 -21.5 82t-68.5 26q-37 0 -96 -17v-330l15 -15l44 -4v-45h-247v45l51 4l14 15v589h-73v39l148 47h48z" />
<glyph unicode="i" horiz-adv-x="305" d="M162 724q34 0 54.5 -21t20.5 -52q0 -34 -21 -55t-53 -21q-30 0 -51.5 20.5t-21.5 53.5q0 32 20.5 53.5t51.5 21.5zM221 496v-432l15 -15l56 -4v-45h-262v45l54 4l14 15v345h-66v40l141 47h48z" />
<glyph unicode="j" horiz-adv-x="297" d="M38 409v39l151 48h42v-398q0 -75 -10 -131.5t-44 -100.5q-29 -38 -73.5 -59t-92.5 -21q-42 0 -66.5 20t-24.5 50q0 24 15.5 42.5t42.5 23.5l98 -91q19 26 26 75t7 123v380h-71zM94 649q0 33 20.5 54t54.5 21q31 0 52 -21.5t21 -54.5q0 -31 -22 -52t-53 -21 q-30 0 -51.5 20.5t-21.5 53.5z" />
<glyph unicode="k" horiz-adv-x="553" d="M25 44l52 5l14 15v589h-73v39l154 47h42v-480h22l143 167l-7 11l-44 5v44h204v-44l-65 -8l-114 -127l159 -258l59 -5v-44h-192v39l-116 187h-49v-164l13 -14l50 -4v-44h-252v44z" />
<glyph unicode="l" horiz-adv-x="304" d="M23 44l58 6l14 14v588h-72v39l151 48h44v-673l15 -16l58 -6v-44h-268v44z" />
<glyph unicode="m" horiz-adv-x="892" d="M501 430q60 35 104.5 51.5t72.5 16.5q139 0 139 -166v-268l13 -15l53 -4v-45h-246v45l43 4l14 15v239q0 57 -21 82.5t-71 25.5q-19 0 -40 -5t-46 -14v-328l14 -15l45 -5v-44h-236v45l41 4l14 17v243q0 53 -21 78t-69 25q-36 0 -84 -18v-330l14 -15l42 -4v-45h-245v45 l51 4l14 15v345h-65v40l141 47h48v-59q51 30 91 46.5t73 16.5q76 0 117 -70z" />
<glyph unicode="n" horiz-adv-x="605" d="M31 45l51 4l14 15v345h-68v40l144 47h48v-59q54 29 96 45t75 16q136 0 136 -166v-268l13 -15l53 -4v-45h-245v45l43 4l14 15v239q0 56 -21 82t-69 26q-36 0 -95 -17v-330l14 -15l44 -4v-45h-247v45z" />
<glyph unicode="o" horiz-adv-x="577" d="M296 499q57 0 103.5 -18t79.5 -51.5t50.5 -81t17.5 -107.5q0 -56 -18.5 -101.5t-52 -78.5t-81.5 -51t-107 -18q-56 0 -102.5 18t-79.5 51t-51 79t-18 103q0 58 18.5 105t52 80.5t81.5 52t107 18.5zM292 446q-54 0 -85 -51t-31 -148q0 -99 31 -150.5t84 -51.5 q56 0 87 50.5t31 148.5q0 99 -31.5 150.5t-85.5 51.5z" />
<glyph unicode="p" horiz-adv-x="591" d="M23 -173l54 5l14 15v562h-69v40l146 47h45v-60q45 31 83 47t75 16q40 0 74.5 -17t60 -48.5t40 -75t14.5 -95.5q0 -60 -18.5 -109t-53 -83.5t-83.5 -53t-110 -18.5q-33 0 -82 6v-160l15 -14l63 -4l-1 -46h-267v46zM213 60q32 -7 64 -7q66 0 106.5 51.5t40.5 141.5 q0 81 -35.5 124t-96.5 43q-32 0 -79 -19v-334z" />
<glyph unicode="q" horiz-adv-x="575" d="M509 486q-3 -51 -3 -58v-583l15 -14l50 -4v-45h-267v46l64 4l15 14v197q-85 -47 -149 -47q-42 0 -78.5 17t-62.5 47.5t-41 73.5t-15 95q0 128 81.5 199t234.5 71q34 0 72.5 -3.5t83.5 -9.5zM383 439q-14 2 -26 3.5t-24 1.5q-78 0 -119.5 -50t-41.5 -144q0 -85 37.5 -130 t103.5 -45q14 0 32 1.5t38 5.5v357z" />
<glyph unicode="r" horiz-adv-x="421" d="M29 45l53 4l14 15v345h-72v40l147 47h48l-4 -102q27 29 56.5 54.5t60.5 47.5q5 1 11 1.5t11 0.5q32 0 66 -17l-13 -138h-52q-22 36 -65 36q-25 0 -71 -28v-287l15 -15l71 -4v-45h-276v45z" />
<glyph unicode="s" horiz-adv-x="447" d="M395 342h-60l-10 75l-12 11q-34 16 -66 16q-37 0 -56.5 -16t-19.5 -44q0 -16 6 -27.5t18 -21.5t29.5 -19t39.5 -20q33 -16 60 -30t46 -30t29.5 -35.5t10.5 -46.5q0 -76 -53.5 -120.5t-150.5 -44.5q-74 0 -165 25v148h61l11 -86l10 -11q39 -21 84 -21q41 0 63 19.5 t22 52.5q0 20 -9.5 33.5t-27 24t-42 20.5t-53.5 25q-56 28 -84 57.5t-28 74.5q0 65 51.5 107t144.5 42q76 0 151 -25v-133z" />
<glyph unicode="t" horiz-adv-x="358" d="M19 414v38l74 42l52 104h63v-124h148v-60h-148v-249q0 -27 3.5 -45.5t13 -30t25.5 -16.5t41 -5q37 0 65 7v-48q-45 -17 -83.5 -24.5t-69.5 -7.5q-25 0 -45.5 5t-37.5 17q-26 17 -31 42.5t-5 63.5v291h-65z" />
<glyph unicode="u" horiz-adv-x="600" d="M212 499v-310q0 -59 21.5 -85.5t73.5 -26.5q19 0 40 4t46 12v319h-65v39l142 48h46v-435l14 -15l52 -4v-45h-189v55q-48 -31 -88 -47.5t-80 -16.5q-137 0 -137 171v250h-65v39l141 48h48z" />
<glyph unicode="v" horiz-adv-x="513" d="M248 487v-46l-52 -5l-11 -13l104 -292l114 291l-8 14l-51 5v46h190v-46l-58 -7l-172 -434h-90l-160 435l-60 6v46h254z" />
<glyph unicode="w" horiz-adv-x="799" d="M247 487v-46l-49 -7l-11 -14l81 -288l117 355h100l109 -355l88 289l-7 14l-53 6v46h189v-46l-56 -7l-136 -434h-101l-111 359l-119 -359h-100l-129 435l-60 6v46h248z" />
<glyph unicode="x" horiz-adv-x="531" d="M255 487v-42l-38 -6l-5 -11l80 -119l87 125l-51 9v44h184v-46l-55 -7l-128 -166l149 -215l53 -9v-44h-234v39l35 9l4 10l-88 134l-94 -138l51 -10v-44h-194v44l59 11l140 179l-139 199l-57 8v46h241z" />
<glyph unicode="y" horiz-adv-x="515" d="M250 486v-43l-51 -6l-10 -14l108 -283l109 282l-9 15l-53 6v43h192v-43l-54 -9l-193 -469q-37 -89 -86.5 -136.5t-99.5 -47.5q-37 0 -61.5 22.5t-24.5 51.5q0 22 13.5 40t38.5 31l87 -60q41 33 78 122l-178 446l-60 9v43h254z" />
<glyph unicode="z" horiz-adv-x="495" d="M46 62l258 370h-162l-13 -14l-10 -83h-65v151h396v-52l-265 -378h185l15 16l12 92h68v-164h-419v62z" />
<glyph unicode="{" horiz-adv-x="493" d="M421 654q-37 -1 -61 -8t-37.5 -22t-19 -38t-5.5 -57v-63q0 -79 -34 -120.5t-111 -54.5q75 -12 110.5 -53.5t35.5 -118.5v-73q0 -36 5 -60t18.5 -39t37 -21.5t61.5 -6.5v-53q-8 0 -15 -0.5t-15 -0.5q-57 0 -97 9.5t-64.5 31.5t-35.5 57.5t-11 87.5v81q0 36 -6 61 t-19.5 40.5t-36 22.5t-55.5 7h-20v57h20q34 0 56.5 7t36 22t19 39.5t5.5 59.5v84q0 48 12 81t38.5 53.5t67.5 29.5t99 9h21v-51z" />
<glyph unicode="|" d="M294 -236h-87v1000h87v-1000z" />
<glyph unicode="}" horiz-adv-x="493" d="M83 705q59 0 100.5 -9t67.5 -29t38 -53.5t12 -81.5v-84q0 -70 24.5 -99.5t89.5 -29.5q5 0 10.5 0.5t11.5 0.5v-57h-20q-33 0 -55.5 -7t-36 -22.5t-19.5 -40.5t-6 -61v-81q0 -52 -11 -87.5t-35.5 -57.5t-64.5 -31.5t-97 -9.5q-8 0 -15 0.5t-15 0.5v53q38 0 62 7t37.5 22 t18.5 39t5 59v73q0 77 35 118.5t110 53.5q-77 13 -110.5 54.5t-33.5 120.5v63q0 34 -5.5 57.5t-19.5 38t-38 21.5t-61 8v51h21z" />
<glyph unicode="~" horiz-adv-x="833" d="M747 293q-49 -34 -95 -51.5t-91 -17.5q-44 0 -93 17q-52 17 -98.5 33t-94.5 16q-44 0 -89 -20t-99 -58v91q103 70 189 70q43 0 77.5 -9t65.5 -20q37 -13 71.5 -24.5t71.5 -11.5q44 0 89 19t96 56v-90v0z" />
<glyph unicode="&#xa1;" horiz-adv-x="340" d="M170 532q-31 0 -53 22.5t-22 54.5t22 53.5t53 21.5q30 0 52.5 -21.5t22.5 -53.5t-22 -54.5t-53 -22.5zM143 479h52l46 -355q2 -17 3.5 -30.5t1.5 -24.5q0 -35 -21 -56t-56 -21t-55 22t-20 61q0 8 0.5 19.5t2.5 27.5z" />
<glyph unicode="&#xa2;" horiz-adv-x="581" d="M360 612v-100q36 -1 71.5 -8t71.5 -21v-144h-59l-15 98q-17 10 -34.5 14t-34.5 4v-398q36 0 69 15l15 104h60v-151q-30 -11 -66 -16.5t-78 -7.5v-103h-55v104q-56 4 -101.5 24.5t-77.5 53.5t-49.5 77t-17.5 96q0 53 17 98t48.5 78.5t77.5 54t103 26.5v102h55zM305 453 q-56 -16 -87.5 -68t-31.5 -133q0 -75 32.5 -126.5t86.5 -66.5v394z" />
<glyph unicode="&#xa3;" horiz-adv-x="581" d="M421 620q-10 3 -19 4t-18 1q-65 0 -91.5 -50.5t-26.5 -156.5q0 -14 0.5 -28.5t1.5 -30.5h181v-60h-180q0 -72 -24.5 -120.5t-76.5 -77.5l2 -8q25 4 42.5 5.5t28.5 1.5h299v-100h-497v72q59 15 81.5 60t22.5 131q0 9 -0.5 18t-0.5 18h-70v60h69q-3 30 -3 58q0 128 60 195 t166 67q38 0 69.5 -9.5t54 -25t34.5 -36.5t12 -44q0 -29 -21 -48.5t-56 -19.5q-13 0 -40 8v116z" />
<glyph unicode="&#xa4;" horiz-adv-x="606" d="M181 599q53 40 122 40q70 0 123 -40l99 99l46 -45l-100 -100q39 -53 39 -121q0 -69 -39 -121l100 -100l-46 -45l-99 100q-55 -40 -122 -40q-70 0 -123 40l-99 -100l-45 45l99 100q-39 52 -39 121q0 68 39 121l-99 100l45 45zM446 432q0 29 -11 54.5t-30.5 45t-45.5 31 t-55 11.5t-55 -11.5t-45.5 -31t-30.5 -45t-11 -54.5t11 -55t30.5 -45t45 -30t55.5 -11t55.5 11t45 30t30.5 45t11 55z" />
<glyph unicode="&#xa5;" horiz-adv-x="595" d="M256 671v-49l-54 -5l-9 -12l131 -254l135 245l-8 16l-56 11v48h208v-49l-56 -11l-101 -181h132v-50h-162l-53 -96h215v-49h-213v-166l16 -14l70 -5v-50h-299v50l68 5l17 14v166h-215v49h205l-49 96h-156v50h126l-94 182l-61 10v49h263z" />
<glyph unicode="&#xa6;" d="M294 329h-87v370h87v-370zM294 -171h-87v370h87v-370z" />
<glyph unicode="&#xa7;" d="M423 559h-53l-10 82q-50 27 -91 27q-43 0 -69.5 -22.5t-26.5 -56.5q0 -21 10 -35.5t28.5 -26.5t45 -24t58.5 -28q71 -35 105 -75t34 -94q0 -51 -31.5 -95.5t-89.5 -67.5q52 -27 76.5 -58t24.5 -74q0 -67 -53 -110t-150 -43q-78 0 -160 32l-1 137h58l13 -91q47 -25 92 -25 t71 23t26 56q0 24 -11.5 40.5t-33.5 30.5t-52.5 28.5t-67.5 32.5q-119 57 -119 164q0 106 118 157q-51 26 -74.5 57t-23.5 74q0 66 53 105.5t152 39.5q72 0 152 -24v-136zM216 415q-42 -16 -63 -42t-21 -59q0 -45 38 -76.5t114 -66.5q41 24 61 49.5t20 56.5q0 41 -37 73.5 t-112 64.5z" />
<glyph unicode="&#xa8;" d="M147 710q26 0 44.5 -19t18.5 -47q0 -27 -18.5 -46t-44.5 -19t-45 19t-19 46q0 28 19 47t45 19zM353 710q26 0 44.5 -19t18.5 -47q0 -27 -18.5 -46t-44.5 -19q-27 0 -45 19t-18 46q0 28 18.5 47t44.5 19z" />
<glyph unicode="&#xa9;" horiz-adv-x="876" d="M444 729q75 0 146 -30t125 -86q52 -54 80.5 -126t28.5 -151q0 -75 -30 -146.5t-87 -128.5q-54 -54 -122 -82.5t-147 -28.5q-72 0 -140.5 29.5t-123.5 85.5t-83.5 125.5t-28.5 148.5q0 78 28.5 148t82.5 127q54 56 124 85.5t147 29.5zM444 684q-67 0 -128 -26.5 t-109 -75.5q-48 -50 -72.5 -111.5t-24.5 -130.5q0 -71 25 -132.5t73 -110.5q99 -101 235 -101q67 0 126.5 25.5t107.5 75.5q48 51 73.5 113t25.5 130q0 69 -25.5 132.5t-72.5 111.5q-48 48 -109 74t-125 26zM600 427h-53l-15 80q-29 18 -61 18q-33 0 -60.5 -13.5t-47.5 -38 t-31 -58.5t-11 -76q0 -43 11 -77.5t31 -59t47 -37.5t59 -13q31 0 64 15l15 86h52v-125q-66 -25 -148 -25q-53 0 -97 17.5t-76 48.5t-49.5 74t-17.5 95q0 51 17.5 94.5t50 74.5t78 48.5t101.5 17.5q75 0 141 -25v-121z" />
<glyph unicode="&#xaa;" horiz-adv-x="408" d="M257 370q-36 -23 -67 -34.5t-62 -11.5q-43 0 -70.5 25t-27.5 66q0 30 13.5 50t41.5 34t71 25.5t102 23.5v21q0 38 -17 55.5t-54 17.5q-19 0 -36 -4v-66h-69q-35 0 -35 26q0 15 11.5 29.5t33 26t52 18.5t67.5 7q39 0 66 -6.5t43.5 -21.5t23.5 -38.5t7 -57.5v-181l10 -10 l40 -3v-31h-134zM257 513q-66 -14 -97 -31t-31 -52q0 -24 15 -38t41 -14q28 0 72 21v114z" />
<glyph unicode="&#xab;" horiz-adv-x="449" d="M208 342l-108 -102l108 -102v-84l-173 144v84l173 144v-84zM404 342l-108 -102l108 -102v-84l-173 144v84l173 144v-84z" />
<glyph unicode="&#xac;" horiz-adv-x="833" d="M709 176h-81v164h-504v81h585v-245z" />
<glyph unicode="&#xae;" horiz-adv-x="876" d="M444 729q75 0 146 -30t125 -86q52 -54 80.5 -126t28.5 -151q0 -75 -30 -146.5t-87 -128.5q-54 -54 -122 -82.5t-147 -28.5q-72 0 -140.5 29.5t-123.5 85.5t-83.5 125.5t-28.5 148.5q0 78 28.5 148t82.5 127q54 56 124 85.5t147 29.5zM444 684q-66 0 -127.5 -26 t-109.5 -76t-72.5 -111.5t-24.5 -131.5q0 -69 24 -130t71 -109q101 -104 238 -104q67 0 126.5 25.5t107.5 75.5t73.5 112t25.5 131t-25 131.5t-70 109.5q-48 50 -109.5 76.5t-127.5 26.5zM464 559q155 0 155 -108q0 -90 -119 -113q28 -6 45.5 -17.5t29 -27t18.5 -34.5 t15 -40q12 -33 28.5 -46.5t53.5 -13.5h5v-37q-42 -6 -61 -6q-48 0 -78 20q-15 10 -24 22t-14.5 25.5t-9.5 28.5t-10 30q-14 38 -35 54.5t-61 16.5h-11v-144l57 -11v-37h-201v36l50 11v344l-53 12v35h220zM391 355q5 -1 10 -1h10q53 0 79 21.5t26 61.5q0 39 -26.5 60.5 t-78.5 21.5h-10t-10 -1v-163z" />
<glyph unicode="&#xaf;" d="M417 675v-71h-331v71h331z" />
<glyph unicode="&#xb0;" horiz-adv-x="329" d="M165 713q30 0 56 -11.5t45.5 -31t31 -46t11.5 -56.5q0 -29 -11.5 -55.5t-31 -46t-46 -31t-56.5 -11.5t-56 11t-45.5 30.5t-30.5 46t-11 56.5t11 56.5t30.5 46t46 31t56.5 11.5zM255 569q0 38 -26 64t-64 26t-64.5 -26t-26.5 -64t26.5 -64.5t64.5 -26.5q19 0 35.5 7.5 t28.5 20t19 29t7 34.5z" />
<glyph unicode="&#xb1;" horiz-adv-x="833" d="M458 426h251v-81h-251v-163h-83v163h-251v81h251v163h83v-163zM709 7h-585v82h585v-82z" />
<glyph unicode="&#xb2;" horiz-adv-x="383" d="M299 329l12 53h40v-114h-319v47q104 74 159 129t55 111q0 41 -21.5 62.5t-59.5 21.5q-20 0 -38 -7v-77q-24 -11 -42 -11q-22 0 -34.5 11.5t-12.5 30.5q0 38 41.5 65t113.5 27q66 0 105 -32.5t39 -84.5q0 -29 -14 -56t-42 -55t-70 -57.5t-97 -63.5h185z" />
<glyph unicode="&#xb3;" horiz-adv-x="383" d="M220 480q61 -5 93 -30t32 -66q0 -26 -12.5 -48t-36.5 -39t-58 -26.5t-77 -9.5q-30 0 -55 6t-42 16.5t-26.5 24t-9.5 28.5q0 18 12.5 28.5t34.5 10.5q12 0 25 -4l21 -65q27 -9 46 -9q38 0 63 24t25 59q0 33 -24.5 53.5t-66.5 20.5q-14 0 -41 -3v43h20q47 0 72 19t25 54 q0 32 -23 52t-59 20q-8 0 -17.5 -2t-19.5 -5v-71q-15 -8 -35 -8q-22 0 -35 11.5t-13 29.5q0 33 40 58t107 25q66 0 105 -28.5t39 -72.5q0 -73 -109 -96z" />
<glyph unicode="&#xb4;" d="M427 742l-154 -190h-67l97 190h124z" />
<glyph unicode="&#xb5;" horiz-adv-x="578" d="M86 432h101l-49 -228q-10 -46 -10 -68q0 -32 18 -49.5t50 -17.5q43 0 68 26t37 82l54 255h102l-55 -260q-3 -14 -6 -29t-3 -32q0 -21 11 -32.5t31 -11.5q38 0 63 44q6 10 9.5 19.5t7.5 17t8 12t11 4.5q11 0 11 -15q0 -11 -7 -38.5t-21 -52.5q-40 -70 -107 -70 q-41 0 -63 26t-23 77q-42 -103 -130 -103q-48 0 -76.5 28t-33.5 82q-14 -77 -20.5 -134t-13.5 -94.5t-18.5 -56t-36.5 -18.5q-23 0 -35.5 13t-12.5 36q0 19 8 49.5t20.5 72.5t28 95.5t29.5 120.5z" />
<glyph unicode="&#xb6;" horiz-adv-x="491" d="M457 671v-43l-61 -10v-697h-57v702h-70v-361h-17q-233 0 -233 202q0 110 58.5 158.5t183.5 48.5h196z" />
<glyph unicode="&#xb7;" horiz-adv-x="289" d="M144 415q33 0 56.5 -23.5t23.5 -56.5q0 -32 -23.5 -55.5t-56.5 -23.5q-32 0 -55 23t-23 56t23 56.5t55 23.5z" />
<glyph unicode="&#xb8;" d="M276 0v-57q4 1 8 1h8q39 0 60 -20.5t21 -55.5q0 -44 -32 -71t-88 -27q-20 0 -40 3t-41 8v47q20 -4 35 -6t26 -2q62 0 62 37q0 15 -11.5 24t-33.5 9q-5 0 -10.5 -0.5t-11.5 -1.5v112h48z" />
<glyph unicode="&#xb9;" horiz-adv-x="383" d="M258 677v-367l7 -10l62 -2v-30h-229v30l66 4l8 10v296l-6 7l-94 -13v31l143 44h43z" />
<glyph unicode="&#xba;" horiz-adv-x="433" d="M222 679q87 0 137.5 -48t50.5 -132q0 -39 -13.5 -71t-39 -55.5t-61 -36t-80.5 -12.5q-42 0 -76.5 12.5t-59.5 35.5t-38.5 55.5t-13.5 72.5t13.5 73.5t39 56.5t61.5 36t80 13zM219 642q-40 0 -63.5 -35.5t-23.5 -103.5q0 -69 23.5 -105.5t62.5 -36.5q42 0 65.5 35.5 t23.5 104.5t-24 105t-64 36z" />
<glyph unicode="&#xbb;" horiz-adv-x="449" d="M412 282v-84l-173 -144v84l108 102l-108 102v84zM215 282v-84l-172 -144v84l108 102l-108 102v84z" />
<glyph unicode="&#xbc;" horiz-adv-x="899" d="M246 676v-342l7 -9l59 -2v-28h-219v28l63 3l8 10v276l-6 7l-89 -12v28l136 41h41zM698 671l-427 -671h-71l428 671h70zM818 379v-233h72v-45h-72v-118h-73v118h-196v46l208 232h61zM606 146h139v156z" />
<glyph unicode="&#xbd;" horiz-adv-x="899" d="M246 676v-342l7 -9l59 -2v-28h-219v28l63 3l8 10v276l-6 7l-89 -12v28l136 41h41zM698 671l-427 -671h-71l428 671h70zM818 57l12 49h38v-106h-305v44q50 34 88 63.5t64 56.5t39.5 52.5t13.5 51.5q0 38 -21 58.5t-57 20.5q-8 0 -17 -2t-19 -5v-72q-20 -10 -40 -10 t-32.5 10.5t-12.5 28.5q0 35 39.5 60t108.5 25q63 0 100.5 -30t37.5 -79q0 -53 -54 -102.5t-159 -113.5h176z" />
<glyph unicode="&#xbe;" horiz-adv-x="899" d="M210 493q58 -4 88.5 -28t30.5 -62q0 -24 -12 -44.5t-35 -36t-55.5 -24.5t-72.5 -9q-59 0 -93.5 21t-34.5 49q0 17 12.5 26.5t32.5 9.5q12 0 25 -4l20 -61q26 -8 43 -8q36 0 60.5 22.5t24.5 55.5q0 31 -23.5 50t-63.5 19q-14 0 -39 -3v40h18q45 0 69 18t24 50 q0 30 -21.5 48.5t-56.5 18.5q-18 0 -36 -7v-65q-13 -8 -33 -8t-32.5 11t-12.5 28q0 30 37.5 53.5t102.5 23.5q63 0 100 -26.5t37 -68.5q0 -68 -104 -89zM698 671l-427 -671h-71l428 671h70zM818 379v-233h72v-45h-72v-118h-73v118h-196v46l208 232h61zM606 146h139v156z" />
<glyph unicode="&#xbf;" horiz-adv-x="487" d="M278 683q31 0 53 -21.5t22 -53.5t-22 -54.5t-53 -22.5q-32 0 -53.5 22.5t-21.5 54.5t21.5 53.5t53.5 21.5zM312 483v-135q-144 -50 -144 -171q0 -60 33.5 -93t95.5 -33h3l45 113q5 1 10 1h10q35 0 54.5 -16.5t19.5 -45.5q0 -23 -12 -43t-35 -35t-56 -24t-74 -9 q-51 0 -92.5 13.5t-71 38.5t-45 58.5t-15.5 74.5q0 147 209 215v91h65z" />
<glyph unicode="&#xc0;" horiz-adv-x="651" d="M380 678l230 -619l59 -10v-49h-270v49l63 6l7 13l-60 170h-218l-60 -169l10 -13l63 -7v-49h-215v49l60 9l226 620h105zM210 294h176l-89 247zM286 929l97 -190h-68l-153 190h124z" />
<glyph unicode="&#xc1;" horiz-adv-x="651" d="M380 678l230 -619l59 -10v-49h-270v49l63 6l7 13l-60 170h-218l-60 -169l10 -13l63 -7v-49h-215v49l60 9l226 620h105zM210 294h176l-89 247zM503 929l-154 -190h-67l97 190h124z" />
<glyph unicode="&#xc2;" horiz-adv-x="651" d="M380 678l230 -619l59 -10v-49h-270v49l63 6l7 13l-60 170h-218l-60 -169l10 -13l63 -7v-49h-215v49l60 9l226 620h105zM210 294h176l-89 247zM370 929l110 -190h-77l-77 125l-76 -125h-78l110 190h88z" />
<glyph unicode="&#xc3;" horiz-adv-x="651" d="M380 678l230 -619l59 -10v-49h-270v49l63 6l7 13l-60 170h-218l-60 -169l10 -13l63 -7v-49h-215v49l60 9l226 620h105zM210 294h176l-89 247zM487 909v-16q0 -58 -23.5 -88.5t-63.5 -30.5q-24 0 -45.5 7t-40 16t-33.5 16t-26 7q-37 0 -37 -53v-10h-55v17q0 58 22.5 88.5 t64.5 30.5q22 0 42.5 -7.5t38.5 -16t34 -16t29 -7.5q39 0 39 55v8h54z" />
<glyph unicode="&#xc4;" horiz-adv-x="651" d="M380 678l230 -619l59 -10v-49h-270v49l63 6l7 13l-60 170h-218l-60 -169l10 -13l63 -7v-49h-215v49l60 9l226 620h105zM210 294h176l-89 247zM223 897q26 0 44.5 -19t18.5 -47q0 -27 -18.5 -46t-44.5 -19t-45 19t-19 46q0 28 19 47t45 19zM429 897q26 0 44.5 -19 t18.5 -47q0 -27 -18.5 -46t-44.5 -19q-27 0 -45 19t-18 46q0 28 18.5 47t44.5 19z" />
<glyph unicode="&#xc5;" horiz-adv-x="651" d="M316 963q24 0 45.5 -9.5t37.5 -25.5t25 -37.5t9 -46.5t-9 -46.5t-25 -37.5t-37.5 -25t-45.5 -9t-45.5 9t-37 25t-24.5 37.5t-9 46.5t9 46.5t24.5 37.5t37 25.5t45.5 9.5zM316 911q-26 0 -45 -19t-19 -48q0 -28 19 -47t45 -19q27 0 46 19t19 47t-19 47.5t-46 19.5z M380 678l230 -619l59 -10v-49h-270v49l63 6l7 13l-60 170h-218l-60 -169l10 -13l63 -7v-49h-215v49l60 9l226 620h105zM210 294h176l-89 247z" />
<glyph unicode="&#xc6;" horiz-adv-x="890" d="M830 671v-157h-70l-15 88l-13 13h-188v-238h119l14 14l10 72h58v-232h-58l-10 72l-14 14h-119v-260h220l14 16l17 106h68v-179h-523v49l61 5l16 16v175h-223l-105 -176l7 -13l60 -7v-49h-214v49l60 7l328 546l-11 15l-57 5v49h568zM229 304h188v312z" />
<glyph unicode="&#xc7;" horiz-adv-x="638" d="M601 24q-101 -36 -210 -36q-54 0 -100.5 11.5t-83.5 33.5q-78 47 -122 126t-44 176q0 77 26.5 142t77.5 114q95 92 252 92q101 0 204 -37v-167h-74l-19 107l-14 17q-41 15 -79 15q-51 0 -93 -19t-72 -55.5t-46 -89t-16 -118.5q0 -67 16.5 -120t47.5 -89.5t75.5 -56 t100.5 -19.5q25 0 61 9l15 15l25 121h72v-172v0zM411 0v-57q4 1 8 1h8q39 0 60 -20.5t21 -55.5q0 -44 -32 -71t-88 -27q-20 0 -40 3t-41 8v47q20 -4 35 -6t26 -2q62 0 62 37q0 15 -11.5 24t-33.5 9q-5 0 -10.5 -0.5t-11.5 -1.5v112h48z" />
<glyph unicode="&#xc8;" horiz-adv-x="596" d="M29 49l61 5l16 16v533l-16 14l-61 5v49h504v-157h-70l-15 88l-13 13h-199v-238h130l14 14l10 72h59v-232h-59l-10 72l-14 14h-130v-260h232l13 16l17 106h68v-179h-537v49zM258 929l97 -190h-68l-153 190h124z" />
<glyph unicode="&#xc9;" horiz-adv-x="596" d="M29 49l61 5l16 16v533l-16 14l-61 5v49h504v-157h-70l-15 88l-13 13h-199v-238h130l14 14l10 72h59v-232h-59l-10 72l-14 14h-130v-260h232l13 16l17 106h68v-179h-537v49zM475 929l-154 -190h-67l97 190h124z" />
<glyph unicode="&#xca;" horiz-adv-x="596" d="M29 49l61 5l16 16v533l-16 14l-61 5v49h504v-157h-70l-15 88l-13 13h-199v-238h130l14 14l10 72h59v-232h-59l-10 72l-14 14h-130v-260h232l13 16l17 106h68v-179h-537v49zM342 929l110 -190h-77l-77 125l-76 -125h-78l110 190h88z" />
<glyph unicode="&#xcb;" horiz-adv-x="596" d="M29 49l61 5l16 16v533l-16 14l-61 5v49h504v-157h-70l-15 88l-13 13h-199v-238h130l14 14l10 72h59v-232h-59l-10 72l-14 14h-130v-260h232l13 16l17 106h68v-179h-537v49zM195 897q26 0 44.5 -19t18.5 -47q0 -27 -18.5 -46t-44.5 -19t-45 19t-19 46q0 28 19 47t45 19z M401 897q26 0 44.5 -19t18.5 -47q0 -27 -18.5 -46t-44.5 -19q-27 0 -45 19t-18 46q0 28 18.5 47t44.5 19z" />
<glyph unicode="&#xcc;" horiz-adv-x="354" d="M30 49l66 5l16 16v533l-16 14l-66 5v49h299v-49l-67 -5l-16 -14v-533l16 -16l67 -5v-49h-299v49zM138 929l97 -190h-68l-153 190h124z" />
<glyph unicode="&#xcd;" horiz-adv-x="354" d="M30 49l66 5l16 16v533l-16 14l-66 5v49h299v-49l-67 -5l-16 -14v-533l16 -16l67 -5v-49h-299v49zM355 929l-154 -190h-67l97 190h124z" />
<glyph unicode="&#xce;" horiz-adv-x="354" d="M30 49l66 5l16 16v533l-16 14l-66 5v49h299v-49l-67 -5l-16 -14v-533l16 -16l67 -5v-49h-299v49zM222 929l110 -190h-77l-77 125l-76 -125h-78l110 190h88z" />
<glyph unicode="&#xcf;" horiz-adv-x="354" d="M30 49l66 5l16 16v533l-16 14l-66 5v49h299v-49l-67 -5l-16 -14v-533l16 -16l67 -5v-49h-299v49zM75 897q26 0 44.5 -19t18.5 -47q0 -27 -18.5 -46t-44.5 -19t-45 19t-19 46q0 28 19 47t45 19zM281 897q26 0 44.5 -19t18.5 -47q0 -27 -18.5 -46t-44.5 -19q-27 0 -45 19 t-18 46q0 28 18.5 47t44.5 19z" />
<glyph unicode="&#xd0;" horiz-adv-x="716" d="M320 671q87 0 154.5 -23t113 -66.5t69.5 -105.5t24 -141q0 -161 -92 -248t-269 -87h-291v49l60 5l16 16v251h-90v61h90v219l-16 16l-60 5v49h291zM238 382h141v-61h-141v-265h58q236 0 236 280q0 142 -58 210.5t-178 68.5h-58v-233z" />
<glyph unicode="&#xd1;" horiz-adv-x="727" d="M26 48l59 8l18 18v529l-14 14l-64 5v49h230v-27l306 -475v428l-18 19l-61 8v47h228v-47l-59 -8l-17 -19v-597h-112l-346 537v-463l16 -18l62 -8v-48h-228v48zM525 909v-16q0 -58 -23.5 -88.5t-63.5 -30.5q-24 0 -45.5 7t-40 16t-33.5 16t-26 7q-37 0 -37 -53v-10h-55v17 q0 58 22.5 88.5t64.5 30.5q22 0 42.5 -7.5t38.5 -16t34 -16t29 -7.5q39 0 39 55v8h54z" />
<glyph unicode="&#xd2;" horiz-adv-x="752" d="M41 339q0 165 103 260q94 87 234 87q128 0 220 -78q58 -50 88.5 -120t30.5 -155q0 -80 -27 -146t-80 -115q-46 -43 -104 -65.5t-121 -22.5q-78 0 -141.5 25.5t-108.5 72t-69.5 112t-24.5 145.5zM380 622q-42 0 -76.5 -19.5t-60 -56t-39.5 -89.5t-14 -120 q0 -69 14.5 -123.5t39.5 -92t59.5 -57t74.5 -19.5q41 0 76 19.5t60 56.5t39 90t14 119q0 69 -14 123.5t-38.5 92t-59 57t-75.5 19.5zM336 929l97 -190h-68l-153 190h124z" />
<glyph unicode="&#xd3;" horiz-adv-x="752" d="M41 339q0 165 103 260q94 87 234 87q128 0 220 -78q58 -50 88.5 -120t30.5 -155q0 -80 -27 -146t-80 -115q-46 -43 -104 -65.5t-121 -22.5q-78 0 -141.5 25.5t-108.5 72t-69.5 112t-24.5 145.5zM380 622q-42 0 -76.5 -19.5t-60 -56t-39.5 -89.5t-14 -120 q0 -69 14.5 -123.5t39.5 -92t59.5 -57t74.5 -19.5q41 0 76 19.5t60 56.5t39 90t14 119q0 69 -14 123.5t-38.5 92t-59 57t-75.5 19.5zM553 929l-154 -190h-67l97 190h124z" />
<glyph unicode="&#xd4;" horiz-adv-x="752" d="M41 339q0 165 103 260q94 87 234 87q128 0 220 -78q58 -50 88.5 -120t30.5 -155q0 -80 -27 -146t-80 -115q-46 -43 -104 -65.5t-121 -22.5q-78 0 -141.5 25.5t-108.5 72t-69.5 112t-24.5 145.5zM380 622q-42 0 -76.5 -19.5t-60 -56t-39.5 -89.5t-14 -120 q0 -69 14.5 -123.5t39.5 -92t59.5 -57t74.5 -19.5q41 0 76 19.5t60 56.5t39 90t14 119q0 69 -14 123.5t-38.5 92t-59 57t-75.5 19.5zM420 929l110 -190h-77l-77 125l-76 -125h-78l110 190h88z" />
<glyph unicode="&#xd5;" horiz-adv-x="752" d="M41 339q0 165 103 260q94 87 234 87q128 0 220 -78q58 -50 88.5 -120t30.5 -155q0 -80 -27 -146t-80 -115q-46 -43 -104 -65.5t-121 -22.5q-78 0 -141.5 25.5t-108.5 72t-69.5 112t-24.5 145.5zM380 622q-42 0 -76.5 -19.5t-60 -56t-39.5 -89.5t-14 -120 q0 -69 14.5 -123.5t39.5 -92t59.5 -57t74.5 -19.5q41 0 76 19.5t60 56.5t39 90t14 119q0 69 -14 123.5t-38.5 92t-59 57t-75.5 19.5zM537 909v-16q0 -58 -23.5 -88.5t-63.5 -30.5q-24 0 -45.5 7t-40 16t-33.5 16t-26 7q-37 0 -37 -53v-10h-55v17q0 58 22.5 88.5t64.5 30.5 q22 0 42.5 -7.5t38.5 -16t34 -16t29 -7.5q39 0 39 55v8h54z" />
<glyph unicode="&#xd6;" horiz-adv-x="752" d="M41 339q0 165 103 260q94 87 234 87q128 0 220 -78q58 -50 88.5 -120t30.5 -155q0 -80 -27 -146t-80 -115q-46 -43 -104 -65.5t-121 -22.5q-78 0 -141.5 25.5t-108.5 72t-69.5 112t-24.5 145.5zM380 622q-42 0 -76.5 -19.5t-60 -56t-39.5 -89.5t-14 -120 q0 -69 14.5 -123.5t39.5 -92t59.5 -57t74.5 -19.5q41 0 76 19.5t60 56.5t39 90t14 119q0 69 -14 123.5t-38.5 92t-59 57t-75.5 19.5zM273 897q26 0 44.5 -19t18.5 -47q0 -27 -18.5 -46t-44.5 -19t-45 19t-19 46q0 28 19 47t45 19zM479 897q26 0 44.5 -19t18.5 -47 q0 -27 -18.5 -46t-44.5 -19q-27 0 -45 19t-18 46q0 28 18.5 47t44.5 19z" />
<glyph unicode="&#xd7;" horiz-adv-x="833" d="M646 580l57 -57l-224 -225l224 -224l-57 -58l-225 225l-224 -225l-57 58l224 224l-224 225l57 57l224 -224z" />
<glyph unicode="&#xd8;" horiz-adv-x="752" d="M632 725l-57 -98q70 -56 106.5 -126t36.5 -167q0 -80 -28 -147.5t-81 -116.5q-46 -43 -105.5 -64.5t-130.5 -21.5q-82 0 -152 35l-59 -102l-46 33l57 98q-65 51 -98.5 123.5t-33.5 162.5q0 80 24.5 145t69 111t107 71t139.5 25q74 0 145 -30l57 97zM485 584 q-45 38 -105 38q-42 0 -78 -19.5t-62.5 -55.5t-41 -87.5t-14.5 -115.5q0 -114 44 -202zM264 92q50 -46 116 -46q42 0 77 19.5t61 56t40.5 88.5t14.5 117q0 63 -11 114.5t-38 96.5z" />
<glyph unicode="&#xd9;" horiz-adv-x="705" d="M307 671v-49l-62 -5l-14 -14v-350q0 -97 36.5 -141.5t126.5 -44.5q83 0 117.5 47.5t34.5 147.5v337l-15 17l-64 6v49h227v-49l-61 -6l-14 -17v-347q0 -137 -61.5 -200.5t-202.5 -63.5q-75 0 -129 21.5t-85 60.5q-29 38 -36.5 83.5t-7.5 103.5v346l-14 14l-63 5v49h287z M313 929l97 -190h-68l-153 190h124z" />
<glyph unicode="&#xda;" horiz-adv-x="705" d="M307 671v-49l-62 -5l-14 -14v-350q0 -97 36.5 -141.5t126.5 -44.5q83 0 117.5 47.5t34.5 147.5v337l-15 17l-64 6v49h227v-49l-61 -6l-14 -17v-347q0 -137 -61.5 -200.5t-202.5 -63.5q-75 0 -129 21.5t-85 60.5q-29 38 -36.5 83.5t-7.5 103.5v346l-14 14l-63 5v49h287z M530 929l-154 -190h-67l97 190h124z" />
<glyph unicode="&#xdb;" horiz-adv-x="705" d="M307 671v-49l-62 -5l-14 -14v-350q0 -97 36.5 -141.5t126.5 -44.5q83 0 117.5 47.5t34.5 147.5v337l-15 17l-64 6v49h227v-49l-61 -6l-14 -17v-347q0 -137 -61.5 -200.5t-202.5 -63.5q-75 0 -129 21.5t-85 60.5q-29 38 -36.5 83.5t-7.5 103.5v346l-14 14l-63 5v49h287z M397 929l110 -190h-77l-77 125l-76 -125h-78l110 190h88z" />
<glyph unicode="&#xdc;" horiz-adv-x="705" d="M307 671v-49l-62 -5l-14 -14v-350q0 -97 36.5 -141.5t126.5 -44.5q83 0 117.5 47.5t34.5 147.5v337l-15 17l-64 6v49h227v-49l-61 -6l-14 -17v-347q0 -137 -61.5 -200.5t-202.5 -63.5q-75 0 -129 21.5t-85 60.5q-29 38 -36.5 83.5t-7.5 103.5v346l-14 14l-63 5v49h287z M250 897q26 0 44.5 -19t18.5 -47q0 -27 -18.5 -46t-44.5 -19t-45 19t-19 46q0 28 19 47t45 19zM456 897q26 0 44.5 -19t18.5 -47q0 -27 -18.5 -46t-44.5 -19q-27 0 -45 19t-18 46q0 28 18.5 47t44.5 19z" />
<glyph unicode="&#xdd;" horiz-adv-x="610" d="M262 671v-49l-56 -5l-9 -12l137 -254l143 245l-8 16l-60 11v48h218v-49l-59 -11l-190 -323v-219l16 -14l68 -5v-50h-300v50l67 5l16 14v195l-192 348l-64 10v49h273zM482 929l-154 -190h-67l97 190h124z" />
<glyph unicode="&#xde;" horiz-adv-x="587" d="M323 671v-49l-66 -5l-16 -16v-53h57q140 0 207 -47t67 -154q0 -103 -68 -161t-195 -58q-20 0 -68 3v-61l16 -16l66 -5v-49h-291v49l60 5l17 16v533l-14 14l-63 5v49h291zM241 188q9 -1 18 -1.5t17 -0.5q158 0 158 158q0 148 -156 148q-9 0 -18 -0.5t-19 -1.5v-302z" />
<glyph unicode="&#xdf;" horiz-adv-x="642" d="M538 471q-7 1 -13.5 1.5t-13.5 0.5q-44 0 -68 -20t-24 -53t22 -50.5t57 -38.5q30 -18 53 -34t38.5 -34t24 -39.5t8.5 -49.5q0 -34 -14 -63.5t-39 -51.5t-60.5 -34.5t-78.5 -12.5q-27 0 -59.5 4.5t-70.5 15.5v143h62l8 -93q24 -15 54 -15q38 0 60.5 21t22.5 54 q0 22 -10 38.5t-28 30.5t-43.5 27.5t-56.5 31.5q-33 19 -51.5 48.5t-18.5 64.5q0 47 30 82.5t84 48.5q5 24 7.5 43t2.5 33q0 53 -25 83.5t-66 30.5q-123 0 -123 -239v-381l4 -15l32 -5v-44h-227v46l56 4l10 14v374q0 72 19.5 128.5t55.5 95.5t86 59.5t110 20.5 q91 0 142.5 -48.5t51.5 -130.5q0 -23 -3 -46t-8 -46z" />
<glyph unicode="&#xe0;" horiz-adv-x="544" d="M343 57q-48 -32 -89.5 -49t-82.5 -17q-29 0 -53 9.5t-41.5 27t-27 41t-9.5 52.5q0 43 18 71.5t55.5 49.5t95 36.5t135.5 33.5v30q0 54 -22.5 79t-72.5 25q-21 0 -48 -6v-94h-92q-23 0 -34.5 8.5t-11.5 28.5q0 21 15.5 42t44 37.5t68.5 26.5t90 10q52 0 88 -9.5t58 -31 t31.5 -55t9.5 -81.5v-259l13 -14l53 -5v-44h-178zM343 261q-44 -10 -76.5 -20.5t-53.5 -24t-31 -31t-10 -42.5q0 -35 19.5 -55t54.5 -20q38 0 97 30v163zM232 742l97 -190h-68l-153 190h124z" />
<glyph unicode="&#xe1;" horiz-adv-x="544" d="M343 57q-48 -32 -89.5 -49t-82.5 -17q-29 0 -53 9.5t-41.5 27t-27 41t-9.5 52.5q0 43 18 71.5t55.5 49.5t95 36.5t135.5 33.5v30q0 54 -22.5 79t-72.5 25q-21 0 -48 -6v-94h-92q-23 0 -34.5 8.5t-11.5 28.5q0 21 15.5 42t44 37.5t68.5 26.5t90 10q52 0 88 -9.5t58 -31 t31.5 -55t9.5 -81.5v-259l13 -14l53 -5v-44h-178zM343 261q-44 -10 -76.5 -20.5t-53.5 -24t-31 -31t-10 -42.5q0 -35 19.5 -55t54.5 -20q38 0 97 30v163zM449 742l-154 -190h-67l97 190h124z" />
<glyph unicode="&#xe2;" horiz-adv-x="544" d="M343 57q-48 -32 -89.5 -49t-82.5 -17q-29 0 -53 9.5t-41.5 27t-27 41t-9.5 52.5q0 43 18 71.5t55.5 49.5t95 36.5t135.5 33.5v30q0 54 -22.5 79t-72.5 25q-21 0 -48 -6v-94h-92q-23 0 -34.5 8.5t-11.5 28.5q0 21 15.5 42t44 37.5t68.5 26.5t90 10q52 0 88 -9.5t58 -31 t31.5 -55t9.5 -81.5v-259l13 -14l53 -5v-44h-178zM343 261q-44 -10 -76.5 -20.5t-53.5 -24t-31 -31t-10 -42.5q0 -35 19.5 -55t54.5 -20q38 0 97 30v163zM316 742l110 -190h-77l-77 125l-76 -125h-78l110 190h88z" />
<glyph unicode="&#xe3;" horiz-adv-x="544" d="M343 57q-48 -32 -89.5 -49t-82.5 -17q-29 0 -53 9.5t-41.5 27t-27 41t-9.5 52.5q0 43 18 71.5t55.5 49.5t95 36.5t135.5 33.5v30q0 54 -22.5 79t-72.5 25q-21 0 -48 -6v-94h-92q-23 0 -34.5 8.5t-11.5 28.5q0 21 15.5 42t44 37.5t68.5 26.5t90 10q52 0 88 -9.5t58 -31 t31.5 -55t9.5 -81.5v-259l13 -14l53 -5v-44h-178zM343 261q-44 -10 -76.5 -20.5t-53.5 -24t-31 -31t-10 -42.5q0 -35 19.5 -55t54.5 -20q38 0 97 30v163zM433 722v-16q0 -58 -23.5 -88.5t-63.5 -30.5q-24 0 -45.5 7t-40 16t-33.5 16t-26 7q-37 0 -37 -53v-10h-55v17 q0 58 22.5 88.5t64.5 30.5q22 0 42.5 -7.5t38.5 -16t34 -16t29 -7.5q39 0 39 55v8h54z" />
<glyph unicode="&#xe4;" horiz-adv-x="544" d="M343 57q-48 -32 -89.5 -49t-82.5 -17q-29 0 -53 9.5t-41.5 27t-27 41t-9.5 52.5q0 43 18 71.5t55.5 49.5t95 36.5t135.5 33.5v30q0 54 -22.5 79t-72.5 25q-21 0 -48 -6v-94h-92q-23 0 -34.5 8.5t-11.5 28.5q0 21 15.5 42t44 37.5t68.5 26.5t90 10q52 0 88 -9.5t58 -31 t31.5 -55t9.5 -81.5v-259l13 -14l53 -5v-44h-178zM343 261q-44 -10 -76.5 -20.5t-53.5 -24t-31 -31t-10 -42.5q0 -35 19.5 -55t54.5 -20q38 0 97 30v163zM169 710q26 0 44.5 -19t18.5 -47q0 -27 -18.5 -46t-44.5 -19t-45 19t-19 46q0 28 19 47t45 19zM375 710q26 0 44.5 -19 t18.5 -47q0 -27 -18.5 -46t-44.5 -19q-27 0 -45 19t-18 46q0 28 18.5 47t44.5 19z" />
<glyph unicode="&#xe5;" horiz-adv-x="544" d="M276 783q24 0 45.5 -9t37.5 -25t25 -37.5t9 -46.5t-9 -46.5t-25 -37.5t-37.5 -25.5t-45.5 -9.5t-45.5 9t-37.5 25t-25 38t-9 47q0 24 9.5 45.5t25 37.5t37 25.5t45.5 9.5zM276 731q-26 0 -45 -18.5t-19 -47.5q0 -28 19 -47.5t45 -19.5t45.5 19.5t19.5 47.5t-19 47t-46 19 zM468 63l13 -14l53 -5v-44h-178l-13 57q-48 -32 -89.5 -49t-82.5 -17q-29 0 -53 9.5t-41.5 27t-27 41t-9.5 52.5q0 43 18 71.5t55.5 49.5t95 36.5t135.5 33.5v30q0 54 -22.5 79t-72.5 25q-21 0 -48 -6v-94h-92q-23 0 -34.5 8.5t-11.5 28.5q0 21 15.5 42t44 37.5t68.5 26.5 t90 10q52 0 88 -9.5t58 -31t31.5 -55t9.5 -81.5v-259zM343 261q-44 -10 -76.5 -20.5t-53.5 -24t-31 -31t-10 -42.5q0 -35 19.5 -55t54.5 -20q38 0 97 30v163z" />
<glyph unicode="&#xe6;" horiz-adv-x="768" d="M105 346q-22 0 -32 8.5t-10 28.5q0 22 15 42.5t42 37t65.5 26.5t85.5 10q48 0 83 -13t61 -42q57 54 138 54q85 0 133.5 -57.5t48.5 -164.5q0 -6 -0.5 -12t-0.5 -12h-288v-121q66 -60 148 -60q38 0 71.5 13.5t68.5 39.5v-74q-88 -59 -182 -59q-112 0 -194 73 q-101 -74 -187 -74q-60 0 -95 36t-35 98q0 41 17 69t52 48.5t89.5 36.5t128.5 34v30q0 55 -22 79.5t-72 24.5q-16 0 -40 -6v-94h-89zM328 261q-42 -11 -72 -21.5t-49.5 -24t-28.5 -30.5t-9 -42q0 -35 18.5 -55t50.5 -20q34 0 90 30v163zM607 304v14q0 125 -77 125 q-84 0 -86 -139h163z" />
<glyph unicode="&#xe7;" horiz-adv-x="476" d="M464 45q-48 -26 -94.5 -39.5t-94.5 -13.5q-54 0 -98.5 18t-76 50.5t-48.5 78t-17 99.5q0 57 19 104.5t53.5 82t82 53.5t103.5 19q78 0 121.5 -31.5t43.5 -77.5q0 -29 -20 -48.5t-52 -19.5q-33 0 -59 19v106q-15 3 -25 3q-26 0 -50 -13t-42 -37t-28.5 -58.5t-10.5 -77.5 q0 -91 42 -141t112 -50q65 0 139 45v-71v0zM290 0v-57q4 1 8 1h8q39 0 60 -20.5t21 -55.5q0 -44 -32 -71t-88 -27q-20 0 -40 3t-41 8v47q20 -4 35 -6t26 -2q62 0 62 37q0 15 -11.5 24t-33.5 9q-5 0 -10.5 -0.5t-11.5 -1.5v112h48z" />
<glyph unicode="&#xe8;" horiz-adv-x="524" d="M491 50q-101 -59 -207 -59q-56 0 -101.5 18t-78 51t-50 79t-17.5 103t18.5 104.5t51 81.5t78 53t99.5 19q99 0 153.5 -58.5t54.5 -167.5v-19h-327v-3q0 -87 43 -135t118 -48q79 0 165 55v-74zM361 319q0 63 -22.5 94.5t-64.5 31.5q-45 0 -73.5 -35.5t-30.5 -101.5h191v11 zM222 742l97 -190h-68l-153 190h124z" />
<glyph unicode="&#xe9;" horiz-adv-x="524" d="M491 50q-101 -59 -207 -59q-56 0 -101.5 18t-78 51t-50 79t-17.5 103t18.5 104.5t51 81.5t78 53t99.5 19q99 0 153.5 -58.5t54.5 -167.5v-19h-327v-3q0 -87 43 -135t118 -48q79 0 165 55v-74zM361 319q0 63 -22.5 94.5t-64.5 31.5q-45 0 -73.5 -35.5t-30.5 -101.5h191v11 zM439 742l-154 -190h-67l97 190h124z" />
<glyph unicode="&#xea;" horiz-adv-x="524" d="M491 50q-101 -59 -207 -59q-56 0 -101.5 18t-78 51t-50 79t-17.5 103t18.5 104.5t51 81.5t78 53t99.5 19q99 0 153.5 -58.5t54.5 -167.5v-19h-327v-3q0 -87 43 -135t118 -48q79 0 165 55v-74zM361 319q0 63 -22.5 94.5t-64.5 31.5q-45 0 -73.5 -35.5t-30.5 -101.5h191v11 zM306 742l110 -190h-77l-77 125l-76 -125h-78l110 190h88z" />
<glyph unicode="&#xeb;" horiz-adv-x="524" d="M491 50q-101 -59 -207 -59q-56 0 -101.5 18t-78 51t-50 79t-17.5 103t18.5 104.5t51 81.5t78 53t99.5 19q99 0 153.5 -58.5t54.5 -167.5v-19h-327v-3q0 -87 43 -135t118 -48q79 0 165 55v-74zM361 319q0 63 -22.5 94.5t-64.5 31.5q-45 0 -73.5 -35.5t-30.5 -101.5h191v11 zM159 710q26 0 44.5 -19t18.5 -47q0 -27 -18.5 -46t-44.5 -19t-45 19t-19 46q0 28 19 47t45 19zM365 710q26 0 44.5 -19t18.5 -47q0 -27 -18.5 -46t-44.5 -19q-27 0 -45 19t-18 46q0 28 18.5 47t44.5 19z" />
<glyph unicode="&#xec;" horiz-adv-x="305" d="M221 496v-432l15 -15l56 -4v-45h-262v45l54 4l14 15v345h-66v40l141 47h48zM114 742l97 -190h-68l-153 190h124z" />
<glyph unicode="&#xed;" horiz-adv-x="305" d="M221 496v-432l15 -15l56 -4v-45h-262v45l54 4l14 15v345h-66v40l141 47h48zM331 742l-154 -190h-67l97 190h124z" />
<glyph unicode="&#xee;" horiz-adv-x="305" d="M221 496v-432l15 -15l56 -4v-45h-262v45l54 4l14 15v345h-66v40l141 47h48zM198 742l110 -190h-77l-77 125l-76 -125h-78l110 190h88z" />
<glyph unicode="&#xef;" horiz-adv-x="305" d="M221 496v-432l15 -15l56 -4v-45h-262v45l54 4l14 15v345h-66v40l141 47h48zM51 710q26 0 44.5 -19t18.5 -47q0 -27 -18.5 -46t-44.5 -19t-45 19t-19 46q0 28 19 47t45 19zM257 710q26 0 44.5 -19t18.5 -47q0 -27 -18.5 -46t-44.5 -19q-27 0 -45 19t-18 46q0 28 18.5 47 t44.5 19z" />
<glyph unicode="&#xf0;" horiz-adv-x="569" d="M346 481q-17 27 -34 50.5t-36 46.5l-120 -71l-24 44l109 64l-32 36l-81 4l-3 35l145 54l75 -75l107 62l25 -43l-100 -59q81 -95 121.5 -184.5t40.5 -179.5q0 -63 -18 -114t-50.5 -86.5t-77.5 -54.5t-100 -19q-59 0 -107 18t-81.5 51t-51.5 79.5t-18 103.5q0 54 18 98.5 t49.5 77t75.5 50t97 17.5q18 0 35.5 -1t35.5 -4zM373 424q-38 12 -65 12q-64 0 -100 -49.5t-36 -144.5q0 -97 31 -147.5t88 -50.5q56 0 86.5 53.5t30.5 159.5q0 100 -35 167z" />
<glyph unicode="&#xf1;" horiz-adv-x="605" d="M31 45l51 4l14 15v345h-68v40l144 47h48v-59q54 29 96 45t75 16q136 0 136 -166v-268l13 -15l53 -4v-45h-245v45l43 4l14 15v239q0 56 -21 82t-69 26q-36 0 -95 -17v-330l14 -15l44 -4v-45h-247v45zM464 722v-16q0 -58 -23.5 -88.5t-63.5 -30.5q-24 0 -45.5 7t-40 16 t-33.5 16t-26 7q-37 0 -37 -53v-10h-55v17q0 58 22.5 88.5t64.5 30.5q22 0 42.5 -7.5t38.5 -16t34 -16t29 -7.5q39 0 39 55v8h54z" />
<glyph unicode="&#xf2;" horiz-adv-x="577" d="M296 499q57 0 103.5 -18t79.5 -51.5t50.5 -81t17.5 -107.5q0 -56 -18.5 -101.5t-52 -78.5t-81.5 -51t-107 -18q-56 0 -102.5 18t-79.5 51t-51 79t-18 103q0 58 18.5 105t52 80.5t81.5 52t107 18.5zM292 446q-54 0 -85 -51t-31 -148q0 -99 31 -150.5t84 -51.5 q56 0 87 50.5t31 148.5q0 99 -31.5 150.5t-85.5 51.5zM249 742l97 -190h-68l-153 190h124z" />
<glyph unicode="&#xf3;" horiz-adv-x="577" d="M296 499q57 0 103.5 -18t79.5 -51.5t50.5 -81t17.5 -107.5q0 -56 -18.5 -101.5t-52 -78.5t-81.5 -51t-107 -18q-56 0 -102.5 18t-79.5 51t-51 79t-18 103q0 58 18.5 105t52 80.5t81.5 52t107 18.5zM292 446q-54 0 -85 -51t-31 -148q0 -99 31 -150.5t84 -51.5 q56 0 87 50.5t31 148.5q0 99 -31.5 150.5t-85.5 51.5zM466 742l-154 -190h-67l97 190h124z" />
<glyph unicode="&#xf4;" horiz-adv-x="577" d="M296 499q57 0 103.5 -18t79.5 -51.5t50.5 -81t17.5 -107.5q0 -56 -18.5 -101.5t-52 -78.5t-81.5 -51t-107 -18q-56 0 -102.5 18t-79.5 51t-51 79t-18 103q0 58 18.5 105t52 80.5t81.5 52t107 18.5zM292 446q-54 0 -85 -51t-31 -148q0 -99 31 -150.5t84 -51.5 q56 0 87 50.5t31 148.5q0 99 -31.5 150.5t-85.5 51.5zM333 742l110 -190h-77l-77 125l-76 -125h-78l110 190h88z" />
<glyph unicode="&#xf5;" horiz-adv-x="577" d="M296 499q57 0 103.5 -18t79.5 -51.5t50.5 -81t17.5 -107.5q0 -56 -18.5 -101.5t-52 -78.5t-81.5 -51t-107 -18q-56 0 -102.5 18t-79.5 51t-51 79t-18 103q0 58 18.5 105t52 80.5t81.5 52t107 18.5zM292 446q-54 0 -85 -51t-31 -148q0 -99 31 -150.5t84 -51.5 q56 0 87 50.5t31 148.5q0 99 -31.5 150.5t-85.5 51.5zM450 722v-16q0 -58 -23.5 -88.5t-63.5 -30.5q-24 0 -45.5 7t-40 16t-33.5 16t-26 7q-37 0 -37 -53v-10h-55v17q0 58 22.5 88.5t64.5 30.5q22 0 42.5 -7.5t38.5 -16t34 -16t29 -7.5q39 0 39 55v8h54z" />
<glyph unicode="&#xf6;" horiz-adv-x="577" d="M296 499q57 0 103.5 -18t79.5 -51.5t50.5 -81t17.5 -107.5q0 -56 -18.5 -101.5t-52 -78.5t-81.5 -51t-107 -18q-56 0 -102.5 18t-79.5 51t-51 79t-18 103q0 58 18.5 105t52 80.5t81.5 52t107 18.5zM292 446q-54 0 -85 -51t-31 -148q0 -99 31 -150.5t84 -51.5 q56 0 87 50.5t31 148.5q0 99 -31.5 150.5t-85.5 51.5zM186 710q26 0 44.5 -19t18.5 -47q0 -27 -18.5 -46t-44.5 -19t-45 19t-19 46q0 28 19 47t45 19zM392 710q26 0 44.5 -19t18.5 -47q0 -27 -18.5 -46t-44.5 -19q-27 0 -45 19t-18 46q0 28 18.5 47t44.5 19z" />
<glyph unicode="&#xf7;" horiz-adv-x="833" d="M417 551q28 0 47.5 -20t19.5 -48q0 -27 -19 -46.5t-48 -19.5t-48 19t-19 47t20 48t47 20zM709 258h-585v81h585v-81zM417 179q28 0 47.5 -19.5t19.5 -47.5q0 -27 -19 -46.5t-48 -19.5t-48 19t-19 47t20 47.5t47 19.5z" />
<glyph unicode="&#xf8;" horiz-adv-x="577" d="M480 547l-47 -84q114 -70 114 -216q0 -58 -18 -105t-50.5 -80.5t-78 -51.5t-100.5 -18q-33 0 -62.5 4.5t-57.5 15.5l-54 -95l-41 27l52 91q-100 73 -100 209q0 58 18 105t51.5 80t81 51t107.5 18q47 0 94 -15l49 88zM355 424q-29 22 -65 22q-54 0 -87 -50.5t-33 -144.5 q0 -65 18 -123zM217 78q27 -33 73 -33q58 0 90.5 49t32.5 143q0 43 -6 78.5t-21 65.5z" />
<glyph unicode="&#xf9;" horiz-adv-x="600" d="M212 499v-310q0 -59 21.5 -85.5t73.5 -26.5q19 0 40 4t46 12v319h-65v39l142 48h46v-435l14 -15l52 -4v-45h-189v55q-48 -31 -88 -47.5t-80 -16.5q-137 0 -137 171v250h-65v39l141 48h48zM260 742l97 -190h-68l-153 190h124z" />
<glyph unicode="&#xfa;" horiz-adv-x="600" d="M212 499v-310q0 -59 21.5 -85.5t73.5 -26.5q19 0 40 4t46 12v319h-65v39l142 48h46v-435l14 -15l52 -4v-45h-189v55q-48 -31 -88 -47.5t-80 -16.5q-137 0 -137 171v250h-65v39l141 48h48zM477 742l-154 -190h-67l97 190h124z" />
<glyph unicode="&#xfb;" horiz-adv-x="600" d="M212 499v-310q0 -59 21.5 -85.5t73.5 -26.5q19 0 40 4t46 12v319h-65v39l142 48h46v-435l14 -15l52 -4v-45h-189v55q-48 -31 -88 -47.5t-80 -16.5q-137 0 -137 171v250h-65v39l141 48h48zM344 742l110 -190h-77l-77 125l-76 -125h-78l110 190h88z" />
<glyph unicode="&#xfc;" horiz-adv-x="600" d="M212 499v-310q0 -59 21.5 -85.5t73.5 -26.5q19 0 40 4t46 12v319h-65v39l142 48h46v-435l14 -15l52 -4v-45h-189v55q-48 -31 -88 -47.5t-80 -16.5q-137 0 -137 171v250h-65v39l141 48h48zM197 710q26 0 44.5 -19t18.5 -47q0 -27 -18.5 -46t-44.5 -19t-45 19t-19 46 q0 28 19 47t45 19zM403 710q26 0 44.5 -19t18.5 -47q0 -27 -18.5 -46t-44.5 -19q-27 0 -45 19t-18 46q0 28 18.5 47t44.5 19z" />
<glyph unicode="&#xfd;" horiz-adv-x="515" d="M250 486v-43l-51 -6l-10 -14l108 -283l109 282l-9 15l-53 6v43h192v-43l-54 -9l-193 -469q-37 -89 -86.5 -136.5t-99.5 -47.5q-37 0 -61.5 22.5t-24.5 51.5q0 22 13.5 40t38.5 31l87 -60q41 33 78 122l-178 446l-60 9v43h254zM435 742l-154 -190h-67l97 190h124z" />
<glyph unicode="&#xfe;" horiz-adv-x="591" d="M25 -173l55 5l13 15v805h-73v39l151 48h44v-303q45 31 83 47t75 16q40 0 74.5 -17t60 -48.5t40 -75t14.5 -95.5q0 -60 -18.5 -109t-53 -83.5t-83.5 -53t-110 -18.5q-33 0 -82 6v-160l15 -14l64 -4l-1 -46h-268v46zM215 60q32 -7 64 -7q66 0 107 51.5t41 141.5 q0 81 -36 124t-97 43q-18 0 -37.5 -5t-41.5 -14v-334z" />
<glyph unicode="&#xff;" horiz-adv-x="515" d="M250 486v-43l-51 -6l-10 -14l108 -283l109 282l-9 15l-53 6v43h192v-43l-54 -9l-193 -469q-37 -89 -86.5 -136.5t-99.5 -47.5q-37 0 -61.5 22.5t-24.5 51.5q0 22 13.5 40t38.5 31l87 -60q41 33 78 122l-178 446l-60 9v43h254zM155 710q26 0 44.5 -19t18.5 -47 q0 -27 -18.5 -46t-44.5 -19t-45 19t-19 46q0 28 19 47t45 19zM361 710q26 0 44.5 -19t18.5 -47q0 -27 -18.5 -46t-44.5 -19q-27 0 -45 19t-18 46q0 28 18.5 47t44.5 19z" />
<glyph unicode="&#x131;" horiz-adv-x="305" d="M221 496v-432l15 -15l56 -4v-45h-262v45l54 4l14 15v345h-66v40l141 47h48z" />
<glyph unicode="&#x141;" horiz-adv-x="543" d="M315 671v-49l-61 -5l-17 -14v-175l97 65l31 -45l-128 -86v-304h193l12 16l15 122h75v-196h-505v49l61 5l17 16v206l-70 -48l-26 47l96 66v262l-14 14l-64 5v49h288z" />
<glyph unicode="&#x142;" horiz-adv-x="304" d="M218 739l1 -298l78 55l31 -45l-110 -76v-309l15 -16l58 -6v-44h-268v44l58 6l14 14v227l-69 -49l-28 46l97 67v297h-72v39l151 48h44z" />
<glyph unicode="&#x152;" horiz-adv-x="1010" d="M365 616q-39 0 -71.5 -19t-56 -55t-37 -87.5t-13.5 -116.5q0 -67 13.5 -119.5t37.5 -89t56 -55.5t70 -19q39 0 71.5 19t56 54.5t37 87t13.5 116.5q0 67 -13 120t-36.5 89.5t-56 55.5t-71.5 19zM540 671h407v-157h-69l-13 82l-17 19h-186v-238h119l14 14l8 72h59v-232h-59 l-8 71l-15 17h-118v-262h219l14 16l17 106h68v-179h-440v98q-80 -109 -205 -109q-83 0 -149 43q-69 45 -107.5 123t-38.5 181q0 78 22.5 141.5t62.5 109t96 70t124 24.5q66 0 116 -26t79 -77v93z" />
<glyph unicode="&#x153;" horiz-adv-x="861" d="M282 446q-51 0 -80.5 -51t-29.5 -148q0 -100 30 -151t81 -51t80 50.5t29 148.5q0 99 -29.5 150.5t-80.5 51.5zM696 320q0 62 -21 93.5t-59 31.5q-40 0 -65.5 -35t-28.5 -102h174v12zM518 255q1 -88 42.5 -135.5t113.5 -47.5q42 0 77.5 13t73.5 39v-74q-89 -58 -189 -58 q-108 0 -178 79q-39 -41 -83 -60t-98 -19t-98 18t-75.5 51t-49 79.5t-17.5 103.5q0 58 17.5 105t49.5 80t77 51t99 18q115 0 183 -79q69 80 170 80q91 0 142.5 -58t51.5 -166v-20h-309z" />
<glyph unicode="&#x160;" horiz-adv-x="568" d="M59 203h76l16 -120l13 -15q44 -14 88 -14q61 0 95 26.5t34 68.5q0 41 -26.5 70t-80.5 56q-30 15 -64 30.5t-67 43.5q-35 29 -52.5 64.5t-17.5 72.5q0 42 17 78t47.5 62.5t74 41.5t97.5 15q91 0 188 -34v-162h-72l-17 104l-14 14q-14 7 -31.5 10.5t-41.5 3.5 q-55 0 -86.5 -26.5t-31.5 -68.5q0 -35 20.5 -59.5t60.5 -48.5q23 -14 60.5 -28.5t82.5 -43.5q44 -28 67 -66.5t23 -83.5t-18.5 -82.5t-52.5 -64.5t-83.5 -42.5t-110.5 -15.5q-48 0 -97 8t-96 25v181zM208 928l76 -125l77 125h77l-110 -190h-88l-110 190h78z" />
<glyph unicode="&#x161;" horiz-adv-x="447" d="M395 342h-60l-10 75l-12 11q-34 16 -66 16q-37 0 -56.5 -16t-19.5 -44q0 -16 6 -27.5t18 -21.5t29.5 -19t39.5 -20q33 -16 60 -30t46 -30t29.5 -35.5t10.5 -46.5q0 -76 -53.5 -120.5t-150.5 -44.5q-74 0 -165 25v148h61l11 -86l10 -11q39 -21 84 -21q41 0 63 19.5 t22 52.5q0 20 -9.5 33.5t-27 24t-42 20.5t-53.5 25q-56 28 -84 57.5t-28 74.5q0 65 51.5 107t144.5 42q76 0 151 -25v-133zM149 741l76 -125l77 125h77l-110 -190h-88l-110 190h78z" />
<glyph unicode="&#x178;" horiz-adv-x="610" d="M262 671v-49l-56 -5l-9 -12l137 -254l143 245l-8 16l-60 11v48h218v-49l-59 -11l-190 -323v-219l16 -14l68 -5v-50h-300v50l67 5l16 14v195l-192 348l-64 10v49h273zM202 897q26 0 44.5 -19t18.5 -47q0 -27 -18.5 -46t-44.5 -19t-45 19t-19 46q0 28 19 47t45 19zM408 897 q26 0 44.5 -19t18.5 -47q0 -27 -18.5 -46t-44.5 -19q-27 0 -45 19t-18 46q0 28 18.5 47t44.5 19z" />
<glyph unicode="&#x17d;" horiz-adv-x="592" d="M544 671v-55l-350 -557h256l10 14l18 121h72v-194h-506v55l350 558h-226l-19 -12l-16 -107h-71v177h482zM220 928l76 -125l77 125h77l-110 -190h-88l-110 190h78z" />
<glyph unicode="&#x17e;" horiz-adv-x="495" d="M46 62l258 370h-162l-13 -14l-10 -83h-65v151h396v-52l-265 -378h185l15 16l12 92h68v-164h-419v62zM173 741l76 -125l77 125h77l-110 -190h-88l-110 190h78z" />
<glyph unicode="&#x192;" horiz-adv-x="581" d="M105 369h110v19q0 75 12.5 127.5t44.5 88.5q33 37 79.5 58t88.5 21t68.5 -23t26.5 -54q0 -44 -61 -73l-93 95q-31 -31 -38 -73t-7 -102v-27t1 -57h156v-60h-155q1 -21 1.5 -40.5t0.5 -38.5q0 -166 -37 -240q-34 -66 -88.5 -102t-111.5 -36q-42 0 -66.5 19.5t-24.5 48.5 q0 21 14 40.5t40 32.5l101 -85q32 30 41 78t9 119v204h-112v60z" />
<glyph unicode="&#x2c6;" d="M294 742l110 -190h-77l-77 125l-76 -125h-78l110 190h88z" />
<glyph unicode="&#x2c7;" d="M174 741l76 -125l77 125h77l-110 -190h-88l-110 190h78z" />
<glyph unicode="&#x2d8;" d="M149 718v-6q0 -43 23.5 -58.5t78.5 -15.5t78 16t23 58v6l51 1v-11q0 -77 -35.5 -109t-116.5 -32t-117 31t-36 107v14z" />
<glyph unicode="&#x2d9;" d="M250 713q26 0 45.5 -19.5t19.5 -48.5q0 -27 -19 -46.5t-46 -19.5q-28 0 -46.5 19t-18.5 47q0 29 19 48.5t46 19.5z" />
<glyph unicode="&#x2da;" d="M250 783q25 0 46.5 -9t37.5 -25t25.5 -37.5t9.5 -46.5t-9 -46.5t-25 -37.5t-38 -25.5t-47 -9.5t-46.5 9t-37.5 25t-25 38t-9 47t9 46.5t25 37.5t37.5 25t46.5 9zM250 731q-27 0 -46.5 -19t-19.5 -47q0 -27 19.5 -47t46.5 -20q28 0 47.5 20t19.5 47q0 28 -19.5 47 t-47.5 19z" />
<glyph unicode="&#x2db;" d="M299 0q-25 -23 -37.5 -48.5t-12.5 -50.5q0 -53 56 -53q11 0 31 3v-68q-27 -7 -55 -7q-52 0 -78.5 23t-26.5 67q0 32 17.5 68t51.5 66h54z" />
<glyph unicode="&#x2dc;" d="M411 722v-16q0 -58 -23.5 -88.5t-63.5 -30.5q-24 0 -45.5 7t-40 16t-33.5 16t-26 7q-37 0 -37 -53v-10h-55v17q0 58 22.5 88.5t64.5 30.5q22 0 42.5 -7.5t38.5 -16t34 -16t29 -7.5q39 0 39 55v8h54z" />
<glyph unicode="&#x2dd;" d="M311 742l-145 -190h-58l94 190h109zM489 742l-184 -190h-66l127 190h123z" />
<glyph unicode="&#x2013;" d="M500 286v-91h-500v91h500z" />
<glyph unicode="&#x2014;" horiz-adv-x="1000" d="M0 286h1000v-90h-1000v90z" />
<glyph unicode="&#x2018;" horiz-adv-x="255" d="M221 668q-93 -57 -93 -136v-8.5t1 -8.5h60q19 -24 19 -50q0 -31 -19.5 -50.5t-50.5 -19.5q-39 0 -63.5 27.5t-24.5 75.5q0 63 38 115t112 85z" />
<glyph unicode="&#x2019;" horiz-adv-x="255" d="M48 425q93 55 93 137v7.5t-1 8.5h-60q-19 24 -19 51q0 31 18.5 50t50.5 19q40 0 64.5 -28t24.5 -76q0 -62 -38 -114.5t-112 -84.5z" />
<glyph unicode="&#x201a;" horiz-adv-x="255" d="M33 -144q93 57 93 137v8.5t-1 8.5h-60q-18 22 -18 50q0 31 18 50t50 19q40 0 64.5 -27.5t24.5 -75.5q0 -63 -37.5 -115t-111.5 -85z" />
<glyph unicode="&#x201c;" horiz-adv-x="475" d="M222 668q-94 -57 -94 -137v-8t1 -8h61q18 -21 18 -51q0 -31 -18.5 -50t-50.5 -19q-39 0 -64 27.5t-25 75.5q0 63 37.5 115t112.5 85zM443 668q-94 -57 -94 -137v-7.5t1 -8.5h60q19 -24 19 -50q0 -31 -19 -50.5t-51 -19.5q-39 0 -63.5 28t-24.5 76q0 63 38 114.5t112 84.5 z" />
<glyph unicode="&#x201d;" horiz-adv-x="475" d="M48 425q94 57 94 137v8t-1 8h-61q-19 20 -19 51t19 50t51 19q40 0 64.5 -28t24.5 -75q0 -63 -38.5 -115.5t-112.5 -84.5zM269 425q93 57 93 136v8.5t-1 8.5h-60q-19 20 -19 50q0 32 18.5 51t50.5 19q40 0 64.5 -28t24.5 -75q0 -63 -38 -115.5t-112 -84.5z" />
<glyph unicode="&#x201e;" horiz-adv-x="475" d="M36 -144q93 57 93 137v8.5t-1 8.5h-60q-19 20 -19 50q0 32 19 50.5t51 18.5q40 0 64.5 -27.5t24.5 -74.5q0 -63 -38.5 -116t-112.5 -85zM257 -144q93 58 93 137v8.5t-1 8.5h-60q-19 20 -19 50q0 31 18.5 50t50.5 19q40 0 64.5 -27.5t24.5 -75.5q0 -63 -38 -115t-112 -85z " />
<glyph unicode="&#x2020;" d="M303 642l-44 -140h-17l-46 140l54 76zM232 490v-19l-144 -40l-71 52l71 52zM483 483l-73 -52l-141 40v19l141 45zM259 460l50 -166l-50 -424h-17l-49 424l49 166h17z" />
<glyph unicode="&#x2021;" d="M302 642l-43 -140h-16l-44 140l51 76zM232 490v-19l-144 -40l-71 52l71 52zM483 483l-73 -52l-141 40v19l141 45zM258 460l52 -166l-52 -167h-15l-56 167l56 166h15zM232 112v-18l-144 -41l-71 52l71 52zM483 105l-73 -52l-141 41v18l141 45zM259 84l43 -140l-52 -76 l-51 76l44 140h16z" />
<glyph unicode="&#x2022;" horiz-adv-x="590" d="M150 372q0 30 11.5 56t31 45.5t46 31t56.5 11.5t56 -11.5t45.5 -31t31 -45.5t11.5 -56t-11.5 -56t-31 -46t-46 -31.5t-56.5 -11.5t-56.5 11.5t-46 31t-30.5 46t-11 56.5z" />
<glyph unicode="&#x2026;" horiz-adv-x="1000" d="M166 151q33 0 56.5 -23.5t23.5 -56.5t-23.5 -56t-56.5 -23q-32 0 -55 23t-23 56q0 34 23 57t55 23zM499 151q33 0 56.5 -23.5t23.5 -56.5t-23.5 -56t-56.5 -23q-32 0 -55 23t-23 56q0 34 23 57t55 23zM833 151q33 0 56.5 -23.5t23.5 -56.5t-23.5 -56t-56.5 -23 q-32 0 -55 23t-23 56q0 34 23 57t55 23z" />
<glyph unicode="&#x2030;" horiz-adv-x="1287" d="M203 683q76 0 121.5 -55t45.5 -154q0 -100 -45 -155.5t-122 -55.5t-121.5 55.5t-44.5 155.5t45 154.5t121 54.5zM691 671l-418 -671h-70l418 671h70zM200 638q-68 0 -68 -164q0 -165 68 -165q34 0 52.5 41t18.5 124q0 82 -18.5 123t-52.5 41zM696 407q76 0 121.5 -55.5 t45.5 -153.5q0 -100 -45 -155t-122 -55t-121.5 55t-44.5 155q0 99 45 154t121 55zM1095 407q76 0 121.5 -55.5t45.5 -153.5q0 -100 -45 -155t-122 -55t-122 55t-45 155q0 99 45.5 154t121.5 55zM694 363q-33 0 -51 -41.5t-18 -123.5q0 -165 69 -165q70 0 70 165t-70 165z M1093 363q-33 0 -51 -41.5t-18 -123.5q0 -165 69 -165t69 165t-69 165z" />
<glyph unicode="&#x2039;" horiz-adv-x="255" d="M207 342l-108 -102l108 -102v-84l-172 144v84l172 144v-84z" />
<glyph unicode="&#x203a;" horiz-adv-x="255" d="M210 282v-84l-172 -144v84l108 102l-108 102v84z" />
<glyph unicode="&#x2044;" horiz-adv-x="167" d="M332 671l-427 -671h-71l428 671h70z" />
<glyph unicode="&#x2122;" horiz-adv-x="800" d="M342 662v-74h-30l-7 44l-7 5h-42v-208l34 -6v-25h-127v25l35 6v208h-42l-7 -5l-7 -44h-31v74h231zM480 662v-13l58 -169l59 168v14h112v-26l-32 -6v-201l32 -6v-25h-115v24l28 7v199l-82 -230h-31l-79 230v-199l30 -6v-25h-93v25l31 6v202l-31 5v26h113z" />
<glyph unicode="&#x2212;" horiz-adv-x="833" d="M709 257h-585v83h585v-83z" />
<glyph unicode="&#x25fc;" horiz-adv-x="485" d="M0 485h485v-485h-485v485z" />
<glyph unicode="&#xfb01;" horiz-adv-x="622" d="M254 693q-20 -24 -28 -63t-8 -96v-60h219l55 27h45v-437l14 -15l53 -4v-45h-255v45l51 4l15 15v350h-197v-350l16 -15l52 -4v-45h-255v45l50 4l15 15v350h-65v38l65 30v4q0 136 97 212q29 23 61.5 35t61.5 12q38 0 59.5 -17.5t21.5 -46.5q0 -41 -46 -69zM418 649 q0 31 19 50t50 19q28 0 47 -20t19 -49q0 -30 -20 -50t-48 -20t-47.5 19.5t-19.5 50.5z" />
<glyph unicode="&#xfb02;" horiz-adv-x="627" d="M542 744v-678l15 -16l58 -6v-44h-265v44l54 6l16 14v586h-36l-31 -37l-95 82q-40 -43 -40 -161v-60h135v-60h-135v-350l16 -15l52 -4v-45h-255v45l50 4l15 15v350h-65v38l65 30v4q0 133 92 209q29 25 63 37.5t67 12.5q66 0 85 -49l102 48h37z" />
</font>
</defs>
</svg>
