<?xml version="1.0" encoding="UTF-8" standalone="no"?>
<svg
   xmlns:dc="http://purl.org/dc/elements/1.1/"
   xmlns:cc="http://creativecommons.org/ns#"
   xmlns:rdf="http://www.w3.org/1999/02/22-rdf-syntax-ns#"
   xmlns:svg="http://www.w3.org/2000/svg"
   xmlns="http://www.w3.org/2000/svg"
   version="1.1"
   id="svg2"
   viewBox="0 0 112.82151 112.82148"
   height="112.82148"
   width="112.82151">
  <defs
     id="defs4" />
  <metadata
     id="metadata7">
    <rdf:RDF>
      <cc:Work
         rdf:about="">
        <dc:format>image/svg+xml</dc:format>
        <dc:type
           rdf:resource="http://purl.org/dc/dcmitype/StillImage" />
        <dc:title></dc:title>
      </cc:Work>
    </rdf:RDF>
  </metadata>
  <g
     transform="translate(-125.85713,-109.21928)"
     id="layer1">
    <g
       transform="matrix(3.2400022,0,0,3.2400022,-408.2804,-371.01177)"
       id="text4136"
       style="font-style:normal;font-variant:normal;font-weight:normal;font-stretch:normal;font-size:37.5px;line-height:1000%;font-family:'Fira Sans';-inkscape-font-specification:'Fira Sans, Normal';text-align:start;letter-spacing:0px;word-spacing:0px;writing-mode:lr-tb;text-anchor:start;fill:#657b83;fill-opacity:1;stroke:none;stroke-width:1px;stroke-linecap:butt;stroke-linejoin:miter;stroke-opacity:1">
      <path
         id="path4141"
         style="font-style:normal;font-variant:normal;font-weight:normal;font-stretch:normal;font-size:37.5px;line-height:1000%;font-family:'Fira Sans';-inkscape-font-specification:'Fira Sans, Normal';text-align:start;writing-mode:lr-tb;text-anchor:start;fill:#657b83"
         d="m 174.04381,174.81673 c 0.25112,-0.27204 0.25112,-0.69057 0,-0.96261 -0.27204,-0.25111 -0.69057,-0.25111 -0.96261,0 l -5.35714,5.35714 c -0.25112,0.27205 -0.25112,0.69057 0,0.96262 0.14648,0.12555 0.31389,0.18833 0.4813,0.18833 0.16741,0 0.33482,-0.0628 0.48131,-0.18833 l 5.35714,-5.35715 z m 3.53655,0.85798 c 0,-0.37667 -0.29297,-0.66964 -0.66964,-0.66964 -0.37668,0 -0.66964,0.29297 -0.66964,0.66964 l 0,6.69643 c 0,0.37668 0.29296,0.66964 0.66964,0.66964 0.37667,0 0.66964,-0.29296 0.66964,-0.66964 l 0,-6.69643 z m -4.6875,-4.6875 c 0,-0.37667 -0.29297,-0.66964 -0.66964,-0.66964 l -6.69643,0 c -0.37667,0 -0.66964,0.29297 -0.66964,0.66964 0,0.37668 0.29297,0.66965 0.66964,0.66965 l 6.69643,0 c 0.37667,0 0.66964,-0.29297 0.66964,-0.66965 z m 26.45089,2.67857 c 0,-1.61132 -0.62779,-3.11802 -1.75781,-4.26897 l -7.03125,-7.03125 c -0.35575,-0.35575 -0.75335,-0.62779 -1.17187,-0.8789 l -0.37668,5.00139 5.73382,5.75474 c 0.37667,0.37668 0.58594,0.87891 0.58594,1.42299 0,0.52316 -0.20927,1.0254 -0.58594,1.40207 l -3.07617,3.05524 c -0.75335,0.75335 -2.09264,0.73243 -2.84598,-0.0209 l -5.71289,-5.73382 -5.0014,0.37668 c 0.25112,0.41852 0.52316,0.81612 0.87891,1.17187 l 6.98939,7.01032 c 1.13003,1.15095 2.65765,1.77874 4.26898,1.77874 1.61132,0 3.11802,-0.60686 4.24804,-1.73688 l 3.07618,-3.05525 c 1.15094,-1.13002 1.77873,-2.63672 1.77873,-4.24805 z M 186.4322,158.51511 c -0.25111,-0.41852 -0.52316,-0.81612 -0.8789,-1.17187 l -6.9894,-7.01032 c -1.13002,-1.15095 -2.65765,-1.77874 -4.26897,-1.77874 -1.61133,0 -3.11803,0.60686 -4.24805,1.73688 l -3.07617,3.05525 c -1.15095,1.13002 -1.77874,2.63672 -1.77874,4.24805 0,1.61132 0.62779,3.11802 1.75781,4.26897 l 7.03125,7.03125 c 0.35575,0.35575 0.75335,0.62779 1.17188,0.87891 l 0.37667,-5.02233 -5.73382,-5.73381 c -0.37667,-0.37668 -0.58593,-0.87891 -0.58593,-1.42299 0,-0.52316 0.20926,-1.02539 0.58593,-1.40207 l 3.07618,-3.05524 c 0.37667,-0.35575 0.8789,-0.56502 1.42299,-0.56502 0.54408,0 1.04631,0.20927 1.42299,0.58594 l 5.71289,5.73382 5.00139,-0.37668 z m 13.24638,1.75782 c 0,-0.37668 -0.29297,-0.66965 -0.66965,-0.66965 l -6.69643,0 c -0.37667,0 -0.66964,0.29297 -0.66964,0.66965 0,0.37667 0.29297,0.66964 0.66964,0.66964 l 6.69643,0 c 0.37668,0 0.66965,-0.29297 0.66965,-0.66964 z M 188.29465,148.889 c 0,-0.37668 -0.29297,-0.66964 -0.66965,-0.66964 -0.37667,0 -0.66964,0.29296 -0.66964,0.66964 l 0,6.69643 c 0,0.37667 0.29297,0.66964 0.66964,0.66964 0.37668,0 0.66965,-0.29297 0.66965,-0.66964 l 0,-6.69643 z m 8.51702,3.15988 c 0.25111,-0.27205 0.25111,-0.69057 0,-0.96262 -0.27205,-0.25111 -0.69057,-0.25111 -0.96261,0 l -5.35715,5.35715 c -0.25111,0.27204 -0.25111,0.69057 0,0.96261 0.14649,0.12556 0.3139,0.18834 0.48131,0.18834 0.16741,0 0.33482,-0.0628 0.4813,-0.18834 l 5.35715,-5.35714 z" />
    </g>
  </g>
</svg>
