<?xml version="1.0" encoding="UTF-8" standalone="no"?>
<svg
   xmlns:dc="http://purl.org/dc/elements/1.1/"
   xmlns:cc="http://creativecommons.org/ns#"
   xmlns:rdf="http://www.w3.org/1999/02/22-rdf-syntax-ns#"
   xmlns:svg="http://www.w3.org/2000/svg"
   xmlns="http://www.w3.org/2000/svg"
   width="93.516678"
   height="99.253365"
   viewBox="0 0 93.516678 99.253365"
   id="svg2"
   version="1.1">
  <defs
     id="defs4" />
  <metadata
     id="metadata7">
    <rdf:RDF>
      <cc:Work
         rdf:about="">
        <dc:format>image/svg+xml</dc:format>
        <dc:type
           rdf:resource="http://purl.org/dc/dcmitype/StillImage" />
        <dc:title></dc:title>
      </cc:Work>
    </rdf:RDF>
  </metadata>
  <g
     transform="matrix(5.8188159,0,0,6.1757649,-283.73609,-106.82643)"
     id="text5348"
     style="font-style:normal;font-variant:normal;font-weight:normal;font-stretch:normal;font-size:18.75px;line-height:1000%;font-family:'Fira Sans';-inkscape-font-specification:'Fira Sans, Normal';text-align:start;letter-spacing:0px;word-spacing:0px;writing-mode:lr-tb;text-anchor:start;fill:#000000;fill-opacity:1;stroke:none;stroke-width:1px;stroke-linecap:butt;stroke-linejoin:miter;stroke-opacity:1">
    <path
       id="path5353"
       style="font-style:normal;font-variant:normal;font-weight:normal;font-stretch:normal;font-size:18.75px;line-height:1000%;font-family:FontAwesome;-inkscape-font-specification:'FontAwesome, Normal';text-align:start;writing-mode:lr-tb;text-anchor:start;fill:#657b83"
       d="m 60.815397,27.342327 c 0,-0.366211 -0.303432,-0.669643 -0.669643,-0.669643 l -6.696428,0 c -0.366211,0 -0.669643,0.303432 -0.669643,0.669643 0,0.366211 0.303432,0.669643 0.669643,0.669643 l 6.696428,0 c 0.366211,0 0.669643,-0.303432 0.669643,-0.669643 z m -5.357143,-4.6875 c 0,-0.742885 -0.596401,-1.339286 -1.339286,-1.339286 -0.742885,0 -1.339285,0.596401 -1.339285,1.339286 0,0.742885 0.5964,1.339286 1.339285,1.339286 0.742885,0 1.339286,-0.596401 1.339286,-1.339286 z m 5.357143,0 c 0,-0.742885 -0.596401,-1.339286 -1.339286,-1.339286 -0.742885,0 -1.339285,0.596401 -1.339285,1.339286 0,0.742885 0.5964,1.339286 1.339285,1.339286 0.742885,0 1.339286,-0.596401 1.339286,-1.339286 z m 2.678571,2.678572 c 0,3.693498 -3.002929,6.696428 -6.696428,6.696428 -3.693499,0 -6.696429,-3.00293 -6.696429,-6.696428 0,-3.693499 3.00293,-6.696429 6.696429,-6.696429 3.693499,0 6.696428,3.00293 6.696428,6.696429 z m 1.339286,0 c 0,-4.436384 -3.59933,-8.035715 -8.035714,-8.035715 -4.436384,0 -8.035714,3.599331 -8.035714,8.035715 0,4.436383 3.59933,8.035714 8.035714,8.035714 4.436384,0 8.035714,-3.599331 8.035714,-8.035714 z" />
  </g>
</svg>
