<?xml version="1.0" encoding="UTF-8" standalone="no"?>
<!-- Created with Inkscape (http://www.inkscape.org/) -->

<svg
   xmlns:dc="http://purl.org/dc/elements/1.1/"
   xmlns:cc="http://creativecommons.org/ns#"
   xmlns:rdf="http://www.w3.org/1999/02/22-rdf-syntax-ns#"
   xmlns:svg="http://www.w3.org/2000/svg"
   xmlns="http://www.w3.org/2000/svg"
   xmlns:sodipodi="http://sodipodi.sourceforge.net/DTD/sodipodi-0.dtd"
   xmlns:inkscape="http://www.inkscape.org/namespaces/inkscape"
   width="435.03076"
   height="97.400108"
   viewBox="0 0 435.03077 97.400112"
   id="svg2"
   version="1.1"
   inkscape:version="0.91 r13725"
   sodipodi:docname="shadowing-interpretation.inkscape.svg">
  <defs
     id="defs4">
    <marker
       inkscape:isstock="true"
       style="overflow:visible"
       id="marker4958"
       refX="0"
       refY="0"
       orient="auto"
       inkscape:stockid="TriangleOutL">
      <path
         transform="scale(0.8,0.8)"
         style="fill:#6c71c4;fill-opacity:1;fill-rule:evenodd;stroke:#6c71c4;stroke-width:1pt;stroke-opacity:1"
         d="m 5.77,0 -8.65,5 0,-10 8.65,5 z"
         id="path4960"
         inkscape:connector-curvature="0" />
    </marker>
    <marker
       inkscape:stockid="TriangleOutL"
       orient="auto"
       refY="0"
       refX="0"
       id="marker4594"
       style="overflow:visible"
       inkscape:isstock="true"
       inkscape:collect="always">
      <path
         inkscape:connector-curvature="0"
         id="path4596"
         d="m 5.77,0 -8.65,5 0,-10 8.65,5 z"
         style="fill:#dc322f;fill-opacity:1;fill-rule:evenodd;stroke:#dc322f;stroke-width:1pt;stroke-opacity:1"
         transform="scale(0.8,0.8)" />
    </marker>
    <marker
       inkscape:stockid="TriangleOutL"
       orient="auto"
       refY="0"
       refX="0"
       id="marker5648"
       style="overflow:visible"
       inkscape:isstock="true">
      <path
         id="path5650"
         d="m 5.77,0 -8.65,5 0,-10 8.65,5 z"
         style="fill:#6c71c4;fill-opacity:1;fill-rule:evenodd;stroke:#6c71c4;stroke-width:1pt;stroke-opacity:1"
         transform="scale(0.8,0.8)"
         inkscape:connector-curvature="0" />
    </marker>
    <marker
       inkscape:stockid="TriangleOutL"
       orient="auto"
       refY="0"
       refX="0"
       id="TriangleOutL"
       style="overflow:visible"
       inkscape:isstock="true">
      <path
         id="path4302"
         d="m 5.77,0 -8.65,5 0,-10 8.65,5 z"
         style="fill-rule:evenodd;stroke:#000000;stroke-width:1pt"
         transform="scale(0.8,0.8)"
         inkscape:connector-curvature="0" />
    </marker>
    <marker
       inkscape:isstock="true"
       style="overflow:visible"
       id="marker4974"
       refX="0"
       refY="0"
       orient="auto"
       inkscape:stockid="TriangleOutL"
       inkscape:collect="always">
      <path
         transform="scale(0.8,0.8)"
         style="fill:#dc322f;fill-opacity:1;fill-rule:evenodd;stroke:#dc322f;stroke-width:1pt;stroke-opacity:1"
         d="m 5.77,0 -8.65,5 0,-10 8.65,5 z"
         id="path4976"
         inkscape:connector-curvature="0" />
    </marker>
    <marker
       inkscape:stockid="EmptyTriangleInL"
       orient="auto"
       refY="0"
       refX="0"
       id="EmptyTriangleInL"
       style="overflow:visible"
       inkscape:isstock="true">
      <path
         id="path4311"
         d="m 5.77,0 -8.65,5 0,-10 8.65,5 z"
         style="fill:#ffffff;fill-rule:evenodd;stroke:#000000;stroke-width:1pt;stroke-opacity:1"
         transform="matrix(-0.8,0,0,-0.8,4.8,0)"
         inkscape:connector-curvature="0" />
    </marker>
  </defs>
  <sodipodi:namedview
     id="base"
     pagecolor="#ffffff"
     bordercolor="#666666"
     borderopacity="1.0"
     inkscape:pageopacity="0.0"
     inkscape:pageshadow="2"
     inkscape:zoom="1"
     inkscape:cx="208.03601"
     inkscape:cy="-34.468223"
     inkscape:document-units="px"
     inkscape:current-layer="layer1"
     showgrid="false"
     fit-margin-top="0"
     fit-margin-left="0"
     fit-margin-right="0"
     fit-margin-bottom="0"
     inkscape:window-width="1366"
     inkscape:window-height="719"
     inkscape:window-x="0"
     inkscape:window-y="1"
     inkscape:window-maximized="1"
     units="px" />
  <metadata
     id="metadata7">
    <rdf:RDF>
      <cc:Work
         rdf:about="">
        <dc:format>image/svg+xml</dc:format>
        <dc:type
           rdf:resource="http://purl.org/dc/dcmitype/StillImage" />
        <dc:title></dc:title>
      </cc:Work>
    </rdf:RDF>
  </metadata>
  <g
     inkscape:label="Layer 1"
     inkscape:groupmode="layer"
     id="layer1"
     transform="translate(-117.02838,-302.35439)">
    <text
       xml:space="preserve"
       style="font-style:normal;font-variant:normal;font-weight:normal;font-stretch:normal;font-size:18px;line-height:1000%;font-family:'Source Code Pro';-inkscape-font-specification:'Source Code Pro';text-align:start;letter-spacing:0px;word-spacing:0px;writing-mode:lr-tb;text-anchor:start;fill:#000000;fill-opacity:1;stroke:none;stroke-width:1px;stroke-linecap:butt;stroke-linejoin:miter;stroke-opacity:1"
       x="113.28438"
       y="375.81125"
       id="text4136"
       sodipodi:linespacing="1000%"><tspan
         sodipodi:role="line"
         id="tspan4138"
         x="113.28438"
         y="375.81125"
         style="fill:#657b83">(((<tspan
   style="fill:#859900"
   id="tspan4144">λ</tspan> (<tspan
   style="fill:#dc322f"
   id="tspan4152">x</tspan>) (<tspan
   style="fill:#859900"
   id="tspan4146">λ</tspan> (<tspan
   style="fill:#6c71c4"
   id="tspan4148">x</tspan>) <tspan
   style="fill:#6c71c4"
   id="tspan4150">x</tspan>)) <tspan
   style="fill:#dc322f"
   id="tspan4178">(λ (y) y)</tspan>) <tspan
   style="fill:#6c71c4"
   id="tspan4180">(λ (z) z)</tspan>)</tspan></text>
    <g
       id="g4228"
       transform="translate(19.558141,0)">
      <g
         id="g4223">
        <path
           sodipodi:nodetypes="cc"
           inkscape:connector-curvature="0"
           id="path5646"
           d="m 268.40771,356.63777 c -12.05325,-10.72172 -23.87405,-9.73041 -26.93146,0.47245"
           style="fill:none;fill-rule:evenodd;stroke:#6c71c4;stroke-width:1px;stroke-linecap:butt;stroke-linejoin:miter;stroke-opacity:1;marker-end:url(#marker5648)" />
        <g
           style="font-style:normal;font-variant:normal;font-weight:normal;font-stretch:normal;font-size:18.75px;line-height:1000%;font-family:'Fira Sans';-inkscape-font-specification:'Fira Sans, Normal';text-align:start;letter-spacing:0px;word-spacing:0px;writing-mode:lr-tb;text-anchor:start;fill:#000000;fill-opacity:1;stroke:none;stroke-width:1px;stroke-linecap:butt;stroke-linejoin:miter;stroke-opacity:1"
           id="text4178">
          <path
             d="m 260.80303,337.92677 c 0,-0.25112 -0.10045,-0.50223 -0.28125,-0.68303 l -1.36607,-1.36608 c -0.1808,-0.1808 -0.43192,-0.28125 -0.68304,-0.28125 -0.25111,0 -0.50223,0.10045 -0.68303,0.28125 l -6.58929,6.59933 -2.95312,-2.96317 c -0.18081,-0.1808 -0.43192,-0.28125 -0.68304,-0.28125 -0.25111,0 -0.50223,0.10045 -0.68303,0.28125 l -1.36608,1.36608 c -0.1808,0.1808 -0.28125,0.43192 -0.28125,0.68303 0,0.25112 0.10045,0.50223 0.28125,0.68304 l 3.63617,3.63616 1.36607,1.36607 c 0.1808,0.1808 0.43192,0.28125 0.68303,0.28125 0.25112,0 0.50223,-0.10045 0.68304,-0.28125 l 1.36607,-1.36607 7.27232,-7.27232 c 0.1808,-0.18081 0.28125,-0.43192 0.28125,-0.68304 z"
             style="font-style:normal;font-variant:normal;font-weight:normal;font-stretch:normal;font-size:18px;line-height:1000%;font-family:FontAwesome;-inkscape-font-specification:'FontAwesome, Normal';text-align:start;writing-mode:lr-tb;text-anchor:start;fill:#6c71c4"
             id="path4183"
             inkscape:connector-curvature="0" />
        </g>
      </g>
      <g
         id="g4188">
        <path
           style="fill:none;fill-rule:evenodd;stroke:#dc322f;stroke-width:1;stroke-linecap:butt;stroke-linejoin:miter;stroke-miterlimit:4;stroke-dasharray:1, 3;stroke-dashoffset:0;stroke-opacity:1;marker-end:url(#marker4974)"
           d="M 268.40771,356.63777 C 279.03443,299.4221 165.00511,306.95304 164.45868,355.27924"
           id="path4964"
           inkscape:connector-curvature="0"
           sodipodi:nodetypes="cc" />
        <g
           style="font-style:normal;font-variant:normal;font-weight:normal;font-stretch:normal;font-size:18px;line-height:1000%;font-family:FontAwesome;-inkscape-font-specification:'FontAwesome, Normal';text-align:start;letter-spacing:0px;word-spacing:0px;writing-mode:lr-tb;text-anchor:start;fill:#000000;fill-opacity:1;stroke:none;stroke-width:1px;stroke-linecap:butt;stroke-linejoin:miter;stroke-opacity:1"
           id="text4185">
          <path
             d="m 226.99955,311.95707 c 0,-0.25112 -0.10044,-0.50223 -0.28125,-0.68304 l -2.95312,-2.95312 2.95312,-2.95313 c 0.18081,-0.1808 0.28125,-0.43192 0.28125,-0.68303 0,-0.25112 -0.10044,-0.50223 -0.28125,-0.68304 l -1.36607,-1.36607 c -0.1808,-0.1808 -0.43192,-0.28125 -0.68303,-0.28125 -0.25112,0 -0.50224,0.10045 -0.68304,0.28125 l -2.95312,2.95313 -2.95313,-2.95313 c -0.1808,-0.1808 -0.43192,-0.28125 -0.68303,-0.28125 -0.25112,0 -0.50224,0.10045 -0.68304,0.28125 l -1.36607,1.36607 c -0.18081,0.18081 -0.28125,0.43192 -0.28125,0.68304 0,0.25111 0.10044,0.50223 0.28125,0.68303 l 2.95312,2.95313 -2.95312,2.95312 c -0.18081,0.18081 -0.28125,0.43192 -0.28125,0.68304 0,0.25112 0.10044,0.50223 0.28125,0.68304 l 1.36607,1.36607 c 0.1808,0.1808 0.43192,0.28125 0.68304,0.28125 0.25111,0 0.50223,-0.10045 0.68303,-0.28125 l 2.95313,-2.95313 2.95312,2.95313 c 0.1808,0.1808 0.43192,0.28125 0.68304,0.28125 0.25111,0 0.50223,-0.10045 0.68303,-0.28125 l 1.36607,-1.36607 c 0.18081,-0.18081 0.28125,-0.43192 0.28125,-0.68304 z"
             style="fill:#dc322f"
             id="path4196"
             inkscape:connector-curvature="0" />
        </g>
      </g>
    </g>
    <g
       id="g4946">
      <path
         inkscape:connector-curvature="0"
         id="path4242"
         d="m 334.52932,383.49707 85.83865,0"
         style="fill:none;fill-rule:evenodd;stroke:#dc322f;stroke-width:1px;stroke-linecap:butt;stroke-linejoin:miter;stroke-opacity:1" />
      <path
         sodipodi:nodetypes="cc"
         inkscape:connector-curvature="0"
         id="path4244"
         d="m 380.35296,383.49707 c -49.07006,20.61398 -195.93997,21.40212 -196.20263,0"
         style="fill:none;fill-rule:evenodd;stroke:#dc322f;stroke-width:1px;stroke-linecap:butt;stroke-linejoin:miter;stroke-opacity:1;marker-end:url(#marker4594)" />
    </g>
    <g
       id="g5160">
      <path
         sodipodi:nodetypes="cc"
         style="fill:none;fill-rule:evenodd;stroke:#6c71c4;stroke-width:1px;stroke-linecap:butt;stroke-linejoin:miter;stroke-opacity:1"
         d="m 451.34733,383.49707 85.83865,0"
         id="path4952"
         inkscape:connector-curvature="0" />
      <path
         style="fill:none;fill-rule:evenodd;stroke:#6c71c4;stroke-width:1px;stroke-linecap:butt;stroke-linejoin:miter;stroke-opacity:1;marker-end:url(#marker4958)"
         d="m 497.17097,383.49707 c -49.07006,20.61398 -237.24579,21.40212 -237.50845,0"
         id="path4954"
         inkscape:connector-curvature="0"
         sodipodi:nodetypes="cc" />
    </g>
  </g>
</svg>
