<?xml version="1.0" encoding="UTF-8" standalone="no"?>
<!-- Created with Inkscape (http://www.inkscape.org/) -->

<svg
   xmlns:dc="http://purl.org/dc/elements/1.1/"
   xmlns:cc="http://creativecommons.org/ns#"
   xmlns:rdf="http://www.w3.org/1999/02/22-rdf-syntax-ns#"
   xmlns:svg="http://www.w3.org/2000/svg"
   xmlns="http://www.w3.org/2000/svg"
   xmlns:xlink="http://www.w3.org/1999/xlink"
   xmlns:sodipodi="http://sodipodi.sourceforge.net/DTD/sodipodi-0.dtd"
   xmlns:inkscape="http://www.inkscape.org/namespaces/inkscape"
   width="220.10445"
   height="211.14941"
   viewBox="0 0 220.10445 211.14942"
   version="1.1"
   id="svg6778"
   inkscape:version="0.92.2 5c3e80d, 2017-08-06"
   sodipodi:docname="blame.svg">
  <defs
     id="defs6772">
    <marker
       inkscape:stockid="TriangleOutL"
       orient="auto"
       refY="0"
       refX="0"
       id="marker7416"
       style="overflow:visible"
       inkscape:isstock="true">
      <path
         inkscape:connector-curvature="0"
         id="path7414"
         d="M 5.77,0 -2.88,5 V -5 Z"
         style="fill:#657b83;fill-opacity:1;fill-rule:evenodd;stroke:#657b83;stroke-width:1.00000003pt;stroke-opacity:1"
         transform="scale(0.8)" />
    </marker>
    <marker
       inkscape:stockid="TriangleOutL"
       orient="auto"
       refY="0"
       refX="0"
       id="marker6384"
       style="overflow:visible"
       inkscape:isstock="true">
      <path
         inkscape:connector-curvature="0"
         id="path6382"
         d="M 5.77,0 -2.88,5 V -5 Z"
         style="fill:#859900;fill-opacity:1;fill-rule:evenodd;stroke:#859900;stroke-width:1.00000003pt;stroke-opacity:1"
         transform="scale(0.8)" />
    </marker>
    <marker
       inkscape:isstock="true"
       style="overflow:visible"
       id="marker5640"
       refX="0"
       refY="0"
       orient="auto"
       inkscape:stockid="TriangleOutL"
       inkscape:collect="always">
      <path
         transform="scale(0.8)"
         style="fill:#268bd2;fill-opacity:1;fill-rule:evenodd;stroke:#268bd2;stroke-width:1.00000003pt;stroke-opacity:1"
         d="M 5.77,0 -2.88,5 V -5 Z"
         id="path5638"
         inkscape:connector-curvature="0" />
    </marker>
    <clipPath
       id="clipPath16-7"
       clipPathUnits="userSpaceOnUse">
      <path
         inkscape:connector-curvature="0"
         id="path18-9"
         d="M 0,36 H 36 V 0 H 0 Z" />
    </clipPath>
  </defs>
  <sodipodi:namedview
     id="base"
     pagecolor="#ffffff"
     bordercolor="#666666"
     borderopacity="1.0"
     inkscape:pageopacity="0.0"
     inkscape:pageshadow="2"
     inkscape:zoom="3.7470588"
     inkscape:cx="163"
     inkscape:cy="109.55024"
     inkscape:document-units="px"
     inkscape:current-layer="svg6778"
     showgrid="false"
     inkscape:window-width="1366"
     inkscape:window-height="719"
     inkscape:window-x="0"
     inkscape:window-y="1"
     inkscape:window-maximized="1"
     units="px"
     guidetolerance="20"
     inkscape:snap-global="false"
     fit-margin-top="0"
     fit-margin-left="0"
     fit-margin-right="0"
     fit-margin-bottom="0"
     inkscape:measure-start="0,0"
     inkscape:measure-end="0,0" />
  <metadata
     id="metadata6775">
    <rdf:RDF>
      <cc:Work
         rdf:about="">
        <dc:format>image/svg+xml</dc:format>
        <dc:type
           rdf:resource="http://purl.org/dc/dcmitype/StillImage" />
        <dc:title></dc:title>
      </cc:Work>
    </rdf:RDF>
  </metadata>
  <g
     id="g5204"
     transform="matrix(3.7353511,0.01960035,0.01960035,-3.7353511,-11.284245,170.25177)"
     style="stroke-width:1.01021814">
    <g
       id="g5202"
       style="stroke-width:1.01021814">
      <g
         id="g5200"
         clip-path="url(#clipPath16-7)"
         style="stroke-width:1.01021814">
        <g
           id="g5166"
           transform="translate(32.415,26.4136)"
           style="stroke-width:1.01021814">
          <path
             d="m 0,0 v 0.001 l -9,8.998 c -0.361,0.363 -0.862,0.587 -1.415,0.587 -1.104,0 -1.999,-0.896 -2,-1.999 0,-0.552 0.224,-1.053 0.586,-1.415 l -3.859,-3.859 9,-9 3.859,3.859 c 0.362,-0.362 0.862,-0.586 1.414,-0.586 1.104,0 2.001,0.896 2,2 C 0.585,-0.861 0.361,-0.362 0,0"
             style="fill:#e1e8ed;fill-opacity:1;fill-rule:nonzero;stroke:none;stroke-width:1.01021814"
             id="path5164"
             inkscape:connector-curvature="0" />
        </g>
        <g
           id="g5170"
           transform="translate(22,36)"
           style="stroke-width:1.01021814">
          <path
             d="m 0,0 h -15 c -2.209,0 -4,-1.791 -4,-4 v -28 c 0,-2.209 1.791,-4 4,-4 H 7 c 2.209,0 4,1.791 4,4 v 21 H 2 c -1,0 -2,1 -2,2 z"
             style="fill:#ccd6dd;fill-opacity:1;fill-rule:nonzero;stroke:none;stroke-width:1.01021814"
             id="path5168"
             inkscape:connector-curvature="0" />
        </g>
        <g
           id="g5174"
           transform="translate(22,36)"
           style="stroke-width:1.01021814">
          <path
             d="m 0,0 h -2 v -9 c 0,-2.209 1.791,-4 4,-4 l 9,10e-4 V -11 H 2 c -1,0 -2,1 -2,2 z"
             style="fill:#99aab5;fill-opacity:1;fill-rule:nonzero;stroke:none;stroke-width:1.01021814"
             id="path5172"
             inkscape:connector-curvature="0" />
        </g>
        <g
           id="g5178"
           transform="translate(17,28)"
           style="stroke-width:1.01021814">
          <path
             d="m 0,0 c 0,-0.552 -0.448,-1 -1,-1 h -8 c -0.552,0 -1,0.448 -1,1 0,0.552 0.448,1 1,1 h 8 C -0.448,1 0,0.552 0,0"
             style="fill:#859900;fill-opacity:1;fill-rule:nonzero;stroke:none;stroke-width:1.01021814"
             id="path5176"
             inkscape:connector-curvature="0" />
        </g>
        <g
           id="g5182"
           transform="translate(17,24)"
           style="stroke-width:1.01021814">
          <path
             d="m 0,0 c 0,-0.552 -0.448,-1 -1,-1 h -8 c -0.552,0 -1,0.448 -1,1 0,0.552 0.448,1 1,1 h 8 C -0.448,1 0,0.552 0,0"
             style="fill:#859900;fill-opacity:1;fill-rule:nonzero;stroke:none;stroke-width:1.01021814"
             id="path5180"
             inkscape:connector-curvature="0" />
        </g>
        <g
           id="g5186"
           transform="translate(29,20)"
           style="stroke-width:1.01021814">
          <path
             d="m 0,0 c 0,-0.552 -0.447,-1 -1,-1 h -20 c -0.552,0 -1,0.448 -1,1 0,0.552 0.448,1 1,1 H -1 C -0.447,1 0,0.552 0,0"
             style="fill:#859900;fill-opacity:1;fill-rule:nonzero;stroke:none;stroke-width:1.01021814"
             id="path5184"
             inkscape:connector-curvature="0" />
        </g>
        <g
           id="g5190"
           transform="translate(29,16)"
           style="stroke-width:1.01021814">
          <path
             d="m 0,0 c 0,-0.553 -0.447,-1 -1,-1 h -20 c -0.552,0 -1,0.447 -1,1 0,0.553 0.448,1 1,1 H -1 C -0.447,1 0,0.553 0,0"
             style="fill:#268bd2;fill-opacity:1;fill-rule:nonzero;stroke:none;stroke-width:1.01021814"
             id="path5188"
             inkscape:connector-curvature="0" />
        </g>
        <g
           id="g5194"
           transform="translate(29,12)"
           style="stroke-width:1.01021814">
          <path
             d="m 0,0 c 0,-0.553 -0.447,-1 -1,-1 h -20 c -0.552,0 -1,0.447 -1,1 0,0.553 0.448,1 1,1 H -1 C -0.447,1 0,0.553 0,0"
             style="fill:#268bd2;fill-opacity:1;fill-rule:nonzero;stroke:none;stroke-width:1.01021814"
             id="path5192"
             inkscape:connector-curvature="0" />
        </g>
        <g
           id="g5198"
           transform="translate(29,8)"
           style="stroke-width:1.01021814">
          <path
             d="m 0,0 c 0,-0.553 -0.447,-1 -1,-1 h -20 c -0.552,0 -1,0.447 -1,1 0,0.553 0.448,1 1,1 H -1 C -0.447,1 0,0.553 0,0"
             style="fill:#268bd2;fill-opacity:1;fill-rule:nonzero;stroke:none;stroke-width:1.01021814"
             id="path5196"
             inkscape:connector-curvature="0" />
        </g>
      </g>
    </g>
  </g>
  <path
     style="fill:none;stroke:#657b83;stroke-width:0.56400001;stroke-linecap:butt;stroke-linejoin:miter;stroke-miterlimit:4;stroke-dasharray:none;stroke-opacity:1;marker-end:url(#marker7416)"
     d="M 199.04424,152.57919 V 165.666"
     id="path5270"
     inkscape:connector-curvature="0" />
  <path
     style="fill:none;stroke:#268bd2;stroke-width:1;stroke-linecap:butt;stroke-linejoin:miter;stroke-miterlimit:4;stroke-dasharray:none;stroke-opacity:1;marker-end:url(#marker5640)"
     d="m 101.04424,143.57919 71.33124,33.01931"
     id="path5636"
     inkscape:connector-curvature="0"
     sodipodi:nodetypes="cc" />
  <path
     sodipodi:nodetypes="cc"
     inkscape:connector-curvature="0"
     id="path6380"
     d="m 100.04424,95.579192 73,-27.91319"
     style="fill:none;stroke:#859900;stroke-width:1;stroke-linecap:butt;stroke-linejoin:miter;stroke-miterlimit:4;stroke-dasharray:none;stroke-opacity:1;marker-end:url(#marker6384)" />
  <g
     id="g7540"
     transform="matrix(-1.3775965,-0.20681438,0,1.3775965,264.50169,105.78407)"
     style="stroke-width:1.00086236">
    <g
       id="g7530"
       transform="matrix(0.47587821,0,0,0.47587821,32.228041,53.153152)"
       style="stroke-width:0.55646902">
      <path
         id="path7510"
         d="M 32,64 0,44.8 V 19.2 l 32,19.2 z"
         inkscape:connector-curvature="0"
         style="fill:#89664c;stroke-width:0.55646902" />
      <path
         id="path7512"
         d="M 32,38.4 V 64 L 64,44.8 V 19.2 Z"
         inkscape:connector-curvature="0"
         style="fill:#fed0ac;stroke-width:0.55646902" />
      <path
         id="path7514"
         d="M 0,19.2 32,38.4 64,19.2 32,0 Z"
         inkscape:connector-curvature="0"
         style="fill:#d3976e;stroke-width:0.55646902" />
      <path
         id="path7516"
         d="M 50.9,27 19,7.8 13,11.4 45,30.6 Z"
         inkscape:connector-curvature="0"
         style="fill:#89664c;stroke-width:0.55646902" />
      <path
         id="path7518"
         d="M 39.3,6.8 32.2,2.4 26.3,6 l 7.1,4.3 z"
         inkscape:connector-curvature="0"
         style="fill:#d0d0d0;stroke-width:0.55646902" />
      <path
         id="path7520"
         d="m 50.8,27.1 -5.6,3.4 v 9.2 l 5.6,-3.4 z"
         inkscape:connector-curvature="0"
         style="fill:#d3976e;stroke-width:0.55646902" />
      <g
         id="g7526"
         style="fill:#ffffff;stroke-width:0.55646902">
        <path
           id="path7522"
           d="m 62.5,22.1 -5.7,3.4 v 9.2 l 5.7,-3.4 z"
           inkscape:connector-curvature="0"
           style="stroke-width:0.55646902" />
        <path
           id="path7524"
           d="m 41.6,43.5 -7.7,4.6 V 60.7 L 41.6,56 Z"
           inkscape:connector-curvature="0"
           style="stroke-width:0.55646902" />
      </g>
      <path
         id="path7528"
         d="m 45.2,56.1 5.6,-3.4 v -9.2 l -5.6,3.4 z"
         inkscape:connector-curvature="0"
         style="fill:#d3976e;stroke-width:0.55646902" />
    </g>
    <g
       id="g7538"
       transform="matrix(0.19402154,0,0,0.19402154,59.377753,74.092439)"
       style="stroke-width:1.36485624">
      <path
         id="path7532"
         d="M 29.1,12.9 H 19 L 12.9,19 V 29.1 L 43.8,64 64,43.8 29.1,12.9 m -6.4,9.8 c -0.9,0.9 -2.4,0.9 -3.4,0 -0.9,-0.9 -0.9,-2.4 0,-3.4 0.9,-0.9 2.4,-0.9 3.4,0 0.9,1 0.9,2.5 0,3.4"
         inkscape:connector-curvature="0"
         style="fill:#f2b200;stroke-width:1.36485624" />
      <path
         id="path7534"
         d="M 21.9,20.8 C 21.6,19.5 21,18.2 20.3,17.1 18.6,14.3 16.2,12 13.4,10.3 9.6,8.1 5.3,7.1 0.9,6.7 0.4,6.7 0,7.2 0,7.6 c 0,0.5 0.4,0.9 0.9,0.9 4.7,0.4 9.5,1.7 13.4,4.5 1.1,0.8 2.4,2.1 3.3,3.3 0.2,0.2 -0.1,-0.2 0,0.1 0,0.1 0.1,0.1 0.1,0.2 0.1,0.1 0.2,0.3 0.3,0.4 0.2,0.3 0.4,0.5 0.5,0.8 0.3,0.5 0.5,0.9 0.8,1.4 0.1,0.1 0.1,0.3 0.2,0.4 0,0.1 0.1,0.1 0.1,0.2 0.1,0.2 0.2,0.5 0.2,0.7 0.1,0.2 0.1,0.4 0.2,0.6 0.3,1.4 2.2,0.9 1.9,-0.3"
         inkscape:connector-curvature="0"
         style="fill:#94989b;stroke-width:1.36485624" />
      <path
         id="path7536"
         d="m 15.3,16.6 c 0,0 -0.1,-0.1 -0.1,-0.1 C 14.7,16.1 14.3,15.7 13.9,15.2 13,14.2 12.2,12.9 11.6,11.6 9.9,8.3 9,4.6 8.7,1 8.6,0.4 8.2,0 7.6,0 7.1,0 6.6,0.4 6.7,0.9 c 0.3,4 1.4,8 3.2,11.6 0.7,1.4 1.6,2.8 2.6,4 0.4,0.5 0.9,1 1.4,1.4 l 1.4,-1.3"
         inkscape:connector-curvature="0"
         style="fill:#3e4347;stroke-width:1.36485624" />
    </g>
  </g>
  <use
     x="0"
     y="0"
     xlink:href="#g7540"
     id="use7574"
     transform="translate(0,-57)"
     width="100%"
     height="100%" />
  <use
     x="0"
     y="0"
     xlink:href="#path5270"
     id="use7594"
     transform="translate(0,-55.851566)"
     width="100%"
     height="100%" />
  <use
     x="0"
     y="0"
     xlink:href="#use7574"
     id="use7596"
     transform="translate(0,-55.851566)"
     width="100%"
     height="100%" />
  <use
     x="0"
     y="0"
     xlink:href="#use7594"
     id="use7598"
     transform="translate(0,-56.341492)"
     width="100%"
     height="100%" />
  <use
     x="0"
     y="0"
     xlink:href="#use7596"
     id="use7600"
     transform="translate(0,-56.341492)"
     width="100%"
     height="100%" />
</svg>
