<?xml version="1.0" encoding="UTF-8" standalone="no"?>
<!-- Created with Inkscape (http://www.inkscape.org/) -->

<svg
   xmlns:dc="http://purl.org/dc/elements/1.1/"
   xmlns:cc="http://creativecommons.org/ns#"
   xmlns:rdf="http://www.w3.org/1999/02/22-rdf-syntax-ns#"
   xmlns:svg="http://www.w3.org/2000/svg"
   xmlns="http://www.w3.org/2000/svg"
   xmlns:xlink="http://www.w3.org/1999/xlink"
   xmlns:sodipodi="http://sodipodi.sourceforge.net/DTD/sodipodi-0.dtd"
   xmlns:inkscape="http://www.inkscape.org/namespaces/inkscape"
   width="303.95792"
   height="270.41611"
   viewBox="0 0 303.95792 270.41611"
   version="1.1"
   id="svg6778"
   inkscape:version="0.92.2 5c3e80d, 2017-08-06"
   sodipodi:docname="chain.svg">
  <defs
     id="defs6772">
    <marker
       inkscape:isstock="true"
       style="overflow:visible"
       id="marker1797"
       refX="0"
       refY="0"
       orient="auto"
       inkscape:stockid="TriangleOutL">
      <path
         transform="scale(0.8)"
         style="fill:#657b83;fill-opacity:1;fill-rule:evenodd;stroke:#657b83;stroke-width:1.00000003pt;stroke-opacity:1"
         d="M 5.77,0 -2.88,5 V -5 Z"
         id="path1795"
         inkscape:connector-curvature="0" />
    </marker>
  </defs>
  <sodipodi:namedview
     id="base"
     pagecolor="#ffffff"
     bordercolor="#666666"
     borderopacity="1.0"
     inkscape:pageopacity="0.0"
     inkscape:pageshadow="2"
     inkscape:zoom="1"
     inkscape:cx="103.02794"
     inkscape:cy="70.295032"
     inkscape:document-units="px"
     inkscape:current-layer="svg6778"
     showgrid="false"
     inkscape:window-width="1366"
     inkscape:window-height="719"
     inkscape:window-x="0"
     inkscape:window-y="1"
     inkscape:window-maximized="1"
     units="px"
     guidetolerance="20"
     inkscape:snap-global="false"
     fit-margin-top="0"
     fit-margin-left="0"
     fit-margin-right="0"
     fit-margin-bottom="0" />
  <metadata
     id="metadata6775">
    <rdf:RDF>
      <cc:Work
         rdf:about="">
        <dc:format>image/svg+xml</dc:format>
        <dc:type
           rdf:resource="http://purl.org/dc/dcmitype/StillImage" />
        <dc:title></dc:title>
      </cc:Work>
    </rdf:RDF>
  </metadata>
  <g
     style="stroke-width:1.00086236"
     transform="matrix(-3.7895764,-0.5689176,0,3.7895764,272.07314,-19.429295)"
     id="g1417">
    <g
       style="stroke-width:0.55646902"
       transform="matrix(0.47587821,0,0,0.47587821,32.228041,53.153152)"
       id="g1407">
      <path
         style="fill:#89664c;stroke-width:0.55646902"
         inkscape:connector-curvature="0"
         d="M 32,64 0,44.8 V 19.2 l 32,19.2 z"
         id="path1387" />
      <path
         style="fill:#fed0ac;stroke-width:0.55646902"
         inkscape:connector-curvature="0"
         d="M 32,38.4 V 64 L 64,44.8 V 19.2 Z"
         id="path1389" />
      <path
         style="fill:#d3976e;stroke-width:0.55646902"
         inkscape:connector-curvature="0"
         d="M 0,19.2 32,38.4 64,19.2 32,0 Z"
         id="path1391" />
      <path
         style="fill:#89664c;stroke-width:0.55646902"
         inkscape:connector-curvature="0"
         d="M 50.9,27 19,7.8 13,11.4 45,30.6 Z"
         id="path1393" />
      <path
         style="fill:#d0d0d0;stroke-width:0.55646902"
         inkscape:connector-curvature="0"
         d="M 39.3,6.8 32.2,2.4 26.3,6 l 7.1,4.3 z"
         id="path1395" />
      <path
         style="fill:#d3976e;stroke-width:0.55646902"
         inkscape:connector-curvature="0"
         d="m 50.8,27.1 -5.6,3.4 v 9.2 l 5.6,-3.4 z"
         id="path1397" />
      <g
         style="fill:#ffffff;stroke-width:0.55646902"
         id="g1403">
        <path
           style="stroke-width:0.55646902"
           inkscape:connector-curvature="0"
           d="m 62.5,22.1 -5.7,3.4 v 9.2 l 5.7,-3.4 z"
           id="path1399" />
        <path
           style="stroke-width:0.55646902"
           inkscape:connector-curvature="0"
           d="m 41.6,43.5 -7.7,4.6 V 60.7 L 41.6,56 Z"
           id="path1401" />
      </g>
      <path
         style="fill:#d3976e;stroke-width:0.55646902"
         inkscape:connector-curvature="0"
         d="m 45.2,56.1 5.6,-3.4 v -9.2 l -5.6,3.4 z"
         id="path1405" />
    </g>
    <g
       style="stroke-width:1.36485624"
       transform="matrix(0.19402154,0,0,0.19402154,59.377753,74.092439)"
       id="g1415">
      <path
         style="fill:#f2b200;stroke-width:1.36485624"
         inkscape:connector-curvature="0"
         d="M 29.1,12.9 H 19 L 12.9,19 V 29.1 L 43.8,64 64,43.8 29.1,12.9 m -6.4,9.8 c -0.9,0.9 -2.4,0.9 -3.4,0 -0.9,-0.9 -0.9,-2.4 0,-3.4 0.9,-0.9 2.4,-0.9 3.4,0 0.9,1 0.9,2.5 0,3.4"
         id="path1409" />
      <path
         style="fill:#94989b;stroke-width:1.36485624"
         inkscape:connector-curvature="0"
         d="M 21.9,20.8 C 21.6,19.5 21,18.2 20.3,17.1 18.6,14.3 16.2,12 13.4,10.3 9.6,8.1 5.3,7.1 0.9,6.7 0.4,6.7 0,7.2 0,7.6 c 0,0.5 0.4,0.9 0.9,0.9 4.7,0.4 9.5,1.7 13.4,4.5 1.1,0.8 2.4,2.1 3.3,3.3 0.2,0.2 -0.1,-0.2 0,0.1 0,0.1 0.1,0.1 0.1,0.2 0.1,0.1 0.2,0.3 0.3,0.4 0.2,0.3 0.4,0.5 0.5,0.8 0.3,0.5 0.5,0.9 0.8,1.4 0.1,0.1 0.1,0.3 0.2,0.4 0,0.1 0.1,0.1 0.1,0.2 0.1,0.2 0.2,0.5 0.2,0.7 0.1,0.2 0.1,0.4 0.2,0.6 0.3,1.4 2.2,0.9 1.9,-0.3"
         id="path1411" />
      <path
         style="fill:#3e4347;stroke-width:1.36485624"
         inkscape:connector-curvature="0"
         d="m 15.3,16.6 c 0,0 -0.1,-0.1 -0.1,-0.1 C 14.7,16.1 14.3,15.7 13.9,15.2 13,14.2 12.2,12.9 11.6,11.6 9.9,8.3 9,4.6 8.7,1 8.6,0.4 8.2,0 7.6,0 7.1,0 6.6,0.4 6.7,0.9 c 0.3,4 1.4,8 3.2,11.6 0.7,1.4 1.6,2.8 2.6,4 0.4,0.5 0.9,1 1.4,1.4 l 1.4,-1.3"
         id="path1413" />
    </g>
  </g>
  <g
     style="stroke-width:2.20281744"
     transform="matrix(1.721815,0,0,1.721815,-72.938195,147.35279)"
     id="g1483">
    <g
       id="g1479"
       transform="matrix(0.82420935,0,0,0.82420935,22.816531,4.5960328)"
       style="stroke-width:2.67264295">
      <path
         id="path1463"
         d="m 129.79377,26.144923 c 4.57729,4.497917 1.77271,12.435417 6.35,16.933333 3.36021,-2.2225 7.22312,-4.392083 10.58333,-6.614583 -2.03729,-1.984375 -2.19604,-4.868333 -2.64583,-7.408333 -2.09021,-0.79375 -4.39208,-1.852084 -7.67292,-2.910417 h -6.61458"
         inkscape:connector-curvature="0"
         style="fill:#d9e3e8;stroke-width:0.70713681" />
      <g
         transform="matrix(0.26458333,0,0,0.26458333,129.79377,26.144923)"
         id="g1471"
         style="fill:#7d8b91;stroke-width:2.67264295">
        <path
           id="path1465"
           d="m 13,9 c 0.4,0.8 0.8,1.6 1.1,2.5 5.4,-1 10.8,-2 16.2,-3 C 30,7.8 29.7,7.1 29.3,6.3 24,7.3 18.5,8.1 13,9"
           inkscape:connector-curvature="0"
           style="stroke-width:2.67264295" />
        <path
           id="path1467"
           d="M 16.4,18.8 C 21.7,17.5 27,16.2 32.3,14.9 32.1,14.1 32,13.3 31.7,12.6 26.4,13.8 21,15 15.7,16.2 c 0.3,0.8 0.5,1.7 0.7,2.6"
           inkscape:connector-curvature="0"
           style="stroke-width:2.67264295" />
        <path
           id="path1469"
           d="m 17.6,26.5 c 10.5,-3.3 21.1,-6.6 31.6,-9.8 -0.1,-0.7 -0.2,-1.4 -0.3,-2 -10.6,3 -21.1,6.1 -31.7,9.1 0.2,0.8 0.3,1.7 0.4,2.7"
           inkscape:connector-curvature="0"
           style="stroke-width:2.67264295" />
      </g>
      <path
         id="path1473"
         d="m 136.40835,26.144923 c 1.29646,1.27 0.76729,4.736042 1.05834,6.35 1.85208,-0.502708 4.7625,-2.936875 6.61458,-3.439583 -2.09021,-0.79375 -4.39208,-1.852084 -7.67292,-2.910417"
         inkscape:connector-curvature="0"
         style="opacity:0.5;fill:#333333;stroke-width:0.70713681" />
      <path
         id="path1475"
         d="m 135.64106,39.718048 c 0.10583,0.211666 0.18521,0.449791 0.3175,0.661458 1.32292,-0.740833 2.64583,-1.508125 3.96875,-2.248958 -0.10583,-0.185208 -0.18521,-0.370417 -0.26458,-0.582083 -1.34938,0.740833 -2.67229,1.455208 -4.02167,2.169583"
         inkscape:connector-curvature="0"
         style="fill:#7d8b91;stroke-width:0.70713681" />
      <path
         id="path1477"
         d="m 136.40835,26.144923 c 1.29646,1.27 1.74625,2.804583 2.03729,4.418542 1.85209,-0.502709 3.78355,-1.005417 5.63563,-1.508125 -2.09021,-0.79375 -4.39208,-1.852084 -7.67292,-2.910417"
         inkscape:connector-curvature="0"
         style="fill:#d9e3e8;stroke-width:0.70713681" />
    </g>
    <path
       inkscape:connector-curvature="0"
       d="m 137.83667,30.459233 c -1.51939,0 -2.75003,1.230637 -2.75003,2.750025 0,1.519389 1.23064,2.750026 2.75003,2.750026 1.51939,0 2.75002,-1.230637 2.75002,-2.750026 0,-1.519388 -1.23063,-2.750025 -2.75002,-2.750025 z m 1.37501,3.025028 h -1.10001 v 1.10001 h -0.55001 v -1.10001 h -1.1 v -0.550006 h 1.1 v -1.100009 h 0.55001 v 1.100009 h 1.10001 z"
       id="path1481"
       style="fill:#859900;stroke-width:0.58282876" />
  </g>
  <use
     x="0"
     y="0"
     xlink:href="#g1483"
     id="use1485"
     transform="translate(-3.8053288e-6,27)"
     width="100%"
     height="100%" />
  <text
     xml:space="preserve"
     style="font-style:normal;font-variant:normal;font-weight:normal;font-stretch:normal;font-size:18px;line-height:1.25;font-family:'Source Code Pro';-inkscape-font-specification:'Source Code Pro';letter-spacing:0px;word-spacing:0px;fill:#657b83;fill-opacity:1;stroke:none"
     x="175.40724"
     y="206.41611"
     id="text1489"><tspan
       sodipodi:role="line"
       id="tspan1487"
       x="175.40724"
       y="206.41611">cookies.txt</tspan></text>
  <text
     id="text1493"
     y="238.41611"
     x="175.40724"
     style="font-style:normal;font-variant:normal;font-weight:normal;font-stretch:normal;font-size:18px;line-height:1.25;font-family:'Source Code Pro';-inkscape-font-specification:'Source Code Pro';letter-spacing:0px;word-spacing:0px;fill:#657b83;fill-opacity:1;stroke:none"
     xml:space="preserve"><tspan
       y="238.41611"
       x="175.40724"
       id="tspan1491"
       sodipodi:role="line">muffins.txt</tspan></text>
  <use
     x="0"
     y="0"
     xlink:href="#g1417"
     id="use1495"
     transform="translate(-3.8053288e-6,-155)"
     width="100%"
     height="100%" />
  <path
     inkscape:connector-curvature="0"
     id="path1793"
     d="m 92.008776,114.79928 v 36"
     style="fill:none;stroke:#657b83;stroke-width:1px;stroke-linecap:butt;stroke-linejoin:miter;stroke-opacity:1;marker-end:url(#marker1797)" />
  <use
     x="0"
     y="0"
     xlink:href="#g1483"
     id="use2009"
     transform="translate(-3.8053288e-6,-148)"
     width="100%"
     height="100%" />
  <text
     id="text2013"
     y="61.416103"
     x="175.40724"
     style="font-style:normal;font-variant:normal;font-weight:normal;font-stretch:normal;font-size:18px;line-height:1.25;font-family:'Source Code Pro';-inkscape-font-specification:'Source Code Pro';letter-spacing:0px;word-spacing:0px;fill:#657b83;fill-opacity:1;stroke:none"
     xml:space="preserve"><tspan
       y="61.416103"
       x="175.40724"
       id="tspan2011"
       sodipodi:role="line">pancakes.txt</tspan></text>
</svg>
