<?xml version="1.0" encoding="UTF-8" standalone="no"?>
<!-- Created with Inkscape (http://www.inkscape.org/) -->

<svg
   xmlns:dc="http://purl.org/dc/elements/1.1/"
   xmlns:cc="http://creativecommons.org/ns#"
   xmlns:rdf="http://www.w3.org/1999/02/22-rdf-syntax-ns#"
   xmlns:svg="http://www.w3.org/2000/svg"
   xmlns="http://www.w3.org/2000/svg"
   xmlns:xlink="http://www.w3.org/1999/xlink"
   xmlns:sodipodi="http://sodipodi.sourceforge.net/DTD/sodipodi-0.dtd"
   xmlns:inkscape="http://www.inkscape.org/namespaces/inkscape"
   width="268.34155"
   height="268.34155"
   viewBox="0 0 70.394261 70.998705"
   version="1.1"
   id="svg8"
   inkscape:version="0.92.1 r15381"
   sodipodi:docname="desktop.inkscape.svg">
  <defs
     id="defs2">
    <clipPath
       clipPathUnits="userSpaceOnUse"
       id="clipPath16">
      <path
         d="M 0,36 H 36 V 0 H 0 Z"
         id="path18"
         inkscape:connector-curvature="0" />
    </clipPath>
    <clipPath
       clipPathUnits="userSpaceOnUse"
       id="clipPath16-7">
      <path
         d="M 0,36 H 36 V 0 H 0 Z"
         id="path18-9"
         inkscape:connector-curvature="0" />
    </clipPath>
    <linearGradient
       id="linearGradient3462">
      <stop
         offset="0"
         style="stop-color:#ffffff;stop-opacity:1"
         id="stop3464" />
      <stop
         offset="0.03457849"
         style="stop-color:#ffffff;stop-opacity:0.23529412"
         id="stop3466" />
      <stop
         offset="0.96375686"
         style="stop-color:#ffffff;stop-opacity:0.15686275"
         id="stop3468" />
      <stop
         offset="1"
         style="stop-color:#ffffff;stop-opacity:0.39215687"
         id="stop3470" />
    </linearGradient>
    <linearGradient
       id="linearGradient5060-2">
      <stop
         offset="0"
         style="stop-color:#000000;stop-opacity:1"
         id="stop5062-3" />
      <stop
         offset="1"
         style="stop-color:#000000;stop-opacity:0"
         id="stop5064-1" />
    </linearGradient>
    <linearGradient
       id="linearGradient5048-8">
      <stop
         offset="0"
         style="stop-color:#000000;stop-opacity:0"
         id="stop5050-4" />
      <stop
         offset="0.5"
         style="stop-color:#000000;stop-opacity:1"
         id="stop5056-5" />
      <stop
         offset="1"
         style="stop-color:#000000;stop-opacity:0"
         id="stop5052-1" />
    </linearGradient>
    <radialGradient
       gradientTransform="matrix(0.02458466,0,0,0.01575355,109.28161,109.82487)"
       gradientUnits="userSpaceOnUse"
       xlink:href="#linearGradient5060-2"
       id="radialGradient3172"
       fy="486.64789"
       fx="605.71429"
       r="117.14286"
       cy="486.64789"
       cx="605.71429" />
    <radialGradient
       gradientTransform="matrix(-0.02458466,0,0,0.01575355,96.829523,109.82487)"
       gradientUnits="userSpaceOnUse"
       xlink:href="#linearGradient5060-2"
       id="radialGradient3175"
       fy="486.64789"
       fx="605.71429"
       r="117.14286"
       cy="486.64789"
       cx="605.71429" />
    <linearGradient
       gradientTransform="matrix(0.08715722,0,0,0.01575355,71.554454,109.82487)"
       gradientUnits="userSpaceOnUse"
       xlink:href="#linearGradient5048-8"
       id="linearGradient3178"
       y2="609.50507"
       x2="302.85715"
       y1="366.64789"
       x1="302.85715" />
    <linearGradient
       y2="42.437775"
       x2="40.290417"
       y1="5.4143372"
       x1="40.290417"
       gradientTransform="matrix(1.7048308,0,0,1.0133365,62.139624,73.736322)"
       gradientUnits="userSpaceOnUse"
       id="linearGradient3133"
       xlink:href="#linearGradient3462" />
    <radialGradient
       cx="4.5993023"
       cy="8.4497671"
       r="19.99999"
       fx="4.5993023"
       fy="8.4497671"
       id="radialGradient3166-9"
       xlink:href="#linearGradient2867-449-88-871-390-598-476-591-434-148-57-177-8"
       gradientUnits="userSpaceOnUse"
       gradientTransform="matrix(0,2.7905692,-4.9069185,-8.4436746e-8,144.51807,59.295952)" />
    <linearGradient
       id="linearGradient2867-449-88-871-390-598-476-591-434-148-57-177-8">
      <stop
         id="stop3750-4"
         style="stop-color:#90dbec;stop-opacity:1"
         offset="0" />
      <stop
         id="stop3752-8"
         style="stop-color:#55c1ec;stop-opacity:1"
         offset="0.26238" />
      <stop
         id="stop3754-1"
         style="stop-color:#3689e6;stop-opacity:1"
         offset="0.704952" />
      <stop
         id="stop3756-0"
         style="stop-color:#2b63a0;stop-opacity:1"
         offset="1" />
    </linearGradient>
  </defs>
  <sodipodi:namedview
     id="base"
     pagecolor="#ffffff"
     bordercolor="#666666"
     borderopacity="1.0"
     inkscape:pageopacity="0.0"
     inkscape:pageshadow="2"
     inkscape:zoom="1"
     inkscape:cx="-24.635126"
     inkscape:cy="24.972141"
     inkscape:document-units="mm"
     inkscape:current-layer="layer1"
     showgrid="false"
     units="px"
     viewbox-width="104.67"
     scale-x="0.39149"
     fit-margin-top="0"
     fit-margin-left="0"
     fit-margin-right="0"
     fit-margin-bottom="0"
     inkscape:window-width="1366"
     inkscape:window-height="719"
     inkscape:window-x="0"
     inkscape:window-y="1"
     inkscape:window-maximized="1" />
  <metadata
     id="metadata5">
    <rdf:RDF>
      <cc:Work
         rdf:about="">
        <dc:format>image/svg+xml</dc:format>
        <dc:type
           rdf:resource="http://purl.org/dc/dcmitype/StillImage" />
        <dc:title></dc:title>
      </cc:Work>
    </rdf:RDF>
  </metadata>
  <g
     inkscape:label="Layer 1"
     inkscape:groupmode="layer"
     id="layer1"
     transform="translate(-14.524553,-87.642008)">
    <g
       id="g6732">
      <g
         transform="translate(22.225,-8.9958333)"
         id="g5714">
        <g
           id="g5571"
           transform="matrix(1.1833117,0,0,1.1833117,-10.369292,94.271218)"
           style="stroke-width:0.22359563">
          <path
             id="path5542"
             d="M 62,6 C 62,4 60,2 58,2 H 6 C 4,2 2,4 2,6 v 38 h 60 z"
             inkscape:connector-curvature="0"
             style="fill:#212528;stroke-width:0.22359563" />
          <path
             id="path5544"
             d="m 2,44 v 4 c 0,2 2,4 4,4 h 52 c 2,0 4,-2 4,-4 v -4 z"
             inkscape:connector-curvature="0"
             style="fill:#dddddd;stroke-width:0.22359563" />
          <path
             id="path5546"
             d="m 24,54 c 0,4 -4,4 -8,4 h 32 c -4,0 -8,0 -8,-4 V 52 H 24 v 2"
             inkscape:connector-curvature="0"
             style="fill:#bfbebe;stroke-width:0.22359563" />
          <path
             id="path5548"
             d="M 6,6 H 58 V 40 H 6 Z"
             inkscape:connector-curvature="0"
             style="fill:#3e4347;stroke-width:0.22359563" />
          <g
             id="g5554"
             style="fill:#94989b;stroke-width:0.22359563">
            <circle
               id="circle5550"
               r="1"
               cy="47.900002"
               cx="32"
               style="stroke-width:0.22359563" />
            <path
               id="path5552"
               d="m 16,58 h 32 v 4 H 16 Z"
               inkscape:connector-curvature="0"
               style="stroke-width:0.22359563" />
          </g>
        </g>
        <g
           id="g5694">
          <g
             transform="matrix(0.93699601,0,0,1.0240507,-69.065974,21.143841)"
             id="g5657"
             style="stroke-width:1.02086997">
            <rect
               width="65.29203"
               height="39.023796"
               rx="0.56474817"
               ry="0.51673877"
               x="70.409554"
               y="78.489975"
               id="rect5505-21-3-8-5-2"
               style="color:#000000;display:inline;overflow:visible;visibility:visible;opacity:1;fill:url(#radialGradient3166-9);fill-opacity:1;fill-rule:nonzero;stroke:none;stroke-width:0.27010518;stroke-linecap:round;stroke-linejoin:round;stroke-miterlimit:4;stroke-dasharray:none;stroke-dashoffset:0;stroke-opacity:1;marker:none;enable-background:accumulate" />
            <rect
               width="63.078743"
               height="37.49345"
               rx="0.28237408"
               ry="0.25836939"
               x="71.51619"
               y="79.309669"
               id="rect6741-5-0-2-3"
               style="opacity:0.5;fill:none;stroke:url(#linearGradient3133);stroke-width:0.27010518;stroke-linecap:round;stroke-linejoin:round;stroke-miterlimit:4;stroke-dasharray:none;stroke-dashoffset:0;stroke-opacity:1" />
            <rect
               width="65.29203"
               height="39.023796"
               rx="0.56474817"
               ry="0.51673877"
               x="70.409554"
               y="78.489975"
               id="rect5505-21-3-8-9-1-1"
               style="color:#000000;clip-rule:nonzero;display:inline;overflow:visible;visibility:visible;opacity:0.5;isolation:auto;mix-blend-mode:normal;color-interpolation:sRGB;color-interpolation-filters:linearRGB;solid-color:#000000;solid-opacity:1;fill:#000000;fill-opacity:0;fill-rule:nonzero;stroke:#00537d;stroke-width:0.27010518;stroke-linecap:round;stroke-linejoin:round;stroke-miterlimit:4;stroke-dasharray:none;stroke-dashoffset:0;stroke-opacity:1;marker:none;color-rendering:auto;image-rendering:auto;shape-rendering:auto;text-rendering:auto;enable-background:accumulate" />
          </g>
          <g
             transform="matrix(1.0239856,0,0,1.0240507,-78.030736,21.143841)"
             id="g5663"
             style="stroke-width:0.97654521">
            <path
               inkscape:connector-curvature="0"
               style="opacity:0.7;fill:#ffffff;fill-opacity:0.58823529;stroke:#ffffff;stroke-width:0.25837761px;stroke-linecap:butt;stroke-linejoin:miter;stroke-opacity:1"
               id="path4306"
               d="m 86.637625,112.92274 c -0.866242,0 -1.563613,0.68253 -1.563613,1.53034 v 3.06069 h 35.963108 v -3.06069 c 0,-0.84781 -0.69737,-1.53034 -1.56361,-1.53034 z" />
            <path
               inkscape:connector-curvature="0"
               style="color:#000000;display:inline;overflow:visible;visibility:visible;opacity:0.15;fill:#000000;fill-opacity:1;fill-rule:nonzero;stroke:none;stroke-width:0.25837761;stroke-linecap:butt;stroke-linejoin:miter;stroke-miterlimit:4;stroke-dasharray:none;stroke-dashoffset:0;stroke-opacity:1;marker:none;enable-background:accumulate"
               id="path3176-4-7"
               d="m 91.331389,108.74543 c -1.318727,0.01 -2.639942,-0.0198 -3.957376,0.0149 -0.803099,0.0765 -1.246796,0.9245 -1.126836,1.66783 0.02747,1.38535 -0.05537,2.78104 0.04185,4.16063 0.149154,0.77312 0.998735,1.09889 1.709682,0.99233 1.362561,-0.0274 2.735074,0.0553 4.09188,-0.0418 0.773117,-0.14915 1.098893,-0.99873 0.992333,-1.70968 -0.02745,-1.36256 0.05534,-2.73507 -0.04185,-4.09188 -0.149154,-0.77311 -0.998735,-1.09889 -1.709683,-0.99233 z m 9.182071,0 c -1.318728,0.01 -2.639943,-0.0198 -3.957377,0.0149 -0.803099,0.0765 -1.246796,0.9245 -1.126836,1.66783 0.02747,1.38535 -0.05537,2.78104 0.04185,4.16063 0.149154,0.77312 0.998735,1.09889 1.709682,0.99233 1.362561,-0.0274 2.735074,0.0553 4.091881,-0.0418 0.77311,-0.14915 1.09889,-0.99873 0.99233,-1.70968 -0.0275,-1.36256 0.0553,-2.73507 -0.0418,-4.09188 -0.14915,-0.77311 -0.99873,-1.09889 -1.70968,-0.99233 z m 8.4169,0 c -1.31873,0.01 -2.63995,-0.0198 -3.95738,0.0149 -0.8031,0.0765 -1.2468,0.9245 -1.12684,1.66783 0.0275,1.38535 -0.0554,2.78104 0.0418,4.16063 0.14916,0.77312 0.99874,1.09889 1.70968,0.99233 1.36256,-0.0274 2.73508,0.0553 4.09188,-0.0418 0.77312,-0.14915 1.0989,-0.99873 0.99234,-1.70968 -0.0275,-1.36256 0.0553,-2.73507 -0.0418,-4.09188 -0.14915,-0.77311 -0.99874,-1.09889 -1.70968,-0.99233 z m 9.18207,0 c -1.31873,0.01 -2.63995,-0.0198 -3.95738,0.0149 -0.8031,0.0765 -1.2468,0.9245 -1.12684,1.66783 0.0275,1.38535 -0.0554,2.78104 0.0418,4.16063 0.14915,0.77312 0.99874,1.09889 1.70968,0.99233 1.36256,-0.0274 2.73508,0.0553 4.09188,-0.0418 0.77312,-0.14915 1.0989,-0.99873 0.99234,-1.70968 -0.0275,-1.36256 0.0553,-2.73507 -0.0419,-4.09188 -0.14915,-0.77311 -0.99874,-1.09889 -1.70968,-0.99233 z" />
            <path
               inkscape:connector-curvature="0"
               style="color:#000000;display:inline;overflow:visible;visibility:visible;opacity:0.15;fill:#000000;fill-opacity:1;fill-rule:nonzero;stroke:none;stroke-width:0.25837761;stroke-linecap:butt;stroke-linejoin:miter;stroke-miterlimit:4;stroke-dasharray:none;stroke-dashoffset:0;stroke-opacity:1;marker:none;enable-background:accumulate"
               d="m 87.520472,108.71429 c -0.295871,0 -0.533529,0.30556 -0.533529,0.68597 v 5.51462 c 0,0.38041 0.237658,0.68596 0.533529,0.68596 h 4.28915 c 0.29587,0 0.533529,-0.30555 0.533529,-0.68596 v -5.51462 c 0,-0.38041 -0.237659,-0.68597 -0.533529,-0.68597 z m 9.18207,0 c -0.295872,0 -0.533529,0.30556 -0.533529,0.68597 v 5.51462 c 0,0.38041 0.237657,0.68596 0.533529,0.68596 h 4.289148 c 0.29587,0 0.53353,-0.30555 0.53353,-0.68596 v -5.51462 c 0,-0.38041 -0.23766,-0.68597 -0.53353,-0.68597 z m 8.416898,0 c -0.29587,0 -0.53353,0.30556 -0.53353,0.68597 v 5.51462 c 0,0.38041 0.23766,0.68596 0.53353,0.68596 h 4.28915 c 0.29587,0 0.53353,-0.30555 0.53353,-0.68596 v -5.51462 c 0,-0.38041 -0.23766,-0.68597 -0.53353,-0.68597 z m 9.18207,0 c -0.29587,0 -0.53353,0.30556 -0.53353,0.68597 v 5.51462 c 0,0.38041 0.23766,0.68596 0.53353,0.68596 h 4.28915 c 0.29587,0 0.53353,-0.30555 0.53353,-0.68596 v -5.51462 c 0,-0.38041 -0.23766,-0.68597 -0.53353,-0.68597 z"
               id="path3176-4" />
            <path
               inkscape:connector-curvature="0"
               style="color:#000000;display:inline;overflow:visible;visibility:visible;fill:#f7f7f7;fill-opacity:1;fill-rule:nonzero;stroke:#ffffff;stroke-width:0.2546123;stroke-linecap:butt;stroke-linejoin:miter;stroke-miterlimit:4;stroke-dashoffset:0;stroke-opacity:1;marker:none;enable-background:accumulate"
               d="m 87.822356,109.85607 c -0.25422,0 -0.458805,0.20459 -0.458804,0.45881 v 3.68538 c 0,0.25422 0.204584,0.4588 0.458804,0.4588 h 3.685382 c 0.254218,0 0.458805,-0.20458 0.458804,-0.4588 v -3.68538 c 0,-0.25422 -0.204586,-0.45881 -0.458804,-0.45881 z m 9.18207,0 c -0.25422,0 -0.458804,0.20459 -0.458804,0.45881 v 3.68538 c 0,0.25422 0.204584,0.4588 0.458804,0.4588 h 3.685384 c 0.25422,0 0.4588,-0.20458 0.4588,-0.4588 v -3.68538 c 0,-0.25422 -0.20458,-0.45881 -0.4588,-0.45881 z m 8.416894,0 c -0.25422,0 -0.4588,0.20459 -0.4588,0.45881 v 3.68538 c 0,0.25422 0.20458,0.4588 0.4588,0.4588 h 3.68539 c 0.25421,0 0.4588,-0.20458 0.4588,-0.4588 v -3.68538 c 0,-0.25422 -0.20459,-0.45881 -0.4588,-0.45881 z m 9.18207,0 c -0.25422,0 -0.4588,0.20459 -0.4588,0.45881 v 3.68538 c 0,0.25422 0.20458,0.4588 0.4588,0.4588 h 3.68538 c 0.25422,0 0.45881,-0.20458 0.45881,-0.4588 v -3.68538 c 0,-0.25422 -0.20459,-0.45881 -0.45881,-0.45881 z"
               id="path3176" />
          </g>
        </g>
      </g>
      <g
         transform="translate(19.411006,-5.9237237)"
         id="g6666">
        <path
           style="fill:#962c2c;stroke-width:0.26458335"
           inkscape:connector-curvature="0"
           d="m 38.096924,103.13994 -8.257648,3.14753 c 0,0 -0.296239,-0.74059 -0.555448,-1.14792 -0.629507,-1.03684 -1.740401,-0.70357 -1.740401,-0.70357 l -6.295068,2.25882 c 0,0 -0.851686,0.40733 -1.221984,1.48119 -0.333268,1.03684 0,2.33288 0,2.33288 l 3.628922,16.29312 14.441627,-13.92321 c 0,0 0.481387,-6.22101 0.777626,-9.0723 0.07406,-1.03684 -0.777626,-0.66654 -0.777626,-0.66654"
           id="path6562" />
        <g
           id="g10-3"
           transform="matrix(0.30508938,0.12768029,0.12768029,-0.30508938,27.655815,110.45303)">
          <g
             id="g12-8">
            <g
               id="g14-0"
               clip-path="url(#clipPath16-7)">
              <g
                 id="g20-2"
                 transform="translate(32.415,26.4136)">
                <path
                   d="m 0,0 v 0.001 l -9,8.998 c -0.361,0.363 -0.862,0.587 -1.415,0.587 -1.104,0 -1.999,-0.896 -2,-1.999 0,-0.552 0.224,-1.053 0.586,-1.415 l -3.859,-3.859 9,-9 3.859,3.859 c 0.362,-0.362 0.862,-0.586 1.414,-0.586 1.104,0 2.001,0.896 2,2 C 0.585,-0.861 0.361,-0.362 0,0"
                   style="fill:#e1e8ed;fill-opacity:1;fill-rule:nonzero;stroke:none"
                   id="path22-4"
                   inkscape:connector-curvature="0" />
              </g>
              <g
                 id="g24-8"
                 transform="translate(22,36)">
                <path
                   d="m 0,0 h -15 c -2.209,0 -4,-1.791 -4,-4 v -28 c 0,-2.209 1.791,-4 4,-4 H 7 c 2.209,0 4,1.791 4,4 v 21 H 2 c -1,0 -2,1 -2,2 z"
                   style="fill:#ccd6dd;fill-opacity:1;fill-rule:nonzero;stroke:none"
                   id="path26-3"
                   inkscape:connector-curvature="0" />
              </g>
              <g
                 id="g28"
                 transform="translate(22,36)">
                <path
                   d="m 0,0 h -2 v -9 c 0,-2.209 1.791,-4 4,-4 l 9,10e-4 V -11 H 2 c -1,0 -2,1 -2,2 z"
                   style="fill:#99aab5;fill-opacity:1;fill-rule:nonzero;stroke:none"
                   id="path30"
                   inkscape:connector-curvature="0" />
              </g>
              <g
                 id="g32"
                 transform="translate(17,28)">
                <path
                   d="m 0,0 c 0,-0.552 -0.448,-1 -1,-1 h -8 c -0.552,0 -1,0.448 -1,1 0,0.552 0.448,1 1,1 h 8 C -0.448,1 0,0.552 0,0"
                   style="fill:#99aab5;fill-opacity:1;fill-rule:nonzero;stroke:none"
                   id="path34"
                   inkscape:connector-curvature="0" />
              </g>
              <g
                 id="g36"
                 transform="translate(17,24)">
                <path
                   d="m 0,0 c 0,-0.552 -0.448,-1 -1,-1 h -8 c -0.552,0 -1,0.448 -1,1 0,0.552 0.448,1 1,1 h 8 C -0.448,1 0,0.552 0,0"
                   style="fill:#99aab5;fill-opacity:1;fill-rule:nonzero;stroke:none"
                   id="path38"
                   inkscape:connector-curvature="0" />
              </g>
              <g
                 id="g40"
                 transform="translate(29,20)">
                <path
                   d="m 0,0 c 0,-0.552 -0.447,-1 -1,-1 h -20 c -0.552,0 -1,0.448 -1,1 0,0.552 0.448,1 1,1 H -1 C -0.447,1 0,0.552 0,0"
                   style="fill:#99aab5;fill-opacity:1;fill-rule:nonzero;stroke:none"
                   id="path42"
                   inkscape:connector-curvature="0" />
              </g>
              <g
                 id="g44"
                 transform="translate(29,16)">
                <path
                   d="m 0,0 c 0,-0.553 -0.447,-1 -1,-1 h -20 c -0.552,0 -1,0.447 -1,1 0,0.553 0.448,1 1,1 H -1 C -0.447,1 0,0.553 0,0"
                   style="fill:#99aab5;fill-opacity:1;fill-rule:nonzero;stroke:none"
                   id="path46"
                   inkscape:connector-curvature="0" />
              </g>
              <g
                 id="g48"
                 transform="translate(29,12)">
                <path
                   d="m 0,0 c 0,-0.553 -0.447,-1 -1,-1 h -20 c -0.552,0 -1,0.447 -1,1 0,0.553 0.448,1 1,1 H -1 C -0.447,1 0,0.553 0,0"
                   style="fill:#99aab5;fill-opacity:1;fill-rule:nonzero;stroke:none"
                   id="path50"
                   inkscape:connector-curvature="0" />
              </g>
              <g
                 id="g52"
                 transform="translate(29,8)">
                <path
                   d="m 0,0 c 0,-0.553 -0.447,-1 -1,-1 h -20 c -0.552,0 -1,0.447 -1,1 0,0.553 0.448,1 1,1 H -1 C -0.447,1 0,0.553 0,0"
                   style="fill:#99aab5;fill-opacity:1;fill-rule:nonzero;stroke:none"
                   id="path54"
                   inkscape:connector-curvature="0" />
              </g>
            </g>
          </g>
        </g>
        <g
           transform="matrix(0.3083234,-0.11965979,-0.11965979,-0.3083234,24.593239,119.36883)"
           id="g6618">
          <g
             id="g6616">
            <g
               clip-path="url(#clipPath16-7)"
               id="g6614">
              <g
                 transform="translate(32.415,26.4136)"
                 id="g6580">
                <path
                   inkscape:connector-curvature="0"
                   id="path6578"
                   style="fill:#e1e8ed;fill-opacity:1;fill-rule:nonzero;stroke:none"
                   d="m 0,0 v 0.001 l -9,8.998 c -0.361,0.363 -0.862,0.587 -1.415,0.587 -1.104,0 -1.999,-0.896 -2,-1.999 0,-0.552 0.224,-1.053 0.586,-1.415 l -3.859,-3.859 9,-9 3.859,3.859 c 0.362,-0.362 0.862,-0.586 1.414,-0.586 1.104,0 2.001,0.896 2,2 C 0.585,-0.861 0.361,-0.362 0,0" />
              </g>
              <g
                 transform="translate(22,36)"
                 id="g6584">
                <path
                   inkscape:connector-curvature="0"
                   id="path6582"
                   style="fill:#ccd6dd;fill-opacity:1;fill-rule:nonzero;stroke:none"
                   d="m 0,0 h -15 c -2.209,0 -4,-1.791 -4,-4 v -28 c 0,-2.209 1.791,-4 4,-4 H 7 c 2.209,0 4,1.791 4,4 v 21 H 2 c -1,0 -2,1 -2,2 z" />
              </g>
              <g
                 transform="translate(22,36)"
                 id="g6588">
                <path
                   inkscape:connector-curvature="0"
                   id="path6586"
                   style="fill:#99aab5;fill-opacity:1;fill-rule:nonzero;stroke:none"
                   d="m 0,0 h -2 v -9 c 0,-2.209 1.791,-4 4,-4 l 9,10e-4 V -11 H 2 c -1,0 -2,1 -2,2 z" />
              </g>
              <g
                 transform="translate(17,28)"
                 id="g6592">
                <path
                   inkscape:connector-curvature="0"
                   id="path6590"
                   style="fill:#99aab5;fill-opacity:1;fill-rule:nonzero;stroke:none"
                   d="m 0,0 c 0,-0.552 -0.448,-1 -1,-1 h -8 c -0.552,0 -1,0.448 -1,1 0,0.552 0.448,1 1,1 h 8 C -0.448,1 0,0.552 0,0" />
              </g>
              <g
                 transform="translate(17,24)"
                 id="g6596">
                <path
                   inkscape:connector-curvature="0"
                   id="path6594"
                   style="fill:#99aab5;fill-opacity:1;fill-rule:nonzero;stroke:none"
                   d="m 0,0 c 0,-0.552 -0.448,-1 -1,-1 h -8 c -0.552,0 -1,0.448 -1,1 0,0.552 0.448,1 1,1 h 8 C -0.448,1 0,0.552 0,0" />
              </g>
              <g
                 transform="translate(29,20)"
                 id="g6600">
                <path
                   inkscape:connector-curvature="0"
                   id="path6598"
                   style="fill:#99aab5;fill-opacity:1;fill-rule:nonzero;stroke:none"
                   d="m 0,0 c 0,-0.552 -0.447,-1 -1,-1 h -20 c -0.552,0 -1,0.448 -1,1 0,0.552 0.448,1 1,1 H -1 C -0.447,1 0,0.552 0,0" />
              </g>
              <g
                 transform="translate(29,16)"
                 id="g6604">
                <path
                   inkscape:connector-curvature="0"
                   id="path6602"
                   style="fill:#99aab5;fill-opacity:1;fill-rule:nonzero;stroke:none"
                   d="m 0,0 c 0,-0.553 -0.447,-1 -1,-1 h -20 c -0.552,0 -1,0.447 -1,1 0,0.553 0.448,1 1,1 H -1 C -0.447,1 0,0.553 0,0" />
              </g>
              <g
                 transform="translate(29,12)"
                 id="g6608">
                <path
                   inkscape:connector-curvature="0"
                   id="path6606"
                   style="fill:#99aab5;fill-opacity:1;fill-rule:nonzero;stroke:none"
                   d="m 0,0 c 0,-0.553 -0.447,-1 -1,-1 h -20 c -0.552,0 -1,0.447 -1,1 0,0.553 0.448,1 1,1 H -1 C -0.447,1 0,0.553 0,0" />
              </g>
              <g
                 transform="translate(29,8)"
                 id="g6612">
                <path
                   inkscape:connector-curvature="0"
                   id="path6610"
                   style="fill:#99aab5;fill-opacity:1;fill-rule:nonzero;stroke:none"
                   d="m 0,0 c 0,-0.553 -0.447,-1 -1,-1 h -20 c -0.552,0 -1,0.447 -1,1 0,0.553 0.448,1 1,1 H -1 C -0.447,1 0,0.553 0,0" />
              </g>
            </g>
          </g>
        </g>
        <path
           style="fill:#ff8736;stroke-width:0.26458335"
           inkscape:connector-curvature="0"
           d="M 23.618267,126.76496 39.429997,114.397 c 0,0 3.92516,-7.92438 4.07328,-8.51685 0.148119,-0.66654 -0.518418,-0.44436 -0.518418,-0.44436 l -8.405767,3.96219 c 0,0 -0.518418,2.22179 -1.518223,2.81426 -1.110894,0.62951 -6.295068,3.44378 -6.295068,3.44378 0,0 -0.740596,0.48138 -1.147924,1.25901 -0.444358,0.77763 -1.99961,9.84993 -1.99961,9.84993"
           id="path6564" />
      </g>
    </g>
  </g>
</svg>
