<?xml version="1.0" encoding="UTF-8" standalone="no"?>
<!-- Created with Inkscape (http://www.inkscape.org/) -->

<svg
   xmlns:dc="http://purl.org/dc/elements/1.1/"
   xmlns:cc="http://creativecommons.org/ns#"
   xmlns:rdf="http://www.w3.org/1999/02/22-rdf-syntax-ns#"
   xmlns:svg="http://www.w3.org/2000/svg"
   xmlns="http://www.w3.org/2000/svg"
   xmlns:sodipodi="http://sodipodi.sourceforge.net/DTD/sodipodi-0.dtd"
   xmlns:inkscape="http://www.inkscape.org/namespaces/inkscape"
   width="215"
   height="435.28522"
   viewBox="0 0 214.99999 435.28523"
   version="1.1"
   id="svg8"
   inkscape:version="0.92.2 5c3e80d, 2017-08-06"
   sodipodi:docname="detached-head.svg">
  <defs
     id="defs2">
    <marker
       inkscape:stockid="TriangleOutL"
       orient="auto"
       refY="0"
       refX="0"
       id="marker1044"
       style="overflow:visible"
       inkscape:isstock="true">
      <path
         id="path1042"
         d="M 5.77,0 -2.88,5 V -5 Z"
         style="fill:#657b83;fill-opacity:1;fill-rule:evenodd;stroke:#657b83;stroke-width:1.00000003pt;stroke-opacity:1"
         transform="scale(0.8)"
         inkscape:connector-curvature="0" />
    </marker>
    <marker
       inkscape:stockid="TriangleOutL"
       orient="auto"
       refY="0"
       refX="0"
       id="marker4741"
       style="overflow:visible"
       inkscape:isstock="true"
       inkscape:collect="always">
      <path
         id="path4739"
         d="M 5.77,0 -2.88,5 V -5 Z"
         style="fill:#657b83;fill-opacity:1;fill-rule:evenodd;stroke:#657b83;stroke-width:1.00000003pt;stroke-opacity:1"
         transform="scale(0.8)"
         inkscape:connector-curvature="0" />
    </marker>
    <marker
       inkscape:isstock="true"
       style="overflow:visible"
       id="marker11646"
       refX="0"
       refY="0"
       orient="auto"
       inkscape:stockid="TriangleOutL"
       inkscape:collect="always">
      <path
         inkscape:connector-curvature="0"
         transform="scale(0.8)"
         style="fill:#657b83;fill-opacity:1;fill-rule:evenodd;stroke:#657b83;stroke-width:1.00000003pt;stroke-opacity:1"
         d="M 5.77,0 -2.88,5 V -5 Z"
         id="path11644" />
    </marker>
    <marker
       inkscape:isstock="true"
       style="overflow:visible"
       id="marker4741-4"
       refX="0"
       refY="0"
       orient="auto"
       inkscape:stockid="TriangleOutL"
       inkscape:collect="always">
      <path
         inkscape:connector-curvature="0"
         transform="scale(0.8)"
         style="fill:#657b83;fill-opacity:1;fill-rule:evenodd;stroke:#657b83;stroke-width:1.00000003pt;stroke-opacity:1"
         d="M 5.77,0 -2.88,5 V -5 Z"
         id="path4739-5" />
    </marker>
  </defs>
  <sodipodi:namedview
     id="base"
     pagecolor="#ffffff"
     bordercolor="#666666"
     borderopacity="1.0"
     inkscape:pageopacity="0.0"
     inkscape:pageshadow="2"
     inkscape:zoom="1"
     inkscape:cx="202.53387"
     inkscape:cy="218.55303"
     inkscape:document-units="px"
     inkscape:current-layer="svg8"
     showgrid="false"
     units="px"
     inkscape:snap-global="false"
     inkscape:window-width="1366"
     inkscape:window-height="724"
     inkscape:window-x="0"
     inkscape:window-y="0"
     inkscape:window-maximized="0"
     fit-margin-top="0"
     fit-margin-left="0"
     fit-margin-right="0"
     fit-margin-bottom="0" />
  <metadata
     id="metadata5">
    <rdf:RDF>
      <cc:Work
         rdf:about="">
        <dc:format>image/svg+xml</dc:format>
        <dc:type
           rdf:resource="http://purl.org/dc/dcmitype/StillImage" />
        <dc:title></dc:title>
      </cc:Work>
    </rdf:RDF>
  </metadata>
  <text
     id="text3302"
     y="265.7785"
     x="73.481689"
     style="font-style:normal;font-variant:normal;font-weight:normal;font-stretch:normal;font-size:19.14993668px;line-height:120.00000477%;font-family:'Source Code Pro';-inkscape-font-specification:'Source Code Pro';text-align:start;letter-spacing:0px;word-spacing:0px;writing-mode:lr-tb;text-anchor:start;fill:#657b83;fill-opacity:1;stroke:none;stroke-width:0.99739248px;stroke-linecap:butt;stroke-linejoin:miter;stroke-opacity:1"
     xml:space="preserve"><tspan
       style="font-style:normal;font-variant:normal;font-weight:normal;font-stretch:normal;font-size:18px;font-family:'Source Code Pro';-inkscape-font-specification:'Source Code Pro';fill:#657b83;stroke-width:0.99739248px"
       y="265.7785"
       x="73.481689"
       id="tspan3300"
       sodipodi:role="line">master</tspan></text>
  <text
     id="text3302-9"
     y="343.80801"
     x="85.085693"
     style="font-style:normal;font-variant:normal;font-weight:normal;font-stretch:normal;font-size:19.14993668px;line-height:120.00000477%;font-family:'Source Code Pro';-inkscape-font-specification:'Source Code Pro';text-align:start;letter-spacing:0px;word-spacing:0px;writing-mode:lr-tb;text-anchor:start;fill:#657b83;fill-opacity:1;stroke:none;stroke-width:0.99739248px;stroke-linecap:butt;stroke-linejoin:miter;stroke-opacity:1"
     xml:space="preserve"><tspan
       style="font-style:normal;font-variant:normal;font-weight:normal;font-stretch:normal;font-size:18px;font-family:'Source Code Pro';-inkscape-font-specification:'Source Code Pro';fill:#657b83;stroke-width:0.99739248px"
       y="343.80801"
       x="85.085693"
       id="tspan3300-1"
       sodipodi:role="line">HEAD</tspan></text>
  <g
     style="stroke-width:2.21811676"
     transform="matrix(-1.6994925,-0.25513962,0,1.6994925,269.77131,305.29967)"
     id="g1336">
    <g
       style="stroke-width:1.23324978"
       transform="matrix(0.47587821,0,0,0.47587821,32.228041,53.153152)"
       id="g1326">
      <path
         style="fill:#89664c;stroke-width:1.23324978"
         inkscape:connector-curvature="0"
         d="M 32,64 0,44.8 V 19.2 l 32,19.2 z"
         id="path1306" />
      <path
         style="fill:#fed0ac;stroke-width:1.23324978"
         inkscape:connector-curvature="0"
         d="M 32,38.4 V 64 L 64,44.8 V 19.2 Z"
         id="path1308" />
      <path
         style="fill:#d3976e;stroke-width:1.23324978"
         inkscape:connector-curvature="0"
         d="M 0,19.2 32,38.4 64,19.2 32,0 Z"
         id="path1310" />
      <path
         style="fill:#89664c;stroke-width:1.23324978"
         inkscape:connector-curvature="0"
         d="M 50.9,27 19,7.8 13,11.4 45,30.6 Z"
         id="path1312" />
      <path
         style="fill:#d0d0d0;stroke-width:1.23324978"
         inkscape:connector-curvature="0"
         d="M 39.3,6.8 32.2,2.4 26.3,6 l 7.1,4.3 z"
         id="path1314" />
      <path
         style="fill:#d3976e;stroke-width:1.23324978"
         inkscape:connector-curvature="0"
         d="m 50.8,27.1 -5.6,3.4 v 9.2 l 5.6,-3.4 z"
         id="path1316" />
      <g
         style="fill:#ffffff;stroke-width:1.23324978"
         id="g1322">
        <path
           style="stroke-width:1.23324978"
           inkscape:connector-curvature="0"
           d="m 62.5,22.1 -5.7,3.4 v 9.2 l 5.7,-3.4 z"
           id="path1318" />
        <path
           style="stroke-width:1.23324978"
           inkscape:connector-curvature="0"
           d="m 41.6,43.5 -7.7,4.6 V 60.7 L 41.6,56 Z"
           id="path1320" />
      </g>
      <path
         style="fill:#d3976e;stroke-width:1.23324978"
         inkscape:connector-curvature="0"
         d="m 45.2,56.1 5.6,-3.4 v -9.2 l -5.6,3.4 z"
         id="path1324" />
    </g>
    <g
       style="stroke-width:3.02480221"
       transform="matrix(0.19402154,0,0,0.19402154,59.377753,74.092439)"
       id="g1334">
      <path
         style="fill:#f2b200;stroke-width:3.02480221"
         inkscape:connector-curvature="0"
         d="M 29.1,12.9 H 19 L 12.9,19 V 29.1 L 43.8,64 64,43.8 29.1,12.9 m -6.4,9.8 c -0.9,0.9 -2.4,0.9 -3.4,0 -0.9,-0.9 -0.9,-2.4 0,-3.4 0.9,-0.9 2.4,-0.9 3.4,0 0.9,1 0.9,2.5 0,3.4"
         id="path1328" />
      <path
         style="fill:#94989b;stroke-width:3.02480221"
         inkscape:connector-curvature="0"
         d="M 21.9,20.8 C 21.6,19.5 21,18.2 20.3,17.1 18.6,14.3 16.2,12 13.4,10.3 9.6,8.1 5.3,7.1 0.9,6.7 0.4,6.7 0,7.2 0,7.6 c 0,0.5 0.4,0.9 0.9,0.9 4.7,0.4 9.5,1.7 13.4,4.5 1.1,0.8 2.4,2.1 3.3,3.3 0.2,0.2 -0.1,-0.2 0,0.1 0,0.1 0.1,0.1 0.1,0.2 0.1,0.1 0.2,0.3 0.3,0.4 0.2,0.3 0.4,0.5 0.5,0.8 0.3,0.5 0.5,0.9 0.8,1.4 0.1,0.1 0.1,0.3 0.2,0.4 0,0.1 0.1,0.1 0.1,0.2 0.1,0.2 0.2,0.5 0.2,0.7 0.1,0.2 0.1,0.4 0.2,0.6 0.3,1.4 2.2,0.9 1.9,-0.3"
         id="path1330" />
      <path
         style="fill:#3e4347;stroke-width:3.02480221"
         inkscape:connector-curvature="0"
         d="m 15.3,16.6 c 0,0 -0.1,-0.1 -0.1,-0.1 C 14.7,16.1 14.3,15.7 13.9,15.2 13,14.2 12.2,12.9 11.6,11.6 9.9,8.3 9,4.6 8.7,1 8.6,0.4 8.2,0 7.6,0 7.1,0 6.6,0.4 6.7,0.9 c 0.3,4 1.4,8 3.2,11.6 0.7,1.4 1.6,2.8 2.6,4 0.4,0.5 0.9,1 1.4,1.4 l 1.4,-1.3"
         id="path1332" />
    </g>
  </g>
  <path
     style="opacity:1;fill:#657b83;fill-opacity:1;fill-rule:evenodd;stroke:#657b83;stroke-width:0.99739248;stroke-linecap:round;stroke-linejoin:round;stroke-miterlimit:4;stroke-dasharray:none;stroke-dashoffset:0;stroke-opacity:1;marker-end:url(#marker11646)"
     d="m 189.11994,358.3253 v 19.37018"
     id="path1338"
     inkscape:connector-curvature="0"
     sodipodi:nodetypes="cc" />
  <g
     id="g1360"
     transform="matrix(1.0874388,0,0,1.0874388,1.4822104,253.94578)"
     style="opacity:1;stroke-width:3.4665606">
    <g
       id="g1342"
       transform="matrix(1.7505455,0,0,-1.7505455,116.4753,38.820486)"
       style="stroke-width:0.65493459">
      <path
         d="m 0,0 c 0,-1.104 -0.896,-2 -2,-2 h -20 c -1.104,0 -2,0.896 -2,2 v 13 c 0,1.104 0.896,2 2,2 h 20 c 1.104,0 2,-0.896 2,-2 z"
         style="fill:#ccd6dd;fill-opacity:1;fill-rule:nonzero;stroke:none;stroke-width:0.65493459"
         id="path1340"
         inkscape:connector-curvature="0" />
    </g>
    <g
       id="g1346"
       transform="matrix(1.7505455,0,0,-1.7505455,95.468755,35.319395)"
       style="stroke-width:0.65493459">
      <path
         d="m 0,0 c 0,-0.552 -0.447,-1 -1,-1 h -8 c -0.552,0 -1,0.448 -1,1 v 10 c 0,0.552 0.448,1 1,1 h 8 c 0.553,0 1,-0.448 1,-1 z"
         style="fill:#55acee;fill-opacity:1;fill-rule:nonzero;stroke:none;stroke-width:0.65493459"
         id="path1344"
         inkscape:connector-curvature="0" />
    </g>
    <g
       id="g1350"
       transform="matrix(1.7505455,0,0,-1.7505455,112.97421,19.564485)"
       style="stroke-width:0.65493459">
      <path
         d="m 0,0 c 0,-0.552 -0.447,-1 -1,-1 h -6 c -0.553,0 -1,0.448 -1,1 0,0.552 0.447,1 1,1 h 6 C -0.447,1 0,0.552 0,0"
         style="fill:#66757f;fill-opacity:1;fill-rule:nonzero;stroke:none;stroke-width:0.65493459"
         id="path1348"
         inkscape:connector-curvature="0" />
    </g>
    <g
       id="g1354"
       transform="matrix(1.7505455,0,0,-1.7505455,112.97421,26.566667)"
       style="stroke-width:0.65493459">
      <path
         d="m 0,0 c 0,-0.552 -0.447,-1 -1,-1 h -6 c -0.553,0 -1,0.448 -1,1 0,0.552 0.447,1 1,1 h 6 C -0.447,1 0,0.552 0,0"
         style="fill:#66757f;fill-opacity:1;fill-rule:nonzero;stroke:none;stroke-width:0.65493459"
         id="path1352"
         inkscape:connector-curvature="0" />
    </g>
    <g
       id="g1358"
       transform="matrix(1.7505455,0,0,-1.7505455,112.97421,33.568849)"
       style="stroke-width:0.65493459">
      <path
         d="m 0,0 c 0,-0.552 -0.447,-1 -1,-1 h -6 c -0.553,0 -1,0.448 -1,1 0,0.552 0.447,1 1,1 h 6 C -0.447,1 0,0.552 0,0"
         style="fill:#66757f;fill-opacity:1;fill-rule:nonzero;stroke:none;stroke-width:0.65493459"
         id="path1356"
         inkscape:connector-curvature="0" />
    </g>
  </g>
  <path
     sodipodi:nodetypes="cc"
     inkscape:connector-curvature="0"
     id="path1362"
     d="m 106.33166,300.19457 51.26335,15.52106"
     style="opacity:1;fill:#657b83;fill-opacity:1;fill-rule:evenodd;stroke:#657b83;stroke-width:0.99739248;stroke-linecap:round;stroke-linejoin:round;stroke-miterlimit:4;stroke-dasharray:none;stroke-dashoffset:0;stroke-opacity:1;marker-end:url(#marker4741)" />
  <g
     id="g1394"
     transform="matrix(-1.6994925,-0.25513962,0,1.6994925,269.73403,228.1776)"
     style="stroke-width:2.21811676">
    <g
       id="g1384"
       transform="matrix(0.47587821,0,0,0.47587821,32.228041,53.153152)"
       style="stroke-width:1.23324978">
      <path
         id="path1364"
         d="M 32,64 0,44.8 V 19.2 l 32,19.2 z"
         inkscape:connector-curvature="0"
         style="fill:#89664c;stroke-width:1.23324978" />
      <path
         id="path1366"
         d="M 32,38.4 V 64 L 64,44.8 V 19.2 Z"
         inkscape:connector-curvature="0"
         style="fill:#fed0ac;stroke-width:1.23324978" />
      <path
         id="path1368"
         d="M 0,19.2 32,38.4 64,19.2 32,0 Z"
         inkscape:connector-curvature="0"
         style="fill:#d3976e;stroke-width:1.23324978" />
      <path
         id="path1370"
         d="M 50.9,27 19,7.8 13,11.4 45,30.6 Z"
         inkscape:connector-curvature="0"
         style="fill:#89664c;stroke-width:1.23324978" />
      <path
         id="path1372"
         d="M 39.3,6.8 32.2,2.4 26.3,6 l 7.1,4.3 z"
         inkscape:connector-curvature="0"
         style="fill:#d0d0d0;stroke-width:1.23324978" />
      <path
         id="path1374"
         d="m 50.8,27.1 -5.6,3.4 v 9.2 l 5.6,-3.4 z"
         inkscape:connector-curvature="0"
         style="fill:#d3976e;stroke-width:1.23324978" />
      <g
         id="g1380"
         style="fill:#ffffff;stroke-width:1.23324978">
        <path
           id="path1376"
           d="m 62.5,22.1 -5.7,3.4 v 9.2 l 5.7,-3.4 z"
           inkscape:connector-curvature="0"
           style="stroke-width:1.23324978" />
        <path
           id="path1378"
           d="m 41.6,43.5 -7.7,4.6 V 60.7 L 41.6,56 Z"
           inkscape:connector-curvature="0"
           style="stroke-width:1.23324978" />
      </g>
      <path
         id="path1382"
         d="m 45.2,56.1 5.6,-3.4 v -9.2 l -5.6,3.4 z"
         inkscape:connector-curvature="0"
         style="fill:#d3976e;stroke-width:1.23324978" />
    </g>
    <g
       id="g1392"
       transform="matrix(0.19402154,0,0,0.19402154,59.377753,74.092439)"
       style="stroke-width:3.02480221">
      <path
         id="path1386"
         d="M 29.1,12.9 H 19 L 12.9,19 V 29.1 L 43.8,64 64,43.8 29.1,12.9 m -6.4,9.8 c -0.9,0.9 -2.4,0.9 -3.4,0 -0.9,-0.9 -0.9,-2.4 0,-3.4 0.9,-0.9 2.4,-0.9 3.4,0 0.9,1 0.9,2.5 0,3.4"
         inkscape:connector-curvature="0"
         style="fill:#f2b200;stroke-width:3.02480221" />
      <path
         id="path1388"
         d="M 21.9,20.8 C 21.6,19.5 21,18.2 20.3,17.1 18.6,14.3 16.2,12 13.4,10.3 9.6,8.1 5.3,7.1 0.9,6.7 0.4,6.7 0,7.2 0,7.6 c 0,0.5 0.4,0.9 0.9,0.9 4.7,0.4 9.5,1.7 13.4,4.5 1.1,0.8 2.4,2.1 3.3,3.3 0.2,0.2 -0.1,-0.2 0,0.1 0,0.1 0.1,0.1 0.1,0.2 0.1,0.1 0.2,0.3 0.3,0.4 0.2,0.3 0.4,0.5 0.5,0.8 0.3,0.5 0.5,0.9 0.8,1.4 0.1,0.1 0.1,0.3 0.2,0.4 0,0.1 0.1,0.1 0.1,0.2 0.1,0.2 0.2,0.5 0.2,0.7 0.1,0.2 0.1,0.4 0.2,0.6 0.3,1.4 2.2,0.9 1.9,-0.3"
         inkscape:connector-curvature="0"
         style="fill:#94989b;stroke-width:3.02480221" />
      <path
         id="path1390"
         d="m 15.3,16.6 c 0,0 -0.1,-0.1 -0.1,-0.1 C 14.7,16.1 14.3,15.7 13.9,15.2 13,14.2 12.2,12.9 11.6,11.6 9.9,8.3 9,4.6 8.7,1 8.6,0.4 8.2,0 7.6,0 7.1,0 6.6,0.4 6.7,0.9 c 0.3,4 1.4,8 3.2,11.6 0.7,1.4 1.6,2.8 2.6,4 0.4,0.5 0.9,1 1.4,1.4 l 1.4,-1.3"
         inkscape:connector-curvature="0"
         style="fill:#3e4347;stroke-width:3.02480221" />
    </g>
  </g>
  <g
     id="g1416"
     transform="matrix(3.7696726,0,0,3.7696726,23.469022,309.11404)">
    <g
       id="g1398"
       transform="matrix(0.50498047,0,0,-0.50498047,27.911613,17.263079)"
       style="stroke-width:0.65493459">
      <path
         d="m 0,0 c 0,-1.104 -0.896,-2 -2,-2 h -20 c -1.104,0 -2,0.896 -2,2 v 13 c 0,1.104 0.896,2 2,2 h 20 c 1.104,0 2,-0.896 2,-2 z"
         style="fill:#ccd6dd;fill-opacity:1;fill-rule:nonzero;stroke:none;stroke-width:0.65493459"
         id="path1396"
         inkscape:connector-curvature="0" />
    </g>
    <g
       id="g1402"
       transform="matrix(0.50498047,0,0,-0.50498047,21.851847,16.253118)"
       style="fill:#dc322f;stroke-width:0.65493459">
      <path
         d="m 0,0 c 0,-0.552 -0.447,-1 -1,-1 h -8 c -0.552,0 -1,0.448 -1,1 v 10 c 0,0.552 0.448,1 1,1 h 8 c 0.553,0 1,-0.448 1,-1 z"
         style="fill:#dc322f;fill-opacity:1;fill-rule:nonzero;stroke:none;stroke-width:0.65493459"
         id="path1400"
         inkscape:connector-curvature="0" />
    </g>
    <g
       id="g1406"
       transform="matrix(0.50498047,0,0,-0.50498047,26.901652,11.708294)"
       style="stroke-width:0.65493459">
      <path
         d="m 0,0 c 0,-0.552 -0.447,-1 -1,-1 h -6 c -0.553,0 -1,0.448 -1,1 0,0.552 0.447,1 1,1 h 6 C -0.447,1 0,0.552 0,0"
         style="fill:#66757f;fill-opacity:1;fill-rule:nonzero;stroke:none;stroke-width:0.65493459"
         id="path1404"
         inkscape:connector-curvature="0" />
    </g>
    <g
       id="g1410"
       transform="matrix(0.50498047,0,0,-0.50498047,26.901652,13.728215)"
       style="stroke-width:0.65493459">
      <path
         d="m 0,0 c 0,-0.552 -0.447,-1 -1,-1 h -6 c -0.553,0 -1,0.448 -1,1 0,0.552 0.447,1 1,1 h 6 C -0.447,1 0,0.552 0,0"
         style="fill:#66757f;fill-opacity:1;fill-rule:nonzero;stroke:none;stroke-width:0.65493459"
         id="path1408"
         inkscape:connector-curvature="0" />
    </g>
    <g
       id="g1414"
       transform="matrix(0.50498047,0,0,-0.50498047,26.901652,15.748137)"
       style="stroke-width:0.65493459">
      <path
         d="m 0,0 c 0,-0.552 -0.447,-1 -1,-1 h -6 c -0.553,0 -1,0.448 -1,1 0,0.552 0.447,1 1,1 h 6 C -0.447,1 0,0.552 0,0"
         style="fill:#66757f;fill-opacity:1;fill-rule:nonzero;stroke:none;stroke-width:0.65493459"
         id="path1412"
         inkscape:connector-curvature="0" />
    </g>
  </g>
  <path
     sodipodi:nodetypes="cc"
     inkscape:connector-curvature="0"
     id="path1418"
     d="m 106.87636,378.22408 51.26335,15.52106"
     style="opacity:1;fill:#657b83;fill-opacity:1;fill-rule:evenodd;stroke:#657b83;stroke-width:0.99739248;stroke-linecap:round;stroke-linejoin:round;stroke-miterlimit:4;stroke-dasharray:none;stroke-dashoffset:0;stroke-opacity:1;marker-end:url(#marker4741-4)" />
  <text
     xml:space="preserve"
     style="font-style:normal;font-variant:normal;font-weight:normal;font-stretch:normal;font-size:19.14993668px;line-height:120.00000477%;font-family:'Source Code Pro';-inkscape-font-specification:'Source Code Pro';text-align:start;letter-spacing:0px;word-spacing:0px;writing-mode:lr-tb;text-anchor:start;fill:#657b83;fill-opacity:1;stroke:none;stroke-width:0.99739248px;stroke-linecap:butt;stroke-linejoin:miter;stroke-opacity:1"
     x="72.481689"
     y="44.778488"
     id="text904"><tspan
       sodipodi:role="line"
       id="tspan902"
       x="72.481689"
       y="44.778488"
       style="font-style:normal;font-variant:normal;font-weight:normal;font-stretch:normal;font-size:18px;font-family:'Source Code Pro';-inkscape-font-specification:'Source Code Pro';fill:#657b83;stroke-width:0.99739248px">master</tspan></text>
  <text
     xml:space="preserve"
     style="font-style:normal;font-variant:normal;font-weight:normal;font-stretch:normal;font-size:19.14993668px;line-height:120.00000477%;font-family:'Source Code Pro';-inkscape-font-specification:'Source Code Pro';text-align:start;letter-spacing:0px;word-spacing:0px;writing-mode:lr-tb;text-anchor:start;fill:#657b83;fill-opacity:1;stroke:none;stroke-width:0.99739248px;stroke-linecap:butt;stroke-linejoin:miter;stroke-opacity:1"
     x="2.08569"
     y="11.808"
     id="text908"><tspan
       sodipodi:role="line"
       id="tspan906"
       x="2.08569"
       y="11.808"
       style="font-style:normal;font-variant:normal;font-weight:normal;font-stretch:normal;font-size:18px;font-family:'Source Code Pro';-inkscape-font-specification:'Source Code Pro';fill:#657b83;stroke-width:0.99739248px">HEAD</tspan></text>
  <g
     id="g940"
     transform="matrix(-1.6994925,-0.25513962,0,1.6994925,268.77131,84.299671)"
     style="stroke-width:2.21811676">
    <g
       id="g930"
       transform="matrix(0.47587821,0,0,0.47587821,32.228041,53.153152)"
       style="stroke-width:1.23324978">
      <path
         id="path910"
         d="M 32,64 0,44.8 V 19.2 l 32,19.2 z"
         inkscape:connector-curvature="0"
         style="fill:#89664c;stroke-width:1.23324978" />
      <path
         id="path912"
         d="M 32,38.4 V 64 L 64,44.8 V 19.2 Z"
         inkscape:connector-curvature="0"
         style="fill:#fed0ac;stroke-width:1.23324978" />
      <path
         id="path914"
         d="M 0,19.2 32,38.4 64,19.2 32,0 Z"
         inkscape:connector-curvature="0"
         style="fill:#d3976e;stroke-width:1.23324978" />
      <path
         id="path916"
         d="M 50.9,27 19,7.8 13,11.4 45,30.6 Z"
         inkscape:connector-curvature="0"
         style="fill:#89664c;stroke-width:1.23324978" />
      <path
         id="path918"
         d="M 39.3,6.8 32.2,2.4 26.3,6 l 7.1,4.3 z"
         inkscape:connector-curvature="0"
         style="fill:#d0d0d0;stroke-width:1.23324978" />
      <path
         id="path920"
         d="m 50.8,27.1 -5.6,3.4 v 9.2 l 5.6,-3.4 z"
         inkscape:connector-curvature="0"
         style="fill:#d3976e;stroke-width:1.23324978" />
      <g
         id="g926"
         style="fill:#ffffff;stroke-width:1.23324978">
        <path
           id="path922"
           d="m 62.5,22.1 -5.7,3.4 v 9.2 l 5.7,-3.4 z"
           inkscape:connector-curvature="0"
           style="stroke-width:1.23324978" />
        <path
           id="path924"
           d="m 41.6,43.5 -7.7,4.6 V 60.7 L 41.6,56 Z"
           inkscape:connector-curvature="0"
           style="stroke-width:1.23324978" />
      </g>
      <path
         id="path928"
         d="m 45.2,56.1 5.6,-3.4 v -9.2 l -5.6,3.4 z"
         inkscape:connector-curvature="0"
         style="fill:#d3976e;stroke-width:1.23324978" />
    </g>
    <g
       id="g938"
       transform="matrix(0.19402154,0,0,0.19402154,59.377753,74.092439)"
       style="stroke-width:3.02480221">
      <path
         id="path932"
         d="M 29.1,12.9 H 19 L 12.9,19 V 29.1 L 43.8,64 64,43.8 29.1,12.9 m -6.4,9.8 c -0.9,0.9 -2.4,0.9 -3.4,0 -0.9,-0.9 -0.9,-2.4 0,-3.4 0.9,-0.9 2.4,-0.9 3.4,0 0.9,1 0.9,2.5 0,3.4"
         inkscape:connector-curvature="0"
         style="fill:#f2b200;stroke-width:3.02480221" />
      <path
         id="path934"
         d="M 21.9,20.8 C 21.6,19.5 21,18.2 20.3,17.1 18.6,14.3 16.2,12 13.4,10.3 9.6,8.1 5.3,7.1 0.9,6.7 0.4,6.7 0,7.2 0,7.6 c 0,0.5 0.4,0.9 0.9,0.9 4.7,0.4 9.5,1.7 13.4,4.5 1.1,0.8 2.4,2.1 3.3,3.3 0.2,0.2 -0.1,-0.2 0,0.1 0,0.1 0.1,0.1 0.1,0.2 0.1,0.1 0.2,0.3 0.3,0.4 0.2,0.3 0.4,0.5 0.5,0.8 0.3,0.5 0.5,0.9 0.8,1.4 0.1,0.1 0.1,0.3 0.2,0.4 0,0.1 0.1,0.1 0.1,0.2 0.1,0.2 0.2,0.5 0.2,0.7 0.1,0.2 0.1,0.4 0.2,0.6 0.3,1.4 2.2,0.9 1.9,-0.3"
         inkscape:connector-curvature="0"
         style="fill:#94989b;stroke-width:3.02480221" />
      <path
         id="path936"
         d="m 15.3,16.6 c 0,0 -0.1,-0.1 -0.1,-0.1 C 14.7,16.1 14.3,15.7 13.9,15.2 13,14.2 12.2,12.9 11.6,11.6 9.9,8.3 9,4.6 8.7,1 8.6,0.4 8.2,0 7.6,0 7.1,0 6.6,0.4 6.7,0.9 c 0.3,4 1.4,8 3.2,11.6 0.7,1.4 1.6,2.8 2.6,4 0.4,0.5 0.9,1 1.4,1.4 l 1.4,-1.3"
         inkscape:connector-curvature="0"
         style="fill:#3e4347;stroke-width:3.02480221" />
    </g>
  </g>
  <path
     sodipodi:nodetypes="cc"
     inkscape:connector-curvature="0"
     id="path942"
     d="m 188.11994,137.3253 v 19.37018"
     style="opacity:1;fill:#657b83;fill-opacity:1;fill-rule:evenodd;stroke:#657b83;stroke-width:0.99739248;stroke-linecap:round;stroke-linejoin:round;stroke-miterlimit:4;stroke-dasharray:none;stroke-dashoffset:0;stroke-opacity:1;marker-end:url(#marker11646)" />
  <g
     style="opacity:1;stroke-width:3.4665606"
     transform="matrix(1.0874388,0,0,1.0874388,0.48221248,32.945781)"
     id="g964">
    <g
       style="stroke-width:0.65493459"
       transform="matrix(1.7505455,0,0,-1.7505455,116.4753,38.820486)"
       id="g946">
      <path
         inkscape:connector-curvature="0"
         id="path944"
         style="fill:#ccd6dd;fill-opacity:1;fill-rule:nonzero;stroke:none;stroke-width:0.65493459"
         d="m 0,0 c 0,-1.104 -0.896,-2 -2,-2 h -20 c -1.104,0 -2,0.896 -2,2 v 13 c 0,1.104 0.896,2 2,2 h 20 c 1.104,0 2,-0.896 2,-2 z" />
    </g>
    <g
       style="stroke-width:0.65493459"
       transform="matrix(1.7505455,0,0,-1.7505455,95.468755,35.319395)"
       id="g950">
      <path
         inkscape:connector-curvature="0"
         id="path948"
         style="fill:#55acee;fill-opacity:1;fill-rule:nonzero;stroke:none;stroke-width:0.65493459"
         d="m 0,0 c 0,-0.552 -0.447,-1 -1,-1 h -8 c -0.552,0 -1,0.448 -1,1 v 10 c 0,0.552 0.448,1 1,1 h 8 c 0.553,0 1,-0.448 1,-1 z" />
    </g>
    <g
       style="stroke-width:0.65493459"
       transform="matrix(1.7505455,0,0,-1.7505455,112.97421,19.564485)"
       id="g954">
      <path
         inkscape:connector-curvature="0"
         id="path952"
         style="fill:#66757f;fill-opacity:1;fill-rule:nonzero;stroke:none;stroke-width:0.65493459"
         d="m 0,0 c 0,-0.552 -0.447,-1 -1,-1 h -6 c -0.553,0 -1,0.448 -1,1 0,0.552 0.447,1 1,1 h 6 C -0.447,1 0,0.552 0,0" />
    </g>
    <g
       style="stroke-width:0.65493459"
       transform="matrix(1.7505455,0,0,-1.7505455,112.97421,26.566667)"
       id="g958">
      <path
         inkscape:connector-curvature="0"
         id="path956"
         style="fill:#66757f;fill-opacity:1;fill-rule:nonzero;stroke:none;stroke-width:0.65493459"
         d="m 0,0 c 0,-0.552 -0.447,-1 -1,-1 h -6 c -0.553,0 -1,0.448 -1,1 0,0.552 0.447,1 1,1 h 6 C -0.447,1 0,0.552 0,0" />
    </g>
    <g
       style="stroke-width:0.65493459"
       transform="matrix(1.7505455,0,0,-1.7505455,112.97421,33.568849)"
       id="g962">
      <path
         inkscape:connector-curvature="0"
         id="path960"
         style="fill:#66757f;fill-opacity:1;fill-rule:nonzero;stroke:none;stroke-width:0.65493459"
         d="m 0,0 c 0,-0.552 -0.447,-1 -1,-1 h -6 c -0.553,0 -1,0.448 -1,1 0,0.552 0.447,1 1,1 h 6 C -0.447,1 0,0.552 0,0" />
    </g>
  </g>
  <path
     style="opacity:1;fill:#657b83;fill-opacity:1;fill-rule:evenodd;stroke:#657b83;stroke-width:0.99739248;stroke-linecap:round;stroke-linejoin:round;stroke-miterlimit:4;stroke-dasharray:none;stroke-dashoffset:0;stroke-opacity:1;marker-end:url(#marker4741)"
     d="m 105.33166,79.194571 51.26335,15.52106"
     id="path966"
     inkscape:connector-curvature="0"
     sodipodi:nodetypes="cc" />
  <g
     style="stroke-width:2.21811676"
     transform="matrix(-1.6994925,-0.25513962,0,1.6994925,268.73403,7.1776017)"
     id="g998">
    <g
       style="stroke-width:1.23324978"
       transform="matrix(0.47587821,0,0,0.47587821,32.228041,53.153152)"
       id="g988">
      <path
         style="fill:#89664c;stroke-width:1.23324978"
         inkscape:connector-curvature="0"
         d="M 32,64 0,44.8 V 19.2 l 32,19.2 z"
         id="path968" />
      <path
         style="fill:#fed0ac;stroke-width:1.23324978"
         inkscape:connector-curvature="0"
         d="M 32,38.4 V 64 L 64,44.8 V 19.2 Z"
         id="path970" />
      <path
         style="fill:#d3976e;stroke-width:1.23324978"
         inkscape:connector-curvature="0"
         d="M 0,19.2 32,38.4 64,19.2 32,0 Z"
         id="path972" />
      <path
         style="fill:#89664c;stroke-width:1.23324978"
         inkscape:connector-curvature="0"
         d="M 50.9,27 19,7.8 13,11.4 45,30.6 Z"
         id="path974" />
      <path
         style="fill:#d0d0d0;stroke-width:1.23324978"
         inkscape:connector-curvature="0"
         d="M 39.3,6.8 32.2,2.4 26.3,6 l 7.1,4.3 z"
         id="path976" />
      <path
         style="fill:#d3976e;stroke-width:1.23324978"
         inkscape:connector-curvature="0"
         d="m 50.8,27.1 -5.6,3.4 v 9.2 l 5.6,-3.4 z"
         id="path978" />
      <g
         style="fill:#ffffff;stroke-width:1.23324978"
         id="g984">
        <path
           style="stroke-width:1.23324978"
           inkscape:connector-curvature="0"
           d="m 62.5,22.1 -5.7,3.4 v 9.2 l 5.7,-3.4 z"
           id="path980" />
        <path
           style="stroke-width:1.23324978"
           inkscape:connector-curvature="0"
           d="m 41.6,43.5 -7.7,4.6 V 60.7 L 41.6,56 Z"
           id="path982" />
      </g>
      <path
         style="fill:#d3976e;stroke-width:1.23324978"
         inkscape:connector-curvature="0"
         d="m 45.2,56.1 5.6,-3.4 v -9.2 l -5.6,3.4 z"
         id="path986" />
    </g>
    <g
       style="stroke-width:3.02480221"
       transform="matrix(0.19402154,0,0,0.19402154,59.377753,74.092439)"
       id="g996">
      <path
         style="fill:#f2b200;stroke-width:3.02480221"
         inkscape:connector-curvature="0"
         d="M 29.1,12.9 H 19 L 12.9,19 V 29.1 L 43.8,64 64,43.8 29.1,12.9 m -6.4,9.8 c -0.9,0.9 -2.4,0.9 -3.4,0 -0.9,-0.9 -0.9,-2.4 0,-3.4 0.9,-0.9 2.4,-0.9 3.4,0 0.9,1 0.9,2.5 0,3.4"
         id="path990" />
      <path
         style="fill:#94989b;stroke-width:3.02480221"
         inkscape:connector-curvature="0"
         d="M 21.9,20.8 C 21.6,19.5 21,18.2 20.3,17.1 18.6,14.3 16.2,12 13.4,10.3 9.6,8.1 5.3,7.1 0.9,6.7 0.4,6.7 0,7.2 0,7.6 c 0,0.5 0.4,0.9 0.9,0.9 4.7,0.4 9.5,1.7 13.4,4.5 1.1,0.8 2.4,2.1 3.3,3.3 0.2,0.2 -0.1,-0.2 0,0.1 0,0.1 0.1,0.1 0.1,0.2 0.1,0.1 0.2,0.3 0.3,0.4 0.2,0.3 0.4,0.5 0.5,0.8 0.3,0.5 0.5,0.9 0.8,1.4 0.1,0.1 0.1,0.3 0.2,0.4 0,0.1 0.1,0.1 0.1,0.2 0.1,0.2 0.2,0.5 0.2,0.7 0.1,0.2 0.1,0.4 0.2,0.6 0.3,1.4 2.2,0.9 1.9,-0.3"
         id="path992" />
      <path
         style="fill:#3e4347;stroke-width:3.02480221"
         inkscape:connector-curvature="0"
         d="m 15.3,16.6 c 0,0 -0.1,-0.1 -0.1,-0.1 C 14.7,16.1 14.3,15.7 13.9,15.2 13,14.2 12.2,12.9 11.6,11.6 9.9,8.3 9,4.6 8.7,1 8.6,0.4 8.2,0 7.6,0 7.1,0 6.6,0.4 6.7,0.9 c 0.3,4 1.4,8 3.2,11.6 0.7,1.4 1.6,2.8 2.6,4 0.4,0.5 0.9,1 1.4,1.4 l 1.4,-1.3"
         id="path994" />
    </g>
  </g>
  <g
     transform="matrix(3.7696726,0,0,3.7696726,-59.530978,-22.885959)"
     id="g1020">
    <g
       style="stroke-width:0.65493459"
       transform="matrix(0.50498047,0,0,-0.50498047,27.911613,17.263079)"
       id="g1002">
      <path
         inkscape:connector-curvature="0"
         id="path1000"
         style="fill:#ccd6dd;fill-opacity:1;fill-rule:nonzero;stroke:none;stroke-width:0.65493459"
         d="m 0,0 c 0,-1.104 -0.896,-2 -2,-2 h -20 c -1.104,0 -2,0.896 -2,2 v 13 c 0,1.104 0.896,2 2,2 h 20 c 1.104,0 2,-0.896 2,-2 z" />
    </g>
    <g
       style="fill:#dc322f;stroke-width:0.65493459"
       transform="matrix(0.50498047,0,0,-0.50498047,21.851847,16.253118)"
       id="g1006">
      <path
         inkscape:connector-curvature="0"
         id="path1004"
         style="fill:#dc322f;fill-opacity:1;fill-rule:nonzero;stroke:none;stroke-width:0.65493459"
         d="m 0,0 c 0,-0.552 -0.447,-1 -1,-1 h -8 c -0.552,0 -1,0.448 -1,1 v 10 c 0,0.552 0.448,1 1,1 h 8 c 0.553,0 1,-0.448 1,-1 z" />
    </g>
    <g
       style="stroke-width:0.65493459"
       transform="matrix(0.50498047,0,0,-0.50498047,26.901652,11.708294)"
       id="g1010">
      <path
         inkscape:connector-curvature="0"
         id="path1008"
         style="fill:#66757f;fill-opacity:1;fill-rule:nonzero;stroke:none;stroke-width:0.65493459"
         d="m 0,0 c 0,-0.552 -0.447,-1 -1,-1 h -6 c -0.553,0 -1,0.448 -1,1 0,0.552 0.447,1 1,1 h 6 C -0.447,1 0,0.552 0,0" />
    </g>
    <g
       style="stroke-width:0.65493459"
       transform="matrix(0.50498047,0,0,-0.50498047,26.901652,13.728215)"
       id="g1014">
      <path
         inkscape:connector-curvature="0"
         id="path1012"
         style="fill:#66757f;fill-opacity:1;fill-rule:nonzero;stroke:none;stroke-width:0.65493459"
         d="m 0,0 c 0,-0.552 -0.447,-1 -1,-1 h -6 c -0.553,0 -1,0.448 -1,1 0,0.552 0.447,1 1,1 h 6 C -0.447,1 0,0.552 0,0" />
    </g>
    <g
       style="stroke-width:0.65493459"
       transform="matrix(0.50498047,0,0,-0.50498047,26.901652,15.748137)"
       id="g1018">
      <path
         inkscape:connector-curvature="0"
         id="path1016"
         style="fill:#66757f;fill-opacity:1;fill-rule:nonzero;stroke:none;stroke-width:0.65493459"
         d="m 0,0 c 0,-0.552 -0.447,-1 -1,-1 h -6 c -0.553,0 -1,0.448 -1,1 0,0.552 0.447,1 1,1 h 6 C -0.447,1 0,0.552 0,0" />
    </g>
  </g>
  <path
     style="opacity:1;fill:#657b83;fill-opacity:1;fill-rule:evenodd;stroke:#657b83;stroke-width:0.99739248;stroke-linecap:round;stroke-linejoin:round;stroke-miterlimit:4;stroke-dasharray:none;stroke-dashoffset:0;stroke-opacity:1;marker-end:url(#marker1044)"
     d="m 23.876352,46.224081 51.26336,15.52106"
     id="path1022"
     inkscape:connector-curvature="0"
     sodipodi:nodetypes="cc" />
  <g
     transform="matrix(3.7795276,0,0,3.7795276,92.913321,205.18703)"
     id="g5608">
    <g
       aria-label="⇓"
       style="font-style:normal;font-variant:normal;font-weight:normal;font-stretch:normal;font-size:5.07999992px;line-height:120.00000477%;font-family:'Source Code Pro';-inkscape-font-specification:'Source Code Pro';text-align:start;letter-spacing:0px;word-spacing:0px;writing-mode:lr-tb;text-anchor:start;fill:#657b83;fill-opacity:1;stroke:none;stroke-width:0.26458332px;stroke-linecap:butt;stroke-linejoin:miter;stroke-opacity:1"
       id="text5604">
      <path
         inkscape:connector-curvature="0"
         d="m 15.036774,8.4766643 0.26293,0.2579687 0.257969,-0.2579687 V 5.5001018 h 0.297656 V 8.179008 l 0.233164,-0.233164 0.297656,0.2976562 -0.977304,0.9773047 H 15.185603 L 14.213259,8.2435002 14.510915,7.945844 14.739118,8.179008 V 5.5001018 h 0.297656 z"
         style="font-style:normal;font-variant:normal;font-weight:normal;font-stretch:normal;font-size:5.07999992px;font-family:'Source Sans Pro';-inkscape-font-specification:'Source Sans Pro';fill:#657b83;stroke-width:0.26458332px"
         id="path5978" />
    </g>
  </g>
</svg>
