<?xml version="1.0" encoding="UTF-8" standalone="no"?>
<!-- Created with Inkscape (http://www.inkscape.org/) -->

<svg
   xmlns:dc="http://purl.org/dc/elements/1.1/"
   xmlns:cc="http://creativecommons.org/ns#"
   xmlns:rdf="http://www.w3.org/1999/02/22-rdf-syntax-ns#"
   xmlns:svg="http://www.w3.org/2000/svg"
   xmlns="http://www.w3.org/2000/svg"
   xmlns:xlink="http://www.w3.org/1999/xlink"
   xmlns:sodipodi="http://sodipodi.sourceforge.net/DTD/sodipodi-0.dtd"
   xmlns:inkscape="http://www.inkscape.org/namespaces/inkscape"
   width="687.17267"
   height="210.42105"
   viewBox="0 0 687.17267 210.42106"
   version="1.1"
   id="svg8"
   inkscape:version="0.92.2 5c3e80d, 2017-08-06"
   sodipodi:docname="folders-vs-repositories.svg">
  <defs
     id="defs2">
    <clipPath
       clipPathUnits="userSpaceOnUse"
       id="clipPath16-7">
      <path
         d="M 0,36 H 36 V 0 H 0 Z"
         id="path18-9"
         inkscape:connector-curvature="0" />
    </clipPath>
  </defs>
  <sodipodi:namedview
     id="base"
     pagecolor="#ffffff"
     bordercolor="#666666"
     borderopacity="1.0"
     inkscape:pageopacity="0.0"
     inkscape:pageshadow="2"
     inkscape:zoom="1"
     inkscape:cx="356.85688"
     inkscape:cy="82.276262"
     inkscape:document-units="px"
     inkscape:current-layer="svg8"
     showgrid="false"
     units="px"
     inkscape:window-width="1366"
     inkscape:window-height="719"
     inkscape:window-x="0"
     inkscape:window-y="1"
     inkscape:window-maximized="1"
     showguides="true"
     inkscape:guide-bbox="true" />
  <metadata
     id="metadata5">
    <rdf:RDF>
      <cc:Work
         rdf:about="">
        <dc:format>image/svg+xml</dc:format>
        <dc:type
           rdf:resource="http://purl.org/dc/dcmitype/StillImage" />
        <dc:title />
      </cc:Work>
    </rdf:RDF>
  </metadata>
  <use
     x="0"
     y="0"
     xlink:href="#g553"
     id="use3029"
     transform="translate(480,3.8739627e-6)"
     width="100%"
     height="100%" />
  <use
     x="0"
     y="0"
     xlink:href="#g553"
     id="use3033"
     transform="translate(270,3.8739627e-6)"
     width="100%"
     height="100%" />
  <g
     style="opacity:0.35"
     transform="matrix(1.0439772,0,0,1.0439772,-441.98555,-441.85163)"
     id="g553">
    <path
       id="path521"
       d="m 619.694,458.82078 -81.67927,-15.93742 -65.17268,21.34476 21.06017,38.13598 127.78398,-41.83574 c -0.5692,-0.85379 -1.13839,-1.42298 -1.9922,-1.70758"
       inkscape:connector-curvature="0"
       style="fill:#b9b9bf;stroke-width:1.00352335" />
    <path
       id="path523"
       d="m 621.6862,460.52836 -127.78398,41.83574 43.54332,79.11794 19.35259,35.00538 62.6113,-21.06015 c 0,0 2.27677,-0.56918 2.27677,-1.99217 V 461.95134 c 0.28446,-0.56919 0,-0.85378 0,-1.42298"
       inkscape:connector-curvature="0"
       style="fill:#898a90;stroke-width:1.00352335" />
    <path
       id="path525"
       d="m 557.93651,614.49526 c 0,1.42298 -1.13838,2.27679 -2.27677,1.99216 l -81.6793,-16.22202 c -1.42298,-0.28459 -2.56137,-1.42298 -2.56137,-2.84597 V 466.2203 c 0,-1.42298 1.13839,-2.27678 2.56137,-1.99218 l 81.3947,15.93742 c 1.42299,0.28458 2.27677,1.42299 2.27677,2.84597 v 131.48375 z"
       inkscape:connector-curvature="0"
       style="fill:#9fa1a6;stroke-width:1.00352335" />
    <g
       transform="matrix(2.8459686,0,0,2.8459686,439.82882,442.88336)"
       id="g531"
       style="fill:#3e4347;stroke-width:0.35261223">
      <path
         id="path527"
         d="m 14.2,34.2 c 0,-0.5 0.4,-0.8 0.8,-0.7 L 37.6,38 c 0.5,0.1 0.8,0.5 0.8,1 v 17.4 c 0,0.5 -0.4,0.8 -0.8,0.7 L 15,52.6 c -0.5,-0.1 -0.8,-0.5 -0.8,-1 0,0.1 0,-17.4 0,-17.4"
         inkscape:connector-curvature="0"
         style="stroke-width:0.35261223" />
      <path
         id="path529"
         d="m 38.5,34.9 c 0,0.4 -0.4,0.7 -0.8,0.6 L 15.1,31 c -0.5,-0.1 -0.8,-0.5 -0.8,-1 0,-0.5 0.4,-0.7 0.8,-0.6 l 22.6,4.5 c 0.4,0.1 0.8,0.6 0.8,1"
         inkscape:connector-curvature="0"
         style="stroke-width:0.35261223" />
    </g>
    <path
       id="path533"
       d="m 480.24157,476.46578 c 0,-1.42298 1.13839,-2.27677 2.27678,-1.99218 l 64.31889,12.80687 c 1.42298,0.28457 2.27677,1.42298 2.27677,2.84597 v 49.51984 c 0,1.42298 -1.13838,2.27679 -2.27677,1.9922 L 482.51835,528.8316 c -1.42299,-0.28458 -2.27678,-1.42298 -2.27678,-2.84596 v -49.51986"
       inkscape:connector-curvature="0"
       style="fill:#d0d0d0;stroke-width:1.00352335" />
    <path
       id="path535"
       d="m 506.13989,517.73233 v 2.27677 c 0,1.13839 1.13838,2.56138 2.27677,2.84598 l 12.52226,2.56136 c 1.42299,0.28458 2.56138,-0.56919 2.56138,-1.70758 v -2.27677 l -17.36041,-3.69976"
       inkscape:connector-curvature="0"
       style="fill:#3e4347;stroke-width:1.00352335" />
    <path
       id="path537"
       d="m 523.5003,521.14749 c 0,1.42299 -1.13839,2.27677 -2.56138,1.99218 l -12.52226,-2.56137 c -1.42298,-0.28458 -2.27677,-1.42298 -2.27677,-2.84597 v -8.8225 c 0,-1.42299 1.13838,-2.27678 2.27677,-1.99218 l 12.52226,2.56137 c 1.42299,0.28458 2.56138,1.42299 2.56138,2.84597 0,0 0,8.8225 0,8.8225"
       inkscape:connector-curvature="0"
       style="fill:#94989b;stroke-width:1.00352335" />
    <path
       id="path539"
       d="m 521.79271,514.88636 c 0,0.56919 -0.56919,1.13839 -1.13839,0.85379 l -2.27677,-0.56919 c -0.56919,0 -1.13839,-0.85379 -1.13839,-1.42299 v -2.27678 c 0,-0.56918 0.5692,-1.13838 1.13839,-0.85378 l 2.27677,0.56919 c 0.5692,0 1.13839,0.85379 1.13839,1.42299 v 2.27677"
       inkscape:connector-curvature="0"
       style="fill:#d0d0d0;stroke-width:1.00352335" />
    <path
       id="path541"
       d="m 549.39861,603.68059 -41.26655,18.49878 v -17.36042 l 41.26655,-18.49878 z"
       inkscape:connector-curvature="0"
       style="fill:#898a90;stroke-width:1.00352335" />
    <path
       id="path543"
       d="m 508.98585,623.03317 c 0,1.1384 -1.13838,1.99217 -2.56137,1.70757 l -64.31889,-12.52227 c -1.13838,-0.28458 -2.27677,-1.42295 -2.27677,-2.56135 0,-1.1384 1.13839,-1.9922 2.27677,-1.70757 l 64.31889,12.80683 c 1.42299,0 2.56137,1.1384 2.56137,2.27679"
       inkscape:connector-curvature="0"
       style="fill:#3e4347;stroke-width:1.00352335" />
    <path
       id="path545"
       d="m 439.82882,557.57587 c 0,-1.42298 1.13839,-2.27675 2.27677,-1.99216 l 64.31889,12.52228 c 1.42299,0.28458 2.56137,1.42298 2.56137,2.84593 v 49.51987 c 0,1.42299 -1.13838,2.27679 -2.56137,1.99216 l -64.31889,-12.52224 c -1.42298,-0.28458 -2.27677,-1.42299 -2.27677,-2.84597 v -49.51987"
       inkscape:connector-curvature="0"
       style="fill:#d0d0d0;stroke-width:1.00352335" />
    <path
       id="path547"
       d="m 483.08754,601.97301 -17.36041,-3.41518 v 2.27679 c 0,1.13839 1.13839,2.27675 2.27678,2.56138 l 12.52226,2.56134 c 1.42298,0.28458 2.27678,-0.56918 2.27678,-1.70757 l 0.28457,-2.27676"
       inkscape:connector-curvature="0"
       style="fill:#3e4347;stroke-width:1.00352335" />
    <path
       id="path549"
       d="m 483.08754,601.97301 c 0,1.42299 -1.13839,2.27676 -2.27677,1.99217 L 468.2885,601.4038 c -1.42298,-0.28458 -2.56137,-1.42299 -2.56137,-2.84597 v -8.82251 c 0,-1.42298 1.13839,-2.27675 2.56137,-1.99216 l 12.52227,2.56138 c 1.42298,0.28458 2.27677,1.42299 2.27677,2.84597 0,0 0,8.8225 0,8.8225"
       inkscape:connector-curvature="0"
       style="fill:#94989b;stroke-width:1.00352335" />
    <path
       id="path551"
       d="m 481.37996,595.99644 c 0,0.56922 -0.56919,1.1384 -1.13839,0.85381 l -2.27677,-0.28458 c -0.5692,0 -1.13839,-0.8538 -1.13839,-1.42298 v -2.2768 c 0,-0.56917 0.56919,-1.13835 1.13839,-0.85376 l 2.27677,0.56918 c 0.5692,0 1.13839,0.8538 1.13839,1.42298 v 1.99217"
       inkscape:connector-curvature="0"
       style="fill:#d0d0d0;stroke-width:1.00352335" />
  </g>
  <use
     x="0"
     y="0"
     xlink:href="#g354"
     id="use2895"
     transform="translate(104,7.7479258e-6)"
     width="100%"
     height="100%" />
  <text
     xml:space="preserve"
     style="font-style:normal;font-weight:normal;font-size:40px;line-height:1.25;font-family:sans-serif;letter-spacing:0px;word-spacing:0px;fill:#000000;fill-opacity:1;stroke:none"
     x="250.35687"
     y="116.14478"
     id="text2899"><tspan
       sodipodi:role="line"
       id="tspan2897"
       x="250.35687"
       y="116.14478"
       style="font-style:normal;font-variant:normal;font-weight:normal;font-stretch:normal;font-size:18px;font-family:'Source Sans Pro';-inkscape-font-specification:'Source Sans Pro';fill:#657b83">vs.</tspan></text>
  <use
     x="0"
     y="0"
     xlink:href="#g354"
     id="use3035"
     transform="translate(277,7.7479258e-6)"
     width="100%"
     height="100%" />
  <text
     id="text3039"
     y="50.265079"
     x="86.643303"
     style="font-style:normal;font-weight:normal;font-size:40px;line-height:1.25;font-family:sans-serif;letter-spacing:0px;word-spacing:0px;fill:#dc322f;fill-opacity:1;stroke:none"
     xml:space="preserve"><tspan
       style="font-style:normal;font-variant:normal;font-weight:normal;font-stretch:normal;font-size:18px;font-family:'Source Sans Pro';-inkscape-font-specification:'Source Sans Pro';fill:#dc322f"
       y="50.265079"
       x="86.643303"
       id="tspan3037"
       sodipodi:role="line">+</tspan></text>
  <use
     x="0"
     y="0"
     xlink:href="#text3039"
     id="use3041"
     transform="translate(412.62275,68.464814)"
     width="100%"
     height="100%" />
  <g
     id="g354"
     transform="matrix(3.7544803,0,0,3.7544803,-74.63252,-376.42676)"
     style="stroke-width:1.01021814">
    <path
       id="path266"
       d="m 38.096924,103.13994 -8.257648,3.14753 c 0,0 -0.296239,-0.74059 -0.555448,-1.14792 -0.629507,-1.03684 -1.740401,-0.70357 -1.740401,-0.70357 l -6.295068,2.25882 c 0,0 -0.851686,0.40733 -1.221984,1.48119 -0.333268,1.03684 0,2.33288 0,2.33288 l 3.628922,16.29312 14.441627,-13.92321 c 0,0 0.481387,-6.22101 0.777626,-9.0723 0.07406,-1.03684 -0.777626,-0.66654 -0.777626,-0.66654"
       inkscape:connector-curvature="0"
       style="fill:#962c2c;stroke-width:0.2672869" />
    <g
       transform="matrix(0.30508938,0.12768029,0.12768029,-0.30508938,27.655815,110.45303)"
       id="g308"
       style="stroke-width:1.01021814">
      <g
         id="g306"
         style="stroke-width:1.01021814">
        <g
           clip-path="url(#clipPath16-7)"
           id="g304"
           style="stroke-width:1.01021814">
          <g
             transform="translate(32.415,26.4136)"
             id="g270"
             style="stroke-width:1.01021814">
            <path
               inkscape:connector-curvature="0"
               id="path268"
               style="fill:#e1e8ed;fill-opacity:1;fill-rule:nonzero;stroke:none;stroke-width:1.01021814"
               d="m 0,0 v 0.001 l -9,8.998 c -0.361,0.363 -0.862,0.587 -1.415,0.587 -1.104,0 -1.999,-0.896 -2,-1.999 0,-0.552 0.224,-1.053 0.586,-1.415 l -3.859,-3.859 9,-9 3.859,3.859 c 0.362,-0.362 0.862,-0.586 1.414,-0.586 1.104,0 2.001,0.896 2,2 C 0.585,-0.861 0.361,-0.362 0,0" />
          </g>
          <g
             transform="translate(22,36)"
             id="g274"
             style="stroke-width:1.01021814">
            <path
               inkscape:connector-curvature="0"
               id="path272"
               style="fill:#ccd6dd;fill-opacity:1;fill-rule:nonzero;stroke:none;stroke-width:1.01021814"
               d="m 0,0 h -15 c -2.209,0 -4,-1.791 -4,-4 v -28 c 0,-2.209 1.791,-4 4,-4 H 7 c 2.209,0 4,1.791 4,4 v 21 H 2 c -1,0 -2,1 -2,2 z" />
          </g>
          <g
             transform="translate(22,36)"
             id="g278"
             style="stroke-width:1.01021814">
            <path
               inkscape:connector-curvature="0"
               id="path276"
               style="fill:#99aab5;fill-opacity:1;fill-rule:nonzero;stroke:none;stroke-width:1.01021814"
               d="m 0,0 h -2 v -9 c 0,-2.209 1.791,-4 4,-4 l 9,10e-4 V -11 H 2 c -1,0 -2,1 -2,2 z" />
          </g>
          <g
             transform="translate(17,28)"
             id="g282"
             style="stroke-width:1.01021814">
            <path
               inkscape:connector-curvature="0"
               id="path280"
               style="fill:#99aab5;fill-opacity:1;fill-rule:nonzero;stroke:none;stroke-width:1.01021814"
               d="m 0,0 c 0,-0.552 -0.448,-1 -1,-1 h -8 c -0.552,0 -1,0.448 -1,1 0,0.552 0.448,1 1,1 h 8 C -0.448,1 0,0.552 0,0" />
          </g>
          <g
             transform="translate(17,24)"
             id="g286"
             style="stroke-width:1.01021814">
            <path
               inkscape:connector-curvature="0"
               id="path284"
               style="fill:#99aab5;fill-opacity:1;fill-rule:nonzero;stroke:none;stroke-width:1.01021814"
               d="m 0,0 c 0,-0.552 -0.448,-1 -1,-1 h -8 c -0.552,0 -1,0.448 -1,1 0,0.552 0.448,1 1,1 h 8 C -0.448,1 0,0.552 0,0" />
          </g>
          <g
             transform="translate(29,20)"
             id="g290"
             style="stroke-width:1.01021814">
            <path
               inkscape:connector-curvature="0"
               id="path288"
               style="fill:#99aab5;fill-opacity:1;fill-rule:nonzero;stroke:none;stroke-width:1.01021814"
               d="m 0,0 c 0,-0.552 -0.447,-1 -1,-1 h -20 c -0.552,0 -1,0.448 -1,1 0,0.552 0.448,1 1,1 H -1 C -0.447,1 0,0.552 0,0" />
          </g>
          <g
             transform="translate(29,16)"
             id="g294"
             style="stroke-width:1.01021814">
            <path
               inkscape:connector-curvature="0"
               id="path292"
               style="fill:#99aab5;fill-opacity:1;fill-rule:nonzero;stroke:none;stroke-width:1.01021814"
               d="m 0,0 c 0,-0.553 -0.447,-1 -1,-1 h -20 c -0.552,0 -1,0.447 -1,1 0,0.553 0.448,1 1,1 H -1 C -0.447,1 0,0.553 0,0" />
          </g>
          <g
             transform="translate(29,12)"
             id="g298"
             style="stroke-width:1.01021814">
            <path
               inkscape:connector-curvature="0"
               id="path296"
               style="fill:#99aab5;fill-opacity:1;fill-rule:nonzero;stroke:none;stroke-width:1.01021814"
               d="m 0,0 c 0,-0.553 -0.447,-1 -1,-1 h -20 c -0.552,0 -1,0.447 -1,1 0,0.553 0.448,1 1,1 H -1 C -0.447,1 0,0.553 0,0" />
          </g>
          <g
             transform="translate(29,8)"
             id="g302"
             style="stroke-width:1.01021814">
            <path
               inkscape:connector-curvature="0"
               id="path300"
               style="fill:#99aab5;fill-opacity:1;fill-rule:nonzero;stroke:none;stroke-width:1.01021814"
               d="m 0,0 c 0,-0.553 -0.447,-1 -1,-1 h -20 c -0.552,0 -1,0.447 -1,1 0,0.553 0.448,1 1,1 H -1 C -0.447,1 0,0.553 0,0" />
          </g>
        </g>
      </g>
    </g>
    <g
       id="g350"
       transform="matrix(0.3083234,-0.11965979,-0.11965979,-0.3083234,24.593239,119.36883)"
       style="stroke-width:1.01021814">
      <g
         id="g348"
         style="stroke-width:1.01021814">
        <g
           id="g346"
           clip-path="url(#clipPath16-7)"
           style="stroke-width:1.01021814">
          <g
             id="g312"
             transform="translate(32.415,26.4136)"
             style="stroke-width:1.01021814">
            <path
               d="m 0,0 v 0.001 l -9,8.998 c -0.361,0.363 -0.862,0.587 -1.415,0.587 -1.104,0 -1.999,-0.896 -2,-1.999 0,-0.552 0.224,-1.053 0.586,-1.415 l -3.859,-3.859 9,-9 3.859,3.859 c 0.362,-0.362 0.862,-0.586 1.414,-0.586 1.104,0 2.001,0.896 2,2 C 0.585,-0.861 0.361,-0.362 0,0"
               style="fill:#e1e8ed;fill-opacity:1;fill-rule:nonzero;stroke:none;stroke-width:1.01021814"
               id="path310"
               inkscape:connector-curvature="0" />
          </g>
          <g
             id="g316"
             transform="translate(22,36)"
             style="stroke-width:1.01021814">
            <path
               d="m 0,0 h -15 c -2.209,0 -4,-1.791 -4,-4 v -28 c 0,-2.209 1.791,-4 4,-4 H 7 c 2.209,0 4,1.791 4,4 v 21 H 2 c -1,0 -2,1 -2,2 z"
               style="fill:#ccd6dd;fill-opacity:1;fill-rule:nonzero;stroke:none;stroke-width:1.01021814"
               id="path314"
               inkscape:connector-curvature="0" />
          </g>
          <g
             id="g320"
             transform="translate(22,36)"
             style="stroke-width:1.01021814">
            <path
               d="m 0,0 h -2 v -9 c 0,-2.209 1.791,-4 4,-4 l 9,10e-4 V -11 H 2 c -1,0 -2,1 -2,2 z"
               style="fill:#99aab5;fill-opacity:1;fill-rule:nonzero;stroke:none;stroke-width:1.01021814"
               id="path318"
               inkscape:connector-curvature="0" />
          </g>
          <g
             id="g324"
             transform="translate(17,28)"
             style="stroke-width:1.01021814">
            <path
               d="m 0,0 c 0,-0.552 -0.448,-1 -1,-1 h -8 c -0.552,0 -1,0.448 -1,1 0,0.552 0.448,1 1,1 h 8 C -0.448,1 0,0.552 0,0"
               style="fill:#99aab5;fill-opacity:1;fill-rule:nonzero;stroke:none;stroke-width:1.01021814"
               id="path322"
               inkscape:connector-curvature="0" />
          </g>
          <g
             id="g328"
             transform="translate(17,24)"
             style="stroke-width:1.01021814">
            <path
               d="m 0,0 c 0,-0.552 -0.448,-1 -1,-1 h -8 c -0.552,0 -1,0.448 -1,1 0,0.552 0.448,1 1,1 h 8 C -0.448,1 0,0.552 0,0"
               style="fill:#99aab5;fill-opacity:1;fill-rule:nonzero;stroke:none;stroke-width:1.01021814"
               id="path326"
               inkscape:connector-curvature="0" />
          </g>
          <g
             id="g332"
             transform="translate(29,20)"
             style="stroke-width:1.01021814">
            <path
               d="m 0,0 c 0,-0.552 -0.447,-1 -1,-1 h -20 c -0.552,0 -1,0.448 -1,1 0,0.552 0.448,1 1,1 H -1 C -0.447,1 0,0.552 0,0"
               style="fill:#99aab5;fill-opacity:1;fill-rule:nonzero;stroke:none;stroke-width:1.01021814"
               id="path330"
               inkscape:connector-curvature="0" />
          </g>
          <g
             id="g336"
             transform="translate(29,16)"
             style="stroke-width:1.01021814">
            <path
               d="m 0,0 c 0,-0.553 -0.447,-1 -1,-1 h -20 c -0.552,0 -1,0.447 -1,1 0,0.553 0.448,1 1,1 H -1 C -0.447,1 0,0.553 0,0"
               style="fill:#99aab5;fill-opacity:1;fill-rule:nonzero;stroke:none;stroke-width:1.01021814"
               id="path334"
               inkscape:connector-curvature="0" />
          </g>
          <g
             id="g340"
             transform="translate(29,12)"
             style="stroke-width:1.01021814">
            <path
               d="m 0,0 c 0,-0.553 -0.447,-1 -1,-1 h -20 c -0.552,0 -1,0.447 -1,1 0,0.553 0.448,1 1,1 H -1 C -0.447,1 0,0.553 0,0"
               style="fill:#99aab5;fill-opacity:1;fill-rule:nonzero;stroke:none;stroke-width:1.01021814"
               id="path338"
               inkscape:connector-curvature="0" />
          </g>
          <g
             id="g344"
             transform="translate(29,8)"
             style="stroke-width:1.01021814">
            <path
               d="m 0,0 c 0,-0.553 -0.447,-1 -1,-1 h -20 c -0.552,0 -1,0.447 -1,1 0,0.553 0.448,1 1,1 H -1 C -0.447,1 0,0.553 0,0"
               style="fill:#99aab5;fill-opacity:1;fill-rule:nonzero;stroke:none;stroke-width:1.01021814"
               id="path342"
               inkscape:connector-curvature="0" />
          </g>
        </g>
      </g>
    </g>
    <path
       id="path352"
       d="M 23.618267,126.76496 39.429997,114.397 c 0,0 3.92516,-7.92438 4.07328,-8.51685 0.148119,-0.66654 -0.518418,-0.44436 -0.518418,-0.44436 l -8.405767,3.96219 c 0,0 -0.518418,2.22179 -1.518223,2.81426 -1.110894,0.62951 -6.295068,3.44378 -6.295068,3.44378 0,0 -0.740596,0.48138 -1.147924,1.25901 -0.444358,0.77763 -1.99961,9.84993 -1.99961,9.84993"
       inkscape:connector-curvature="0"
       style="fill:#ff8736;stroke-width:0.2672869" />
  </g>
  <use
     x="0"
     y="0"
     xlink:href="#g354"
     id="use3031"
     transform="translate(585,8.0000003e-6)"
     width="100%"
     height="100%" />
</svg>
