<?xml version="1.0" encoding="UTF-8" standalone="no"?>
<!-- Created with Inkscape (http://www.inkscape.org/) -->

<svg
   xmlns:dc="http://purl.org/dc/elements/1.1/"
   xmlns:cc="http://creativecommons.org/ns#"
   xmlns:rdf="http://www.w3.org/1999/02/22-rdf-syntax-ns#"
   xmlns:svg="http://www.w3.org/2000/svg"
   xmlns="http://www.w3.org/2000/svg"
   xmlns:xlink="http://www.w3.org/1999/xlink"
   xmlns:sodipodi="http://sodipodi.sourceforge.net/DTD/sodipodi-0.dtd"
   xmlns:inkscape="http://www.inkscape.org/namespaces/inkscape"
   width="157.8609"
   height="370.15417"
   viewBox="0 0 157.8609 370.15419"
   version="1.1"
   id="svg8"
   inkscape:version="0.92.2 5c3e80d, 2017-08-06"
   sodipodi:docname="folders-vs-repositories.svg">
  <defs
     id="defs2">
    <clipPath
       clipPathUnits="userSpaceOnUse"
       id="clipPath16-7-2">
      <path
         d="M 0,36 H 36 V 0 H 0 Z"
         id="path18-9-3"
         inkscape:connector-curvature="0" />
    </clipPath>
  </defs>
  <sodipodi:namedview
     id="base"
     pagecolor="#ffffff"
     bordercolor="#666666"
     borderopacity="1.0"
     inkscape:pageopacity="0.0"
     inkscape:pageshadow="2"
     inkscape:zoom="1"
     inkscape:cx="118.5"
     inkscape:cy="114.00001"
     inkscape:document-units="px"
     inkscape:current-layer="svg8"
     showgrid="false"
     units="px"
     inkscape:window-width="1366"
     inkscape:window-height="719"
     inkscape:window-x="0"
     inkscape:window-y="1"
     inkscape:window-maximized="1"
     showguides="true"
     inkscape:guide-bbox="true"
     inkscape:snap-global="false" />
  <metadata
     id="metadata5">
    <rdf:RDF>
      <cc:Work
         rdf:about="">
        <dc:format>image/svg+xml</dc:format>
        <dc:type
           rdf:resource="http://purl.org/dc/dcmitype/StillImage" />
        <dc:title />
      </cc:Work>
    </rdf:RDF>
  </metadata>
  <text
     xml:space="preserve"
     style="font-style:normal;font-weight:normal;font-size:40px;line-height:1.25;font-family:sans-serif;letter-spacing:0px;word-spacing:0px;fill:#000000;fill-opacity:1;stroke:none"
     x="74.349808"
     y="128.33881"
     id="text2899"><tspan
       sodipodi:role="line"
       id="tspan2897"
       x="74.349808"
       y="128.33881"
       style="font-style:normal;font-variant:normal;font-weight:normal;font-stretch:normal;font-size:18px;font-family:'Source Sans Pro';-inkscape-font-specification:'Source Sans Pro';fill:#657b83">vs.</tspan></text>
  <g
     id="g544-9"
     transform="matrix(0.56060869,0,0,0.56060869,56.401472,0.65036006)">
    <path
       style="fill:#b9b9bf;stroke-width:0.99799246"
       d="M 178.87389,15.849588 97.644773,0 32.831285,21.227126 53.775384,59.152926 180.8551,17.54776 c -0.56606,-0.849086 -1.13211,-1.415145 -1.98121,-1.698172"
       id="path512-3"
       inkscape:connector-curvature="0" />
    <path
       style="fill:#898a90;stroke-width:0.99799246"
       d="m 180.8551,17.54776 -127.079716,41.605166 43.303334,78.681884 19.245922,34.81246 62.26624,-20.94409 c 0,0 2.26422,-0.56604 2.26422,-1.98118 V 18.962898 c 0.2829,-0.566055 0,-0.849083 0,-1.415138"
       id="path514-8"
       inkscape:connector-curvature="0" />
    <path
       style="fill:#9fa1a6;stroke-width:0.99799246"
       d="m 117.45676,170.66608 c 0,1.41515 -1.13212,2.26425 -2.26423,1.98119 L 33.963399,156.51465 c -1.415141,-0.28301 -2.547255,-1.41514 -2.547255,-2.83028 V 23.208322 c 0,-1.415137 1.132114,-2.264224 2.547255,-1.981196 L 114.9095,37.076713 c 1.41514,0.283009 2.26423,1.415142 2.26423,2.830283 V 170.66608 Z"
       id="path516-0"
       inkscape:connector-curvature="0" />
    <g
       style="fill:#3e4347;stroke-width:0.35261223"
       id="g522-2"
       transform="scale(2.8302833)">
      <path
         style="stroke-width:0.35261223"
         d="m 14.2,34.2 c 0,-0.5 0.4,-0.8 0.8,-0.7 L 37.6,38 c 0.5,0.1 0.8,0.5 0.8,1 v 17.4 c 0,0.5 -0.4,0.8 -0.8,0.7 L 15,52.6 c -0.5,-0.1 -0.8,-0.5 -0.8,-1 0,0.1 0,-17.4 0,-17.4"
         id="path518-4"
         inkscape:connector-curvature="0" />
      <path
         style="stroke-width:0.35261223"
         d="m 38.5,34.9 c 0,0.4 -0.4,0.7 -0.8,0.6 L 15.1,31 c -0.5,-0.1 -0.8,-0.5 -0.8,-1 0,-0.5 0.4,-0.7 0.8,-0.6 l 22.6,4.5 c 0.4,0.1 0.8,0.6 0.8,1"
         id="path520-8"
         inkscape:connector-curvature="0" />
    </g>
    <path
       style="fill:#d0d0d0;stroke-width:0.99799246"
       d="m 40.190024,33.397344 c 0,-1.415141 1.132114,-2.264228 2.264228,-1.9812 l 63.964398,12.736277 c 1.41514,0.283008 2.26423,1.415141 2.26423,2.830286 v 49.246917 c 0,1.415141 -1.13211,2.264243 -2.26423,1.981223 L 42.454252,85.474555 C 41.039107,85.191546 40.190024,84.059417 40.190024,82.644276 V 33.397344"
       id="path524-3"
       inkscape:connector-curvature="0" />
    <path
       style="fill:#3e4347;stroke-width:0.99799246"
       d="m 65.945602,74.436454 v 2.264224 c 0,1.132114 1.132114,2.547256 2.264224,2.830287 l 12.453246,2.547252 c 1.415145,0.283008 2.547259,-0.566055 2.547259,-1.698173 V 78.11582 L 65.945602,74.436454"
       id="path526-9"
       inkscape:connector-curvature="0" />
    <path
       style="fill:#94989b;stroke-width:0.99799246"
       d="m 83.210331,77.832792 c 0,1.415142 -1.132114,2.264224 -2.547259,1.981201 L 68.209826,77.266734 c -1.415138,-0.283009 -2.264224,-1.415138 -2.264224,-2.83028 v -8.77388 c 0,-1.415141 1.132114,-2.264224 2.264224,-1.9812 l 12.453246,2.547259 c 1.415145,0.283009 2.547259,1.415142 2.547259,2.830279 0,0 0,8.77388 0,8.77388"
       id="path528-0"
       inkscape:connector-curvature="0" />
    <path
       style="fill:#d0d0d0;stroke-width:0.99799246"
       d="m 81.512158,71.606171 c 0,0.566052 -0.566055,1.132111 -1.132114,0.849083 L 78.11582,71.889195 c -0.566059,0 -1.132114,-0.849082 -1.132114,-1.415138 v -2.264231 c 0,-0.566051 0.566055,-1.13211 1.132114,-0.849079 l 2.264224,0.566051 c 0.566059,0 1.132114,0.849087 1.132114,1.415146 v 2.264227"
       id="path530-5"
       inkscape:connector-curvature="0" />
    <path
       style="fill:#898a90;stroke-width:0.99799246"
       d="M 108.9659,159.91102 67.926798,178.30784 V 161.0431 L 108.9659,142.64628 Z"
       id="path532-2"
       inkscape:connector-curvature="0" />
    <path
       style="fill:#3e4347;stroke-width:0.99799246"
       d="m 68.775885,179.15694 c 0,1.13212 -1.13211,1.98119 -2.547256,1.69816 L 2.2642241,168.40184 C 1.1321139,168.11883 0,166.98674 0,165.85461 c 0,-1.13212 1.1321139,-1.98122 2.2642241,-1.69816 L 66.228629,176.8927 c 1.415146,0 2.547256,1.13212 2.547256,2.26424"
       id="path534-2"
       inkscape:connector-curvature="0" />
    <path
       style="fill:#d0d0d0;stroke-width:0.99799246"
       d="m 0,114.0604 c 0,-1.41514 1.1321139,-2.2642 2.2642241,-1.98118 l 63.9644049,12.45326 c 1.415146,0.28301 2.547256,1.41515 2.547256,2.83025 v 49.24695 c 0,1.41514 -1.13211,2.26424 -2.547256,1.98118 L 2.2642241,166.13763 C 0.84908639,165.85463 0,164.72249 0,163.30735 V 114.0604"
       id="path536-7"
       inkscape:connector-curvature="0" />
    <path
       style="fill:#3e4347;stroke-width:0.99799246"
       d="m 43.020307,158.21286 -17.264729,-3.39637 v 2.26424 c 0,1.13213 1.13211,2.26421 2.264228,2.54727 l 12.453245,2.54723 c 1.415142,0.283 2.264228,-0.56605 2.264228,-1.69817 l 0.283009,-2.2642"
       id="path538-3"
       inkscape:connector-curvature="0" />
    <path
       style="fill:#94989b;stroke-width:0.99799246"
       d="m 43.020307,158.21286 c 0,1.41514 -1.132114,2.2642 -2.264228,1.98118 l -12.453246,-2.54726 c -1.415145,-0.28301 -2.547255,-1.41515 -2.547255,-2.83029 v -8.77388 c 0,-1.41514 1.13211,-2.2642 2.547255,-1.98118 l 12.453246,2.54726 c 1.415141,0.28301 2.264228,1.41514 2.264228,2.83029 0,0 0,8.77388 0,8.77388"
       id="path540-7"
       inkscape:connector-curvature="0" />
    <path
       style="fill:#d0d0d0;stroke-width:0.99799246"
       d="m 41.322138,152.26922 c 0,0.56609 -0.566059,1.13213 -1.132114,0.84911 l -2.264228,-0.28301 c -0.566055,0 -1.132114,-0.8491 -1.132114,-1.41515 v -2.26424 c 0,-0.56604 0.566059,-1.13209 1.132114,-0.84907 l 2.264228,0.56605 c 0.566055,0 1.132114,0.8491 1.132114,1.41514 v 1.98119"
       id="path542-9"
       inkscape:connector-curvature="0" />
  </g>
  <g
     id="g822-9"
     transform="matrix(0.56060869,0,0,0.56060869,7.789272,6.278816e-8)">
    <path
       style="fill:#962c2c;stroke-width:0.99930727"
       inkscape:connector-curvature="0"
       d="M 68.114254,10.764692 37.241332,22.532383 c 0,0 -1.107551,-2.768849 -2.076658,-4.291736 -2.353541,-3.876441 -6.506848,-2.630442 -6.506848,-2.630442 L 5.1224135,24.05527 c 0,0 -3.184204,1.522888 -4.56863961,5.537735 -1.24599126,3.876441 0,8.721954 0,8.721954 L 14.121249,99.230153 68.114254,47.175358 c 0,0 1.799765,-23.258532 2.907317,-33.918669 0.276889,-3.8764403 -2.907317,-2.491997 -2.907317,-2.491997"
       id="path6562-9" />
    <g
       style="stroke-width:1.01021814"
       id="g10-3-7"
       transform="matrix(1.1406397,0.47735914,0.47735914,-1.1406397,29.078012,38.106191)">
      <g
         style="stroke-width:1.01021814"
         id="g12-8-0">
        <g
           style="stroke-width:1.01021814"
           id="g14-0-3"
           clip-path="url(#clipPath16-7-2)">
          <g
             style="stroke-width:1.01021814"
             id="g20-2-9"
             transform="translate(32.415,26.4136)">
            <path
               d="m 0,0 v 0.001 l -9,8.998 c -0.361,0.363 -0.862,0.587 -1.415,0.587 -1.104,0 -1.999,-0.896 -2,-1.999 0,-0.552 0.224,-1.053 0.586,-1.415 l -3.859,-3.859 9,-9 3.859,3.859 c 0.362,-0.362 0.862,-0.586 1.414,-0.586 1.104,0 2.001,0.896 2,2 C 0.585,-0.861 0.361,-0.362 0,0"
               style="fill:#e1e8ed;fill-opacity:1;fill-rule:nonzero;stroke:none;stroke-width:1.01021814"
               id="path22-4-8"
               inkscape:connector-curvature="0" />
          </g>
          <g
             style="stroke-width:1.01021814"
             id="g24-8-6"
             transform="translate(22,36)">
            <path
               d="m 0,0 h -15 c -2.209,0 -4,-1.791 -4,-4 v -28 c 0,-2.209 1.791,-4 4,-4 H 7 c 2.209,0 4,1.791 4,4 v 21 H 2 c -1,0 -2,1 -2,2 z"
               style="fill:#ccd6dd;fill-opacity:1;fill-rule:nonzero;stroke:none;stroke-width:1.01021814"
               id="path26-3-5"
               inkscape:connector-curvature="0" />
          </g>
          <g
             style="stroke-width:1.01021814"
             id="g28-7"
             transform="translate(22,36)">
            <path
               d="m 0,0 h -2 v -9 c 0,-2.209 1.791,-4 4,-4 l 9,10e-4 V -11 H 2 c -1,0 -2,1 -2,2 z"
               style="fill:#99aab5;fill-opacity:1;fill-rule:nonzero;stroke:none;stroke-width:1.01021814"
               id="path30-6"
               inkscape:connector-curvature="0" />
          </g>
          <g
             style="stroke-width:1.01021814"
             id="g32-2"
             transform="translate(17,28)">
            <path
               d="m 0,0 c 0,-0.552 -0.448,-1 -1,-1 h -8 c -0.552,0 -1,0.448 -1,1 0,0.552 0.448,1 1,1 h 8 C -0.448,1 0,0.552 0,0"
               style="fill:#99aab5;fill-opacity:1;fill-rule:nonzero;stroke:none;stroke-width:1.01021814"
               id="path34-7"
               inkscape:connector-curvature="0" />
          </g>
          <g
             style="stroke-width:1.01021814"
             id="g36-0"
             transform="translate(17,24)">
            <path
               d="m 0,0 c 0,-0.552 -0.448,-1 -1,-1 h -8 c -0.552,0 -1,0.448 -1,1 0,0.552 0.448,1 1,1 h 8 C -0.448,1 0,0.552 0,0"
               style="fill:#99aab5;fill-opacity:1;fill-rule:nonzero;stroke:none;stroke-width:1.01021814"
               id="path38-3"
               inkscape:connector-curvature="0" />
          </g>
          <g
             style="stroke-width:1.01021814"
             id="g40-9"
             transform="translate(29,20)">
            <path
               d="m 0,0 c 0,-0.552 -0.447,-1 -1,-1 h -20 c -0.552,0 -1,0.448 -1,1 0,0.552 0.448,1 1,1 H -1 C -0.447,1 0,0.552 0,0"
               style="fill:#99aab5;fill-opacity:1;fill-rule:nonzero;stroke:none;stroke-width:1.01021814"
               id="path42-9"
               inkscape:connector-curvature="0" />
          </g>
          <g
             style="stroke-width:1.01021814"
             id="g44-9"
             transform="translate(29,16)">
            <path
               d="m 0,0 c 0,-0.553 -0.447,-1 -1,-1 h -20 c -0.552,0 -1,0.447 -1,1 0,0.553 0.448,1 1,1 H -1 C -0.447,1 0,0.553 0,0"
               style="fill:#99aab5;fill-opacity:1;fill-rule:nonzero;stroke:none;stroke-width:1.01021814"
               id="path46-1"
               inkscape:connector-curvature="0" />
          </g>
          <g
             style="stroke-width:1.01021814"
             id="g48-7"
             transform="translate(29,12)">
            <path
               d="m 0,0 c 0,-0.553 -0.447,-1 -1,-1 h -20 c -0.552,0 -1,0.447 -1,1 0,0.553 0.448,1 1,1 H -1 C -0.447,1 0,0.553 0,0"
               style="fill:#99aab5;fill-opacity:1;fill-rule:nonzero;stroke:none;stroke-width:1.01021814"
               id="path50-2"
               inkscape:connector-curvature="0" />
          </g>
          <g
             style="stroke-width:1.01021814"
             id="g52-3"
             transform="translate(29,8)">
            <path
               d="m 0,0 c 0,-0.553 -0.447,-1 -1,-1 h -20 c -0.552,0 -1,0.447 -1,1 0,0.553 0.448,1 1,1 H -1 C -0.447,1 0,0.553 0,0"
               style="fill:#99aab5;fill-opacity:1;fill-rule:nonzero;stroke:none;stroke-width:1.01021814"
               id="path54-6"
               inkscape:connector-curvature="0" />
          </g>
        </g>
      </g>
    </g>
    <g
       style="stroke-width:1.01021814"
       transform="matrix(1.1527307,-0.44737286,-0.44737286,-1.1527307,17.627939,71.439749)"
       id="g6618-5">
      <g
         style="stroke-width:1.01021814"
         id="g6616-5">
        <g
           style="stroke-width:1.01021814"
           clip-path="url(#clipPath16-7-2)"
           id="g6614-8">
          <g
             style="stroke-width:1.01021814"
             transform="translate(32.415,26.4136)"
             id="g6580-1">
            <path
               inkscape:connector-curvature="0"
               id="path6578-4"
               style="fill:#e1e8ed;fill-opacity:1;fill-rule:nonzero;stroke:none;stroke-width:1.01021814"
               d="m 0,0 v 0.001 l -9,8.998 c -0.361,0.363 -0.862,0.587 -1.415,0.587 -1.104,0 -1.999,-0.896 -2,-1.999 0,-0.552 0.224,-1.053 0.586,-1.415 l -3.859,-3.859 9,-9 3.859,3.859 c 0.362,-0.362 0.862,-0.586 1.414,-0.586 1.104,0 2.001,0.896 2,2 C 0.585,-0.861 0.361,-0.362 0,0" />
          </g>
          <g
             style="stroke-width:1.01021814"
             transform="translate(22,36)"
             id="g6584-7">
            <path
               inkscape:connector-curvature="0"
               id="path6582-1"
               style="fill:#ccd6dd;fill-opacity:1;fill-rule:nonzero;stroke:none;stroke-width:1.01021814"
               d="m 0,0 h -15 c -2.209,0 -4,-1.791 -4,-4 v -28 c 0,-2.209 1.791,-4 4,-4 H 7 c 2.209,0 4,1.791 4,4 v 21 H 2 c -1,0 -2,1 -2,2 z" />
          </g>
          <g
             style="stroke-width:1.01021814"
             transform="translate(22,36)"
             id="g6588-3">
            <path
               inkscape:connector-curvature="0"
               id="path6586-8"
               style="fill:#99aab5;fill-opacity:1;fill-rule:nonzero;stroke:none;stroke-width:1.01021814"
               d="m 0,0 h -2 v -9 c 0,-2.209 1.791,-4 4,-4 l 9,10e-4 V -11 H 2 c -1,0 -2,1 -2,2 z" />
          </g>
          <g
             style="stroke-width:1.01021814"
             transform="translate(17,28)"
             id="g6592-4">
            <path
               inkscape:connector-curvature="0"
               id="path6590-8"
               style="fill:#99aab5;fill-opacity:1;fill-rule:nonzero;stroke:none;stroke-width:1.01021814"
               d="m 0,0 c 0,-0.552 -0.448,-1 -1,-1 h -8 c -0.552,0 -1,0.448 -1,1 0,0.552 0.448,1 1,1 h 8 C -0.448,1 0,0.552 0,0" />
          </g>
          <g
             style="stroke-width:1.01021814"
             transform="translate(17,24)"
             id="g6596-0">
            <path
               inkscape:connector-curvature="0"
               id="path6594-4"
               style="fill:#99aab5;fill-opacity:1;fill-rule:nonzero;stroke:none;stroke-width:1.01021814"
               d="m 0,0 c 0,-0.552 -0.448,-1 -1,-1 h -8 c -0.552,0 -1,0.448 -1,1 0,0.552 0.448,1 1,1 h 8 C -0.448,1 0,0.552 0,0" />
          </g>
          <g
             style="stroke-width:1.01021814"
             transform="translate(29,20)"
             id="g6600-6">
            <path
               inkscape:connector-curvature="0"
               id="path6598-0"
               style="fill:#99aab5;fill-opacity:1;fill-rule:nonzero;stroke:none;stroke-width:1.01021814"
               d="m 0,0 c 0,-0.552 -0.447,-1 -1,-1 h -20 c -0.552,0 -1,0.448 -1,1 0,0.552 0.448,1 1,1 H -1 C -0.447,1 0,0.552 0,0" />
          </g>
          <g
             style="stroke-width:1.01021814"
             transform="translate(29,16)"
             id="g6604-3">
            <path
               inkscape:connector-curvature="0"
               id="path6602-2"
               style="fill:#99aab5;fill-opacity:1;fill-rule:nonzero;stroke:none;stroke-width:1.01021814"
               d="m 0,0 c 0,-0.553 -0.447,-1 -1,-1 h -20 c -0.552,0 -1,0.447 -1,1 0,0.553 0.448,1 1,1 H -1 C -0.447,1 0,0.553 0,0" />
          </g>
          <g
             style="stroke-width:1.01021814"
             transform="translate(29,12)"
             id="g6608-6">
            <path
               inkscape:connector-curvature="0"
               id="path6606-9"
               style="fill:#99aab5;fill-opacity:1;fill-rule:nonzero;stroke:none;stroke-width:1.01021814"
               d="m 0,0 c 0,-0.553 -0.447,-1 -1,-1 h -20 c -0.552,0 -1,0.447 -1,1 0,0.553 0.448,1 1,1 H -1 C -0.447,1 0,0.553 0,0" />
          </g>
          <g
             style="stroke-width:1.01021814"
             transform="translate(29,8)"
             id="g6612-4">
            <path
               inkscape:connector-curvature="0"
               id="path6610-1"
               style="fill:#99aab5;fill-opacity:1;fill-rule:nonzero;stroke:none;stroke-width:1.01021814"
               d="m 0,0 c 0,-0.553 -0.447,-1 -1,-1 h -20 c -0.552,0 -1,0.447 -1,1 0,0.553 0.448,1 1,1 H -1 C -0.447,1 0,0.553 0,0" />
          </g>
        </g>
      </g>
    </g>
    <path
       style="fill:#ff8736;stroke-width:0.99930727"
       inkscape:connector-curvature="0"
       d="M 13.982805,99.09171 73.098222,52.851535 c 0,0 14.675022,-29.626931 15.2288,-31.842002 0.553774,-2.491997 -1.938212,-1.661332 -1.938212,-1.661332 L 54.962111,34.161667 c 0,0 -1.938211,8.30662 -5.676188,10.521694 -4.153309,2.353551 -23.535412,12.87528 -23.535412,12.87528 0,0 -2.768871,1.799738 -4.291752,4.707071 -1.661324,2.907329 -7.475954,36.825998 -7.475954,36.825998"
       id="path6564-3" />
  </g>
  <path
     style="fill:none;stroke:#657b83;stroke-width:1px;stroke-linecap:butt;stroke-linejoin:miter;stroke-opacity:1"
     d="M 72.651872,33.685567 48.768772,29.62903"
     id="path985"
     inkscape:connector-curvature="0"
     sodipodi:nodetypes="cc" />
  <use
     x="0"
     y="0"
     xlink:href="#g822-9"
     id="use1792"
     transform="translate(-7.789272,54.5249)"
     width="100%"
     height="100%" />
  <path
     sodipodi:nodetypes="cc"
     inkscape:connector-curvature="0"
     id="path1794"
     d="M 72.651872,48.03423 49.998657,65.70566"
     style="fill:none;stroke:#657b83;stroke-width:1px;stroke-linecap:butt;stroke-linejoin:miter;stroke-opacity:1" />
  <use
     x="0"
     y="0"
     xlink:href="#g544-9"
     id="use1796"
     transform="translate(0,141)"
     width="100%"
     height="100%" />
  <use
     x="0"
     y="0"
     xlink:href="#g822-9"
     id="use1798"
     transform="translate(0,141)"
     width="100%"
     height="100%" />
  <use
     x="0"
     y="0"
     xlink:href="#path985"
     id="use1800"
     transform="translate(0,141)"
     width="100%"
     height="100%" />
  <use
     x="0"
     y="0"
     xlink:href="#use1796"
     id="use1806"
     transform="translate(0,119)"
     width="100%"
     height="100%" />
  <g
     transform="matrix(0.56060869,0,0,0.56060869,0,314.5249)"
     id="use1812">
    <path
       id="path1816"
       d="M 68.114254,10.764692 37.241332,22.532383 c 0,0 -1.107551,-2.768849 -2.076658,-4.291736 -2.353541,-3.876441 -6.506848,-2.630442 -6.506848,-2.630442 L 5.1224135,24.05527 c 0,0 -3.184204,1.522888 -4.56863961,5.537735 -1.24599126,3.876441 0,8.721954 0,8.721954 L 14.121249,99.230153 68.114254,47.175358 c 0,0 1.799765,-23.258532 2.907317,-33.918669 0.276889,-3.8764403 -2.907317,-2.491997 -2.907317,-2.491997"
       inkscape:connector-curvature="0"
       style="fill:#962c2c;stroke-width:0.99930727" />
    <g
       transform="matrix(1.1406397,0.47735914,0.47735914,-1.1406397,29.078012,38.106191)"
       id="g1858"
       style="stroke-width:1.01021814">
      <g
         id="g1856"
         style="stroke-width:1.01021814">
        <g
           clip-path="url(#clipPath16-7-2)"
           id="g1854"
           style="stroke-width:1.01021814">
          <g
             transform="translate(32.415,26.4136)"
             id="g1820"
             style="stroke-width:1.01021814">
            <path
               inkscape:connector-curvature="0"
               id="path1818"
               style="fill:#e1e8ed;fill-opacity:1;fill-rule:nonzero;stroke:none;stroke-width:1.01021814"
               d="m 0,0 v 0.001 l -9,8.998 c -0.361,0.363 -0.862,0.587 -1.415,0.587 -1.104,0 -1.999,-0.896 -2,-1.999 0,-0.552 0.224,-1.053 0.586,-1.415 l -3.859,-3.859 9,-9 3.859,3.859 c 0.362,-0.362 0.862,-0.586 1.414,-0.586 1.104,0 2.001,0.896 2,2 C 0.585,-0.861 0.361,-0.362 0,0" />
          </g>
          <g
             transform="translate(22,36)"
             id="g1824"
             style="stroke-width:1.01021814">
            <path
               inkscape:connector-curvature="0"
               id="path1822"
               style="fill:#ccd6dd;fill-opacity:1;fill-rule:nonzero;stroke:none;stroke-width:1.01021814"
               d="m 0,0 h -15 c -2.209,0 -4,-1.791 -4,-4 v -28 c 0,-2.209 1.791,-4 4,-4 H 7 c 2.209,0 4,1.791 4,4 v 21 H 2 c -1,0 -2,1 -2,2 z" />
          </g>
          <g
             transform="translate(22,36)"
             id="g1828"
             style="stroke-width:1.01021814">
            <path
               inkscape:connector-curvature="0"
               id="path1826"
               style="fill:#99aab5;fill-opacity:1;fill-rule:nonzero;stroke:none;stroke-width:1.01021814"
               d="m 0,0 h -2 v -9 c 0,-2.209 1.791,-4 4,-4 l 9,10e-4 V -11 H 2 c -1,0 -2,1 -2,2 z" />
          </g>
          <g
             transform="translate(17,28)"
             id="g1832"
             style="stroke-width:1.01021814">
            <path
               inkscape:connector-curvature="0"
               id="path1830"
               style="fill:#99aab5;fill-opacity:1;fill-rule:nonzero;stroke:none;stroke-width:1.01021814"
               d="m 0,0 c 0,-0.552 -0.448,-1 -1,-1 h -8 c -0.552,0 -1,0.448 -1,1 0,0.552 0.448,1 1,1 h 8 C -0.448,1 0,0.552 0,0" />
          </g>
          <g
             transform="translate(17,24)"
             id="g1836"
             style="stroke-width:1.01021814">
            <path
               inkscape:connector-curvature="0"
               id="path1834"
               style="fill:#99aab5;fill-opacity:1;fill-rule:nonzero;stroke:none;stroke-width:1.01021814"
               d="m 0,0 c 0,-0.552 -0.448,-1 -1,-1 h -8 c -0.552,0 -1,0.448 -1,1 0,0.552 0.448,1 1,1 h 8 C -0.448,1 0,0.552 0,0" />
          </g>
          <g
             transform="translate(29,20)"
             id="g1840"
             style="stroke-width:1.01021814">
            <path
               inkscape:connector-curvature="0"
               id="path1838"
               style="fill:#99aab5;fill-opacity:1;fill-rule:nonzero;stroke:none;stroke-width:1.01021814"
               d="m 0,0 c 0,-0.552 -0.447,-1 -1,-1 h -20 c -0.552,0 -1,0.448 -1,1 0,0.552 0.448,1 1,1 H -1 C -0.447,1 0,0.552 0,0" />
          </g>
          <g
             transform="translate(29,16)"
             id="g1844"
             style="stroke-width:1.01021814">
            <path
               inkscape:connector-curvature="0"
               id="path1842"
               style="fill:#99aab5;fill-opacity:1;fill-rule:nonzero;stroke:none;stroke-width:1.01021814"
               d="m 0,0 c 0,-0.553 -0.447,-1 -1,-1 h -20 c -0.552,0 -1,0.447 -1,1 0,0.553 0.448,1 1,1 H -1 C -0.447,1 0,0.553 0,0" />
          </g>
          <g
             transform="translate(29,12)"
             id="g1848"
             style="stroke-width:1.01021814">
            <path
               inkscape:connector-curvature="0"
               id="path1846"
               style="fill:#99aab5;fill-opacity:1;fill-rule:nonzero;stroke:none;stroke-width:1.01021814"
               d="m 0,0 c 0,-0.553 -0.447,-1 -1,-1 h -20 c -0.552,0 -1,0.447 -1,1 0,0.553 0.448,1 1,1 H -1 C -0.447,1 0,0.553 0,0" />
          </g>
          <g
             transform="translate(29,8)"
             id="g1852"
             style="stroke-width:1.01021814">
            <path
               inkscape:connector-curvature="0"
               id="path1850"
               style="fill:#99aab5;fill-opacity:1;fill-rule:nonzero;stroke:none;stroke-width:1.01021814"
               d="m 0,0 c 0,-0.553 -0.447,-1 -1,-1 h -20 c -0.552,0 -1,0.447 -1,1 0,0.553 0.448,1 1,1 H -1 C -0.447,1 0,0.553 0,0" />
          </g>
        </g>
      </g>
    </g>
    <g
       id="g1900"
       transform="matrix(1.1527307,-0.44737286,-0.44737286,-1.1527307,17.627939,71.439749)"
       style="stroke-width:1.01021814">
      <g
         id="g1898"
         style="stroke-width:1.01021814">
        <g
           id="g1896"
           clip-path="url(#clipPath16-7-2)"
           style="stroke-width:1.01021814">
          <g
             id="g1862"
             transform="translate(32.415,26.4136)"
             style="stroke-width:1.01021814">
            <path
               d="m 0,0 v 0.001 l -9,8.998 c -0.361,0.363 -0.862,0.587 -1.415,0.587 -1.104,0 -1.999,-0.896 -2,-1.999 0,-0.552 0.224,-1.053 0.586,-1.415 l -3.859,-3.859 9,-9 3.859,3.859 c 0.362,-0.362 0.862,-0.586 1.414,-0.586 1.104,0 2.001,0.896 2,2 C 0.585,-0.861 0.361,-0.362 0,0"
               style="fill:#e1e8ed;fill-opacity:1;fill-rule:nonzero;stroke:none;stroke-width:1.01021814"
               id="path1860"
               inkscape:connector-curvature="0" />
          </g>
          <g
             id="g1866"
             transform="translate(22,36)"
             style="stroke-width:1.01021814">
            <path
               d="m 0,0 h -15 c -2.209,0 -4,-1.791 -4,-4 v -28 c 0,-2.209 1.791,-4 4,-4 H 7 c 2.209,0 4,1.791 4,4 v 21 H 2 c -1,0 -2,1 -2,2 z"
               style="fill:#ccd6dd;fill-opacity:1;fill-rule:nonzero;stroke:none;stroke-width:1.01021814"
               id="path1864"
               inkscape:connector-curvature="0" />
          </g>
          <g
             id="g1870"
             transform="translate(22,36)"
             style="stroke-width:1.01021814">
            <path
               d="m 0,0 h -2 v -9 c 0,-2.209 1.791,-4 4,-4 l 9,10e-4 V -11 H 2 c -1,0 -2,1 -2,2 z"
               style="fill:#99aab5;fill-opacity:1;fill-rule:nonzero;stroke:none;stroke-width:1.01021814"
               id="path1868"
               inkscape:connector-curvature="0" />
          </g>
          <g
             id="g1874"
             transform="translate(17,28)"
             style="stroke-width:1.01021814">
            <path
               d="m 0,0 c 0,-0.552 -0.448,-1 -1,-1 h -8 c -0.552,0 -1,0.448 -1,1 0,0.552 0.448,1 1,1 h 8 C -0.448,1 0,0.552 0,0"
               style="fill:#99aab5;fill-opacity:1;fill-rule:nonzero;stroke:none;stroke-width:1.01021814"
               id="path1872"
               inkscape:connector-curvature="0" />
          </g>
          <g
             id="g1878"
             transform="translate(17,24)"
             style="stroke-width:1.01021814">
            <path
               d="m 0,0 c 0,-0.552 -0.448,-1 -1,-1 h -8 c -0.552,0 -1,0.448 -1,1 0,0.552 0.448,1 1,1 h 8 C -0.448,1 0,0.552 0,0"
               style="fill:#99aab5;fill-opacity:1;fill-rule:nonzero;stroke:none;stroke-width:1.01021814"
               id="path1876"
               inkscape:connector-curvature="0" />
          </g>
          <g
             id="g1882"
             transform="translate(29,20)"
             style="stroke-width:1.01021814">
            <path
               d="m 0,0 c 0,-0.552 -0.447,-1 -1,-1 h -20 c -0.552,0 -1,0.448 -1,1 0,0.552 0.448,1 1,1 H -1 C -0.447,1 0,0.552 0,0"
               style="fill:#99aab5;fill-opacity:1;fill-rule:nonzero;stroke:none;stroke-width:1.01021814"
               id="path1880"
               inkscape:connector-curvature="0" />
          </g>
          <g
             id="g1886"
             transform="translate(29,16)"
             style="stroke-width:1.01021814">
            <path
               d="m 0,0 c 0,-0.553 -0.447,-1 -1,-1 h -20 c -0.552,0 -1,0.447 -1,1 0,0.553 0.448,1 1,1 H -1 C -0.447,1 0,0.553 0,0"
               style="fill:#99aab5;fill-opacity:1;fill-rule:nonzero;stroke:none;stroke-width:1.01021814"
               id="path1884"
               inkscape:connector-curvature="0" />
          </g>
          <g
             id="g1890"
             transform="translate(29,12)"
             style="stroke-width:1.01021814">
            <path
               d="m 0,0 c 0,-0.553 -0.447,-1 -1,-1 h -20 c -0.552,0 -1,0.447 -1,1 0,0.553 0.448,1 1,1 H -1 C -0.447,1 0,0.553 0,0"
               style="fill:#99aab5;fill-opacity:1;fill-rule:nonzero;stroke:none;stroke-width:1.01021814"
               id="path1888"
               inkscape:connector-curvature="0" />
          </g>
          <g
             id="g1894"
             transform="translate(29,8)"
             style="stroke-width:1.01021814">
            <path
               d="m 0,0 c 0,-0.553 -0.447,-1 -1,-1 h -20 c -0.552,0 -1,0.447 -1,1 0,0.553 0.448,1 1,1 H -1 C -0.447,1 0,0.553 0,0"
               style="fill:#99aab5;fill-opacity:1;fill-rule:nonzero;stroke:none;stroke-width:1.01021814"
               id="path1892"
               inkscape:connector-curvature="0" />
          </g>
        </g>
      </g>
    </g>
    <path
       id="path1902"
       d="M 13.982805,99.09171 73.098222,52.851535 c 0,0 14.675022,-29.626931 15.2288,-31.842002 0.553774,-2.491997 -1.938212,-1.661332 -1.938212,-1.661332 L 54.962111,34.161667 c 0,0 -1.938211,8.30662 -5.676188,10.521694 -4.153309,2.353551 -23.535412,12.87528 -23.535412,12.87528 0,0 -2.768871,1.799738 -4.291752,4.707071 -1.661324,2.907329 -7.475954,36.825998 -7.475954,36.825998"
       inkscape:connector-curvature="0"
       style="fill:#ff8736;stroke-width:0.99930727" />
  </g>
  <path
     style="fill:none;stroke:#657b83;stroke-width:1px;stroke-linecap:butt;stroke-linejoin:miter;stroke-opacity:1"
     d="M 72.651872,308.03423 49.998657,325.70566"
     id="use1814"
     inkscape:connector-curvature="0"
     sodipodi:nodetypes="cc" />
  <text
     id="text1910"
     y="261.33881"
     x="76.349808"
     style="font-style:normal;font-weight:normal;font-size:40px;line-height:1.25;font-family:sans-serif;letter-spacing:0px;word-spacing:0px;fill:#000000;fill-opacity:1;stroke:none"
     xml:space="preserve"><tspan
       style="font-style:normal;font-variant:normal;font-weight:normal;font-stretch:normal;font-size:18px;font-family:'Source Sans Pro';-inkscape-font-specification:'Source Sans Pro';fill:#657b83"
       y="261.33881"
       x="76.349808"
       id="tspan1908"
       sodipodi:role="line">+</tspan></text>
</svg>
