<?xml version="1.0" encoding="UTF-8" standalone="no"?>
<!-- Created with Inkscape (http://www.inkscape.org/) -->

<svg
   xmlns:dc="http://purl.org/dc/elements/1.1/"
   xmlns:cc="http://creativecommons.org/ns#"
   xmlns:rdf="http://www.w3.org/1999/02/22-rdf-syntax-ns#"
   xmlns:svg="http://www.w3.org/2000/svg"
   xmlns="http://www.w3.org/2000/svg"
   xmlns:sodipodi="http://sodipodi.sourceforge.net/DTD/sodipodi-0.dtd"
   xmlns:inkscape="http://www.inkscape.org/namespaces/inkscape"
   width="132"
   height="128.88216"
   viewBox="0 0 132 128.88216"
   version="1.1"
   id="svg8"
   inkscape:version="0.92.2 5c3e80d, 2017-08-06"
   sodipodi:docname="head.svg">
  <defs
     id="defs2">
    <marker
       inkscape:isstock="true"
       style="overflow:visible"
       id="marker11646"
       refX="0"
       refY="0"
       orient="auto"
       inkscape:stockid="TriangleOutL"
       inkscape:collect="always">
      <path
         inkscape:connector-curvature="0"
         transform="scale(0.8)"
         style="fill:#657b83;fill-opacity:1;fill-rule:evenodd;stroke:#657b83;stroke-width:1.00000003pt;stroke-opacity:1"
         d="M 5.77,0 -2.88,5 V -5 Z"
         id="path11644" />
    </marker>
    <marker
       inkscape:isstock="true"
       style="overflow:visible"
       id="marker4741-4"
       refX="0"
       refY="0"
       orient="auto"
       inkscape:stockid="TriangleOutL"
       inkscape:collect="always">
      <path
         inkscape:connector-curvature="0"
         transform="scale(0.8)"
         style="fill:#657b83;fill-opacity:1;fill-rule:evenodd;stroke:#657b83;stroke-width:1.00000003pt;stroke-opacity:1"
         d="M 5.77,0 -2.88,5 V -5 Z"
         id="path4739-5" />
    </marker>
  </defs>
  <sodipodi:namedview
     id="base"
     pagecolor="#ffffff"
     bordercolor="#666666"
     borderopacity="1.0"
     inkscape:pageopacity="0.0"
     inkscape:pageshadow="2"
     inkscape:zoom="1"
     inkscape:cx="-156.81398"
     inkscape:cy="81.499994"
     inkscape:document-units="px"
     inkscape:current-layer="svg8"
     showgrid="false"
     units="px"
     inkscape:snap-global="false"
     inkscape:window-width="1366"
     inkscape:window-height="724"
     inkscape:window-x="0"
     inkscape:window-y="0"
     inkscape:window-maximized="0"
     fit-margin-top="0"
     fit-margin-left="0"
     fit-margin-right="0"
     fit-margin-bottom="0" />
  <metadata
     id="metadata5">
    <rdf:RDF>
      <cc:Work
         rdf:about="">
        <dc:format>image/svg+xml</dc:format>
        <dc:type
           rdf:resource="http://purl.org/dc/dcmitype/StillImage" />
        <dc:title></dc:title>
      </cc:Work>
    </rdf:RDF>
  </metadata>
  <text
     xml:space="preserve"
     style="font-style:normal;font-variant:normal;font-weight:normal;font-stretch:normal;font-size:19.14993668px;line-height:120.00000477%;font-family:'Source Code Pro';-inkscape-font-specification:'Source Code Pro';text-align:start;letter-spacing:0px;word-spacing:0px;writing-mode:lr-tb;text-anchor:start;fill:#657b83;fill-opacity:1;stroke:none;stroke-width:0.99739248px;stroke-linecap:butt;stroke-linejoin:miter;stroke-opacity:1"
     x="2.0856926"
     y="37.404961"
     id="text950"><tspan
       sodipodi:role="line"
       id="tspan948"
       x="2.0856926"
       y="37.404961"
       style="font-style:normal;font-variant:normal;font-weight:normal;font-stretch:normal;font-size:18px;font-family:'Source Code Pro';-inkscape-font-specification:'Source Code Pro';fill:#657b83;stroke-width:0.99739248px">HEAD</tspan></text>
  <g
     id="g982"
     transform="matrix(-1.6994925,-0.25513962,0,1.6994925,186.77131,-1.1033757)"
     style="stroke-width:2.21811676">
    <g
       id="g972"
       transform="matrix(0.47587821,0,0,0.47587821,32.228041,53.153152)"
       style="stroke-width:1.23324978">
      <path
         id="path952"
         d="M 32,64 0,44.8 V 19.2 l 32,19.2 z"
         inkscape:connector-curvature="0"
         style="fill:#89664c;stroke-width:1.23324978" />
      <path
         id="path954"
         d="M 32,38.4 V 64 L 64,44.8 V 19.2 Z"
         inkscape:connector-curvature="0"
         style="fill:#fed0ac;stroke-width:1.23324978" />
      <path
         id="path956"
         d="M 0,19.2 32,38.4 64,19.2 32,0 Z"
         inkscape:connector-curvature="0"
         style="fill:#d3976e;stroke-width:1.23324978" />
      <path
         id="path958"
         d="M 50.9,27 19,7.8 13,11.4 45,30.6 Z"
         inkscape:connector-curvature="0"
         style="fill:#89664c;stroke-width:1.23324978" />
      <path
         id="path960"
         d="M 39.3,6.8 32.2,2.4 26.3,6 l 7.1,4.3 z"
         inkscape:connector-curvature="0"
         style="fill:#d0d0d0;stroke-width:1.23324978" />
      <path
         id="path962"
         d="m 50.8,27.1 -5.6,3.4 v 9.2 l 5.6,-3.4 z"
         inkscape:connector-curvature="0"
         style="fill:#d3976e;stroke-width:1.23324978" />
      <g
         id="g968"
         style="fill:#ffffff;stroke-width:1.23324978">
        <path
           id="path964"
           d="m 62.5,22.1 -5.7,3.4 v 9.2 l 5.7,-3.4 z"
           inkscape:connector-curvature="0"
           style="stroke-width:1.23324978" />
        <path
           id="path966"
           d="m 41.6,43.5 -7.7,4.6 V 60.7 L 41.6,56 Z"
           inkscape:connector-curvature="0"
           style="stroke-width:1.23324978" />
      </g>
      <path
         id="path970"
         d="m 45.2,56.1 5.6,-3.4 v -9.2 l -5.6,3.4 z"
         inkscape:connector-curvature="0"
         style="fill:#d3976e;stroke-width:1.23324978" />
    </g>
    <g
       id="g980"
       transform="matrix(0.19402154,0,0,0.19402154,59.377753,74.092439)"
       style="stroke-width:3.02480221">
      <path
         id="path974"
         d="M 29.1,12.9 H 19 L 12.9,19 V 29.1 L 43.8,64 64,43.8 29.1,12.9 m -6.4,9.8 c -0.9,0.9 -2.4,0.9 -3.4,0 -0.9,-0.9 -0.9,-2.4 0,-3.4 0.9,-0.9 2.4,-0.9 3.4,0 0.9,1 0.9,2.5 0,3.4"
         inkscape:connector-curvature="0"
         style="fill:#f2b200;stroke-width:3.02480221" />
      <path
         id="path976"
         d="M 21.9,20.8 C 21.6,19.5 21,18.2 20.3,17.1 18.6,14.3 16.2,12 13.4,10.3 9.6,8.1 5.3,7.1 0.9,6.7 0.4,6.7 0,7.2 0,7.6 c 0,0.5 0.4,0.9 0.9,0.9 4.7,0.4 9.5,1.7 13.4,4.5 1.1,0.8 2.4,2.1 3.3,3.3 0.2,0.2 -0.1,-0.2 0,0.1 0,0.1 0.1,0.1 0.1,0.2 0.1,0.1 0.2,0.3 0.3,0.4 0.2,0.3 0.4,0.5 0.5,0.8 0.3,0.5 0.5,0.9 0.8,1.4 0.1,0.1 0.1,0.3 0.2,0.4 0,0.1 0.1,0.1 0.1,0.2 0.1,0.2 0.2,0.5 0.2,0.7 0.1,0.2 0.1,0.4 0.2,0.6 0.3,1.4 2.2,0.9 1.9,-0.3"
         inkscape:connector-curvature="0"
         style="fill:#94989b;stroke-width:3.02480221" />
      <path
         id="path978"
         d="m 15.3,16.6 c 0,0 -0.1,-0.1 -0.1,-0.1 C 14.7,16.1 14.3,15.7 13.9,15.2 13,14.2 12.2,12.9 11.6,11.6 9.9,8.3 9,4.6 8.7,1 8.6,0.4 8.2,0 7.6,0 7.1,0 6.6,0.4 6.7,0.9 c 0.3,4 1.4,8 3.2,11.6 0.7,1.4 1.6,2.8 2.6,4 0.4,0.5 0.9,1 1.4,1.4 l 1.4,-1.3"
         inkscape:connector-curvature="0"
         style="fill:#3e4347;stroke-width:3.02480221" />
    </g>
  </g>
  <path
     sodipodi:nodetypes="cc"
     inkscape:connector-curvature="0"
     id="path984"
     d="m 106.11994,51.922259 v 19.37018"
     style="opacity:1;fill:#657b83;fill-opacity:1;fill-rule:evenodd;stroke:#657b83;stroke-width:0.99739248;stroke-linecap:round;stroke-linejoin:round;stroke-miterlimit:4;stroke-dasharray:none;stroke-dashoffset:0;stroke-opacity:1;marker-end:url(#marker11646)" />
  <g
     style="stroke-width:2.21811676"
     transform="matrix(-1.6994925,-0.25513962,0,1.6994925,186.73403,-78.225441)"
     id="g1016">
    <g
       style="stroke-width:1.23324978"
       transform="matrix(0.47587821,0,0,0.47587821,32.228041,53.153152)"
       id="g1006">
      <path
         style="fill:#89664c;stroke-width:1.23324978"
         inkscape:connector-curvature="0"
         d="M 32,64 0,44.8 V 19.2 l 32,19.2 z"
         id="path986" />
      <path
         style="fill:#fed0ac;stroke-width:1.23324978"
         inkscape:connector-curvature="0"
         d="M 32,38.4 V 64 L 64,44.8 V 19.2 Z"
         id="path988" />
      <path
         style="fill:#d3976e;stroke-width:1.23324978"
         inkscape:connector-curvature="0"
         d="M 0,19.2 32,38.4 64,19.2 32,0 Z"
         id="path990" />
      <path
         style="fill:#89664c;stroke-width:1.23324978"
         inkscape:connector-curvature="0"
         d="M 50.9,27 19,7.8 13,11.4 45,30.6 Z"
         id="path992" />
      <path
         style="fill:#d0d0d0;stroke-width:1.23324978"
         inkscape:connector-curvature="0"
         d="M 39.3,6.8 32.2,2.4 26.3,6 l 7.1,4.3 z"
         id="path994" />
      <path
         style="fill:#d3976e;stroke-width:1.23324978"
         inkscape:connector-curvature="0"
         d="m 50.8,27.1 -5.6,3.4 v 9.2 l 5.6,-3.4 z"
         id="path996" />
      <g
         style="fill:#ffffff;stroke-width:1.23324978"
         id="g1002">
        <path
           style="stroke-width:1.23324978"
           inkscape:connector-curvature="0"
           d="m 62.5,22.1 -5.7,3.4 v 9.2 l 5.7,-3.4 z"
           id="path998" />
        <path
           style="stroke-width:1.23324978"
           inkscape:connector-curvature="0"
           d="m 41.6,43.5 -7.7,4.6 V 60.7 L 41.6,56 Z"
           id="path1000" />
      </g>
      <path
         style="fill:#d3976e;stroke-width:1.23324978"
         inkscape:connector-curvature="0"
         d="m 45.2,56.1 5.6,-3.4 v -9.2 l -5.6,3.4 z"
         id="path1004" />
    </g>
    <g
       style="stroke-width:3.02480221"
       transform="matrix(0.19402154,0,0,0.19402154,59.377753,74.092439)"
       id="g1014">
      <path
         style="fill:#f2b200;stroke-width:3.02480221"
         inkscape:connector-curvature="0"
         d="M 29.1,12.9 H 19 L 12.9,19 V 29.1 L 43.8,64 64,43.8 29.1,12.9 m -6.4,9.8 c -0.9,0.9 -2.4,0.9 -3.4,0 -0.9,-0.9 -0.9,-2.4 0,-3.4 0.9,-0.9 2.4,-0.9 3.4,0 0.9,1 0.9,2.5 0,3.4"
         id="path1008" />
      <path
         style="fill:#94989b;stroke-width:3.02480221"
         inkscape:connector-curvature="0"
         d="M 21.9,20.8 C 21.6,19.5 21,18.2 20.3,17.1 18.6,14.3 16.2,12 13.4,10.3 9.6,8.1 5.3,7.1 0.9,6.7 0.4,6.7 0,7.2 0,7.6 c 0,0.5 0.4,0.9 0.9,0.9 4.7,0.4 9.5,1.7 13.4,4.5 1.1,0.8 2.4,2.1 3.3,3.3 0.2,0.2 -0.1,-0.2 0,0.1 0,0.1 0.1,0.1 0.1,0.2 0.1,0.1 0.2,0.3 0.3,0.4 0.2,0.3 0.4,0.5 0.5,0.8 0.3,0.5 0.5,0.9 0.8,1.4 0.1,0.1 0.1,0.3 0.2,0.4 0,0.1 0.1,0.1 0.1,0.2 0.1,0.2 0.2,0.5 0.2,0.7 0.1,0.2 0.1,0.4 0.2,0.6 0.3,1.4 2.2,0.9 1.9,-0.3"
         id="path1010" />
      <path
         style="fill:#3e4347;stroke-width:3.02480221"
         inkscape:connector-curvature="0"
         d="m 15.3,16.6 c 0,0 -0.1,-0.1 -0.1,-0.1 C 14.7,16.1 14.3,15.7 13.9,15.2 13,14.2 12.2,12.9 11.6,11.6 9.9,8.3 9,4.6 8.7,1 8.6,0.4 8.2,0 7.6,0 7.1,0 6.6,0.4 6.7,0.9 c 0.3,4 1.4,8 3.2,11.6 0.7,1.4 1.6,2.8 2.6,4 0.4,0.5 0.9,1 1.4,1.4 l 1.4,-1.3"
         id="path1012" />
    </g>
  </g>
  <g
     transform="matrix(3.7696726,0,0,3.7696726,-59.530978,2.7110013)"
     id="g1038">
    <g
       style="stroke-width:0.65493459"
       transform="matrix(0.50498047,0,0,-0.50498047,27.911613,17.263079)"
       id="g1020">
      <path
         inkscape:connector-curvature="0"
         id="path1018"
         style="fill:#ccd6dd;fill-opacity:1;fill-rule:nonzero;stroke:none;stroke-width:0.65493459"
         d="m 0,0 c 0,-1.104 -0.896,-2 -2,-2 h -20 c -1.104,0 -2,0.896 -2,2 v 13 c 0,1.104 0.896,2 2,2 h 20 c 1.104,0 2,-0.896 2,-2 z" />
    </g>
    <g
       style="fill:#dc322f;stroke-width:0.65493459"
       transform="matrix(0.50498047,0,0,-0.50498047,21.851847,16.253118)"
       id="g1024">
      <path
         inkscape:connector-curvature="0"
         id="path1022"
         style="fill:#dc322f;fill-opacity:1;fill-rule:nonzero;stroke:none;stroke-width:0.65493459"
         d="m 0,0 c 0,-0.552 -0.447,-1 -1,-1 h -8 c -0.552,0 -1,0.448 -1,1 v 10 c 0,0.552 0.448,1 1,1 h 8 c 0.553,0 1,-0.448 1,-1 z" />
    </g>
    <g
       style="stroke-width:0.65493459"
       transform="matrix(0.50498047,0,0,-0.50498047,26.901652,11.708294)"
       id="g1028">
      <path
         inkscape:connector-curvature="0"
         id="path1026"
         style="fill:#66757f;fill-opacity:1;fill-rule:nonzero;stroke:none;stroke-width:0.65493459"
         d="m 0,0 c 0,-0.552 -0.447,-1 -1,-1 h -6 c -0.553,0 -1,0.448 -1,1 0,0.552 0.447,1 1,1 h 6 C -0.447,1 0,0.552 0,0" />
    </g>
    <g
       style="stroke-width:0.65493459"
       transform="matrix(0.50498047,0,0,-0.50498047,26.901652,13.728215)"
       id="g1032">
      <path
         inkscape:connector-curvature="0"
         id="path1030"
         style="fill:#66757f;fill-opacity:1;fill-rule:nonzero;stroke:none;stroke-width:0.65493459"
         d="m 0,0 c 0,-0.552 -0.447,-1 -1,-1 h -6 c -0.553,0 -1,0.448 -1,1 0,0.552 0.447,1 1,1 h 6 C -0.447,1 0,0.552 0,0" />
    </g>
    <g
       style="stroke-width:0.65493459"
       transform="matrix(0.50498047,0,0,-0.50498047,26.901652,15.748137)"
       id="g1036">
      <path
         inkscape:connector-curvature="0"
         id="path1034"
         style="fill:#66757f;fill-opacity:1;fill-rule:nonzero;stroke:none;stroke-width:0.65493459"
         d="m 0,0 c 0,-0.552 -0.447,-1 -1,-1 h -6 c -0.553,0 -1,0.448 -1,1 0,0.552 0.447,1 1,1 h 6 C -0.447,1 0,0.552 0,0" />
    </g>
  </g>
  <path
     style="opacity:1;fill:#657b83;fill-opacity:1;fill-rule:evenodd;stroke:#657b83;stroke-width:0.99739248;stroke-linecap:round;stroke-linejoin:round;stroke-miterlimit:4;stroke-dasharray:none;stroke-dashoffset:0;stroke-opacity:1;marker-end:url(#marker4741-4)"
     d="m 23.876357,71.821039 51.263355,15.52106"
     id="path1040"
     inkscape:connector-curvature="0"
     sodipodi:nodetypes="cc" />
</svg>
