<?xml version="1.0" encoding="UTF-8" standalone="no"?>
<!-- Created with Inkscape (http://www.inkscape.org/) -->

<svg
   xmlns:dc="http://purl.org/dc/elements/1.1/"
   xmlns:cc="http://creativecommons.org/ns#"
   xmlns:rdf="http://www.w3.org/1999/02/22-rdf-syntax-ns#"
   xmlns:svg="http://www.w3.org/2000/svg"
   xmlns="http://www.w3.org/2000/svg"
   xmlns:sodipodi="http://sodipodi.sourceforge.net/DTD/sodipodi-0.dtd"
   xmlns:inkscape="http://www.inkscape.org/namespaces/inkscape"
   width="26.993931mm"
   height="11.274881mm"
   viewBox="0 0 26.993931 11.274881"
   version="1.1"
   id="svg8"
   inkscape:version="0.92.2 5c3e80d, 2017-08-06"
   sodipodi:docname="introduction-git.svg">
  <defs
     id="defs2" />
  <sodipodi:namedview
     id="base"
     pagecolor="#ffffff"
     bordercolor="#666666"
     borderopacity="1.0"
     inkscape:pageopacity="0.0"
     inkscape:pageshadow="2"
     inkscape:zoom="1"
     inkscape:cx="102.72454"
     inkscape:cy="-58.193134"
     inkscape:document-units="mm"
     inkscape:current-layer="svg8"
     showgrid="false"
     inkscape:window-width="1366"
     inkscape:window-height="719"
     inkscape:window-x="0"
     inkscape:window-y="1"
     inkscape:window-maximized="1" />
  <metadata
     id="metadata5">
    <rdf:RDF>
      <cc:Work
         rdf:about="">
        <dc:format>image/svg+xml</dc:format>
        <dc:type
           rdf:resource="http://purl.org/dc/dcmitype/StillImage" />
        <dc:title></dc:title>
      </cc:Work>
    </rdf:RDF>
  </metadata>
  <path
     d="m 16.177694,3.8375987 c -0.591865,0 -1.032674,0.2906306 -1.032674,0.9900651 0,0.5270015 0.290494,0.892825 1.00078,0.892825 0.602002,0 1.010918,-0.3547087 1.010918,-0.9145955 0,-0.6344874 -0.365897,-0.9682946 -0.979024,-0.9682946 z m -1.183358,4.9386222 c -0.140056,0.1718968 -0.279617,0.354523 -0.279617,0.5700694 0,0.4300032 0.548355,0.5594032 1.301657,0.5594032 0.624006,0 1.473977,-0.043695 1.473977,-0.6238562 0,-0.3448203 -0.408916,-0.3661668 -0.925622,-0.3985685 z m 3.184425,-4.9061224 c 0.193331,0.2475136 0.398036,0.5918399 0.398036,1.086692 0,1.1941254 -0.936006,1.8933216 -2.29119,1.8933216 -0.344634,0 -0.656636,-0.042931 -0.850093,-0.096627 l -0.355143,0.5700835 1.054181,0.064404 c 1.861383,0.1185937 2.958335,0.172489 2.958335,1.6027926 0,1.2374878 -1.086321,1.9364388 -2.958335,1.9364388 -1.947171,0 -2.689474,-0.49494 -2.689474,-1.3446865 0,-0.484319 0.215214,-0.7419312 0.591742,-1.0974704 C 13.681677,8.3349313 13.5635,8.0661166 13.5635,7.7755245 c 0,-0.2368439 0.118177,-0.4519558 0.312128,-0.6564996 0.19358,-0.204211 0.408667,-0.4088915 0.666896,-0.6455006 -0.527089,-0.2581449 -0.925251,-0.8175971 -0.925251,-1.6138442 0,-1.2370567 0.817709,-2.0866561 2.463384,-2.0866561 0.462689,0 0.742548,0.042584 0.990026,0.1075315 h 2.097978 V 3.794769 l -0.9899,0.07533"
     style="fill:#362701;fill-opacity:1;fill-rule:nonzero;stroke:none;stroke-width:0.01236141"
     id="path846"
     inkscape:connector-curvature="0" />
  <path
     d="m 21.061318,1.9152007 c -0.613374,0 -0.96827,-0.3553394 -0.96827,-0.96877467 C 20.093048,0.33375817 20.447944,0 21.061318,0 c 0.624004,0 0.979024,0.33375817 0.979024,0.94642603 0,0.61343527 -0.35502,0.96877467 -0.979024,0.96877467 z M 19.673254,8.3803714 V 7.5309052 l 0.548847,-0.075081 c 0.150686,-0.02183 0.172071,-0.053846 0.172071,-0.2156095 V 4.0773369 c 0,-0.1181136 -0.03214,-0.1937269 -0.140055,-0.2257432 L 19.673254,3.6470114 19.791553,2.7759148 h 2.227156 V 7.240215 c 0,0.1724435 0.01038,0.1937759 0.172194,0.2156095 l 0.548724,0.075081 v 0.8494662 h -3.066373"
     style="fill:#362701;fill-opacity:1;fill-rule:nonzero;stroke:none;stroke-width:0.01236141"
     id="path848"
     inkscape:connector-curvature="0" />
  <path
     d="m 26.993931,7.9633086 c -0.462812,0.2256451 -1.140464,0.4300908 -1.753961,0.4300908 -1.280148,0 -1.764098,-0.5158903 -1.764098,-1.7320945 V 3.8428547 c 0,-0.064418 0,-0.1076331 -0.08641,-0.1076331 h -0.75293 V 2.777793 c 0.947008,-0.1078643 1.32329,-0.5813209 1.441589,-1.7539106 h 1.022165 v 1.5281814 c 0,0.075032 0,0.1075315 0.08616,0.1075315 h 1.516744 v 1.0756263 h -1.602904 v 2.5710382 c 0,0.6348203 0.150809,0.8820501 0.731425,0.8820501 0.301618,0 0.613249,-0.075084 0.871479,-0.1719985 l 0.290741,0.9469972"
     style="fill:#362701;fill-opacity:1;fill-rule:nonzero;stroke:none;stroke-width:0.01236141"
     id="path850"
     inkscape:connector-curvature="0" />
  <path
     d="M 11.053702,5.140086 6.134625,0.22135613 c -0.2830514,-0.28330024 -0.7424989,-0.28330024 -1.0259463,0 L 4.0872666,1.2428523 5.3829526,2.5385874 C 5.6841619,2.4368901 6.0294168,2.5050884 6.2694003,2.745111 6.5106344,2.9866397 6.5783394,3.334838 6.4740804,3.63706 l 1.2488022,1.2487496 c 0.3021238,-0.1041081 0.650704,-0.036848 0.8919489,0.2048311 0.3372798,0.3371816 0.3372798,0.8835428 0,1.2208366 -0.3373322,0.3373813 -0.8836935,0.3373813 -1.2211729,0 C 7.1400515,6.0576739 7.0773294,5.6850491 7.2057799,5.3725779 l -1.164632,-1.1646671 -9.81e-5,3.0647514 c 0.082229,0.040706 0.1598325,0.095036 0.2283501,0.1632595 0.3371851,0.337143 0.3371851,0.8834061 0,1.2210853 -0.3372797,0.3371325 -0.8838897,0.3371325 -1.2208365,0 -0.3372307,-0.3376792 -0.3372307,-0.8839423 0,-1.2210853 0.08334,-0.083193 0.1797738,-0.1461633 0.2826695,-0.1883623 V 4.1543623 C 5.2283372,4.1122965 5.1320537,4.0497708 5.0485634,3.9659861 4.7931271,3.710746 4.7316035,3.3358507 4.8626119,3.0221775 L 3.5853816,1.744702 0.21254613,5.1173414 c -0.28339484,0.2835315 -0.28339484,0.7429824 0,1.0263282 L 5.1315702,11.062407 c 0.2831986,0.2833 0.7425024,0.2833 1.0260969,0 L 11.053701,6.1664668 c 0.283301,-0.2834474 0.283301,-0.743035 0,-1.0263808"
     style="fill:#f03c2e;fill-opacity:1;fill-rule:nonzero;stroke:none;stroke-width:0.01236141"
     id="path852"
     inkscape:connector-curvature="0" />
</svg>
