<?xml version="1.0" encoding="UTF-8" standalone="no"?>
<!-- Created with Inkscape (http://www.inkscape.org/) -->

<svg
   xmlns:dc="http://purl.org/dc/elements/1.1/"
   xmlns:cc="http://creativecommons.org/ns#"
   xmlns:rdf="http://www.w3.org/1999/02/22-rdf-syntax-ns#"
   xmlns:svg="http://www.w3.org/2000/svg"
   xmlns="http://www.w3.org/2000/svg"
   xmlns:sodipodi="http://sodipodi.sourceforge.net/DTD/sodipodi-0.dtd"
   xmlns:inkscape="http://www.inkscape.org/namespaces/inkscape"
   width="145.83334"
   height="175"
   viewBox="0 0 145.83334 175.00001"
   version="1.1"
   id="svg8"
   inkscape:version="0.92.2 5c3e80d, 2017-08-06"
   sodipodi:docname="introduction-overwriting.svg">
  <defs
     id="defs2">
    <clipPath
       clipPathUnits="userSpaceOnUse"
       id="clipPath16">
      <path
         d="M 0,36 H 36 V 0 H 0 Z"
         id="path18"
         inkscape:connector-curvature="0" />
    </clipPath>
  </defs>
  <sodipodi:namedview
     id="base"
     pagecolor="#ffffff"
     bordercolor="#666666"
     borderopacity="1.0"
     inkscape:pageopacity="0.0"
     inkscape:pageshadow="2"
     inkscape:zoom="1"
     inkscape:cx="-18.035714"
     inkscape:cy="18.21429"
     inkscape:document-units="px"
     inkscape:current-layer="svg8"
     showgrid="false"
     units="px"
     inkscape:window-width="1366"
     inkscape:window-height="719"
     inkscape:window-x="0"
     inkscape:window-y="1"
     inkscape:window-maximized="1" />
  <metadata
     id="metadata5">
    <rdf:RDF>
      <cc:Work
         rdf:about="">
        <dc:format>image/svg+xml</dc:format>
        <dc:type
           rdf:resource="http://purl.org/dc/dcmitype/StillImage" />
        <dc:title></dc:title>
      </cc:Work>
    </rdf:RDF>
  </metadata>
  <g
     id="g10"
     transform="matrix(4.8611111,0,0,-4.8611111,-14.583333,175)">
    <g
       id="g12">
      <g
         id="g14"
         clip-path="url(#clipPath16)">
        <g
           id="g20"
           transform="translate(32.415,26.4136)">
          <path
             d="m 0,0 v 0.001 l -9,8.998 c -0.361,0.363 -0.862,0.587 -1.415,0.587 -1.104,0 -1.999,-0.896 -2,-1.999 0,-0.552 0.224,-1.053 0.586,-1.415 l -3.859,-3.859 9,-9 3.859,3.859 c 0.362,-0.362 0.862,-0.586 1.414,-0.586 1.104,0 2.001,0.896 2,2 C 0.585,-0.861 0.361,-0.362 0,0"
             style="fill:#e1e8ed;fill-opacity:1;fill-rule:nonzero;stroke:none"
             id="path22"
             inkscape:connector-curvature="0" />
        </g>
        <g
           id="g24"
           transform="translate(22,36)">
          <path
             d="m 0,0 h -15 c -2.209,0 -4,-1.791 -4,-4 v -28 c 0,-2.209 1.791,-4 4,-4 H 7 c 2.209,0 4,1.791 4,4 v 21 H 2 c -1,0 -2,1 -2,2 z"
             style="fill:#ccd6dd;fill-opacity:1;fill-rule:nonzero;stroke:none"
             id="path26"
             inkscape:connector-curvature="0" />
        </g>
        <g
           id="g28"
           transform="translate(22,36)">
          <path
             d="m 0,0 h -2 v -9 c 0,-2.209 1.791,-4 4,-4 l 9,10e-4 V -11 H 2 c -1,0 -2,1 -2,2 z"
             style="fill:#99aab5;fill-opacity:1;fill-rule:nonzero;stroke:none"
             id="path30"
             inkscape:connector-curvature="0" />
        </g>
        <g
           id="g32"
           transform="translate(17,28)">
          <path
             d="m 0,0 c 0,-0.552 -0.448,-1 -1,-1 h -8 c -0.552,0 -1,0.448 -1,1 0,0.552 0.448,1 1,1 h 8 C -0.448,1 0,0.552 0,0"
             style="fill:#99aab5;fill-opacity:1;fill-rule:nonzero;stroke:none"
             id="path34"
             inkscape:connector-curvature="0" />
        </g>
        <g
           id="g36"
           transform="translate(17,24)">
          <path
             d="m 0,0 c 0,-0.552 -0.448,-1 -1,-1 h -8 c -0.552,0 -1,0.448 -1,1 0,0.552 0.448,1 1,1 h 8 C -0.448,1 0,0.552 0,0"
             style="fill:#99aab5;fill-opacity:1;fill-rule:nonzero;stroke:none"
             id="path38"
             inkscape:connector-curvature="0" />
        </g>
        <g
           id="g40"
           transform="translate(29,20)">
          <path
             d="m 0,0 c 0,-0.552 -0.447,-1 -1,-1 h -20 c -0.552,0 -1,0.448 -1,1 0,0.552 0.448,1 1,1 H -1 C -0.447,1 0,0.552 0,0"
             style="fill:#99aab5;fill-opacity:1;fill-rule:nonzero;stroke:none"
             id="path42"
             inkscape:connector-curvature="0" />
        </g>
        <g
           id="g44"
           transform="translate(29,16)" />
        <g
           id="g48"
           transform="translate(29,12)" />
        <g
           id="g52"
           transform="translate(29,8)">
          <path
             d="m 0,0 c 0,-0.553 -0.447,-1 -1,-1 h -20 c -0.552,0 -1,0.447 -1,1 0,0.553 0.448,1 1,1 H -1 C -0.447,1 0,0.553 0,0"
             style="fill:#99aab5;fill-opacity:1;fill-rule:nonzero;stroke:none"
             id="path54"
             inkscape:connector-curvature="0" />
        </g>
      </g>
    </g>
  </g>
  <text
     xml:space="preserve"
     style="font-style:normal;font-weight:normal;font-size:28.63636398px;line-height:1.25;font-family:sans-serif;letter-spacing:0px;word-spacing:0px;opacity:0.23999999;fill:#dc322f;fill-opacity:1;stroke:none;stroke-width:1.590909"
     x="21.875"
     y="117.38636"
     id="text1134"><tspan
       sodipodi:role="line"
       id="tspan1132"
       x="21.875"
       y="117.38636"
       style="stroke-width:1.590909">30</tspan></text>
  <text
     id="text1138"
     y="117.38636"
     x="19.418859"
     style="font-style:normal;font-weight:normal;font-size:28.63636398px;line-height:1.25;font-family:sans-serif;letter-spacing:0px;word-spacing:0px;fill:#859900;fill-opacity:1;stroke:none;stroke-width:1.590909"
     xml:space="preserve"><tspan
       y="117.38636"
       x="19.418859"
       id="tspan1136"
       sodipodi:role="line"
       style="fill:#859900;stroke-width:1.590909">25</tspan></text>
</svg>
