<?xml version="1.0" encoding="UTF-8" standalone="no"?>
<!-- Created with Inkscape (http://www.inkscape.org/) -->

<svg
   xmlns:dc="http://purl.org/dc/elements/1.1/"
   xmlns:cc="http://creativecommons.org/ns#"
   xmlns:rdf="http://www.w3.org/1999/02/22-rdf-syntax-ns#"
   xmlns:svg="http://www.w3.org/2000/svg"
   xmlns="http://www.w3.org/2000/svg"
   xmlns:sodipodi="http://sodipodi.sourceforge.net/DTD/sodipodi-0.dtd"
   xmlns:inkscape="http://www.inkscape.org/namespaces/inkscape"
   width="88.407318"
   height="99.230156"
   viewBox="0 0 88.407318 99.230156"
   version="1.1"
   id="svg6778"
   inkscape:version="0.92.2 5c3e80d, 2017-08-06"
   sodipodi:docname="working-directory.svg">
  <defs
     id="defs6772">
    <clipPath
       id="clipPath16-7"
       clipPathUnits="userSpaceOnUse">
      <path
         inkscape:connector-curvature="0"
         id="path18-9"
         d="M 0,36 H 36 V 0 H 0 Z" />
    </clipPath>
  </defs>
  <sodipodi:namedview
     id="base"
     pagecolor="#ffffff"
     bordercolor="#666666"
     borderopacity="1.0"
     inkscape:pageopacity="0.0"
     inkscape:pageshadow="2"
     inkscape:zoom="1"
     inkscape:cx="133.65157"
     inkscape:cy="-48.392982"
     inkscape:document-units="px"
     inkscape:current-layer="svg6778"
     showgrid="false"
     inkscape:window-width="1366"
     inkscape:window-height="719"
     inkscape:window-x="0"
     inkscape:window-y="1"
     inkscape:window-maximized="1"
     units="px"
     guidetolerance="20"
     inkscape:snap-global="false"
     fit-margin-top="0"
     fit-margin-left="0"
     fit-margin-right="0"
     fit-margin-bottom="0" />
  <metadata
     id="metadata6775">
    <rdf:RDF>
      <cc:Work
         rdf:about="">
        <dc:format>image/svg+xml</dc:format>
        <dc:type
           rdf:resource="http://purl.org/dc/dcmitype/StillImage" />
        <dc:title></dc:title>
      </cc:Work>
    </rdf:RDF>
  </metadata>
  <path
     id="path6562"
     d="M 68.114254,10.764692 37.241332,22.532383 c 0,0 -1.107551,-2.768849 -2.076658,-4.291736 -2.353541,-3.876441 -6.506848,-2.630442 -6.506848,-2.630442 L 5.1224135,24.05527 c 0,0 -3.184204,1.522888 -4.56863961,5.537735 -1.24599126,3.876441 0,8.721954 0,8.721954 L 14.121249,99.230153 68.114254,47.175358 c 0,0 1.799765,-23.258532 2.907317,-33.918669 0.276889,-3.8764403 -2.907317,-2.491997 -2.907317,-2.491997"
     inkscape:connector-curvature="0"
     style="fill:#962c2c;stroke-width:0.99930727" />
  <g
     transform="matrix(1.1406397,0.47735914,0.47735914,-1.1406397,29.078012,38.106191)"
     id="g10-3"
     style="stroke-width:1.01021814">
    <g
       id="g12-8"
       style="stroke-width:1.01021814">
      <g
         clip-path="url(#clipPath16-7)"
         id="g14-0"
         style="stroke-width:1.01021814">
        <g
           transform="translate(32.415,26.4136)"
           id="g20-2"
           style="stroke-width:1.01021814">
          <path
             inkscape:connector-curvature="0"
             id="path22-4"
             style="fill:#e1e8ed;fill-opacity:1;fill-rule:nonzero;stroke:none;stroke-width:1.01021814"
             d="m 0,0 v 0.001 l -9,8.998 c -0.361,0.363 -0.862,0.587 -1.415,0.587 -1.104,0 -1.999,-0.896 -2,-1.999 0,-0.552 0.224,-1.053 0.586,-1.415 l -3.859,-3.859 9,-9 3.859,3.859 c 0.362,-0.362 0.862,-0.586 1.414,-0.586 1.104,0 2.001,0.896 2,2 C 0.585,-0.861 0.361,-0.362 0,0" />
        </g>
        <g
           transform="translate(22,36)"
           id="g24-8"
           style="stroke-width:1.01021814">
          <path
             inkscape:connector-curvature="0"
             id="path26-3"
             style="fill:#ccd6dd;fill-opacity:1;fill-rule:nonzero;stroke:none;stroke-width:1.01021814"
             d="m 0,0 h -15 c -2.209,0 -4,-1.791 -4,-4 v -28 c 0,-2.209 1.791,-4 4,-4 H 7 c 2.209,0 4,1.791 4,4 v 21 H 2 c -1,0 -2,1 -2,2 z" />
        </g>
        <g
           transform="translate(22,36)"
           id="g28"
           style="stroke-width:1.01021814">
          <path
             inkscape:connector-curvature="0"
             id="path30"
             style="fill:#99aab5;fill-opacity:1;fill-rule:nonzero;stroke:none;stroke-width:1.01021814"
             d="m 0,0 h -2 v -9 c 0,-2.209 1.791,-4 4,-4 l 9,10e-4 V -11 H 2 c -1,0 -2,1 -2,2 z" />
        </g>
        <g
           transform="translate(17,28)"
           id="g32"
           style="stroke-width:1.01021814">
          <path
             inkscape:connector-curvature="0"
             id="path34"
             style="fill:#99aab5;fill-opacity:1;fill-rule:nonzero;stroke:none;stroke-width:1.01021814"
             d="m 0,0 c 0,-0.552 -0.448,-1 -1,-1 h -8 c -0.552,0 -1,0.448 -1,1 0,0.552 0.448,1 1,1 h 8 C -0.448,1 0,0.552 0,0" />
        </g>
        <g
           transform="translate(17,24)"
           id="g36"
           style="stroke-width:1.01021814">
          <path
             inkscape:connector-curvature="0"
             id="path38"
             style="fill:#99aab5;fill-opacity:1;fill-rule:nonzero;stroke:none;stroke-width:1.01021814"
             d="m 0,0 c 0,-0.552 -0.448,-1 -1,-1 h -8 c -0.552,0 -1,0.448 -1,1 0,0.552 0.448,1 1,1 h 8 C -0.448,1 0,0.552 0,0" />
        </g>
        <g
           transform="translate(29,20)"
           id="g40"
           style="stroke-width:1.01021814">
          <path
             inkscape:connector-curvature="0"
             id="path42"
             style="fill:#99aab5;fill-opacity:1;fill-rule:nonzero;stroke:none;stroke-width:1.01021814"
             d="m 0,0 c 0,-0.552 -0.447,-1 -1,-1 h -20 c -0.552,0 -1,0.448 -1,1 0,0.552 0.448,1 1,1 H -1 C -0.447,1 0,0.552 0,0" />
        </g>
        <g
           transform="translate(29,16)"
           id="g44"
           style="stroke-width:1.01021814">
          <path
             inkscape:connector-curvature="0"
             id="path46"
             style="fill:#99aab5;fill-opacity:1;fill-rule:nonzero;stroke:none;stroke-width:1.01021814"
             d="m 0,0 c 0,-0.553 -0.447,-1 -1,-1 h -20 c -0.552,0 -1,0.447 -1,1 0,0.553 0.448,1 1,1 H -1 C -0.447,1 0,0.553 0,0" />
        </g>
        <g
           transform="translate(29,12)"
           id="g48"
           style="stroke-width:1.01021814">
          <path
             inkscape:connector-curvature="0"
             id="path50"
             style="fill:#99aab5;fill-opacity:1;fill-rule:nonzero;stroke:none;stroke-width:1.01021814"
             d="m 0,0 c 0,-0.553 -0.447,-1 -1,-1 h -20 c -0.552,0 -1,0.447 -1,1 0,0.553 0.448,1 1,1 H -1 C -0.447,1 0,0.553 0,0" />
        </g>
        <g
           transform="translate(29,8)"
           id="g52"
           style="stroke-width:1.01021814">
          <path
             inkscape:connector-curvature="0"
             id="path54"
             style="fill:#99aab5;fill-opacity:1;fill-rule:nonzero;stroke:none;stroke-width:1.01021814"
             d="m 0,0 c 0,-0.553 -0.447,-1 -1,-1 h -20 c -0.552,0 -1,0.447 -1,1 0,0.553 0.448,1 1,1 H -1 C -0.447,1 0,0.553 0,0" />
        </g>
      </g>
    </g>
  </g>
  <g
     id="g6618"
     transform="matrix(1.1527307,-0.44737286,-0.44737286,-1.1527307,17.627939,71.439749)"
     style="stroke-width:1.01021814">
    <g
       id="g6616"
       style="stroke-width:1.01021814">
      <g
         id="g6614"
         clip-path="url(#clipPath16-7)"
         style="stroke-width:1.01021814">
        <g
           id="g6580"
           transform="translate(32.415,26.4136)"
           style="stroke-width:1.01021814">
          <path
             d="m 0,0 v 0.001 l -9,8.998 c -0.361,0.363 -0.862,0.587 -1.415,0.587 -1.104,0 -1.999,-0.896 -2,-1.999 0,-0.552 0.224,-1.053 0.586,-1.415 l -3.859,-3.859 9,-9 3.859,3.859 c 0.362,-0.362 0.862,-0.586 1.414,-0.586 1.104,0 2.001,0.896 2,2 C 0.585,-0.861 0.361,-0.362 0,0"
             style="fill:#e1e8ed;fill-opacity:1;fill-rule:nonzero;stroke:none;stroke-width:1.01021814"
             id="path6578"
             inkscape:connector-curvature="0" />
        </g>
        <g
           id="g6584"
           transform="translate(22,36)"
           style="stroke-width:1.01021814">
          <path
             d="m 0,0 h -15 c -2.209,0 -4,-1.791 -4,-4 v -28 c 0,-2.209 1.791,-4 4,-4 H 7 c 2.209,0 4,1.791 4,4 v 21 H 2 c -1,0 -2,1 -2,2 z"
             style="fill:#ccd6dd;fill-opacity:1;fill-rule:nonzero;stroke:none;stroke-width:1.01021814"
             id="path6582"
             inkscape:connector-curvature="0" />
        </g>
        <g
           id="g6588"
           transform="translate(22,36)"
           style="stroke-width:1.01021814">
          <path
             d="m 0,0 h -2 v -9 c 0,-2.209 1.791,-4 4,-4 l 9,10e-4 V -11 H 2 c -1,0 -2,1 -2,2 z"
             style="fill:#99aab5;fill-opacity:1;fill-rule:nonzero;stroke:none;stroke-width:1.01021814"
             id="path6586"
             inkscape:connector-curvature="0" />
        </g>
        <g
           id="g6592"
           transform="translate(17,28)"
           style="stroke-width:1.01021814">
          <path
             d="m 0,0 c 0,-0.552 -0.448,-1 -1,-1 h -8 c -0.552,0 -1,0.448 -1,1 0,0.552 0.448,1 1,1 h 8 C -0.448,1 0,0.552 0,0"
             style="fill:#99aab5;fill-opacity:1;fill-rule:nonzero;stroke:none;stroke-width:1.01021814"
             id="path6590"
             inkscape:connector-curvature="0" />
        </g>
        <g
           id="g6596"
           transform="translate(17,24)"
           style="stroke-width:1.01021814">
          <path
             d="m 0,0 c 0,-0.552 -0.448,-1 -1,-1 h -8 c -0.552,0 -1,0.448 -1,1 0,0.552 0.448,1 1,1 h 8 C -0.448,1 0,0.552 0,0"
             style="fill:#99aab5;fill-opacity:1;fill-rule:nonzero;stroke:none;stroke-width:1.01021814"
             id="path6594"
             inkscape:connector-curvature="0" />
        </g>
        <g
           id="g6600"
           transform="translate(29,20)"
           style="stroke-width:1.01021814">
          <path
             d="m 0,0 c 0,-0.552 -0.447,-1 -1,-1 h -20 c -0.552,0 -1,0.448 -1,1 0,0.552 0.448,1 1,1 H -1 C -0.447,1 0,0.552 0,0"
             style="fill:#99aab5;fill-opacity:1;fill-rule:nonzero;stroke:none;stroke-width:1.01021814"
             id="path6598"
             inkscape:connector-curvature="0" />
        </g>
        <g
           id="g6604"
           transform="translate(29,16)"
           style="stroke-width:1.01021814">
          <path
             d="m 0,0 c 0,-0.553 -0.447,-1 -1,-1 h -20 c -0.552,0 -1,0.447 -1,1 0,0.553 0.448,1 1,1 H -1 C -0.447,1 0,0.553 0,0"
             style="fill:#99aab5;fill-opacity:1;fill-rule:nonzero;stroke:none;stroke-width:1.01021814"
             id="path6602"
             inkscape:connector-curvature="0" />
        </g>
        <g
           id="g6608"
           transform="translate(29,12)"
           style="stroke-width:1.01021814">
          <path
             d="m 0,0 c 0,-0.553 -0.447,-1 -1,-1 h -20 c -0.552,0 -1,0.447 -1,1 0,0.553 0.448,1 1,1 H -1 C -0.447,1 0,0.553 0,0"
             style="fill:#99aab5;fill-opacity:1;fill-rule:nonzero;stroke:none;stroke-width:1.01021814"
             id="path6606"
             inkscape:connector-curvature="0" />
        </g>
        <g
           id="g6612"
           transform="translate(29,8)"
           style="stroke-width:1.01021814">
          <path
             d="m 0,0 c 0,-0.553 -0.447,-1 -1,-1 h -20 c -0.552,0 -1,0.447 -1,1 0,0.553 0.448,1 1,1 H -1 C -0.447,1 0,0.553 0,0"
             style="fill:#99aab5;fill-opacity:1;fill-rule:nonzero;stroke:none;stroke-width:1.01021814"
             id="path6610"
             inkscape:connector-curvature="0" />
        </g>
      </g>
    </g>
  </g>
  <path
     id="path6564"
     d="M 13.982805,99.09171 73.098222,52.851535 c 0,0 14.675022,-29.626931 15.2288,-31.842002 0.553774,-2.491997 -1.938212,-1.661332 -1.938212,-1.661332 L 54.962111,34.161667 c 0,0 -1.938211,8.30662 -5.676188,10.521694 -4.153309,2.353551 -23.535412,12.87528 -23.535412,12.87528 0,0 -2.768871,1.799738 -4.291752,4.707071 -1.661324,2.907329 -7.475954,36.825998 -7.475954,36.825998"
     inkscape:connector-curvature="0"
     style="fill:#ff8736;stroke-width:0.99930727" />
</svg>
