<?xml version="1.0" encoding="UTF-8" standalone="no"?>
<svg
   xmlns:dc="http://purl.org/dc/elements/1.1/"
   xmlns:cc="http://creativecommons.org/ns#"
   xmlns:rdf="http://www.w3.org/1999/02/22-rdf-syntax-ns#"
   xmlns:svg="http://www.w3.org/2000/svg"
   xmlns="http://www.w3.org/2000/svg"
   version="1.1"
   id="svg2"
   viewBox="0 0 175.9995 79.450014"
   height="22.42256mm"
   width="49.670971mm">
  <defs
     id="defs4">
    <marker
       style="overflow:visible"
       id="marker5648"
       refX="0"
       refY="0"
       orient="auto">
      <path
         transform="scale(0.8,0.8)"
         style="fill:#6c71c4;fill-opacity:1;fill-rule:evenodd;stroke:#6c71c4;stroke-width:1pt;stroke-opacity:1"
         d="m 5.77,0 -8.65,5 0,-10 8.65,5 z"
         id="path5650" />
    </marker>
    <marker
       style="overflow:visible"
       id="TriangleOutL"
       refX="0"
       refY="0"
       orient="auto">
      <path
         transform="scale(0.8,0.8)"
         style="fill-rule:evenodd;stroke:#000000;stroke-width:1pt"
         d="m 5.77,0 -8.65,5 0,-10 8.65,5 z"
         id="path4302" />
    </marker>
    <marker
       orient="auto"
       refY="0"
       refX="0"
       id="marker4974"
       style="overflow:visible">
      <path
         id="path4976"
         d="m 5.77,0 -8.65,5 0,-10 8.65,5 z"
         style="fill:#dc322f;fill-opacity:1;fill-rule:evenodd;stroke:#dc322f;stroke-width:1pt;stroke-opacity:1"
         transform="scale(0.8,0.8)" />
    </marker>
    <marker
       style="overflow:visible"
       id="EmptyTriangleInL"
       refX="0"
       refY="0"
       orient="auto">
      <path
         transform="matrix(-0.8,0,0,-0.8,4.8,0)"
         style="fill:#ffffff;fill-rule:evenodd;stroke:#000000;stroke-width:1pt;stroke-opacity:1"
         d="m 5.77,0 -8.65,5 0,-10 8.65,5 z"
         id="path4311" />
    </marker>
  </defs>
  <metadata
     id="metadata7">
    <rdf:RDF>
      <cc:Work
         rdf:about="">
        <dc:format>image/svg+xml</dc:format>
        <dc:type
           rdf:resource="http://purl.org/dc/dcmitype/StillImage" />
        <dc:title></dc:title>
      </cc:Work>
    </rdf:RDF>
  </metadata>
  <g
     transform="translate(-117.02838,-299.52924)"
     id="layer1">
    <text
       id="text4136"
       y="375.81125"
       x="113.28438"
       style="font-style:normal;font-variant:normal;font-weight:normal;font-stretch:normal;font-size:18px;line-height:1000%;font-family:'Source Code Pro';-inkscape-font-specification:'Source Code Pro';text-align:start;letter-spacing:0px;word-spacing:0px;writing-mode:lr-tb;text-anchor:start;fill:#000000;fill-opacity:1;stroke:none;stroke-width:1px;stroke-linecap:butt;stroke-linejoin:miter;stroke-opacity:1"
       xml:space="preserve"><tspan
         style="fill:#657b83"
         y="375.81125"
         x="113.28438"
         id="tspan4138">(<tspan
   id="tspan4144"
   style="fill:#859900">λ</tspan> (<tspan
   id="tspan4152"
   style="fill:#dc322f">x</tspan>) (<tspan
   id="tspan4146"
   style="fill:#859900">λ</tspan> (<tspan
   id="tspan4148"
   style="fill:#6c71c4">x</tspan>) <tspan
   id="tspan4150"
   style="fill:#6c71c4">x</tspan>))</tspan></text>
    <text
       id="text4960"
       y="346.39062"
       x="247.32269"
       style="font-style:normal;font-variant:normal;font-weight:normal;font-stretch:normal;font-size:18.75px;line-height:1000%;font-family:'Fira Sans';-inkscape-font-specification:'Fira Sans, Normal';text-align:start;letter-spacing:0px;word-spacing:0px;writing-mode:lr-tb;text-anchor:start;fill:#000000;fill-opacity:1;stroke:none;stroke-width:1px;stroke-linecap:butt;stroke-linejoin:miter;stroke-opacity:1"
       xml:space="preserve"><tspan
         style="font-style:normal;font-variant:normal;font-weight:600;font-stretch:normal;font-size:18.75px;line-height:1000%;font-family:'Source Sans Pro';-inkscape-font-specification:'Source Sans Pro, Semi-Bold';text-align:start;writing-mode:lr-tb;text-anchor:start;fill:#6c71c4"
         y="346.39062"
         x="247.32269"
         id="tspan4962">✓</tspan></text>
    <path
       id="path4964"
       d="M 268.40771,356.63777 C 279.03443,299.4221 165.00511,306.95304 164.45868,355.27924"
       style="fill:none;fill-rule:evenodd;stroke:#dc322f;stroke-width:1;stroke-linecap:butt;stroke-linejoin:miter;stroke-miterlimit:4;stroke-dasharray:1, 3;stroke-dashoffset:0;stroke-opacity:1;marker-end:url(#marker4974)" />
    <path
       style="fill:none;fill-rule:evenodd;stroke:#6c71c4;stroke-width:1px;stroke-linecap:butt;stroke-linejoin:miter;stroke-opacity:1;marker-end:url(#marker5648)"
       d="m 268.40771,356.63777 c -12.05325,-10.72172 -23.87405,-9.73041 -26.93146,0.47245"
       id="path5646" />
    <g
       transform="translate(-17.131126,1.181457)"
       id="text5970"
       style="font-style:normal;font-variant:normal;font-weight:normal;font-stretch:normal;font-size:18.75px;line-height:1000%;font-family:'Fira Sans';-inkscape-font-specification:'Fira Sans, Normal';text-align:start;letter-spacing:0px;word-spacing:0px;writing-mode:lr-tb;text-anchor:start;fill:#dc322f;fill-opacity:1;stroke:none;stroke-width:1px;stroke-linecap:butt;stroke-linejoin:miter;stroke-opacity:1">
      <path
         id="path5975"
         style="font-style:normal;font-variant:normal;font-weight:600;font-stretch:normal;font-size:18.75px;line-height:1000%;font-family:'Source Sans Pro';-inkscape-font-specification:'Source Sans Pro, Semi-Bold';text-align:start;writing-mode:lr-tb;text-anchor:start;fill:#dc322f"
         d="m 238.0331,298.34778 q 0.0916,0 0.23803,0.14648 0.15564,0.14649 0.32044,0.38452 0.2655,-0.46691 0.42114,-0.46691 0.13733,0 0.37537,0.24719 0.14648,0.15564 0.14648,0.3479 0,0.24719 -0.20141,0.45776 -1.9043,2.06909 -3.69874,4.55017 0.74158,1.81275 2.05079,4.00086 0.10986,0.1831 0.10986,0.29297 0,0.21057 -0.27466,0.43945 l -0.29297,0.20141 q 0.0366,0.10987 0.0366,0.29297 0,0.27466 -0.20141,0.42115 -0.23804,0.16479 -0.3479,0.16479 -0.23804,0 -0.42115,-0.23804 -1.09863,-1.40991 -2.2705,-3.3142 -1.57471,2.05078 -3.60718,5.47485 -0.29297,0.49438 -0.98877,0.49438 -0.32959,0 -0.36621,-0.38452 -0.46692,-0.25635 -0.46692,-0.81482 0,-0.73242 0.10071,-1.01623 0.0458,-0.12818 0.29297,-0.5127 1.86767,-2.91138 3.95507,-5.34668 -1.11694,-2.65503 -1.48315,-4.09241 -0.0824,-0.32043 -0.0824,-0.41198 0,-0.12818 0.1648,-0.36621 0.17395,-0.23804 0.32043,-0.23804 0.13733,0 0.3479,0.2655 0.0824,-0.15564 0.20142,-0.2655 0.16479,-0.14648 0.42114,-0.14648 0.29297,0 0.38452,0.27465 0.49439,1.53809 1.30005,2.92969 1.30005,-1.68457 3.16773,-3.55225 0.21972,-0.21972 0.3479,-0.21972 z" />
    </g>
  </g>
</svg>
