<?xml version="1.0" encoding="UTF-8" standalone="no"?>
<svg
   xmlns:dc="http://purl.org/dc/elements/1.1/"
   xmlns:cc="http://creativecommons.org/ns#"
   xmlns:rdf="http://www.w3.org/1999/02/22-rdf-syntax-ns#"
   xmlns:svg="http://www.w3.org/2000/svg"
   xmlns="http://www.w3.org/2000/svg"
   xmlns:sodipodi="http://sodipodi.sourceforge.net/DTD/sodipodi-0.dtd"
   xmlns:inkscape="http://www.inkscape.org/namespaces/inkscape"
   width="94"
   height="100"
   viewBox="0 0 94 100"
   id="svg2"
   version="1.1"
   sodipodi:docname="sad-face.svg"
   inkscape:version="0.92.2 5c3e80d, 2017-08-06">
  <sodipodi:namedview
     pagecolor="#ffffff"
     bordercolor="#666666"
     borderopacity="1"
     objecttolerance="10"
     gridtolerance="10"
     guidetolerance="10"
     inkscape:pageopacity="0"
     inkscape:pageshadow="2"
     inkscape:window-width="1440"
     inkscape:window-height="855"
     id="namedview7"
     showgrid="false"
     inkscape:zoom="1"
     inkscape:cx="1.968156"
     inkscape:cy="49.626684"
     inkscape:window-x="0"
     inkscape:window-y="0"
     inkscape:window-maximized="0"
     inkscape:current-layer="svg2" />
  <defs
     id="defs4" />
  <metadata
     id="metadata7">
    <rdf:RDF>
      <cc:Work
         rdf:about="">
        <dc:format>image/svg+xml</dc:format>
        <dc:type
           rdf:resource="http://purl.org/dc/dcmitype/StillImage" />
        <dc:title></dc:title>
      </cc:Work>
    </rdf:RDF>
  </metadata>
  <path
     inkscape:connector-curvature="0"
     d="m 70.137511,62.779988 c 0,-2.261633 -1.765615,-4.135557 -3.896529,-4.135557 H 27.2757 c -2.130914,0 -3.896529,1.873924 -3.896529,4.135557 0,2.261633 1.765615,4.135558 3.896529,4.135558 h 38.965282 c 2.130914,0 3.896529,-1.873925 3.896529,-4.135558 z M 38.965282,33.83109 c 0,-4.587883 -3.470347,-8.271115 -7.793059,-8.271115 -4.322711,0 -7.793052,3.683232 -7.793052,8.271115 0,4.587884 3.470341,8.271116 7.793052,8.271116 4.322712,0 7.793059,-3.683232 7.793059,-8.271116 z m 31.172229,0 c 0,-4.587883 -3.470348,-8.271115 -7.793059,-8.271115 -4.322711,0 -7.793052,3.683232 -7.793052,8.271115 0,4.587884 3.470341,8.271116 7.793052,8.271116 4.322711,0 7.793059,-3.683232 7.793059,-8.271116 z m 15.586112,16.542231 c 0,22.810176 -17.473491,41.355565 -38.965282,41.355565 -21.491791,0 -38.9652881,-18.545389 -38.9652881,-41.355565 0,-22.810181 17.4734971,-41.3555701 38.9652881,-41.3555701 21.491791,0 38.965282,18.5453891 38.965282,41.3555701 z m 7.793058,0 C 93.516681,22.975257 72.572843,0.74663544 46.758341,0.74663544 20.943839,0.74663544 0,22.975257 0,50.373321 0,77.77138 20.943839,100 46.758341,100 c 25.814502,0 46.75834,-22.22862 46.75834,-49.626679 z"
     style="font-style:normal;font-variant:normal;font-weight:normal;font-stretch:normal;font-size:18.75px;line-height:1000%;font-family:FontAwesome;-inkscape-font-specification:'FontAwesome, Normal';text-align:start;letter-spacing:0px;word-spacing:0px;writing-mode:lr-tb;text-anchor:start;fill:#657b83;fill-opacity:1;stroke:none;stroke-width:5.99463415px;stroke-linecap:butt;stroke-linejoin:miter;stroke-opacity:1"
     id="path5353" />
</svg>
